%TF.GenerationSoftware,KiCad,Pcbnew,9.0.0*%
%TF.CreationDate,2025-03-08T15:00:36-07:00*%
%TF.ProjectId,Senior Capstone,53656e69-6f72-4204-9361-7073746f6e65,rev?*%
%TF.SameCoordinates,Original*%
%TF.FileFunction,Soldermask,Top*%
%TF.FilePolarity,Negative*%
%FSLAX46Y46*%
G04 Gerber Fmt 4.6, Leading zero omitted, Abs format (unit mm)*
G04 Created by KiCad (PCBNEW 9.0.0) date 2025-03-08 15:00:36*
%MOMM*%
%LPD*%
G01*
G04 APERTURE LIST*
G04 Aperture macros list*
%AMRoundRect*
0 Rectangle with rounded corners*
0 $1 Rounding radius*
0 $2 $3 $4 $5 $6 $7 $8 $9 X,Y pos of 4 corners*
0 Add a 4 corners polygon primitive as box body*
4,1,4,$2,$3,$4,$5,$6,$7,$8,$9,$2,$3,0*
0 Add four circle primitives for the rounded corners*
1,1,$1+$1,$2,$3*
1,1,$1+$1,$4,$5*
1,1,$1+$1,$6,$7*
1,1,$1+$1,$8,$9*
0 Add four rect primitives between the rounded corners*
20,1,$1+$1,$2,$3,$4,$5,0*
20,1,$1+$1,$4,$5,$6,$7,0*
20,1,$1+$1,$6,$7,$8,$9,0*
20,1,$1+$1,$8,$9,$2,$3,0*%
G04 Aperture macros list end*
%ADD10C,3.098800*%
%ADD11C,1.498600*%
%ADD12C,2.700000*%
%ADD13RoundRect,0.250000X-0.250000X-0.475000X0.250000X-0.475000X0.250000X0.475000X-0.250000X0.475000X0*%
%ADD14RoundRect,0.250000X-0.350000X-0.450000X0.350000X-0.450000X0.350000X0.450000X-0.350000X0.450000X0*%
%ADD15RoundRect,0.100000X-0.637500X-0.100000X0.637500X-0.100000X0.637500X0.100000X-0.637500X0.100000X0*%
%ADD16RoundRect,0.250000X0.250000X0.475000X-0.250000X0.475000X-0.250000X-0.475000X0.250000X-0.475000X0*%
%ADD17RoundRect,0.102000X0.400000X-0.400000X0.400000X0.400000X-0.400000X0.400000X-0.400000X-0.400000X0*%
%ADD18RoundRect,0.102000X0.787500X-0.787500X0.787500X0.787500X-0.787500X0.787500X-0.787500X-0.787500X0*%
%ADD19C,1.779000*%
%ADD20C,4.320000*%
%ADD21R,1.700000X1.700000*%
%ADD22O,1.700000X1.700000*%
%ADD23RoundRect,0.250000X0.450000X-0.350000X0.450000X0.350000X-0.450000X0.350000X-0.450000X-0.350000X0*%
%ADD24RoundRect,0.102000X-0.787500X-0.787500X0.787500X-0.787500X0.787500X0.787500X-0.787500X0.787500X0*%
%ADD25RoundRect,0.102000X-0.400000X0.400000X-0.400000X-0.400000X0.400000X-0.400000X0.400000X0.400000X0*%
%ADD26RoundRect,0.102000X0.400000X0.400000X-0.400000X0.400000X-0.400000X-0.400000X0.400000X-0.400000X0*%
%ADD27RoundRect,0.100500X-0.301500X1.031500X-0.301500X-1.031500X0.301500X-1.031500X0.301500X1.031500X0*%
%ADD28RoundRect,0.250000X-0.450000X0.350000X-0.450000X-0.350000X0.450000X-0.350000X0.450000X0.350000X0*%
%ADD29RoundRect,0.250000X0.350000X0.450000X-0.350000X0.450000X-0.350000X-0.450000X0.350000X-0.450000X0*%
%ADD30RoundRect,0.250000X0.475000X-0.250000X0.475000X0.250000X-0.475000X0.250000X-0.475000X-0.250000X0*%
%ADD31RoundRect,0.250000X-0.475000X0.250000X-0.475000X-0.250000X0.475000X-0.250000X0.475000X0.250000X0*%
G04 APERTURE END LIST*
D10*
%TO.C,J6*%
X94045104Y-54705001D03*
X47245096Y-54705001D03*
D11*
X82525099Y-56850000D03*
X80365101Y-56850000D03*
X78205100Y-56850000D03*
X76045099Y-56850000D03*
X73885101Y-56850000D03*
X71725100Y-56850000D03*
X69565100Y-56850000D03*
X67405099Y-56850000D03*
X65245101Y-56850000D03*
X63085100Y-56850000D03*
X60925099Y-56850000D03*
X58765101Y-56850000D03*
X82525099Y-52560001D03*
X80365101Y-52560001D03*
X78205100Y-52560001D03*
X76045099Y-52560001D03*
X73885101Y-52560001D03*
X71725100Y-52560001D03*
X69565100Y-52560001D03*
X67405099Y-52560001D03*
X65245101Y-52560001D03*
X63085100Y-52560001D03*
X60925099Y-52560001D03*
X58765101Y-52560001D03*
%TD*%
D12*
%TO.C,H4*%
X94800000Y-64900000D03*
%TD*%
%TO.C,H2*%
X45800000Y-64800000D03*
%TD*%
D13*
%TO.C,C6*%
X59325000Y-110700000D03*
X61225000Y-110700000D03*
%TD*%
D14*
%TO.C,R5*%
X59400000Y-108600000D03*
X61400000Y-108600000D03*
%TD*%
%TO.C,R2*%
X67675000Y-112875000D03*
X69675000Y-112875000D03*
%TD*%
D13*
%TO.C,C1*%
X62800000Y-93125000D03*
X64700000Y-93125000D03*
%TD*%
D14*
%TO.C,R3*%
X59400000Y-104600000D03*
X61400000Y-104600000D03*
%TD*%
D15*
%TO.C,U2*%
X63800000Y-102525000D03*
X63800000Y-103175000D03*
X63800000Y-103825000D03*
X63800000Y-104475000D03*
X63800000Y-105125000D03*
X63800000Y-105775000D03*
X63800000Y-106425000D03*
X63800000Y-107075000D03*
X63800000Y-107725000D03*
X63800000Y-108375000D03*
X63800000Y-109025000D03*
X63800000Y-109675000D03*
X63800000Y-110325000D03*
X63800000Y-110975000D03*
X69525000Y-110975000D03*
X69525000Y-110325000D03*
X69525000Y-109675000D03*
X69525000Y-109025000D03*
X69525000Y-108375000D03*
X69525000Y-107725000D03*
X69525000Y-107075000D03*
X69525000Y-106425000D03*
X69525000Y-105775000D03*
X69525000Y-105125000D03*
X69525000Y-104475000D03*
X69525000Y-103825000D03*
X69525000Y-103175000D03*
X69525000Y-102525000D03*
%TD*%
D13*
%TO.C,C4*%
X66275000Y-91075000D03*
X68175000Y-91075000D03*
%TD*%
D16*
%TO.C,C3*%
X61375000Y-99000000D03*
X59475000Y-99000000D03*
%TD*%
D17*
%TO.C,D4*%
X74350000Y-120750000D03*
X74350000Y-119150000D03*
%TD*%
D18*
%TO.C,J2*%
X87760000Y-97015000D03*
D19*
X87760000Y-99785000D03*
X87760000Y-102555000D03*
X87760000Y-105325000D03*
X87760000Y-108095000D03*
X90600000Y-98400000D03*
X90600000Y-101170000D03*
X90600000Y-103940000D03*
X90600000Y-106710000D03*
D20*
X89180000Y-115050000D03*
X89180000Y-90060000D03*
%TD*%
D21*
%TO.C,J4*%
X94700000Y-70700000D03*
D22*
X94700000Y-73240000D03*
X94700000Y-75780000D03*
X94700000Y-78320000D03*
%TD*%
D23*
%TO.C,R4*%
X54250000Y-116400000D03*
X54250000Y-114400000D03*
%TD*%
D12*
%TO.C,H3*%
X94800000Y-122900000D03*
%TD*%
D24*
%TO.C,J3*%
X75285750Y-123702500D03*
D19*
X72515750Y-123702500D03*
X69745750Y-123702500D03*
X66975750Y-123702500D03*
X64205750Y-123702500D03*
X73900750Y-126542500D03*
X71130750Y-126542500D03*
X68360750Y-126542500D03*
X65590750Y-126542500D03*
D20*
X57250750Y-125122500D03*
X82240750Y-125122500D03*
%TD*%
D25*
%TO.C,D7*%
X87370000Y-75910000D03*
X87370000Y-77510000D03*
%TD*%
D15*
%TO.C,U1*%
X63800000Y-94975000D03*
X63800000Y-95625000D03*
X63800000Y-96275000D03*
X63800000Y-96925000D03*
X63800000Y-97575000D03*
X63800000Y-98225000D03*
X63800000Y-98875000D03*
X63800000Y-99525000D03*
X69525000Y-99525000D03*
X69525000Y-98875000D03*
X69525000Y-98225000D03*
X69525000Y-97575000D03*
X69525000Y-96925000D03*
X69525000Y-96275000D03*
X69525000Y-95625000D03*
X69525000Y-94975000D03*
%TD*%
D26*
%TO.C,D2*%
X83900000Y-98000000D03*
X82300000Y-98000000D03*
%TD*%
D27*
%TO.C,U3*%
X79465000Y-69360000D03*
X78195000Y-69360000D03*
X76925000Y-69360000D03*
X75655000Y-69360000D03*
X74385000Y-69360000D03*
X73115000Y-69360000D03*
X71845000Y-69360000D03*
X70575000Y-69360000D03*
X69305000Y-69360000D03*
X68035000Y-69360000D03*
X68035000Y-78640000D03*
X69305000Y-78640000D03*
X70575000Y-78640000D03*
X71845000Y-78640000D03*
X73115000Y-78640000D03*
X74385000Y-78640000D03*
X75655000Y-78640000D03*
X76925000Y-78640000D03*
X78195000Y-78640000D03*
X79465000Y-78640000D03*
%TD*%
D28*
%TO.C,R12*%
X89170000Y-75280000D03*
X89170000Y-77280000D03*
%TD*%
D27*
%TO.C,U4*%
X64465000Y-69360000D03*
X63195000Y-69360000D03*
X61925000Y-69360000D03*
X60655000Y-69360000D03*
X59385000Y-69360000D03*
X58115000Y-69360000D03*
X56845000Y-69360000D03*
X55575000Y-69360000D03*
X54305000Y-69360000D03*
X53035000Y-69360000D03*
X53035000Y-78640000D03*
X54305000Y-78640000D03*
X55575000Y-78640000D03*
X56845000Y-78640000D03*
X58115000Y-78640000D03*
X59385000Y-78640000D03*
X60655000Y-78640000D03*
X61925000Y-78640000D03*
X63195000Y-78640000D03*
X64465000Y-78640000D03*
%TD*%
D17*
%TO.C,D5*%
X67950000Y-120800000D03*
X67950000Y-119200000D03*
%TD*%
D14*
%TO.C,R6*%
X59400000Y-106600000D03*
X61400000Y-106600000D03*
%TD*%
D23*
%TO.C,R10*%
X69750000Y-121000000D03*
X69750000Y-119000000D03*
%TD*%
D12*
%TO.C,H1*%
X45800000Y-122800000D03*
%TD*%
D25*
%TO.C,D1*%
X54250000Y-109600000D03*
X54250000Y-111200000D03*
%TD*%
D29*
%TO.C,R7*%
X84000000Y-99800000D03*
X82000000Y-99800000D03*
%TD*%
D26*
%TO.C,D3*%
X83900000Y-104400000D03*
X82300000Y-104400000D03*
%TD*%
D21*
%TO.C,J1*%
X44500000Y-117900000D03*
D22*
X47040000Y-117900000D03*
X44500000Y-115360000D03*
X47040000Y-115360000D03*
X44500000Y-112820000D03*
X47040000Y-112820000D03*
X44500000Y-110280000D03*
X47040000Y-110280000D03*
X44500000Y-107740000D03*
X47040000Y-107740000D03*
X44500000Y-105200000D03*
X47040000Y-105200000D03*
X44500000Y-102660000D03*
X47040000Y-102660000D03*
X44500000Y-100120000D03*
X47040000Y-100120000D03*
X44500000Y-97580000D03*
X47040000Y-97580000D03*
X44500000Y-95040000D03*
X47040000Y-95040000D03*
X44500000Y-92500000D03*
X47040000Y-92500000D03*
X44500000Y-89960000D03*
X47040000Y-89960000D03*
X44500000Y-87420000D03*
X47040000Y-87420000D03*
X44500000Y-84880000D03*
X47040000Y-84880000D03*
X44500000Y-82340000D03*
X47040000Y-82340000D03*
X44500000Y-79800000D03*
X47040000Y-79800000D03*
X44500000Y-77260000D03*
X47040000Y-77260000D03*
X44500000Y-74720000D03*
X47040000Y-74720000D03*
X44500000Y-72180000D03*
X47040000Y-72180000D03*
X44500000Y-69640000D03*
X47040000Y-69640000D03*
%TD*%
D29*
%TO.C,R8*%
X84000000Y-102600000D03*
X82000000Y-102600000D03*
%TD*%
D17*
%TO.C,D6*%
X87370000Y-72880000D03*
X87370000Y-71280000D03*
%TD*%
D23*
%TO.C,R9*%
X72550000Y-120950000D03*
X72550000Y-118950000D03*
%TD*%
D30*
%TO.C,C2*%
X61125000Y-97150000D03*
X61125000Y-95250000D03*
%TD*%
D14*
%TO.C,R1*%
X59400000Y-102600000D03*
X61400000Y-102600000D03*
%TD*%
D31*
%TO.C,C5*%
X55575000Y-104500000D03*
X55575000Y-106400000D03*
%TD*%
D23*
%TO.C,R11*%
X89170000Y-73500000D03*
X89170000Y-71500000D03*
%TD*%
M02*
