%TF.GenerationSoftware,KiCad,Pcbnew,9.0.0*%
%TF.CreationDate,2025-03-08T15:00:36-07:00*%
%TF.ProjectId,Senior Capstone,53656e69-6f72-4204-9361-7073746f6e65,rev?*%
%TF.SameCoordinates,Original*%
%TF.FileFunction,Legend,Top*%
%TF.FilePolarity,Positive*%
%FSLAX46Y46*%
G04 Gerber Fmt 4.6, Leading zero omitted, Abs format (unit mm)*
G04 Created by KiCad (PCBNEW 9.0.0) date 2025-03-08 15:00:36*
%MOMM*%
%LPD*%
G01*
G04 APERTURE LIST*
%ADD10C,0.150000*%
%ADD11C,0.120000*%
%ADD12C,0.152400*%
%ADD13C,0.200000*%
%ADD14C,0.100000*%
%ADD15C,0.127000*%
G04 APERTURE END LIST*
D10*
X91090588Y-77797438D02*
X90995350Y-77749819D01*
X90995350Y-77749819D02*
X90852493Y-77749819D01*
X90852493Y-77749819D02*
X90709636Y-77797438D01*
X90709636Y-77797438D02*
X90614398Y-77892676D01*
X90614398Y-77892676D02*
X90566779Y-77987914D01*
X90566779Y-77987914D02*
X90519160Y-78178390D01*
X90519160Y-78178390D02*
X90519160Y-78321247D01*
X90519160Y-78321247D02*
X90566779Y-78511723D01*
X90566779Y-78511723D02*
X90614398Y-78606961D01*
X90614398Y-78606961D02*
X90709636Y-78702200D01*
X90709636Y-78702200D02*
X90852493Y-78749819D01*
X90852493Y-78749819D02*
X90947731Y-78749819D01*
X90947731Y-78749819D02*
X91090588Y-78702200D01*
X91090588Y-78702200D02*
X91138207Y-78654580D01*
X91138207Y-78654580D02*
X91138207Y-78321247D01*
X91138207Y-78321247D02*
X90947731Y-78321247D01*
X91566779Y-78749819D02*
X91566779Y-77749819D01*
X91566779Y-77749819D02*
X92138207Y-78749819D01*
X92138207Y-78749819D02*
X92138207Y-77749819D01*
X92614398Y-78749819D02*
X92614398Y-77749819D01*
X92614398Y-77749819D02*
X92852493Y-77749819D01*
X92852493Y-77749819D02*
X92995350Y-77797438D01*
X92995350Y-77797438D02*
X93090588Y-77892676D01*
X93090588Y-77892676D02*
X93138207Y-77987914D01*
X93138207Y-77987914D02*
X93185826Y-78178390D01*
X93185826Y-78178390D02*
X93185826Y-78321247D01*
X93185826Y-78321247D02*
X93138207Y-78511723D01*
X93138207Y-78511723D02*
X93090588Y-78606961D01*
X93090588Y-78606961D02*
X92995350Y-78702200D01*
X92995350Y-78702200D02*
X92852493Y-78749819D01*
X92852493Y-78749819D02*
X92614398Y-78749819D01*
X66719819Y-120591792D02*
X66243628Y-120925125D01*
X66719819Y-121163220D02*
X65719819Y-121163220D01*
X65719819Y-121163220D02*
X65719819Y-120782268D01*
X65719819Y-120782268D02*
X65767438Y-120687030D01*
X65767438Y-120687030D02*
X65815057Y-120639411D01*
X65815057Y-120639411D02*
X65910295Y-120591792D01*
X65910295Y-120591792D02*
X66053152Y-120591792D01*
X66053152Y-120591792D02*
X66148390Y-120639411D01*
X66148390Y-120639411D02*
X66196009Y-120687030D01*
X66196009Y-120687030D02*
X66243628Y-120782268D01*
X66243628Y-120782268D02*
X66243628Y-121163220D01*
X65719819Y-120258458D02*
X66719819Y-119591792D01*
X65719819Y-119591792D02*
X66719819Y-120258458D01*
X65815057Y-119258458D02*
X65767438Y-119210839D01*
X65767438Y-119210839D02*
X65719819Y-119115601D01*
X65719819Y-119115601D02*
X65719819Y-118877506D01*
X65719819Y-118877506D02*
X65767438Y-118782268D01*
X65767438Y-118782268D02*
X65815057Y-118734649D01*
X65815057Y-118734649D02*
X65910295Y-118687030D01*
X65910295Y-118687030D02*
X66005533Y-118687030D01*
X66005533Y-118687030D02*
X66148390Y-118734649D01*
X66148390Y-118734649D02*
X66719819Y-119306077D01*
X66719819Y-119306077D02*
X66719819Y-118687030D01*
X86449819Y-77321792D02*
X85973628Y-77655125D01*
X86449819Y-77893220D02*
X85449819Y-77893220D01*
X85449819Y-77893220D02*
X85449819Y-77512268D01*
X85449819Y-77512268D02*
X85497438Y-77417030D01*
X85497438Y-77417030D02*
X85545057Y-77369411D01*
X85545057Y-77369411D02*
X85640295Y-77321792D01*
X85640295Y-77321792D02*
X85783152Y-77321792D01*
X85783152Y-77321792D02*
X85878390Y-77369411D01*
X85878390Y-77369411D02*
X85926009Y-77417030D01*
X85926009Y-77417030D02*
X85973628Y-77512268D01*
X85973628Y-77512268D02*
X85973628Y-77893220D01*
X85449819Y-76988458D02*
X86449819Y-76321792D01*
X85449819Y-76321792D02*
X86449819Y-76988458D01*
X85449819Y-76036077D02*
X85449819Y-75417030D01*
X85449819Y-75417030D02*
X85830771Y-75750363D01*
X85830771Y-75750363D02*
X85830771Y-75607506D01*
X85830771Y-75607506D02*
X85878390Y-75512268D01*
X85878390Y-75512268D02*
X85926009Y-75464649D01*
X85926009Y-75464649D02*
X86021247Y-75417030D01*
X86021247Y-75417030D02*
X86259342Y-75417030D01*
X86259342Y-75417030D02*
X86354580Y-75464649D01*
X86354580Y-75464649D02*
X86402200Y-75512268D01*
X86402200Y-75512268D02*
X86449819Y-75607506D01*
X86449819Y-75607506D02*
X86449819Y-75893220D01*
X86449819Y-75893220D02*
X86402200Y-75988458D01*
X86402200Y-75988458D02*
X86354580Y-76036077D01*
X75569819Y-121306077D02*
X75569819Y-120734649D01*
X76569819Y-121020363D02*
X75569819Y-121020363D01*
X75569819Y-120496553D02*
X76569819Y-119829887D01*
X75569819Y-119829887D02*
X76569819Y-120496553D01*
X75665057Y-119496553D02*
X75617438Y-119448934D01*
X75617438Y-119448934D02*
X75569819Y-119353696D01*
X75569819Y-119353696D02*
X75569819Y-119115601D01*
X75569819Y-119115601D02*
X75617438Y-119020363D01*
X75617438Y-119020363D02*
X75665057Y-118972744D01*
X75665057Y-118972744D02*
X75760295Y-118925125D01*
X75760295Y-118925125D02*
X75855533Y-118925125D01*
X75855533Y-118925125D02*
X75998390Y-118972744D01*
X75998390Y-118972744D02*
X76569819Y-119544172D01*
X76569819Y-119544172D02*
X76569819Y-118925125D01*
X82358207Y-106419819D02*
X82024874Y-105943628D01*
X81786779Y-106419819D02*
X81786779Y-105419819D01*
X81786779Y-105419819D02*
X82167731Y-105419819D01*
X82167731Y-105419819D02*
X82262969Y-105467438D01*
X82262969Y-105467438D02*
X82310588Y-105515057D01*
X82310588Y-105515057D02*
X82358207Y-105610295D01*
X82358207Y-105610295D02*
X82358207Y-105753152D01*
X82358207Y-105753152D02*
X82310588Y-105848390D01*
X82310588Y-105848390D02*
X82262969Y-105896009D01*
X82262969Y-105896009D02*
X82167731Y-105943628D01*
X82167731Y-105943628D02*
X81786779Y-105943628D01*
X82691541Y-105419819D02*
X83358207Y-106419819D01*
X83358207Y-105419819D02*
X82691541Y-106419819D01*
X84262969Y-106419819D02*
X83691541Y-106419819D01*
X83977255Y-106419819D02*
X83977255Y-105419819D01*
X83977255Y-105419819D02*
X83882017Y-105562676D01*
X83882017Y-105562676D02*
X83786779Y-105657914D01*
X83786779Y-105657914D02*
X83691541Y-105705533D01*
X90471541Y-70129819D02*
X91090588Y-70129819D01*
X91090588Y-70129819D02*
X90757255Y-70510771D01*
X90757255Y-70510771D02*
X90900112Y-70510771D01*
X90900112Y-70510771D02*
X90995350Y-70558390D01*
X90995350Y-70558390D02*
X91042969Y-70606009D01*
X91042969Y-70606009D02*
X91090588Y-70701247D01*
X91090588Y-70701247D02*
X91090588Y-70939342D01*
X91090588Y-70939342D02*
X91042969Y-71034580D01*
X91042969Y-71034580D02*
X90995350Y-71082200D01*
X90995350Y-71082200D02*
X90900112Y-71129819D01*
X90900112Y-71129819D02*
X90614398Y-71129819D01*
X90614398Y-71129819D02*
X90519160Y-71082200D01*
X90519160Y-71082200D02*
X90471541Y-71034580D01*
X91423922Y-70463152D02*
X91662017Y-71129819D01*
X91662017Y-71129819D02*
X91900112Y-70463152D01*
X92185827Y-70129819D02*
X92804874Y-70129819D01*
X92804874Y-70129819D02*
X92471541Y-70510771D01*
X92471541Y-70510771D02*
X92614398Y-70510771D01*
X92614398Y-70510771D02*
X92709636Y-70558390D01*
X92709636Y-70558390D02*
X92757255Y-70606009D01*
X92757255Y-70606009D02*
X92804874Y-70701247D01*
X92804874Y-70701247D02*
X92804874Y-70939342D01*
X92804874Y-70939342D02*
X92757255Y-71034580D01*
X92757255Y-71034580D02*
X92709636Y-71082200D01*
X92709636Y-71082200D02*
X92614398Y-71129819D01*
X92614398Y-71129819D02*
X92328684Y-71129819D01*
X92328684Y-71129819D02*
X92233446Y-71082200D01*
X92233446Y-71082200D02*
X92185827Y-71034580D01*
X91138207Y-76209819D02*
X90804874Y-75733628D01*
X90566779Y-76209819D02*
X90566779Y-75209819D01*
X90566779Y-75209819D02*
X90947731Y-75209819D01*
X90947731Y-75209819D02*
X91042969Y-75257438D01*
X91042969Y-75257438D02*
X91090588Y-75305057D01*
X91090588Y-75305057D02*
X91138207Y-75400295D01*
X91138207Y-75400295D02*
X91138207Y-75543152D01*
X91138207Y-75543152D02*
X91090588Y-75638390D01*
X91090588Y-75638390D02*
X91042969Y-75686009D01*
X91042969Y-75686009D02*
X90947731Y-75733628D01*
X90947731Y-75733628D02*
X90566779Y-75733628D01*
X91471541Y-75209819D02*
X92138207Y-76209819D01*
X92138207Y-75209819D02*
X91471541Y-76209819D01*
X92423922Y-75209819D02*
X93042969Y-75209819D01*
X93042969Y-75209819D02*
X92709636Y-75590771D01*
X92709636Y-75590771D02*
X92852493Y-75590771D01*
X92852493Y-75590771D02*
X92947731Y-75638390D01*
X92947731Y-75638390D02*
X92995350Y-75686009D01*
X92995350Y-75686009D02*
X93042969Y-75781247D01*
X93042969Y-75781247D02*
X93042969Y-76019342D01*
X93042969Y-76019342D02*
X92995350Y-76114580D01*
X92995350Y-76114580D02*
X92947731Y-76162200D01*
X92947731Y-76162200D02*
X92852493Y-76209819D01*
X92852493Y-76209819D02*
X92566779Y-76209819D01*
X92566779Y-76209819D02*
X92471541Y-76162200D01*
X92471541Y-76162200D02*
X92423922Y-76114580D01*
X90423922Y-72736275D02*
X90995350Y-72736275D01*
X90709636Y-73736275D02*
X90709636Y-72736275D01*
X91233446Y-72736275D02*
X91900112Y-73736275D01*
X91900112Y-72736275D02*
X91233446Y-73736275D01*
X92185827Y-72736275D02*
X92804874Y-72736275D01*
X92804874Y-72736275D02*
X92471541Y-73117227D01*
X92471541Y-73117227D02*
X92614398Y-73117227D01*
X92614398Y-73117227D02*
X92709636Y-73164846D01*
X92709636Y-73164846D02*
X92757255Y-73212465D01*
X92757255Y-73212465D02*
X92804874Y-73307703D01*
X92804874Y-73307703D02*
X92804874Y-73545798D01*
X92804874Y-73545798D02*
X92757255Y-73641036D01*
X92757255Y-73641036D02*
X92709636Y-73688656D01*
X92709636Y-73688656D02*
X92614398Y-73736275D01*
X92614398Y-73736275D02*
X92328684Y-73736275D01*
X92328684Y-73736275D02*
X92233446Y-73688656D01*
X92233446Y-73688656D02*
X92185827Y-73641036D01*
X81743922Y-95719819D02*
X82315350Y-95719819D01*
X82029636Y-96719819D02*
X82029636Y-95719819D01*
X82553446Y-95719819D02*
X83220112Y-96719819D01*
X83220112Y-95719819D02*
X82553446Y-96719819D01*
X84124874Y-96719819D02*
X83553446Y-96719819D01*
X83839160Y-96719819D02*
X83839160Y-95719819D01*
X83839160Y-95719819D02*
X83743922Y-95862676D01*
X83743922Y-95862676D02*
X83648684Y-95957914D01*
X83648684Y-95957914D02*
X83553446Y-96005533D01*
X85469819Y-73326077D02*
X85469819Y-72754649D01*
X86469819Y-73040363D02*
X85469819Y-73040363D01*
X85469819Y-72516553D02*
X86469819Y-71849887D01*
X85469819Y-71849887D02*
X86469819Y-72516553D01*
X85469819Y-71564172D02*
X85469819Y-70945125D01*
X85469819Y-70945125D02*
X85850771Y-71278458D01*
X85850771Y-71278458D02*
X85850771Y-71135601D01*
X85850771Y-71135601D02*
X85898390Y-71040363D01*
X85898390Y-71040363D02*
X85946009Y-70992744D01*
X85946009Y-70992744D02*
X86041247Y-70945125D01*
X86041247Y-70945125D02*
X86279342Y-70945125D01*
X86279342Y-70945125D02*
X86374580Y-70992744D01*
X86374580Y-70992744D02*
X86422200Y-71040363D01*
X86422200Y-71040363D02*
X86469819Y-71135601D01*
X86469819Y-71135601D02*
X86469819Y-71421315D01*
X86469819Y-71421315D02*
X86422200Y-71516553D01*
X86422200Y-71516553D02*
X86374580Y-71564172D01*
X70978433Y-55250181D02*
X70978433Y-54535896D01*
X70978433Y-54535896D02*
X71026052Y-54393039D01*
X71026052Y-54393039D02*
X71121290Y-54297801D01*
X71121290Y-54297801D02*
X71264147Y-54250181D01*
X71264147Y-54250181D02*
X71359385Y-54250181D01*
X70073671Y-55250181D02*
X70264147Y-55250181D01*
X70264147Y-55250181D02*
X70359385Y-55202562D01*
X70359385Y-55202562D02*
X70407004Y-55154943D01*
X70407004Y-55154943D02*
X70502242Y-55012086D01*
X70502242Y-55012086D02*
X70549861Y-54821610D01*
X70549861Y-54821610D02*
X70549861Y-54440658D01*
X70549861Y-54440658D02*
X70502242Y-54345420D01*
X70502242Y-54345420D02*
X70454623Y-54297801D01*
X70454623Y-54297801D02*
X70359385Y-54250181D01*
X70359385Y-54250181D02*
X70168909Y-54250181D01*
X70168909Y-54250181D02*
X70073671Y-54297801D01*
X70073671Y-54297801D02*
X70026052Y-54345420D01*
X70026052Y-54345420D02*
X69978433Y-54440658D01*
X69978433Y-54440658D02*
X69978433Y-54678753D01*
X69978433Y-54678753D02*
X70026052Y-54773991D01*
X70026052Y-54773991D02*
X70073671Y-54821610D01*
X70073671Y-54821610D02*
X70168909Y-54869229D01*
X70168909Y-54869229D02*
X70359385Y-54869229D01*
X70359385Y-54869229D02*
X70454623Y-54821610D01*
X70454623Y-54821610D02*
X70502242Y-54773991D01*
X70502242Y-54773991D02*
X70549861Y-54678753D01*
X57358333Y-111084580D02*
X57310714Y-111132200D01*
X57310714Y-111132200D02*
X57167857Y-111179819D01*
X57167857Y-111179819D02*
X57072619Y-111179819D01*
X57072619Y-111179819D02*
X56929762Y-111132200D01*
X56929762Y-111132200D02*
X56834524Y-111036961D01*
X56834524Y-111036961D02*
X56786905Y-110941723D01*
X56786905Y-110941723D02*
X56739286Y-110751247D01*
X56739286Y-110751247D02*
X56739286Y-110608390D01*
X56739286Y-110608390D02*
X56786905Y-110417914D01*
X56786905Y-110417914D02*
X56834524Y-110322676D01*
X56834524Y-110322676D02*
X56929762Y-110227438D01*
X56929762Y-110227438D02*
X57072619Y-110179819D01*
X57072619Y-110179819D02*
X57167857Y-110179819D01*
X57167857Y-110179819D02*
X57310714Y-110227438D01*
X57310714Y-110227438D02*
X57358333Y-110275057D01*
X58215476Y-110179819D02*
X58025000Y-110179819D01*
X58025000Y-110179819D02*
X57929762Y-110227438D01*
X57929762Y-110227438D02*
X57882143Y-110275057D01*
X57882143Y-110275057D02*
X57786905Y-110417914D01*
X57786905Y-110417914D02*
X57739286Y-110608390D01*
X57739286Y-110608390D02*
X57739286Y-110989342D01*
X57739286Y-110989342D02*
X57786905Y-111084580D01*
X57786905Y-111084580D02*
X57834524Y-111132200D01*
X57834524Y-111132200D02*
X57929762Y-111179819D01*
X57929762Y-111179819D02*
X58120238Y-111179819D01*
X58120238Y-111179819D02*
X58215476Y-111132200D01*
X58215476Y-111132200D02*
X58263095Y-111084580D01*
X58263095Y-111084580D02*
X58310714Y-110989342D01*
X58310714Y-110989342D02*
X58310714Y-110751247D01*
X58310714Y-110751247D02*
X58263095Y-110656009D01*
X58263095Y-110656009D02*
X58215476Y-110608390D01*
X58215476Y-110608390D02*
X58120238Y-110560771D01*
X58120238Y-110560771D02*
X57929762Y-110560771D01*
X57929762Y-110560771D02*
X57834524Y-110608390D01*
X57834524Y-110608390D02*
X57786905Y-110656009D01*
X57786905Y-110656009D02*
X57739286Y-110751247D01*
X57483333Y-109054819D02*
X57150000Y-108578628D01*
X56911905Y-109054819D02*
X56911905Y-108054819D01*
X56911905Y-108054819D02*
X57292857Y-108054819D01*
X57292857Y-108054819D02*
X57388095Y-108102438D01*
X57388095Y-108102438D02*
X57435714Y-108150057D01*
X57435714Y-108150057D02*
X57483333Y-108245295D01*
X57483333Y-108245295D02*
X57483333Y-108388152D01*
X57483333Y-108388152D02*
X57435714Y-108483390D01*
X57435714Y-108483390D02*
X57388095Y-108531009D01*
X57388095Y-108531009D02*
X57292857Y-108578628D01*
X57292857Y-108578628D02*
X56911905Y-108578628D01*
X58388095Y-108054819D02*
X57911905Y-108054819D01*
X57911905Y-108054819D02*
X57864286Y-108531009D01*
X57864286Y-108531009D02*
X57911905Y-108483390D01*
X57911905Y-108483390D02*
X58007143Y-108435771D01*
X58007143Y-108435771D02*
X58245238Y-108435771D01*
X58245238Y-108435771D02*
X58340476Y-108483390D01*
X58340476Y-108483390D02*
X58388095Y-108531009D01*
X58388095Y-108531009D02*
X58435714Y-108626247D01*
X58435714Y-108626247D02*
X58435714Y-108864342D01*
X58435714Y-108864342D02*
X58388095Y-108959580D01*
X58388095Y-108959580D02*
X58340476Y-109007200D01*
X58340476Y-109007200D02*
X58245238Y-109054819D01*
X58245238Y-109054819D02*
X58007143Y-109054819D01*
X58007143Y-109054819D02*
X57911905Y-109007200D01*
X57911905Y-109007200D02*
X57864286Y-108959580D01*
X65758333Y-113329819D02*
X65425000Y-112853628D01*
X65186905Y-113329819D02*
X65186905Y-112329819D01*
X65186905Y-112329819D02*
X65567857Y-112329819D01*
X65567857Y-112329819D02*
X65663095Y-112377438D01*
X65663095Y-112377438D02*
X65710714Y-112425057D01*
X65710714Y-112425057D02*
X65758333Y-112520295D01*
X65758333Y-112520295D02*
X65758333Y-112663152D01*
X65758333Y-112663152D02*
X65710714Y-112758390D01*
X65710714Y-112758390D02*
X65663095Y-112806009D01*
X65663095Y-112806009D02*
X65567857Y-112853628D01*
X65567857Y-112853628D02*
X65186905Y-112853628D01*
X66139286Y-112425057D02*
X66186905Y-112377438D01*
X66186905Y-112377438D02*
X66282143Y-112329819D01*
X66282143Y-112329819D02*
X66520238Y-112329819D01*
X66520238Y-112329819D02*
X66615476Y-112377438D01*
X66615476Y-112377438D02*
X66663095Y-112425057D01*
X66663095Y-112425057D02*
X66710714Y-112520295D01*
X66710714Y-112520295D02*
X66710714Y-112615533D01*
X66710714Y-112615533D02*
X66663095Y-112758390D01*
X66663095Y-112758390D02*
X66091667Y-113329819D01*
X66091667Y-113329819D02*
X66710714Y-113329819D01*
X63583333Y-91804580D02*
X63535714Y-91852200D01*
X63535714Y-91852200D02*
X63392857Y-91899819D01*
X63392857Y-91899819D02*
X63297619Y-91899819D01*
X63297619Y-91899819D02*
X63154762Y-91852200D01*
X63154762Y-91852200D02*
X63059524Y-91756961D01*
X63059524Y-91756961D02*
X63011905Y-91661723D01*
X63011905Y-91661723D02*
X62964286Y-91471247D01*
X62964286Y-91471247D02*
X62964286Y-91328390D01*
X62964286Y-91328390D02*
X63011905Y-91137914D01*
X63011905Y-91137914D02*
X63059524Y-91042676D01*
X63059524Y-91042676D02*
X63154762Y-90947438D01*
X63154762Y-90947438D02*
X63297619Y-90899819D01*
X63297619Y-90899819D02*
X63392857Y-90899819D01*
X63392857Y-90899819D02*
X63535714Y-90947438D01*
X63535714Y-90947438D02*
X63583333Y-90995057D01*
X64535714Y-91899819D02*
X63964286Y-91899819D01*
X64250000Y-91899819D02*
X64250000Y-90899819D01*
X64250000Y-90899819D02*
X64154762Y-91042676D01*
X64154762Y-91042676D02*
X64059524Y-91137914D01*
X64059524Y-91137914D02*
X63964286Y-91185533D01*
X57433333Y-105104819D02*
X57100000Y-104628628D01*
X56861905Y-105104819D02*
X56861905Y-104104819D01*
X56861905Y-104104819D02*
X57242857Y-104104819D01*
X57242857Y-104104819D02*
X57338095Y-104152438D01*
X57338095Y-104152438D02*
X57385714Y-104200057D01*
X57385714Y-104200057D02*
X57433333Y-104295295D01*
X57433333Y-104295295D02*
X57433333Y-104438152D01*
X57433333Y-104438152D02*
X57385714Y-104533390D01*
X57385714Y-104533390D02*
X57338095Y-104581009D01*
X57338095Y-104581009D02*
X57242857Y-104628628D01*
X57242857Y-104628628D02*
X56861905Y-104628628D01*
X57766667Y-104104819D02*
X58385714Y-104104819D01*
X58385714Y-104104819D02*
X58052381Y-104485771D01*
X58052381Y-104485771D02*
X58195238Y-104485771D01*
X58195238Y-104485771D02*
X58290476Y-104533390D01*
X58290476Y-104533390D02*
X58338095Y-104581009D01*
X58338095Y-104581009D02*
X58385714Y-104676247D01*
X58385714Y-104676247D02*
X58385714Y-104914342D01*
X58385714Y-104914342D02*
X58338095Y-105009580D01*
X58338095Y-105009580D02*
X58290476Y-105057200D01*
X58290476Y-105057200D02*
X58195238Y-105104819D01*
X58195238Y-105104819D02*
X57909524Y-105104819D01*
X57909524Y-105104819D02*
X57814286Y-105057200D01*
X57814286Y-105057200D02*
X57766667Y-105009580D01*
X65900595Y-100404819D02*
X65900595Y-101214342D01*
X65900595Y-101214342D02*
X65948214Y-101309580D01*
X65948214Y-101309580D02*
X65995833Y-101357200D01*
X65995833Y-101357200D02*
X66091071Y-101404819D01*
X66091071Y-101404819D02*
X66281547Y-101404819D01*
X66281547Y-101404819D02*
X66376785Y-101357200D01*
X66376785Y-101357200D02*
X66424404Y-101309580D01*
X66424404Y-101309580D02*
X66472023Y-101214342D01*
X66472023Y-101214342D02*
X66472023Y-100404819D01*
X66900595Y-100500057D02*
X66948214Y-100452438D01*
X66948214Y-100452438D02*
X67043452Y-100404819D01*
X67043452Y-100404819D02*
X67281547Y-100404819D01*
X67281547Y-100404819D02*
X67376785Y-100452438D01*
X67376785Y-100452438D02*
X67424404Y-100500057D01*
X67424404Y-100500057D02*
X67472023Y-100595295D01*
X67472023Y-100595295D02*
X67472023Y-100690533D01*
X67472023Y-100690533D02*
X67424404Y-100833390D01*
X67424404Y-100833390D02*
X66852976Y-101404819D01*
X66852976Y-101404819D02*
X67472023Y-101404819D01*
X69858333Y-91434580D02*
X69810714Y-91482200D01*
X69810714Y-91482200D02*
X69667857Y-91529819D01*
X69667857Y-91529819D02*
X69572619Y-91529819D01*
X69572619Y-91529819D02*
X69429762Y-91482200D01*
X69429762Y-91482200D02*
X69334524Y-91386961D01*
X69334524Y-91386961D02*
X69286905Y-91291723D01*
X69286905Y-91291723D02*
X69239286Y-91101247D01*
X69239286Y-91101247D02*
X69239286Y-90958390D01*
X69239286Y-90958390D02*
X69286905Y-90767914D01*
X69286905Y-90767914D02*
X69334524Y-90672676D01*
X69334524Y-90672676D02*
X69429762Y-90577438D01*
X69429762Y-90577438D02*
X69572619Y-90529819D01*
X69572619Y-90529819D02*
X69667857Y-90529819D01*
X69667857Y-90529819D02*
X69810714Y-90577438D01*
X69810714Y-90577438D02*
X69858333Y-90625057D01*
X70715476Y-90863152D02*
X70715476Y-91529819D01*
X70477381Y-90482200D02*
X70239286Y-91196485D01*
X70239286Y-91196485D02*
X70858333Y-91196485D01*
X57495833Y-99384580D02*
X57448214Y-99432200D01*
X57448214Y-99432200D02*
X57305357Y-99479819D01*
X57305357Y-99479819D02*
X57210119Y-99479819D01*
X57210119Y-99479819D02*
X57067262Y-99432200D01*
X57067262Y-99432200D02*
X56972024Y-99336961D01*
X56972024Y-99336961D02*
X56924405Y-99241723D01*
X56924405Y-99241723D02*
X56876786Y-99051247D01*
X56876786Y-99051247D02*
X56876786Y-98908390D01*
X56876786Y-98908390D02*
X56924405Y-98717914D01*
X56924405Y-98717914D02*
X56972024Y-98622676D01*
X56972024Y-98622676D02*
X57067262Y-98527438D01*
X57067262Y-98527438D02*
X57210119Y-98479819D01*
X57210119Y-98479819D02*
X57305357Y-98479819D01*
X57305357Y-98479819D02*
X57448214Y-98527438D01*
X57448214Y-98527438D02*
X57495833Y-98575057D01*
X57829167Y-98479819D02*
X58448214Y-98479819D01*
X58448214Y-98479819D02*
X58114881Y-98860771D01*
X58114881Y-98860771D02*
X58257738Y-98860771D01*
X58257738Y-98860771D02*
X58352976Y-98908390D01*
X58352976Y-98908390D02*
X58400595Y-98956009D01*
X58400595Y-98956009D02*
X58448214Y-99051247D01*
X58448214Y-99051247D02*
X58448214Y-99289342D01*
X58448214Y-99289342D02*
X58400595Y-99384580D01*
X58400595Y-99384580D02*
X58352976Y-99432200D01*
X58352976Y-99432200D02*
X58257738Y-99479819D01*
X58257738Y-99479819D02*
X57972024Y-99479819D01*
X57972024Y-99479819D02*
X57876786Y-99432200D01*
X57876786Y-99432200D02*
X57829167Y-99384580D01*
X74804819Y-117788094D02*
X73804819Y-117788094D01*
X73804819Y-117788094D02*
X73804819Y-117549999D01*
X73804819Y-117549999D02*
X73852438Y-117407142D01*
X73852438Y-117407142D02*
X73947676Y-117311904D01*
X73947676Y-117311904D02*
X74042914Y-117264285D01*
X74042914Y-117264285D02*
X74233390Y-117216666D01*
X74233390Y-117216666D02*
X74376247Y-117216666D01*
X74376247Y-117216666D02*
X74566723Y-117264285D01*
X74566723Y-117264285D02*
X74661961Y-117311904D01*
X74661961Y-117311904D02*
X74757200Y-117407142D01*
X74757200Y-117407142D02*
X74804819Y-117549999D01*
X74804819Y-117549999D02*
X74804819Y-117788094D01*
X74138152Y-116359523D02*
X74804819Y-116359523D01*
X73757200Y-116597618D02*
X74471485Y-116835713D01*
X74471485Y-116835713D02*
X74471485Y-116216666D01*
D11*
X74682960Y-118532857D02*
X74682960Y-118167143D01*
X74865817Y-118350000D02*
X74500102Y-118350000D01*
D10*
X85990819Y-86035333D02*
X86705104Y-86035333D01*
X86705104Y-86035333D02*
X86847961Y-86082952D01*
X86847961Y-86082952D02*
X86943200Y-86178190D01*
X86943200Y-86178190D02*
X86990819Y-86321047D01*
X86990819Y-86321047D02*
X86990819Y-86416285D01*
X86086057Y-85606761D02*
X86038438Y-85559142D01*
X86038438Y-85559142D02*
X85990819Y-85463904D01*
X85990819Y-85463904D02*
X85990819Y-85225809D01*
X85990819Y-85225809D02*
X86038438Y-85130571D01*
X86038438Y-85130571D02*
X86086057Y-85082952D01*
X86086057Y-85082952D02*
X86181295Y-85035333D01*
X86181295Y-85035333D02*
X86276533Y-85035333D01*
X86276533Y-85035333D02*
X86419390Y-85082952D01*
X86419390Y-85082952D02*
X86990819Y-85654380D01*
X86990819Y-85654380D02*
X86990819Y-85035333D01*
X94366666Y-67824819D02*
X94366666Y-68539104D01*
X94366666Y-68539104D02*
X94319047Y-68681961D01*
X94319047Y-68681961D02*
X94223809Y-68777200D01*
X94223809Y-68777200D02*
X94080952Y-68824819D01*
X94080952Y-68824819D02*
X93985714Y-68824819D01*
X95271428Y-68158152D02*
X95271428Y-68824819D01*
X95033333Y-67777200D02*
X94795238Y-68491485D01*
X94795238Y-68491485D02*
X95414285Y-68491485D01*
X53054819Y-115566666D02*
X52578628Y-115899999D01*
X53054819Y-116138094D02*
X52054819Y-116138094D01*
X52054819Y-116138094D02*
X52054819Y-115757142D01*
X52054819Y-115757142D02*
X52102438Y-115661904D01*
X52102438Y-115661904D02*
X52150057Y-115614285D01*
X52150057Y-115614285D02*
X52245295Y-115566666D01*
X52245295Y-115566666D02*
X52388152Y-115566666D01*
X52388152Y-115566666D02*
X52483390Y-115614285D01*
X52483390Y-115614285D02*
X52531009Y-115661904D01*
X52531009Y-115661904D02*
X52578628Y-115757142D01*
X52578628Y-115757142D02*
X52578628Y-116138094D01*
X52388152Y-114709523D02*
X53054819Y-114709523D01*
X52007200Y-114947618D02*
X52721485Y-115185713D01*
X52721485Y-115185713D02*
X52721485Y-114566666D01*
X52432416Y-122130819D02*
X52432416Y-122845104D01*
X52432416Y-122845104D02*
X52384797Y-122987961D01*
X52384797Y-122987961D02*
X52289559Y-123083200D01*
X52289559Y-123083200D02*
X52146702Y-123130819D01*
X52146702Y-123130819D02*
X52051464Y-123130819D01*
X52813369Y-122130819D02*
X53432416Y-122130819D01*
X53432416Y-122130819D02*
X53099083Y-122511771D01*
X53099083Y-122511771D02*
X53241940Y-122511771D01*
X53241940Y-122511771D02*
X53337178Y-122559390D01*
X53337178Y-122559390D02*
X53384797Y-122607009D01*
X53384797Y-122607009D02*
X53432416Y-122702247D01*
X53432416Y-122702247D02*
X53432416Y-122940342D01*
X53432416Y-122940342D02*
X53384797Y-123035580D01*
X53384797Y-123035580D02*
X53337178Y-123083200D01*
X53337178Y-123083200D02*
X53241940Y-123130819D01*
X53241940Y-123130819D02*
X52956226Y-123130819D01*
X52956226Y-123130819D02*
X52860988Y-123083200D01*
X52860988Y-123083200D02*
X52813369Y-123035580D01*
X87794819Y-80408094D02*
X86794819Y-80408094D01*
X86794819Y-80408094D02*
X86794819Y-80169999D01*
X86794819Y-80169999D02*
X86842438Y-80027142D01*
X86842438Y-80027142D02*
X86937676Y-79931904D01*
X86937676Y-79931904D02*
X87032914Y-79884285D01*
X87032914Y-79884285D02*
X87223390Y-79836666D01*
X87223390Y-79836666D02*
X87366247Y-79836666D01*
X87366247Y-79836666D02*
X87556723Y-79884285D01*
X87556723Y-79884285D02*
X87651961Y-79931904D01*
X87651961Y-79931904D02*
X87747200Y-80027142D01*
X87747200Y-80027142D02*
X87794819Y-80169999D01*
X87794819Y-80169999D02*
X87794819Y-80408094D01*
X86794819Y-79503332D02*
X86794819Y-78836666D01*
X86794819Y-78836666D02*
X87794819Y-79265237D01*
D11*
X87102960Y-78492857D02*
X87102960Y-78127143D01*
X87285817Y-78310000D02*
X86920102Y-78310000D01*
D10*
X65900595Y-93254819D02*
X65900595Y-94064342D01*
X65900595Y-94064342D02*
X65948214Y-94159580D01*
X65948214Y-94159580D02*
X65995833Y-94207200D01*
X65995833Y-94207200D02*
X66091071Y-94254819D01*
X66091071Y-94254819D02*
X66281547Y-94254819D01*
X66281547Y-94254819D02*
X66376785Y-94207200D01*
X66376785Y-94207200D02*
X66424404Y-94159580D01*
X66424404Y-94159580D02*
X66472023Y-94064342D01*
X66472023Y-94064342D02*
X66472023Y-93254819D01*
X67472023Y-94254819D02*
X66900595Y-94254819D01*
X67186309Y-94254819D02*
X67186309Y-93254819D01*
X67186309Y-93254819D02*
X67091071Y-93397676D01*
X67091071Y-93397676D02*
X66995833Y-93492914D01*
X66995833Y-93492914D02*
X66900595Y-93540533D01*
X79611905Y-98454819D02*
X79611905Y-97454819D01*
X79611905Y-97454819D02*
X79850000Y-97454819D01*
X79850000Y-97454819D02*
X79992857Y-97502438D01*
X79992857Y-97502438D02*
X80088095Y-97597676D01*
X80088095Y-97597676D02*
X80135714Y-97692914D01*
X80135714Y-97692914D02*
X80183333Y-97883390D01*
X80183333Y-97883390D02*
X80183333Y-98026247D01*
X80183333Y-98026247D02*
X80135714Y-98216723D01*
X80135714Y-98216723D02*
X80088095Y-98311961D01*
X80088095Y-98311961D02*
X79992857Y-98407200D01*
X79992857Y-98407200D02*
X79850000Y-98454819D01*
X79850000Y-98454819D02*
X79611905Y-98454819D01*
X80564286Y-97550057D02*
X80611905Y-97502438D01*
X80611905Y-97502438D02*
X80707143Y-97454819D01*
X80707143Y-97454819D02*
X80945238Y-97454819D01*
X80945238Y-97454819D02*
X81040476Y-97502438D01*
X81040476Y-97502438D02*
X81088095Y-97550057D01*
X81088095Y-97550057D02*
X81135714Y-97645295D01*
X81135714Y-97645295D02*
X81135714Y-97740533D01*
X81135714Y-97740533D02*
X81088095Y-97883390D01*
X81088095Y-97883390D02*
X80516667Y-98454819D01*
X80516667Y-98454819D02*
X81135714Y-98454819D01*
D11*
X81317142Y-97732960D02*
X81682857Y-97732960D01*
X81499999Y-97915817D02*
X81499999Y-97550102D01*
D10*
X80839819Y-72076904D02*
X81649342Y-72076904D01*
X81649342Y-72076904D02*
X81744580Y-72029285D01*
X81744580Y-72029285D02*
X81792200Y-71981666D01*
X81792200Y-71981666D02*
X81839819Y-71886428D01*
X81839819Y-71886428D02*
X81839819Y-71695952D01*
X81839819Y-71695952D02*
X81792200Y-71600714D01*
X81792200Y-71600714D02*
X81744580Y-71553095D01*
X81744580Y-71553095D02*
X81649342Y-71505476D01*
X81649342Y-71505476D02*
X80839819Y-71505476D01*
X80839819Y-71124523D02*
X80839819Y-70505476D01*
X80839819Y-70505476D02*
X81220771Y-70838809D01*
X81220771Y-70838809D02*
X81220771Y-70695952D01*
X81220771Y-70695952D02*
X81268390Y-70600714D01*
X81268390Y-70600714D02*
X81316009Y-70553095D01*
X81316009Y-70553095D02*
X81411247Y-70505476D01*
X81411247Y-70505476D02*
X81649342Y-70505476D01*
X81649342Y-70505476D02*
X81744580Y-70553095D01*
X81744580Y-70553095D02*
X81792200Y-70600714D01*
X81792200Y-70600714D02*
X81839819Y-70695952D01*
X81839819Y-70695952D02*
X81839819Y-70981666D01*
X81839819Y-70981666D02*
X81792200Y-71076904D01*
X81792200Y-71076904D02*
X81744580Y-71124523D01*
X89614819Y-80312857D02*
X89138628Y-80646190D01*
X89614819Y-80884285D02*
X88614819Y-80884285D01*
X88614819Y-80884285D02*
X88614819Y-80503333D01*
X88614819Y-80503333D02*
X88662438Y-80408095D01*
X88662438Y-80408095D02*
X88710057Y-80360476D01*
X88710057Y-80360476D02*
X88805295Y-80312857D01*
X88805295Y-80312857D02*
X88948152Y-80312857D01*
X88948152Y-80312857D02*
X89043390Y-80360476D01*
X89043390Y-80360476D02*
X89091009Y-80408095D01*
X89091009Y-80408095D02*
X89138628Y-80503333D01*
X89138628Y-80503333D02*
X89138628Y-80884285D01*
X89614819Y-79360476D02*
X89614819Y-79931904D01*
X89614819Y-79646190D02*
X88614819Y-79646190D01*
X88614819Y-79646190D02*
X88757676Y-79741428D01*
X88757676Y-79741428D02*
X88852914Y-79836666D01*
X88852914Y-79836666D02*
X88900533Y-79931904D01*
X88710057Y-78979523D02*
X88662438Y-78931904D01*
X88662438Y-78931904D02*
X88614819Y-78836666D01*
X88614819Y-78836666D02*
X88614819Y-78598571D01*
X88614819Y-78598571D02*
X88662438Y-78503333D01*
X88662438Y-78503333D02*
X88710057Y-78455714D01*
X88710057Y-78455714D02*
X88805295Y-78408095D01*
X88805295Y-78408095D02*
X88900533Y-78408095D01*
X88900533Y-78408095D02*
X89043390Y-78455714D01*
X89043390Y-78455714D02*
X89614819Y-79027142D01*
X89614819Y-79027142D02*
X89614819Y-78408095D01*
X65839819Y-72076904D02*
X66649342Y-72076904D01*
X66649342Y-72076904D02*
X66744580Y-72029285D01*
X66744580Y-72029285D02*
X66792200Y-71981666D01*
X66792200Y-71981666D02*
X66839819Y-71886428D01*
X66839819Y-71886428D02*
X66839819Y-71695952D01*
X66839819Y-71695952D02*
X66792200Y-71600714D01*
X66792200Y-71600714D02*
X66744580Y-71553095D01*
X66744580Y-71553095D02*
X66649342Y-71505476D01*
X66649342Y-71505476D02*
X65839819Y-71505476D01*
X66173152Y-70600714D02*
X66839819Y-70600714D01*
X65792200Y-70838809D02*
X66506485Y-71076904D01*
X66506485Y-71076904D02*
X66506485Y-70457857D01*
X68404819Y-117888094D02*
X67404819Y-117888094D01*
X67404819Y-117888094D02*
X67404819Y-117649999D01*
X67404819Y-117649999D02*
X67452438Y-117507142D01*
X67452438Y-117507142D02*
X67547676Y-117411904D01*
X67547676Y-117411904D02*
X67642914Y-117364285D01*
X67642914Y-117364285D02*
X67833390Y-117316666D01*
X67833390Y-117316666D02*
X67976247Y-117316666D01*
X67976247Y-117316666D02*
X68166723Y-117364285D01*
X68166723Y-117364285D02*
X68261961Y-117411904D01*
X68261961Y-117411904D02*
X68357200Y-117507142D01*
X68357200Y-117507142D02*
X68404819Y-117649999D01*
X68404819Y-117649999D02*
X68404819Y-117888094D01*
X67404819Y-116411904D02*
X67404819Y-116888094D01*
X67404819Y-116888094D02*
X67881009Y-116935713D01*
X67881009Y-116935713D02*
X67833390Y-116888094D01*
X67833390Y-116888094D02*
X67785771Y-116792856D01*
X67785771Y-116792856D02*
X67785771Y-116554761D01*
X67785771Y-116554761D02*
X67833390Y-116459523D01*
X67833390Y-116459523D02*
X67881009Y-116411904D01*
X67881009Y-116411904D02*
X67976247Y-116364285D01*
X67976247Y-116364285D02*
X68214342Y-116364285D01*
X68214342Y-116364285D02*
X68309580Y-116411904D01*
X68309580Y-116411904D02*
X68357200Y-116459523D01*
X68357200Y-116459523D02*
X68404819Y-116554761D01*
X68404819Y-116554761D02*
X68404819Y-116792856D01*
X68404819Y-116792856D02*
X68357200Y-116888094D01*
X68357200Y-116888094D02*
X68309580Y-116935713D01*
D11*
X68282960Y-118582857D02*
X68282960Y-118217143D01*
X68465817Y-118400000D02*
X68100102Y-118400000D01*
D10*
X57483333Y-107104819D02*
X57150000Y-106628628D01*
X56911905Y-107104819D02*
X56911905Y-106104819D01*
X56911905Y-106104819D02*
X57292857Y-106104819D01*
X57292857Y-106104819D02*
X57388095Y-106152438D01*
X57388095Y-106152438D02*
X57435714Y-106200057D01*
X57435714Y-106200057D02*
X57483333Y-106295295D01*
X57483333Y-106295295D02*
X57483333Y-106438152D01*
X57483333Y-106438152D02*
X57435714Y-106533390D01*
X57435714Y-106533390D02*
X57388095Y-106581009D01*
X57388095Y-106581009D02*
X57292857Y-106628628D01*
X57292857Y-106628628D02*
X56911905Y-106628628D01*
X58340476Y-106104819D02*
X58150000Y-106104819D01*
X58150000Y-106104819D02*
X58054762Y-106152438D01*
X58054762Y-106152438D02*
X58007143Y-106200057D01*
X58007143Y-106200057D02*
X57911905Y-106342914D01*
X57911905Y-106342914D02*
X57864286Y-106533390D01*
X57864286Y-106533390D02*
X57864286Y-106914342D01*
X57864286Y-106914342D02*
X57911905Y-107009580D01*
X57911905Y-107009580D02*
X57959524Y-107057200D01*
X57959524Y-107057200D02*
X58054762Y-107104819D01*
X58054762Y-107104819D02*
X58245238Y-107104819D01*
X58245238Y-107104819D02*
X58340476Y-107057200D01*
X58340476Y-107057200D02*
X58388095Y-107009580D01*
X58388095Y-107009580D02*
X58435714Y-106914342D01*
X58435714Y-106914342D02*
X58435714Y-106676247D01*
X58435714Y-106676247D02*
X58388095Y-106581009D01*
X58388095Y-106581009D02*
X58340476Y-106533390D01*
X58340476Y-106533390D02*
X58245238Y-106485771D01*
X58245238Y-106485771D02*
X58054762Y-106485771D01*
X58054762Y-106485771D02*
X57959524Y-106533390D01*
X57959524Y-106533390D02*
X57911905Y-106581009D01*
X57911905Y-106581009D02*
X57864286Y-106676247D01*
X70204819Y-117292857D02*
X69728628Y-117626190D01*
X70204819Y-117864285D02*
X69204819Y-117864285D01*
X69204819Y-117864285D02*
X69204819Y-117483333D01*
X69204819Y-117483333D02*
X69252438Y-117388095D01*
X69252438Y-117388095D02*
X69300057Y-117340476D01*
X69300057Y-117340476D02*
X69395295Y-117292857D01*
X69395295Y-117292857D02*
X69538152Y-117292857D01*
X69538152Y-117292857D02*
X69633390Y-117340476D01*
X69633390Y-117340476D02*
X69681009Y-117388095D01*
X69681009Y-117388095D02*
X69728628Y-117483333D01*
X69728628Y-117483333D02*
X69728628Y-117864285D01*
X70204819Y-116340476D02*
X70204819Y-116911904D01*
X70204819Y-116626190D02*
X69204819Y-116626190D01*
X69204819Y-116626190D02*
X69347676Y-116721428D01*
X69347676Y-116721428D02*
X69442914Y-116816666D01*
X69442914Y-116816666D02*
X69490533Y-116911904D01*
X69204819Y-115721428D02*
X69204819Y-115626190D01*
X69204819Y-115626190D02*
X69252438Y-115530952D01*
X69252438Y-115530952D02*
X69300057Y-115483333D01*
X69300057Y-115483333D02*
X69395295Y-115435714D01*
X69395295Y-115435714D02*
X69585771Y-115388095D01*
X69585771Y-115388095D02*
X69823866Y-115388095D01*
X69823866Y-115388095D02*
X70014342Y-115435714D01*
X70014342Y-115435714D02*
X70109580Y-115483333D01*
X70109580Y-115483333D02*
X70157200Y-115530952D01*
X70157200Y-115530952D02*
X70204819Y-115626190D01*
X70204819Y-115626190D02*
X70204819Y-115721428D01*
X70204819Y-115721428D02*
X70157200Y-115816666D01*
X70157200Y-115816666D02*
X70109580Y-115864285D01*
X70109580Y-115864285D02*
X70014342Y-115911904D01*
X70014342Y-115911904D02*
X69823866Y-115959523D01*
X69823866Y-115959523D02*
X69585771Y-115959523D01*
X69585771Y-115959523D02*
X69395295Y-115911904D01*
X69395295Y-115911904D02*
X69300057Y-115864285D01*
X69300057Y-115864285D02*
X69252438Y-115816666D01*
X69252438Y-115816666D02*
X69204819Y-115721428D01*
X56111219Y-111138094D02*
X55111219Y-111138094D01*
X55111219Y-111138094D02*
X55111219Y-110899999D01*
X55111219Y-110899999D02*
X55158838Y-110757142D01*
X55158838Y-110757142D02*
X55254076Y-110661904D01*
X55254076Y-110661904D02*
X55349314Y-110614285D01*
X55349314Y-110614285D02*
X55539790Y-110566666D01*
X55539790Y-110566666D02*
X55682647Y-110566666D01*
X55682647Y-110566666D02*
X55873123Y-110614285D01*
X55873123Y-110614285D02*
X55968361Y-110661904D01*
X55968361Y-110661904D02*
X56063600Y-110757142D01*
X56063600Y-110757142D02*
X56111219Y-110899999D01*
X56111219Y-110899999D02*
X56111219Y-111138094D01*
X56111219Y-109614285D02*
X56111219Y-110185713D01*
X56111219Y-109899999D02*
X55111219Y-109899999D01*
X55111219Y-109899999D02*
X55254076Y-109995237D01*
X55254076Y-109995237D02*
X55349314Y-110090475D01*
X55349314Y-110090475D02*
X55396933Y-110185713D01*
X53411219Y-113471428D02*
X52411219Y-113471428D01*
X52411219Y-113471428D02*
X52411219Y-113090476D01*
X52411219Y-113090476D02*
X52458838Y-112995238D01*
X52458838Y-112995238D02*
X52506457Y-112947619D01*
X52506457Y-112947619D02*
X52601695Y-112900000D01*
X52601695Y-112900000D02*
X52744552Y-112900000D01*
X52744552Y-112900000D02*
X52839790Y-112947619D01*
X52839790Y-112947619D02*
X52887409Y-112995238D01*
X52887409Y-112995238D02*
X52935028Y-113090476D01*
X52935028Y-113090476D02*
X52935028Y-113471428D01*
X52411219Y-112566666D02*
X53411219Y-112328571D01*
X53411219Y-112328571D02*
X52696933Y-112138095D01*
X52696933Y-112138095D02*
X53411219Y-111947619D01*
X53411219Y-111947619D02*
X52411219Y-111709524D01*
X53411219Y-110757143D02*
X52935028Y-111090476D01*
X53411219Y-111328571D02*
X52411219Y-111328571D01*
X52411219Y-111328571D02*
X52411219Y-110947619D01*
X52411219Y-110947619D02*
X52458838Y-110852381D01*
X52458838Y-110852381D02*
X52506457Y-110804762D01*
X52506457Y-110804762D02*
X52601695Y-110757143D01*
X52601695Y-110757143D02*
X52744552Y-110757143D01*
X52744552Y-110757143D02*
X52839790Y-110804762D01*
X52839790Y-110804762D02*
X52887409Y-110852381D01*
X52887409Y-110852381D02*
X52935028Y-110947619D01*
X52935028Y-110947619D02*
X52935028Y-111328571D01*
X53506457Y-110566667D02*
X53506457Y-109804762D01*
X53411219Y-109090476D02*
X53411219Y-109566666D01*
X53411219Y-109566666D02*
X52411219Y-109566666D01*
X52887409Y-108757142D02*
X52887409Y-108423809D01*
X53411219Y-108280952D02*
X53411219Y-108757142D01*
X53411219Y-108757142D02*
X52411219Y-108757142D01*
X52411219Y-108757142D02*
X52411219Y-108280952D01*
X53411219Y-107852380D02*
X52411219Y-107852380D01*
X52411219Y-107852380D02*
X52411219Y-107614285D01*
X52411219Y-107614285D02*
X52458838Y-107471428D01*
X52458838Y-107471428D02*
X52554076Y-107376190D01*
X52554076Y-107376190D02*
X52649314Y-107328571D01*
X52649314Y-107328571D02*
X52839790Y-107280952D01*
X52839790Y-107280952D02*
X52982647Y-107280952D01*
X52982647Y-107280952D02*
X53173123Y-107328571D01*
X53173123Y-107328571D02*
X53268361Y-107376190D01*
X53268361Y-107376190D02*
X53363600Y-107471428D01*
X53363600Y-107471428D02*
X53411219Y-107614285D01*
X53411219Y-107614285D02*
X53411219Y-107852380D01*
D11*
X53982960Y-112182857D02*
X53982960Y-111817143D01*
X54165817Y-112000000D02*
X53800102Y-112000000D01*
D10*
X80033333Y-100254819D02*
X79700000Y-99778628D01*
X79461905Y-100254819D02*
X79461905Y-99254819D01*
X79461905Y-99254819D02*
X79842857Y-99254819D01*
X79842857Y-99254819D02*
X79938095Y-99302438D01*
X79938095Y-99302438D02*
X79985714Y-99350057D01*
X79985714Y-99350057D02*
X80033333Y-99445295D01*
X80033333Y-99445295D02*
X80033333Y-99588152D01*
X80033333Y-99588152D02*
X79985714Y-99683390D01*
X79985714Y-99683390D02*
X79938095Y-99731009D01*
X79938095Y-99731009D02*
X79842857Y-99778628D01*
X79842857Y-99778628D02*
X79461905Y-99778628D01*
X80366667Y-99254819D02*
X81033333Y-99254819D01*
X81033333Y-99254819D02*
X80604762Y-100254819D01*
X79561905Y-104854819D02*
X79561905Y-103854819D01*
X79561905Y-103854819D02*
X79800000Y-103854819D01*
X79800000Y-103854819D02*
X79942857Y-103902438D01*
X79942857Y-103902438D02*
X80038095Y-103997676D01*
X80038095Y-103997676D02*
X80085714Y-104092914D01*
X80085714Y-104092914D02*
X80133333Y-104283390D01*
X80133333Y-104283390D02*
X80133333Y-104426247D01*
X80133333Y-104426247D02*
X80085714Y-104616723D01*
X80085714Y-104616723D02*
X80038095Y-104711961D01*
X80038095Y-104711961D02*
X79942857Y-104807200D01*
X79942857Y-104807200D02*
X79800000Y-104854819D01*
X79800000Y-104854819D02*
X79561905Y-104854819D01*
X80466667Y-103854819D02*
X81085714Y-103854819D01*
X81085714Y-103854819D02*
X80752381Y-104235771D01*
X80752381Y-104235771D02*
X80895238Y-104235771D01*
X80895238Y-104235771D02*
X80990476Y-104283390D01*
X80990476Y-104283390D02*
X81038095Y-104331009D01*
X81038095Y-104331009D02*
X81085714Y-104426247D01*
X81085714Y-104426247D02*
X81085714Y-104664342D01*
X81085714Y-104664342D02*
X81038095Y-104759580D01*
X81038095Y-104759580D02*
X80990476Y-104807200D01*
X80990476Y-104807200D02*
X80895238Y-104854819D01*
X80895238Y-104854819D02*
X80609524Y-104854819D01*
X80609524Y-104854819D02*
X80514286Y-104807200D01*
X80514286Y-104807200D02*
X80466667Y-104759580D01*
D11*
X81317142Y-104132960D02*
X81682857Y-104132960D01*
X81499999Y-104315817D02*
X81499999Y-103950102D01*
D10*
X80033333Y-103054819D02*
X79700000Y-102578628D01*
X79461905Y-103054819D02*
X79461905Y-102054819D01*
X79461905Y-102054819D02*
X79842857Y-102054819D01*
X79842857Y-102054819D02*
X79938095Y-102102438D01*
X79938095Y-102102438D02*
X79985714Y-102150057D01*
X79985714Y-102150057D02*
X80033333Y-102245295D01*
X80033333Y-102245295D02*
X80033333Y-102388152D01*
X80033333Y-102388152D02*
X79985714Y-102483390D01*
X79985714Y-102483390D02*
X79938095Y-102531009D01*
X79938095Y-102531009D02*
X79842857Y-102578628D01*
X79842857Y-102578628D02*
X79461905Y-102578628D01*
X80604762Y-102483390D02*
X80509524Y-102435771D01*
X80509524Y-102435771D02*
X80461905Y-102388152D01*
X80461905Y-102388152D02*
X80414286Y-102292914D01*
X80414286Y-102292914D02*
X80414286Y-102245295D01*
X80414286Y-102245295D02*
X80461905Y-102150057D01*
X80461905Y-102150057D02*
X80509524Y-102102438D01*
X80509524Y-102102438D02*
X80604762Y-102054819D01*
X80604762Y-102054819D02*
X80795238Y-102054819D01*
X80795238Y-102054819D02*
X80890476Y-102102438D01*
X80890476Y-102102438D02*
X80938095Y-102150057D01*
X80938095Y-102150057D02*
X80985714Y-102245295D01*
X80985714Y-102245295D02*
X80985714Y-102292914D01*
X80985714Y-102292914D02*
X80938095Y-102388152D01*
X80938095Y-102388152D02*
X80890476Y-102435771D01*
X80890476Y-102435771D02*
X80795238Y-102483390D01*
X80795238Y-102483390D02*
X80604762Y-102483390D01*
X80604762Y-102483390D02*
X80509524Y-102531009D01*
X80509524Y-102531009D02*
X80461905Y-102578628D01*
X80461905Y-102578628D02*
X80414286Y-102673866D01*
X80414286Y-102673866D02*
X80414286Y-102864342D01*
X80414286Y-102864342D02*
X80461905Y-102959580D01*
X80461905Y-102959580D02*
X80509524Y-103007200D01*
X80509524Y-103007200D02*
X80604762Y-103054819D01*
X80604762Y-103054819D02*
X80795238Y-103054819D01*
X80795238Y-103054819D02*
X80890476Y-103007200D01*
X80890476Y-103007200D02*
X80938095Y-102959580D01*
X80938095Y-102959580D02*
X80985714Y-102864342D01*
X80985714Y-102864342D02*
X80985714Y-102673866D01*
X80985714Y-102673866D02*
X80938095Y-102578628D01*
X80938095Y-102578628D02*
X80890476Y-102531009D01*
X80890476Y-102531009D02*
X80795238Y-102483390D01*
X87844819Y-70068094D02*
X86844819Y-70068094D01*
X86844819Y-70068094D02*
X86844819Y-69829999D01*
X86844819Y-69829999D02*
X86892438Y-69687142D01*
X86892438Y-69687142D02*
X86987676Y-69591904D01*
X86987676Y-69591904D02*
X87082914Y-69544285D01*
X87082914Y-69544285D02*
X87273390Y-69496666D01*
X87273390Y-69496666D02*
X87416247Y-69496666D01*
X87416247Y-69496666D02*
X87606723Y-69544285D01*
X87606723Y-69544285D02*
X87701961Y-69591904D01*
X87701961Y-69591904D02*
X87797200Y-69687142D01*
X87797200Y-69687142D02*
X87844819Y-69829999D01*
X87844819Y-69829999D02*
X87844819Y-70068094D01*
X86844819Y-68639523D02*
X86844819Y-68829999D01*
X86844819Y-68829999D02*
X86892438Y-68925237D01*
X86892438Y-68925237D02*
X86940057Y-68972856D01*
X86940057Y-68972856D02*
X87082914Y-69068094D01*
X87082914Y-69068094D02*
X87273390Y-69115713D01*
X87273390Y-69115713D02*
X87654342Y-69115713D01*
X87654342Y-69115713D02*
X87749580Y-69068094D01*
X87749580Y-69068094D02*
X87797200Y-69020475D01*
X87797200Y-69020475D02*
X87844819Y-68925237D01*
X87844819Y-68925237D02*
X87844819Y-68734761D01*
X87844819Y-68734761D02*
X87797200Y-68639523D01*
X87797200Y-68639523D02*
X87749580Y-68591904D01*
X87749580Y-68591904D02*
X87654342Y-68544285D01*
X87654342Y-68544285D02*
X87416247Y-68544285D01*
X87416247Y-68544285D02*
X87321009Y-68591904D01*
X87321009Y-68591904D02*
X87273390Y-68639523D01*
X87273390Y-68639523D02*
X87225771Y-68734761D01*
X87225771Y-68734761D02*
X87225771Y-68925237D01*
X87225771Y-68925237D02*
X87273390Y-69020475D01*
X87273390Y-69020475D02*
X87321009Y-69068094D01*
X87321009Y-69068094D02*
X87416247Y-69115713D01*
D11*
X87702960Y-70662857D02*
X87702960Y-70297143D01*
X87885817Y-70480000D02*
X87520102Y-70480000D01*
D10*
X73004819Y-117266666D02*
X72528628Y-117599999D01*
X73004819Y-117838094D02*
X72004819Y-117838094D01*
X72004819Y-117838094D02*
X72004819Y-117457142D01*
X72004819Y-117457142D02*
X72052438Y-117361904D01*
X72052438Y-117361904D02*
X72100057Y-117314285D01*
X72100057Y-117314285D02*
X72195295Y-117266666D01*
X72195295Y-117266666D02*
X72338152Y-117266666D01*
X72338152Y-117266666D02*
X72433390Y-117314285D01*
X72433390Y-117314285D02*
X72481009Y-117361904D01*
X72481009Y-117361904D02*
X72528628Y-117457142D01*
X72528628Y-117457142D02*
X72528628Y-117838094D01*
X73004819Y-116790475D02*
X73004819Y-116599999D01*
X73004819Y-116599999D02*
X72957200Y-116504761D01*
X72957200Y-116504761D02*
X72909580Y-116457142D01*
X72909580Y-116457142D02*
X72766723Y-116361904D01*
X72766723Y-116361904D02*
X72576247Y-116314285D01*
X72576247Y-116314285D02*
X72195295Y-116314285D01*
X72195295Y-116314285D02*
X72100057Y-116361904D01*
X72100057Y-116361904D02*
X72052438Y-116409523D01*
X72052438Y-116409523D02*
X72004819Y-116504761D01*
X72004819Y-116504761D02*
X72004819Y-116695237D01*
X72004819Y-116695237D02*
X72052438Y-116790475D01*
X72052438Y-116790475D02*
X72100057Y-116838094D01*
X72100057Y-116838094D02*
X72195295Y-116885713D01*
X72195295Y-116885713D02*
X72433390Y-116885713D01*
X72433390Y-116885713D02*
X72528628Y-116838094D01*
X72528628Y-116838094D02*
X72576247Y-116790475D01*
X72576247Y-116790475D02*
X72623866Y-116695237D01*
X72623866Y-116695237D02*
X72623866Y-116504761D01*
X72623866Y-116504761D02*
X72576247Y-116409523D01*
X72576247Y-116409523D02*
X72528628Y-116361904D01*
X72528628Y-116361904D02*
X72433390Y-116314285D01*
X59804580Y-96366666D02*
X59852200Y-96414285D01*
X59852200Y-96414285D02*
X59899819Y-96557142D01*
X59899819Y-96557142D02*
X59899819Y-96652380D01*
X59899819Y-96652380D02*
X59852200Y-96795237D01*
X59852200Y-96795237D02*
X59756961Y-96890475D01*
X59756961Y-96890475D02*
X59661723Y-96938094D01*
X59661723Y-96938094D02*
X59471247Y-96985713D01*
X59471247Y-96985713D02*
X59328390Y-96985713D01*
X59328390Y-96985713D02*
X59137914Y-96938094D01*
X59137914Y-96938094D02*
X59042676Y-96890475D01*
X59042676Y-96890475D02*
X58947438Y-96795237D01*
X58947438Y-96795237D02*
X58899819Y-96652380D01*
X58899819Y-96652380D02*
X58899819Y-96557142D01*
X58899819Y-96557142D02*
X58947438Y-96414285D01*
X58947438Y-96414285D02*
X58995057Y-96366666D01*
X58995057Y-95985713D02*
X58947438Y-95938094D01*
X58947438Y-95938094D02*
X58899819Y-95842856D01*
X58899819Y-95842856D02*
X58899819Y-95604761D01*
X58899819Y-95604761D02*
X58947438Y-95509523D01*
X58947438Y-95509523D02*
X58995057Y-95461904D01*
X58995057Y-95461904D02*
X59090295Y-95414285D01*
X59090295Y-95414285D02*
X59185533Y-95414285D01*
X59185533Y-95414285D02*
X59328390Y-95461904D01*
X59328390Y-95461904D02*
X59899819Y-96033332D01*
X59899819Y-96033332D02*
X59899819Y-95414285D01*
X57483333Y-103004819D02*
X57150000Y-102528628D01*
X56911905Y-103004819D02*
X56911905Y-102004819D01*
X56911905Y-102004819D02*
X57292857Y-102004819D01*
X57292857Y-102004819D02*
X57388095Y-102052438D01*
X57388095Y-102052438D02*
X57435714Y-102100057D01*
X57435714Y-102100057D02*
X57483333Y-102195295D01*
X57483333Y-102195295D02*
X57483333Y-102338152D01*
X57483333Y-102338152D02*
X57435714Y-102433390D01*
X57435714Y-102433390D02*
X57388095Y-102481009D01*
X57388095Y-102481009D02*
X57292857Y-102528628D01*
X57292857Y-102528628D02*
X56911905Y-102528628D01*
X58435714Y-103004819D02*
X57864286Y-103004819D01*
X58150000Y-103004819D02*
X58150000Y-102004819D01*
X58150000Y-102004819D02*
X58054762Y-102147676D01*
X58054762Y-102147676D02*
X57959524Y-102242914D01*
X57959524Y-102242914D02*
X57864286Y-102290533D01*
X55930180Y-102855866D02*
X55977800Y-102903485D01*
X55977800Y-102903485D02*
X56025419Y-103046342D01*
X56025419Y-103046342D02*
X56025419Y-103141580D01*
X56025419Y-103141580D02*
X55977800Y-103284437D01*
X55977800Y-103284437D02*
X55882561Y-103379675D01*
X55882561Y-103379675D02*
X55787323Y-103427294D01*
X55787323Y-103427294D02*
X55596847Y-103474913D01*
X55596847Y-103474913D02*
X55453990Y-103474913D01*
X55453990Y-103474913D02*
X55263514Y-103427294D01*
X55263514Y-103427294D02*
X55168276Y-103379675D01*
X55168276Y-103379675D02*
X55073038Y-103284437D01*
X55073038Y-103284437D02*
X55025419Y-103141580D01*
X55025419Y-103141580D02*
X55025419Y-103046342D01*
X55025419Y-103046342D02*
X55073038Y-102903485D01*
X55073038Y-102903485D02*
X55120657Y-102855866D01*
X55025419Y-101951104D02*
X55025419Y-102427294D01*
X55025419Y-102427294D02*
X55501609Y-102474913D01*
X55501609Y-102474913D02*
X55453990Y-102427294D01*
X55453990Y-102427294D02*
X55406371Y-102332056D01*
X55406371Y-102332056D02*
X55406371Y-102093961D01*
X55406371Y-102093961D02*
X55453990Y-101998723D01*
X55453990Y-101998723D02*
X55501609Y-101951104D01*
X55501609Y-101951104D02*
X55596847Y-101903485D01*
X55596847Y-101903485D02*
X55834942Y-101903485D01*
X55834942Y-101903485D02*
X55930180Y-101951104D01*
X55930180Y-101951104D02*
X55977800Y-101998723D01*
X55977800Y-101998723D02*
X56025419Y-102093961D01*
X56025419Y-102093961D02*
X56025419Y-102332056D01*
X56025419Y-102332056D02*
X55977800Y-102427294D01*
X55977800Y-102427294D02*
X55930180Y-102474913D01*
X89654819Y-69772857D02*
X89178628Y-70106190D01*
X89654819Y-70344285D02*
X88654819Y-70344285D01*
X88654819Y-70344285D02*
X88654819Y-69963333D01*
X88654819Y-69963333D02*
X88702438Y-69868095D01*
X88702438Y-69868095D02*
X88750057Y-69820476D01*
X88750057Y-69820476D02*
X88845295Y-69772857D01*
X88845295Y-69772857D02*
X88988152Y-69772857D01*
X88988152Y-69772857D02*
X89083390Y-69820476D01*
X89083390Y-69820476D02*
X89131009Y-69868095D01*
X89131009Y-69868095D02*
X89178628Y-69963333D01*
X89178628Y-69963333D02*
X89178628Y-70344285D01*
X89654819Y-68820476D02*
X89654819Y-69391904D01*
X89654819Y-69106190D02*
X88654819Y-69106190D01*
X88654819Y-69106190D02*
X88797676Y-69201428D01*
X88797676Y-69201428D02*
X88892914Y-69296666D01*
X88892914Y-69296666D02*
X88940533Y-69391904D01*
X89654819Y-67868095D02*
X89654819Y-68439523D01*
X89654819Y-68153809D02*
X88654819Y-68153809D01*
X88654819Y-68153809D02*
X88797676Y-68249047D01*
X88797676Y-68249047D02*
X88892914Y-68344285D01*
X88892914Y-68344285D02*
X88940533Y-68439523D01*
D12*
%TO.C,J6*%
X43022600Y-34873399D02*
X43022600Y-59231999D01*
X43022600Y-59231999D02*
X98267600Y-59231999D01*
X98267600Y-34873399D02*
X43022600Y-34873399D01*
X98267600Y-59231999D02*
X98267600Y-34873399D01*
D11*
%TO.C,C6*%
X60013748Y-109965000D02*
X60536252Y-109965000D01*
X60013748Y-111435000D02*
X60536252Y-111435000D01*
%TO.C,R5*%
X60172936Y-107865000D02*
X60627064Y-107865000D01*
X60172936Y-109335000D02*
X60627064Y-109335000D01*
%TO.C,R2*%
X68447936Y-112140000D02*
X68902064Y-112140000D01*
X68447936Y-113610000D02*
X68902064Y-113610000D01*
%TO.C,C1*%
X63488748Y-92390000D02*
X64011252Y-92390000D01*
X63488748Y-93860000D02*
X64011252Y-93860000D01*
%TO.C,R3*%
X60172936Y-103865000D02*
X60627064Y-103865000D01*
X60172936Y-105335000D02*
X60627064Y-105335000D01*
%TO.C,U2*%
X64352500Y-101790000D02*
X64352500Y-102065000D01*
X64352500Y-111710000D02*
X64352500Y-111435000D01*
X66662500Y-101790000D02*
X64352500Y-101790000D01*
X66662500Y-101790000D02*
X68972500Y-101790000D01*
X66662500Y-111710000D02*
X64352500Y-111710000D01*
X66662500Y-111710000D02*
X68972500Y-111710000D01*
X68972500Y-101790000D02*
X68972500Y-102065000D01*
X68972500Y-111710000D02*
X68972500Y-111435000D01*
X63762500Y-102065000D02*
X63522500Y-101735000D01*
X64002500Y-101735000D01*
X63762500Y-102065000D01*
G36*
X63762500Y-102065000D02*
G01*
X63522500Y-101735000D01*
X64002500Y-101735000D01*
X63762500Y-102065000D01*
G37*
%TO.C,C4*%
X66963748Y-90340000D02*
X67486252Y-90340000D01*
X66963748Y-91810000D02*
X67486252Y-91810000D01*
%TO.C,C3*%
X60686252Y-98265000D02*
X60163748Y-98265000D01*
X60686252Y-99735000D02*
X60163748Y-99735000D01*
D13*
%TO.C,D4*%
X73850000Y-120050000D02*
X73850000Y-119850000D01*
D14*
X74210000Y-119840000D02*
X74500000Y-119840000D01*
X74350000Y-120080000D02*
X74210000Y-119840000D01*
X74500000Y-119840000D02*
X74350000Y-120080000D01*
D13*
X74850000Y-119850000D02*
X74850000Y-120050000D01*
D15*
%TO.C,J2*%
X86180000Y-117960000D02*
X86180000Y-87150000D01*
X98680000Y-87150000D02*
X86180000Y-87150000D01*
X98680000Y-117960000D02*
X86180000Y-117960000D01*
X98680000Y-117960000D02*
X98680000Y-87150000D01*
D13*
X84760000Y-97075000D02*
G75*
G02*
X84560000Y-97075000I-100000J0D01*
G01*
X84560000Y-97075000D02*
G75*
G02*
X84760000Y-97075000I100000J0D01*
G01*
D11*
%TO.C,J4*%
X93370000Y-69370000D02*
X94700000Y-69370000D01*
X93370000Y-70700000D02*
X93370000Y-69370000D01*
X93370000Y-71970000D02*
X93370000Y-79650000D01*
X93370000Y-71970000D02*
X96030000Y-71970000D01*
X93370000Y-79650000D02*
X96030000Y-79650000D01*
X96030000Y-71970000D02*
X96030000Y-79650000D01*
%TO.C,R4*%
X53515000Y-115627064D02*
X53515000Y-115172936D01*
X54985000Y-115627064D02*
X54985000Y-115172936D01*
D15*
%TO.C,J3*%
X54340750Y-122122500D02*
X85150750Y-122122500D01*
X54340750Y-134622500D02*
X54340750Y-122122500D01*
X54340750Y-134622500D02*
X85150750Y-134622500D01*
X85150750Y-134622500D02*
X85150750Y-122122500D01*
D13*
X75325750Y-120602500D02*
G75*
G02*
X75125750Y-120602500I-100000J0D01*
G01*
X75125750Y-120602500D02*
G75*
G02*
X75325750Y-120602500I100000J0D01*
G01*
%TO.C,D7*%
X86870000Y-76810000D02*
X86870000Y-76610000D01*
D14*
X87220000Y-76820000D02*
X87370000Y-76580000D01*
X87370000Y-76580000D02*
X87510000Y-76820000D01*
X87510000Y-76820000D02*
X87220000Y-76820000D01*
D13*
X87870000Y-76610000D02*
X87870000Y-76810000D01*
D11*
%TO.C,U1*%
X66662500Y-94515000D02*
X64462500Y-94515000D01*
X66662500Y-94515000D02*
X68862500Y-94515000D01*
X66662500Y-99985000D02*
X64462500Y-99985000D01*
X66662500Y-99985000D02*
X68862500Y-99985000D01*
X62802500Y-94975000D02*
X62472500Y-95215000D01*
X62472500Y-94735000D01*
X62802500Y-94975000D01*
G36*
X62802500Y-94975000D02*
G01*
X62472500Y-95215000D01*
X62472500Y-94735000D01*
X62802500Y-94975000D01*
G37*
D14*
%TO.C,D2*%
X82990000Y-97850000D02*
X83230000Y-98000000D01*
X82990000Y-98140000D02*
X82990000Y-97850000D01*
D13*
X83000000Y-97500000D02*
X83200000Y-97500000D01*
X83200000Y-98500000D02*
X83000000Y-98500000D01*
D14*
X83230000Y-98000000D02*
X82990000Y-98140000D01*
D15*
%TO.C,U3*%
X67250000Y-70200000D02*
X67250000Y-77800000D01*
X80250000Y-70200000D02*
X80250000Y-77800000D01*
D13*
X80165000Y-67300000D02*
G75*
G02*
X79965000Y-67300000I-100000J0D01*
G01*
X79965000Y-67300000D02*
G75*
G02*
X80165000Y-67300000I100000J0D01*
G01*
D11*
%TO.C,R12*%
X88435000Y-76052936D02*
X88435000Y-76507064D01*
X89905000Y-76052936D02*
X89905000Y-76507064D01*
D15*
%TO.C,U4*%
X52250000Y-70200000D02*
X52250000Y-77800000D01*
X65250000Y-70200000D02*
X65250000Y-77800000D01*
D13*
X65165000Y-67300000D02*
G75*
G02*
X64965000Y-67300000I-100000J0D01*
G01*
X64965000Y-67300000D02*
G75*
G02*
X65165000Y-67300000I100000J0D01*
G01*
%TO.C,D5*%
X67450000Y-120100000D02*
X67450000Y-119900000D01*
D14*
X67810000Y-119890000D02*
X68100000Y-119890000D01*
X67950000Y-120130000D02*
X67810000Y-119890000D01*
X68100000Y-119890000D02*
X67950000Y-120130000D01*
D13*
X68450000Y-119900000D02*
X68450000Y-120100000D01*
D11*
%TO.C,R6*%
X60172936Y-105865000D02*
X60627064Y-105865000D01*
X60172936Y-107335000D02*
X60627064Y-107335000D01*
%TO.C,R10*%
X69015000Y-120227064D02*
X69015000Y-119772936D01*
X70485000Y-120227064D02*
X70485000Y-119772936D01*
D13*
%TO.C,D1*%
X53750000Y-110500000D02*
X53750000Y-110300000D01*
D14*
X54100000Y-110510000D02*
X54250000Y-110270000D01*
X54250000Y-110270000D02*
X54390000Y-110510000D01*
X54390000Y-110510000D02*
X54100000Y-110510000D01*
D13*
X54750000Y-110300000D02*
X54750000Y-110500000D01*
D11*
%TO.C,R7*%
X83227064Y-99065000D02*
X82772936Y-99065000D01*
X83227064Y-100535000D02*
X82772936Y-100535000D01*
D14*
%TO.C,D3*%
X82990000Y-104250000D02*
X83230000Y-104400000D01*
X82990000Y-104540000D02*
X82990000Y-104250000D01*
D13*
X83000000Y-103900000D02*
X83200000Y-103900000D01*
X83200000Y-104900000D02*
X83000000Y-104900000D01*
D14*
X83230000Y-104400000D02*
X82990000Y-104540000D01*
D11*
%TO.C,J1*%
X43170000Y-116630000D02*
X43170000Y-68310000D01*
X43170000Y-119230000D02*
X43170000Y-117900000D01*
X44500000Y-119230000D02*
X43170000Y-119230000D01*
X45770000Y-116630000D02*
X43170000Y-116630000D01*
X45770000Y-119230000D02*
X45770000Y-116630000D01*
X48370000Y-68310000D02*
X43170000Y-68310000D01*
X48370000Y-119230000D02*
X45770000Y-119230000D01*
X48370000Y-119230000D02*
X48370000Y-68310000D01*
%TO.C,R8*%
X83227064Y-101865000D02*
X82772936Y-101865000D01*
X83227064Y-103335000D02*
X82772936Y-103335000D01*
D13*
%TO.C,D6*%
X86870000Y-72180000D02*
X86870000Y-71980000D01*
D14*
X87230000Y-71970000D02*
X87520000Y-71970000D01*
X87370000Y-72210000D02*
X87230000Y-71970000D01*
X87520000Y-71970000D02*
X87370000Y-72210000D01*
D13*
X87870000Y-71980000D02*
X87870000Y-72180000D01*
D11*
%TO.C,R9*%
X71815000Y-120177064D02*
X71815000Y-119722936D01*
X73285000Y-120177064D02*
X73285000Y-119722936D01*
%TO.C,C2*%
X60390000Y-96461252D02*
X60390000Y-95938748D01*
X61860000Y-96461252D02*
X61860000Y-95938748D01*
%TO.C,R1*%
X60172936Y-101865000D02*
X60627064Y-101865000D01*
X60172936Y-103335000D02*
X60627064Y-103335000D01*
%TO.C,C5*%
X54840000Y-105188748D02*
X54840000Y-105711252D01*
X56310000Y-105188748D02*
X56310000Y-105711252D01*
%TO.C,R11*%
X88435000Y-72727064D02*
X88435000Y-72272936D01*
X89905000Y-72727064D02*
X89905000Y-72272936D01*
%TD*%
M02*
