M48
; DRILL file {KiCad 9.0.0} date 2025-03-08T15:00:33-0700
; FORMAT={-:-/ absolute / inch / decimal}
; #@! TF.CreationDate,2025-03-08T15:00:33-07:00
; #@! TF.GenerationSoftware,Kicad,Pcbnew,9.0.0
; #@! TF.FileFunction,Plated,1,2,PTH
FMAT,2
INCH
; #@! TA.AperFunction,Plated,PTH,ViaDrill
T1C0.0118
; #@! TA.AperFunction,Plated,PTH,ComponentDrill
T2C0.0390
; #@! TA.AperFunction,Plated,PTH,ComponentDrill
T3C0.0394
; #@! TA.AperFunction,Plated,PTH,ComponentDrill
T4C0.0413
; #@! TA.AperFunction,Plated,PTH,ComponentDrill
T5C0.1220
%
G90
G05
T1
X1.9209Y-4.2402
X2.017Y-4.114
X2.0884Y-2.731
X2.1358Y-4.315
X2.1404Y-2.662
X2.188Y-4.189
X2.3406Y-3.8976
X2.4104Y-4.3593
X2.5118Y-3.9203
X2.538Y-3.0961
X2.5384Y-2.73
X2.5512Y-3.8927
X2.6752Y-4.7559
X2.6784Y-2.731
X2.6841Y-3.5856
X2.7493Y-4.6247
X2.7719Y-3.7648
X2.7729Y-4.5939
X2.7923Y-4.1909
X2.9272Y-4.7539
X3.1285Y-2.7307
X3.1285Y-3.0961
X3.3031Y-3.8583
X3.3031Y-4.1102
X3.4398Y-2.9882
X3.4402Y-2.8693
X3.5106Y-2.8937
X3.5106Y-2.9638
T2
X2.3136Y-2.0693
X2.3136Y-2.2382
X2.3986Y-2.0693
X2.3986Y-2.2382
X2.4837Y-2.0693
X2.4837Y-2.2382
X2.5687Y-2.0693
X2.5687Y-2.2382
X2.6537Y-2.0693
X2.6537Y-2.2382
X2.7388Y-2.0693
X2.7388Y-2.2382
X2.8238Y-2.0693
X2.8238Y-2.2382
X2.9089Y-2.0693
X2.9089Y-2.2382
X2.9939Y-2.0693
X2.9939Y-2.2382
X3.0789Y-2.0693
X3.0789Y-2.2382
X3.164Y-2.0693
X3.164Y-2.2382
X3.249Y-2.0693
X3.249Y-2.2382
T3
X1.752Y-2.7417
X1.752Y-2.8417
X1.752Y-2.9417
X1.752Y-3.0417
X1.752Y-3.1417
X1.752Y-3.2417
X1.752Y-3.3417
X1.752Y-3.4417
X1.752Y-3.5417
X1.752Y-3.6417
X1.752Y-3.7417
X1.752Y-3.8417
X1.752Y-3.9417
X1.752Y-4.0417
X1.752Y-4.1417
X1.752Y-4.2417
X1.752Y-4.3417
X1.752Y-4.4417
X1.752Y-4.5417
X1.752Y-4.6417
X1.852Y-2.7417
X1.852Y-2.8417
X1.852Y-2.9417
X1.852Y-3.0417
X1.852Y-3.1417
X1.852Y-3.2417
X1.852Y-3.3417
X1.852Y-3.4417
X1.852Y-3.5417
X1.852Y-3.6417
X1.852Y-3.7417
X1.852Y-3.8417
X1.852Y-3.9417
X1.852Y-4.0417
X1.852Y-4.1417
X1.852Y-4.2417
X1.852Y-4.3417
X1.852Y-4.4417
X1.852Y-4.5417
X1.852Y-4.6417
X3.7283Y-2.7835
X3.7283Y-2.8835
X3.7283Y-2.9835
X3.7283Y-3.0835
T4
X2.5278Y-4.8702
X2.5823Y-4.982
X2.6368Y-4.8702
X2.6914Y-4.982
X2.7459Y-4.8702
X2.8004Y-4.982
X2.855Y-4.8702
X2.9095Y-4.982
X2.964Y-4.8702
X3.4551Y-3.8195
X3.4551Y-3.9285
X3.4551Y-4.0376
X3.4551Y-4.1467
X3.4551Y-4.2557
X3.5669Y-3.874
X3.5669Y-3.9831
X3.5669Y-4.0921
X3.5669Y-4.2012
T5
X2.254Y-4.9261
X3.2378Y-4.9261
X3.511Y-3.5457
X3.511Y-4.5295
M30
