%TF.GenerationSoftware,KiCad,Pcbnew,9.0.0*%
%TF.CreationDate,2025-04-07T11:56:21-06:00*%
%TF.ProjectId,Senior Capstone,53656e69-6f72-4204-9361-7073746f6e65,4*%
%TF.SameCoordinates,Original*%
%TF.FileFunction,Copper,L2,Bot*%
%TF.FilePolarity,Positive*%
%FSLAX46Y46*%
G04 Gerber Fmt 4.6, Leading zero omitted, Abs format (unit mm)*
G04 Created by KiCad (PCBNEW 9.0.0) date 2025-04-07 11:56:21*
%MOMM*%
%LPD*%
G01*
G04 APERTURE LIST*
%TA.AperFunction,ComponentPad*%
%ADD10C,3.100000*%
%TD*%
%TA.AperFunction,ConnectorPad*%
%ADD11C,4.700000*%
%TD*%
%TA.AperFunction,ComponentPad*%
%ADD12R,1.575000X1.575000*%
%TD*%
%TA.AperFunction,ComponentPad*%
%ADD13C,1.575000*%
%TD*%
%TA.AperFunction,ComponentPad*%
%ADD14C,4.116000*%
%TD*%
%TA.AperFunction,ComponentPad*%
%ADD15R,1.700000X1.700000*%
%TD*%
%TA.AperFunction,ComponentPad*%
%ADD16O,1.700000X1.700000*%
%TD*%
%TA.AperFunction,ComponentPad*%
%ADD17C,1.498600*%
%TD*%
%TA.AperFunction,ViaPad*%
%ADD18C,0.600000*%
%TD*%
%TA.AperFunction,Conductor*%
%ADD19C,0.200000*%
%TD*%
%TA.AperFunction,Conductor*%
%ADD20C,0.500000*%
%TD*%
G04 APERTURE END LIST*
D10*
%TO.P,H4,1*%
%TO.N,N/C*%
X171763300Y-64700050D03*
D11*
X171763300Y-64700050D03*
%TD*%
D10*
%TO.P,H2,1*%
%TO.N,N/C*%
X122763300Y-64600050D03*
D11*
X122763300Y-64600050D03*
%TD*%
D12*
%TO.P,J2,01,01*%
%TO.N,unconnected-(J2-Pad01)*%
X164723300Y-94815050D03*
D13*
%TO.P,J2,02,02*%
%TO.N,/TX1*%
X164723300Y-97585050D03*
%TO.P,J2,03,03*%
%TO.N,/RX1*%
X164723300Y-100355050D03*
%TO.P,J2,04,04*%
%TO.N,unconnected-(J2-Pad04)*%
X164723300Y-103125050D03*
%TO.P,J2,05,05*%
%TO.N,GND*%
X164723300Y-105895050D03*
%TO.P,J2,06,06*%
%TO.N,unconnected-(J2-Pad06)*%
X167563300Y-96200050D03*
%TO.P,J2,07,07*%
%TO.N,unconnected-(J2-Pad07)*%
X167563300Y-98970050D03*
%TO.P,J2,08,08*%
%TO.N,unconnected-(J2-Pad08)*%
X167563300Y-101740050D03*
%TO.P,J2,09,09*%
%TO.N,unconnected-(J2-Pad09)*%
X167563300Y-104510050D03*
D14*
%TO.P,J2,S1,SHIELD*%
%TO.N,GND*%
X166143300Y-112850050D03*
%TO.P,J2,S2,SHIELD*%
X166143300Y-87860050D03*
%TD*%
D15*
%TO.P,J4,1,Pin_1*%
%TO.N,+3V3*%
X171663300Y-70500050D03*
D16*
%TO.P,J4,2,Pin_2*%
%TO.N,/GPIO14{slash}TXD0*%
X171663300Y-73040050D03*
%TO.P,J4,3,Pin_3*%
%TO.N,/GPIO15{slash}RXD0*%
X171663300Y-75580050D03*
%TO.P,J4,4,Pin_4*%
%TO.N,GND*%
X171663300Y-78120050D03*
%TD*%
D10*
%TO.P,H3,1*%
%TO.N,N/C*%
X171763300Y-122700050D03*
D11*
X171763300Y-122700050D03*
%TD*%
D12*
%TO.P,J3,01,01*%
%TO.N,unconnected-(J3-Pad01)*%
X152249050Y-123502550D03*
D13*
%TO.P,J3,02,02*%
%TO.N,/TX2*%
X149479050Y-123502550D03*
%TO.P,J3,03,03*%
%TO.N,/RX2*%
X146709050Y-123502550D03*
%TO.P,J3,04,04*%
%TO.N,unconnected-(J3-Pad04)*%
X143939050Y-123502550D03*
%TO.P,J3,05,05*%
%TO.N,GND*%
X141169050Y-123502550D03*
%TO.P,J3,06,06*%
%TO.N,unconnected-(J3-Pad06)*%
X150864050Y-126342550D03*
%TO.P,J3,07,07*%
%TO.N,unconnected-(J3-Pad07)*%
X148094050Y-126342550D03*
%TO.P,J3,08,08*%
%TO.N,unconnected-(J3-Pad08)*%
X145324050Y-126342550D03*
%TO.P,J3,09,09*%
%TO.N,unconnected-(J3-Pad09)*%
X142554050Y-126342550D03*
D14*
%TO.P,J3,S1,SHIELD*%
%TO.N,GND*%
X134214050Y-124922550D03*
%TO.P,J3,S2,SHIELD*%
X159204050Y-124922550D03*
%TD*%
D10*
%TO.P,H1,1*%
%TO.N,N/C*%
X122763300Y-122600050D03*
D11*
X122763300Y-122600050D03*
%TD*%
D17*
%TO.P,J6,1,DIO1*%
%TO.N,/GPIB/DIO1*%
X159488399Y-56650050D03*
%TO.P,J6,2,DIO2*%
%TO.N,/GPIB/DIO2*%
X157328401Y-56650050D03*
%TO.P,J6,3,DIO3*%
%TO.N,/GPIB/DIO3*%
X155168400Y-56650050D03*
%TO.P,J6,4,DIO4*%
%TO.N,/GPIB/DIO4*%
X153008399Y-56650050D03*
%TO.P,J6,5,EOI*%
%TO.N,/GPIB/EOI*%
X150848401Y-56650050D03*
%TO.P,J6,6,DAV*%
%TO.N,/GPIB/DAV*%
X148688400Y-56650050D03*
%TO.P,J6,7,NRFD*%
%TO.N,/GPIB/NFRD*%
X146528400Y-56650050D03*
%TO.P,J6,8,NDAC*%
%TO.N,/GPIB/NDAC*%
X144368399Y-56650050D03*
%TO.P,J6,9,IFC*%
%TO.N,/GPIB/IFC*%
X142208401Y-56650050D03*
%TO.P,J6,10,SRQ*%
%TO.N,/GPIB/SRQ*%
X140048400Y-56650050D03*
%TO.P,J6,11,ATN*%
%TO.N,/GPIB/ATN*%
X137888399Y-56650050D03*
%TO.P,J6,12,SHLD*%
%TO.N,GND*%
X135728401Y-56650050D03*
%TO.P,J6,13,DIO5*%
%TO.N,/GPIB/DIO5*%
X159488399Y-52360051D03*
%TO.P,J6,14,DIO6*%
%TO.N,/GPIB/DIO6*%
X157328401Y-52360051D03*
%TO.P,J6,15,DIO7*%
%TO.N,/GPIB/DIO7*%
X155168400Y-52360051D03*
%TO.P,J6,16,DIO8*%
%TO.N,/GPIB/DIO8*%
X153008399Y-52360051D03*
%TO.P,J6,17,REN*%
%TO.N,/GPIB/REN*%
X150848401Y-52360051D03*
%TO.P,J6,18,GND*%
%TO.N,GND*%
X148688400Y-52360051D03*
%TO.P,J6,19,GND*%
X146528400Y-52360051D03*
%TO.P,J6,20,GND*%
X144368399Y-52360051D03*
%TO.P,J6,21,GND*%
X142208401Y-52360051D03*
%TO.P,J6,22,GND*%
X140048400Y-52360051D03*
%TO.P,J6,23,GND*%
X137888399Y-52360051D03*
%TO.P,J6,24,GND*%
X135728401Y-52360051D03*
%TD*%
D15*
%TO.P,J1,1,Pin_1*%
%TO.N,+3V3*%
X124029500Y-117706850D03*
D16*
%TO.P,J1,2,Pin_2*%
%TO.N,+5V*%
X121489500Y-117706850D03*
%TO.P,J1,3,Pin_3*%
%TO.N,/GPIO2{slash}SDA1*%
X124029500Y-115166850D03*
%TO.P,J1,4,Pin_4*%
%TO.N,+5V*%
X121489500Y-115166850D03*
%TO.P,J1,5,Pin_5*%
%TO.N,/GPIO3{slash}SCL1*%
X124029500Y-112626850D03*
%TO.P,J1,6,Pin_6*%
%TO.N,GND*%
X121489500Y-112626850D03*
%TO.P,J1,7,Pin_7*%
%TO.N,/GPIO4{slash}GPCLK0*%
X124029500Y-110086850D03*
%TO.P,J1,8,Pin_8*%
%TO.N,/GPIO14{slash}TXD0*%
X121489500Y-110086850D03*
%TO.P,J1,9,Pin_9*%
%TO.N,GND*%
X124029500Y-107546850D03*
%TO.P,J1,10,Pin_10*%
%TO.N,/GPIO15{slash}RXD0*%
X121489500Y-107546850D03*
%TO.P,J1,11,Pin_11*%
%TO.N,/GPIO17*%
X124029500Y-105006850D03*
%TO.P,J1,12,Pin_12*%
%TO.N,TE*%
X121489500Y-105006850D03*
%TO.P,J1,13,Pin_13*%
%TO.N,GPIB_REN*%
X124029500Y-102466850D03*
%TO.P,J1,14,Pin_14*%
%TO.N,GND*%
X121489500Y-102466850D03*
%TO.P,J1,15,Pin_15*%
%TO.N,GPIB_IFC*%
X124029500Y-99926850D03*
%TO.P,J1,16,Pin_16*%
%TO.N,GPIB_NDAC*%
X121489500Y-99926850D03*
%TO.P,J1,17,Pin_17*%
%TO.N,+3V3*%
X124029500Y-97386850D03*
%TO.P,J1,18,Pin_18*%
%TO.N,GPIB_NRFD*%
X121489500Y-97386850D03*
%TO.P,J1,19,Pin_19*%
%TO.N,GPIB_DAV*%
X124029500Y-94846850D03*
%TO.P,J1,20,Pin_20*%
%TO.N,GND*%
X121489500Y-94846850D03*
%TO.P,J1,21,Pin_21*%
%TO.N,GPIB_EOI*%
X124029500Y-92306850D03*
%TO.P,J1,22,Pin_22*%
%TO.N,GPIB_ATN*%
X121489500Y-92306850D03*
%TO.P,J1,23,Pin_23*%
%TO.N,GPIB_SRQ*%
X124029500Y-89766850D03*
%TO.P,J1,24,Pin_24*%
%TO.N,DC*%
X121489500Y-89766850D03*
%TO.P,J1,25,Pin_25*%
%TO.N,GND*%
X124029500Y-87226850D03*
%TO.P,J1,26,Pin_26*%
%TO.N,/GPIO7{slash}SPI0.CE1*%
X121489500Y-87226850D03*
%TO.P,J1,27,Pin_27*%
%TO.N,/ID_SDA*%
X124029500Y-84686850D03*
%TO.P,J1,28,Pin_28*%
%TO.N,/ID_SCL*%
X121489500Y-84686850D03*
%TO.P,J1,29,Pin_29*%
%TO.N,GPIB_DIO8*%
X124029500Y-82146850D03*
%TO.P,J1,30,Pin_30*%
%TO.N,GND*%
X121489500Y-82146850D03*
%TO.P,J1,31,Pin_31*%
%TO.N,GPIB_DIO7*%
X124029500Y-79606850D03*
%TO.P,J1,32,Pin_32*%
%TO.N,GPIB_DIO6*%
X121489500Y-79606850D03*
%TO.P,J1,33,Pin_33*%
%TO.N,GPIB_DIO5*%
X124029500Y-77066850D03*
%TO.P,J1,34,Pin_34*%
%TO.N,GND*%
X121489500Y-77066850D03*
%TO.P,J1,35,Pin_35*%
%TO.N,GPIB_DIO4*%
X124029500Y-74526850D03*
%TO.P,J1,36,Pin_36*%
%TO.N,GPIB_DIO3*%
X121489500Y-74526850D03*
%TO.P,J1,37,Pin_37*%
%TO.N,GPIB_DIO2*%
X124029500Y-71986850D03*
%TO.P,J1,38,Pin_38*%
%TO.N,GPIB_DIO1*%
X121489500Y-71986850D03*
%TO.P,J1,39,Pin_39*%
%TO.N,GND*%
X124029500Y-69446850D03*
%TO.P,J1,40,Pin_40*%
%TO.N,/GPIO21{slash}PCM.DOUT*%
X121489500Y-69446850D03*
%TD*%
D18*
%TO.N,GND*%
X157471400Y-106752950D03*
X121793000Y-128879600D03*
X147888300Y-106250050D03*
X137492825Y-111889625D03*
X157496800Y-112645750D03*
X127177800Y-125425200D03*
X130007900Y-69167450D03*
X136399300Y-99263200D03*
X148040800Y-91389200D03*
X143992600Y-69164200D03*
X139344400Y-86537800D03*
%TO.N,/GPIO14{slash}TXD0*%
X162433000Y-71907400D03*
%TO.N,/GPIO15{slash}RXD0*%
X162026600Y-76657200D03*
X125806200Y-111175800D03*
%TO.N,+3V3*%
X129438400Y-100355400D03*
%TO.N,TE*%
X126951300Y-102311200D03*
X142443200Y-70197050D03*
X152687300Y-67491050D03*
X143925715Y-82838715D03*
X156500300Y-67512627D03*
%TO.N,/RX1*%
X153715110Y-100895834D03*
X147885581Y-93986781D03*
%TO.N,+5V*%
X156428300Y-78440050D03*
X144498449Y-88315599D03*
X126568200Y-118846600D03*
X142669649Y-79356301D03*
%TO.N,/TX1*%
X154315719Y-100367371D03*
X148285200Y-92735400D03*
%TO.N,/RX2*%
X141173200Y-99974400D03*
X147688397Y-116357400D03*
%TO.N,/TX2*%
X142113000Y-99974400D03*
X148488400Y-116357400D03*
%TO.N,/GPIB/SRQ*%
X132240581Y-66797061D03*
%TO.N,/GPIB/ATN*%
X132399194Y-67581182D03*
%TO.N,Net-(U2-XTAL1)*%
X142876300Y-105794250D03*
X149809200Y-108077000D03*
%TO.N,Net-(U2-XTAL2)*%
X142985435Y-106751915D03*
X151073000Y-110080350D03*
%TD*%
D19*
%TO.N,/GPIO14{slash}TXD0*%
X170530650Y-71907400D02*
X162433000Y-71907400D01*
X171663300Y-73040050D02*
X170530650Y-71907400D01*
%TO.N,/GPIO15{slash}RXD0*%
X122640500Y-110778700D02*
X122640500Y-108697850D01*
X125603000Y-111379000D02*
X123240800Y-111379000D01*
X122640500Y-108697850D02*
X121489500Y-107546850D01*
X162102800Y-76581000D02*
X170662350Y-76581000D01*
X123240800Y-111379000D02*
X122640500Y-110778700D01*
X125806200Y-111175800D02*
X125603000Y-111379000D01*
X162026600Y-76657200D02*
X162102800Y-76581000D01*
X170662350Y-76581000D02*
X171663300Y-75580050D01*
D20*
%TO.N,+3V3*%
X128400250Y-99317250D02*
X126264700Y-99317250D01*
X124334300Y-97386850D02*
X124029500Y-97386850D01*
X126264700Y-99317250D02*
X124334300Y-97386850D01*
X129438400Y-100355400D02*
X128400250Y-99317250D01*
D19*
%TO.N,TE*%
X141403100Y-71237150D02*
X141403100Y-78938282D01*
X143967200Y-82797230D02*
X143925715Y-82838715D01*
X156500300Y-67512627D02*
X156478723Y-67491050D01*
X142443200Y-70197050D02*
X141403100Y-71237150D01*
X125406650Y-103855850D02*
X126951300Y-102311200D01*
X156478723Y-67491050D02*
X152687300Y-67491050D01*
X141403100Y-78938282D02*
X143967200Y-81502382D01*
X143967200Y-81502382D02*
X143967200Y-82797230D01*
X124506260Y-103855850D02*
X125406650Y-103855850D01*
X121489500Y-104519700D02*
X121489500Y-105006850D01*
X124506260Y-103855850D02*
X122153350Y-103855850D01*
X122153350Y-103855850D02*
X121489500Y-104519700D01*
%TO.N,/RX1*%
X148138200Y-94756952D02*
X148138200Y-94239400D01*
X153714719Y-100831919D02*
X153714719Y-100333471D01*
X153715110Y-100895834D02*
X153715110Y-100832310D01*
X153714719Y-100333471D02*
X148138200Y-94756952D01*
X148138200Y-94239400D02*
X147885581Y-93986781D01*
X153715110Y-100832310D02*
X153714719Y-100831919D01*
D20*
%TO.N,+5V*%
X145060700Y-81816650D02*
X142669649Y-79425599D01*
X142669649Y-79425599D02*
X143079500Y-79835450D01*
X121489500Y-117706850D02*
X121489500Y-119076500D01*
X143079500Y-79835450D02*
X155032900Y-79835450D01*
X126568200Y-118846600D02*
X133121400Y-118846600D01*
X121489500Y-119076500D02*
X121970800Y-119557800D01*
X142669649Y-79356301D02*
X142669649Y-79425599D01*
X145060700Y-87684050D02*
X145060700Y-81816650D01*
X139548900Y-93195850D02*
X145060700Y-87684050D01*
X121970800Y-119557800D02*
X125857000Y-119557800D01*
X133121400Y-118846600D02*
X139548900Y-112419100D01*
X125857000Y-119557800D02*
X126568200Y-118846600D01*
X139548900Y-112419100D02*
X139548900Y-93195850D01*
X155032900Y-79835450D02*
X156428300Y-78440050D01*
D19*
%TO.N,/TX1*%
X148539200Y-94590852D02*
X154315719Y-100367371D01*
X148285200Y-92735400D02*
X148539200Y-92989400D01*
X148539200Y-92989400D02*
X148539200Y-94590852D01*
%TO.N,/RX2*%
X147688397Y-114769997D02*
X141732000Y-108813600D01*
X147688397Y-116357400D02*
X147688397Y-114769997D01*
X141732000Y-100533200D02*
X141173200Y-99974400D01*
X141732000Y-108813600D02*
X141732000Y-100533200D01*
%TO.N,/TX2*%
X142113000Y-99974400D02*
X142133000Y-99994400D01*
X142133000Y-108647500D02*
X148488400Y-115002900D01*
X148488400Y-115002900D02*
X148488400Y-116357400D01*
X142133000Y-99994400D02*
X142133000Y-108647500D01*
%TO.N,/GPIB/SRQ*%
X138289399Y-60987551D02*
X138289399Y-58409051D01*
X138289399Y-58409051D02*
X140048400Y-56650050D01*
X132479889Y-66797061D02*
X138289399Y-60987551D01*
X132240581Y-66797061D02*
X132479889Y-66797061D01*
%TO.N,/GPIB/ATN*%
X137888399Y-60739601D02*
X137888399Y-58575151D01*
X132399194Y-67581182D02*
X132174759Y-67581182D01*
X131639581Y-66988419D02*
X131639581Y-66548118D01*
X131639581Y-67046004D02*
X131639581Y-66988419D01*
X131991638Y-66196061D02*
X132431939Y-66196061D01*
X132431939Y-66196061D02*
X137888399Y-60739601D01*
X137888399Y-58575151D02*
X137888399Y-58242951D01*
X137888399Y-58242951D02*
X137888399Y-56650050D01*
X131991638Y-67398061D02*
X131639581Y-67046004D01*
X131639581Y-66548118D02*
X131991638Y-66196061D01*
X132174759Y-67581182D02*
X131991638Y-67398061D01*
%TO.N,Net-(U2-XTAL1)*%
X149692050Y-107959850D02*
X149809200Y-108077000D01*
X142876300Y-105794250D02*
X145041900Y-107959850D01*
X145041900Y-107959850D02*
X149692050Y-107959850D01*
%TO.N,Net-(U2-XTAL2)*%
X151073000Y-110080350D02*
X150898150Y-110080350D01*
X150898150Y-110080350D02*
X149178650Y-108360850D01*
X143266865Y-106751915D02*
X142985435Y-106751915D01*
X144875800Y-108360850D02*
X143266865Y-106751915D01*
X149178650Y-108360850D02*
X144875800Y-108360850D01*
%TD*%
%TA.AperFunction,Conductor*%
%TO.N,GND*%
G36*
X175462295Y-43673885D02*
G01*
X175529325Y-43693598D01*
X175575058Y-43746421D01*
X175586242Y-43797848D01*
X175612763Y-133275513D01*
X175593098Y-133342559D01*
X175540308Y-133388329D01*
X175488763Y-133399550D01*
X119737800Y-133399550D01*
X119670761Y-133379865D01*
X119625006Y-133327061D01*
X119613800Y-133275550D01*
X119613800Y-122439964D01*
X119912800Y-122439964D01*
X119912800Y-122760135D01*
X119948645Y-123078266D01*
X119948647Y-123078278D01*
X120019889Y-123390412D01*
X120019890Y-123390414D01*
X120125632Y-123692609D01*
X120264543Y-123981060D01*
X120274419Y-123996778D01*
X120434881Y-124252151D01*
X120550819Y-124397533D01*
X120627262Y-124493390D01*
X120634498Y-124502463D01*
X120860887Y-124728852D01*
X121111199Y-124928469D01*
X121382287Y-125098805D01*
X121670742Y-125237718D01*
X121972937Y-125343460D01*
X122285071Y-125414703D01*
X122603215Y-125450549D01*
X122603216Y-125450550D01*
X122603219Y-125450550D01*
X122923384Y-125450550D01*
X122923384Y-125450549D01*
X123241529Y-125414703D01*
X123553663Y-125343460D01*
X123855858Y-125237718D01*
X124144313Y-125098805D01*
X124415401Y-124928469D01*
X124602969Y-124778889D01*
X131656050Y-124778889D01*
X131656050Y-125066210D01*
X131688215Y-125351691D01*
X131688218Y-125351709D01*
X131752149Y-125631810D01*
X131752153Y-125631822D01*
X131847043Y-125903000D01*
X131847046Y-125903008D01*
X131971696Y-126161847D01*
X132124557Y-126405122D01*
X132236965Y-126546079D01*
X132955593Y-125827451D01*
X133031776Y-125932307D01*
X133204293Y-126104824D01*
X133309147Y-126181005D01*
X132590519Y-126899633D01*
X132731477Y-127012042D01*
X132974752Y-127164903D01*
X133233591Y-127289553D01*
X133233599Y-127289556D01*
X133504777Y-127384446D01*
X133504789Y-127384450D01*
X133784890Y-127448381D01*
X133784908Y-127448384D01*
X134070389Y-127480549D01*
X134070393Y-127480550D01*
X134357707Y-127480550D01*
X134357710Y-127480549D01*
X134643191Y-127448384D01*
X134643209Y-127448381D01*
X134923310Y-127384450D01*
X134923322Y-127384446D01*
X135194500Y-127289556D01*
X135194508Y-127289553D01*
X135453347Y-127164903D01*
X135696622Y-127012043D01*
X135837579Y-126899632D01*
X135118952Y-126181005D01*
X135223807Y-126104824D01*
X135396324Y-125932307D01*
X135472505Y-125827452D01*
X136191132Y-126546079D01*
X136303543Y-126405122D01*
X136406554Y-126241182D01*
X141266050Y-126241182D01*
X141266050Y-126443917D01*
X141297765Y-126644158D01*
X141360411Y-126836967D01*
X141360412Y-126836970D01*
X141392341Y-126899633D01*
X141449616Y-127012042D01*
X141452455Y-127017612D01*
X141571612Y-127181619D01*
X141571616Y-127181624D01*
X141714975Y-127324983D01*
X141714980Y-127324987D01*
X141796819Y-127384446D01*
X141878991Y-127444147D01*
X141997076Y-127504314D01*
X142059629Y-127536187D01*
X142059632Y-127536188D01*
X142156036Y-127567511D01*
X142252443Y-127598835D01*
X142452682Y-127630550D01*
X142452683Y-127630550D01*
X142655417Y-127630550D01*
X142655418Y-127630550D01*
X142855657Y-127598835D01*
X143048470Y-127536187D01*
X143229109Y-127444147D01*
X143393126Y-127324982D01*
X143536482Y-127181626D01*
X143655647Y-127017609D01*
X143747687Y-126836970D01*
X143810335Y-126644157D01*
X143816577Y-126604747D01*
X143846506Y-126541613D01*
X143905817Y-126504681D01*
X143975680Y-126505679D01*
X144033913Y-126544289D01*
X144061523Y-126604747D01*
X144067765Y-126644158D01*
X144130411Y-126836967D01*
X144130412Y-126836970D01*
X144162341Y-126899633D01*
X144219616Y-127012042D01*
X144222455Y-127017612D01*
X144341612Y-127181619D01*
X144341616Y-127181624D01*
X144484975Y-127324983D01*
X144484980Y-127324987D01*
X144566819Y-127384446D01*
X144648991Y-127444147D01*
X144767076Y-127504314D01*
X144829629Y-127536187D01*
X144829632Y-127536188D01*
X144926036Y-127567511D01*
X145022443Y-127598835D01*
X145222682Y-127630550D01*
X145222683Y-127630550D01*
X145425417Y-127630550D01*
X145425418Y-127630550D01*
X145625657Y-127598835D01*
X145818470Y-127536187D01*
X145999109Y-127444147D01*
X146163126Y-127324982D01*
X146306482Y-127181626D01*
X146425647Y-127017609D01*
X146517687Y-126836970D01*
X146580335Y-126644157D01*
X146586577Y-126604747D01*
X146616506Y-126541613D01*
X146675817Y-126504681D01*
X146745680Y-126505679D01*
X146803913Y-126544289D01*
X146831523Y-126604747D01*
X146837765Y-126644158D01*
X146900411Y-126836967D01*
X146900412Y-126836970D01*
X146932341Y-126899633D01*
X146989616Y-127012042D01*
X146992455Y-127017612D01*
X147111612Y-127181619D01*
X147111616Y-127181624D01*
X147254975Y-127324983D01*
X147254980Y-127324987D01*
X147336819Y-127384446D01*
X147418991Y-127444147D01*
X147537076Y-127504314D01*
X147599629Y-127536187D01*
X147599632Y-127536188D01*
X147696036Y-127567511D01*
X147792443Y-127598835D01*
X147992682Y-127630550D01*
X147992683Y-127630550D01*
X148195417Y-127630550D01*
X148195418Y-127630550D01*
X148395657Y-127598835D01*
X148588470Y-127536187D01*
X148769109Y-127444147D01*
X148933126Y-127324982D01*
X149076482Y-127181626D01*
X149195647Y-127017609D01*
X149287687Y-126836970D01*
X149350335Y-126644157D01*
X149356577Y-126604747D01*
X149386506Y-126541613D01*
X149445817Y-126504681D01*
X149515680Y-126505679D01*
X149573913Y-126544289D01*
X149601523Y-126604747D01*
X149607765Y-126644158D01*
X149670411Y-126836967D01*
X149670412Y-126836970D01*
X149702341Y-126899633D01*
X149759616Y-127012042D01*
X149762455Y-127017612D01*
X149881612Y-127181619D01*
X149881616Y-127181624D01*
X150024975Y-127324983D01*
X150024980Y-127324987D01*
X150106819Y-127384446D01*
X150188991Y-127444147D01*
X150307076Y-127504314D01*
X150369629Y-127536187D01*
X150369632Y-127536188D01*
X150466036Y-127567511D01*
X150562443Y-127598835D01*
X150762682Y-127630550D01*
X150762683Y-127630550D01*
X150965417Y-127630550D01*
X150965418Y-127630550D01*
X151165657Y-127598835D01*
X151358470Y-127536187D01*
X151539109Y-127444147D01*
X151703126Y-127324982D01*
X151846482Y-127181626D01*
X151965647Y-127017609D01*
X152057687Y-126836970D01*
X152057689Y-126836964D01*
X152065518Y-126812870D01*
X152065518Y-126812869D01*
X152078194Y-126773854D01*
X152120335Y-126644157D01*
X152152050Y-126443918D01*
X152152050Y-126241182D01*
X152120335Y-126040943D01*
X152057687Y-125848130D01*
X152057687Y-125848129D01*
X152000007Y-125734927D01*
X151965647Y-125667491D01*
X151880684Y-125550549D01*
X151846487Y-125503480D01*
X151846483Y-125503475D01*
X151703124Y-125360116D01*
X151703119Y-125360112D01*
X151539112Y-125240955D01*
X151539111Y-125240954D01*
X151539109Y-125240953D01*
X151456389Y-125198805D01*
X151358470Y-125148912D01*
X151358467Y-125148911D01*
X151165658Y-125086265D01*
X151065537Y-125070407D01*
X150965418Y-125054550D01*
X150762682Y-125054550D01*
X150695935Y-125065121D01*
X150562441Y-125086265D01*
X150369632Y-125148911D01*
X150369629Y-125148912D01*
X150188987Y-125240955D01*
X150024980Y-125360112D01*
X150024975Y-125360116D01*
X149881616Y-125503475D01*
X149881612Y-125503480D01*
X149762455Y-125667487D01*
X149670412Y-125848129D01*
X149670411Y-125848132D01*
X149607765Y-126040941D01*
X149601523Y-126080352D01*
X149571594Y-126143487D01*
X149512282Y-126180418D01*
X149442420Y-126179420D01*
X149384187Y-126140810D01*
X149356577Y-126080352D01*
X149355293Y-126072249D01*
X149350335Y-126040943D01*
X149287687Y-125848130D01*
X149287687Y-125848129D01*
X149230007Y-125734927D01*
X149195647Y-125667491D01*
X149110684Y-125550549D01*
X149076487Y-125503480D01*
X149076483Y-125503475D01*
X148933124Y-125360116D01*
X148933119Y-125360112D01*
X148769112Y-125240955D01*
X148769111Y-125240954D01*
X148769109Y-125240953D01*
X148686389Y-125198805D01*
X148588470Y-125148912D01*
X148588467Y-125148911D01*
X148395658Y-125086265D01*
X148295537Y-125070407D01*
X148195418Y-125054550D01*
X147992682Y-125054550D01*
X147925935Y-125065121D01*
X147792441Y-125086265D01*
X147599632Y-125148911D01*
X147599629Y-125148912D01*
X147418987Y-125240955D01*
X147254980Y-125360112D01*
X147254975Y-125360116D01*
X147111616Y-125503475D01*
X147111612Y-125503480D01*
X146992455Y-125667487D01*
X146900412Y-125848129D01*
X146900411Y-125848132D01*
X146837765Y-126040941D01*
X146831523Y-126080352D01*
X146801594Y-126143487D01*
X146742282Y-126180418D01*
X146672420Y-126179420D01*
X146614187Y-126140810D01*
X146586577Y-126080352D01*
X146585293Y-126072249D01*
X146580335Y-126040943D01*
X146517687Y-125848130D01*
X146517687Y-125848129D01*
X146460007Y-125734927D01*
X146425647Y-125667491D01*
X146340684Y-125550549D01*
X146306487Y-125503480D01*
X146306483Y-125503475D01*
X146163124Y-125360116D01*
X146163119Y-125360112D01*
X145999112Y-125240955D01*
X145999111Y-125240954D01*
X145999109Y-125240953D01*
X145916389Y-125198805D01*
X145818470Y-125148912D01*
X145818467Y-125148911D01*
X145625658Y-125086265D01*
X145525537Y-125070407D01*
X145425418Y-125054550D01*
X145222682Y-125054550D01*
X145155935Y-125065121D01*
X145022441Y-125086265D01*
X144829632Y-125148911D01*
X144829629Y-125148912D01*
X144648987Y-125240955D01*
X144484980Y-125360112D01*
X144484975Y-125360116D01*
X144341616Y-125503475D01*
X144341612Y-125503480D01*
X144222455Y-125667487D01*
X144130412Y-125848129D01*
X144130411Y-125848132D01*
X144067765Y-126040941D01*
X144061523Y-126080352D01*
X144031594Y-126143487D01*
X143972282Y-126180418D01*
X143902420Y-126179420D01*
X143844187Y-126140810D01*
X143816577Y-126080352D01*
X143815293Y-126072249D01*
X143810335Y-126040943D01*
X143747687Y-125848130D01*
X143747687Y-125848129D01*
X143690007Y-125734927D01*
X143655647Y-125667491D01*
X143570684Y-125550549D01*
X143536487Y-125503480D01*
X143536483Y-125503475D01*
X143393124Y-125360116D01*
X143393119Y-125360112D01*
X143229112Y-125240955D01*
X143229111Y-125240954D01*
X143229109Y-125240953D01*
X143146389Y-125198805D01*
X143048470Y-125148912D01*
X143048467Y-125148911D01*
X142855658Y-125086265D01*
X142755537Y-125070407D01*
X142655418Y-125054550D01*
X142452682Y-125054550D01*
X142385935Y-125065121D01*
X142252441Y-125086265D01*
X142059632Y-125148911D01*
X142059629Y-125148912D01*
X141878987Y-125240955D01*
X141714980Y-125360112D01*
X141714975Y-125360116D01*
X141571616Y-125503475D01*
X141571612Y-125503480D01*
X141452455Y-125667487D01*
X141360412Y-125848129D01*
X141360411Y-125848132D01*
X141297765Y-126040941D01*
X141266050Y-126241182D01*
X136406554Y-126241182D01*
X136451068Y-126170338D01*
X136451069Y-126170336D01*
X136451070Y-126170335D01*
X136456403Y-126161847D01*
X136581053Y-125903008D01*
X136581056Y-125903000D01*
X136675946Y-125631822D01*
X136675950Y-125631810D01*
X136739881Y-125351709D01*
X136739884Y-125351691D01*
X136772049Y-125066210D01*
X136772050Y-125066206D01*
X136772050Y-124778893D01*
X136772049Y-124778889D01*
X136745100Y-124539699D01*
X136739883Y-124493406D01*
X136739881Y-124493390D01*
X136675950Y-124213289D01*
X136675946Y-124213277D01*
X136581056Y-123942099D01*
X136581053Y-123942091D01*
X136456403Y-123683252D01*
X136317583Y-123462322D01*
X136303542Y-123439977D01*
X136272636Y-123401222D01*
X139881550Y-123401222D01*
X139881550Y-123603877D01*
X139913253Y-123804041D01*
X139975875Y-123996775D01*
X139975877Y-123996778D01*
X140067881Y-124177347D01*
X140098523Y-124219521D01*
X140098524Y-124219522D01*
X140665674Y-123652371D01*
X140679828Y-123705192D01*
X140748946Y-123824907D01*
X140846693Y-123922654D01*
X140966408Y-123991772D01*
X141019228Y-124005925D01*
X140452076Y-124573075D01*
X140494252Y-124603718D01*
X140674821Y-124695722D01*
X140674824Y-124695724D01*
X140867558Y-124758346D01*
X141067723Y-124790050D01*
X141270377Y-124790050D01*
X141470541Y-124758346D01*
X141663275Y-124695724D01*
X141663278Y-124695722D01*
X141843847Y-124603718D01*
X141886021Y-124573076D01*
X141886021Y-124573075D01*
X141318871Y-124005925D01*
X141371692Y-123991772D01*
X141491407Y-123922654D01*
X141589154Y-123824907D01*
X141658272Y-123705192D01*
X141672425Y-123652371D01*
X142239575Y-124219521D01*
X142239576Y-124219521D01*
X142270218Y-124177347D01*
X142362222Y-123996778D01*
X142362224Y-123996775D01*
X142424845Y-123804045D01*
X142431322Y-123763150D01*
X142461251Y-123700015D01*
X142520562Y-123663083D01*
X142590424Y-123664079D01*
X142648658Y-123702688D01*
X142676269Y-123763146D01*
X142682765Y-123804159D01*
X142745411Y-123996967D01*
X142745412Y-123996970D01*
X142837455Y-124177612D01*
X142956612Y-124341619D01*
X142956616Y-124341624D01*
X143099975Y-124484983D01*
X143099980Y-124484987D01*
X143221224Y-124573075D01*
X143263991Y-124604147D01*
X143349259Y-124647593D01*
X143444629Y-124696187D01*
X143444632Y-124696188D01*
X143541036Y-124727511D01*
X143637443Y-124758835D01*
X143837682Y-124790550D01*
X143837683Y-124790550D01*
X144040417Y-124790550D01*
X144040418Y-124790550D01*
X144240657Y-124758835D01*
X144433470Y-124696187D01*
X144614109Y-124604147D01*
X144778126Y-124484982D01*
X144921482Y-124341626D01*
X145040647Y-124177609D01*
X145132687Y-123996970D01*
X145195335Y-123804157D01*
X145201577Y-123764747D01*
X145231506Y-123701613D01*
X145290817Y-123664681D01*
X145360680Y-123665679D01*
X145418913Y-123704289D01*
X145446523Y-123764747D01*
X145452765Y-123804158D01*
X145515411Y-123996967D01*
X145515412Y-123996970D01*
X145607455Y-124177612D01*
X145726612Y-124341619D01*
X145726616Y-124341624D01*
X145869975Y-124484983D01*
X145869980Y-124484987D01*
X145991224Y-124573075D01*
X146033991Y-124604147D01*
X146119259Y-124647593D01*
X146214629Y-124696187D01*
X146214632Y-124696188D01*
X146311036Y-124727511D01*
X146407443Y-124758835D01*
X146607682Y-124790550D01*
X146607683Y-124790550D01*
X146810417Y-124790550D01*
X146810418Y-124790550D01*
X147010657Y-124758835D01*
X147203470Y-124696187D01*
X147384109Y-124604147D01*
X147548126Y-124484982D01*
X147691482Y-124341626D01*
X147810647Y-124177609D01*
X147902687Y-123996970D01*
X147965335Y-123804157D01*
X147971577Y-123764747D01*
X148001506Y-123701613D01*
X148060817Y-123664681D01*
X148130680Y-123665679D01*
X148188913Y-123704289D01*
X148216523Y-123764747D01*
X148222765Y-123804158D01*
X148285411Y-123996967D01*
X148285412Y-123996970D01*
X148377455Y-124177612D01*
X148496612Y-124341619D01*
X148496616Y-124341624D01*
X148639975Y-124484983D01*
X148639980Y-124484987D01*
X148761224Y-124573075D01*
X148803991Y-124604147D01*
X148889259Y-124647593D01*
X148984629Y-124696187D01*
X148984632Y-124696188D01*
X149081036Y-124727511D01*
X149177443Y-124758835D01*
X149377682Y-124790550D01*
X149377683Y-124790550D01*
X149580417Y-124790550D01*
X149580418Y-124790550D01*
X149780657Y-124758835D01*
X149973470Y-124696187D01*
X150154109Y-124604147D01*
X150318126Y-124484982D01*
X150461482Y-124341626D01*
X150580647Y-124177609D01*
X150672687Y-123996970D01*
X150719119Y-123854064D01*
X150758556Y-123796389D01*
X150822914Y-123769190D01*
X150891761Y-123781104D01*
X150943237Y-123828348D01*
X150961050Y-123892382D01*
X150961051Y-124337913D01*
X150961051Y-124337926D01*
X150967458Y-124397533D01*
X151017752Y-124532378D01*
X151017756Y-124532385D01*
X151104002Y-124647594D01*
X151104005Y-124647597D01*
X151219214Y-124733843D01*
X151219221Y-124733847D01*
X151354067Y-124784141D01*
X151354066Y-124784141D01*
X151360994Y-124784885D01*
X151413677Y-124790550D01*
X153084422Y-124790549D01*
X153144033Y-124784141D01*
X153158114Y-124778889D01*
X156646050Y-124778889D01*
X156646050Y-125066210D01*
X156678215Y-125351691D01*
X156678218Y-125351709D01*
X156742149Y-125631810D01*
X156742153Y-125631822D01*
X156837043Y-125903000D01*
X156837046Y-125903008D01*
X156961696Y-126161847D01*
X157114557Y-126405122D01*
X157226965Y-126546079D01*
X157945593Y-125827451D01*
X158021776Y-125932307D01*
X158194293Y-126104824D01*
X158299147Y-126181005D01*
X157580519Y-126899633D01*
X157721477Y-127012042D01*
X157964752Y-127164903D01*
X158223591Y-127289553D01*
X158223599Y-127289556D01*
X158494777Y-127384446D01*
X158494789Y-127384450D01*
X158774890Y-127448381D01*
X158774908Y-127448384D01*
X159060389Y-127480549D01*
X159060393Y-127480550D01*
X159347707Y-127480550D01*
X159347710Y-127480549D01*
X159633191Y-127448384D01*
X159633209Y-127448381D01*
X159913310Y-127384450D01*
X159913322Y-127384446D01*
X160184500Y-127289556D01*
X160184508Y-127289553D01*
X160443347Y-127164903D01*
X160686622Y-127012043D01*
X160827579Y-126899632D01*
X160108952Y-126181005D01*
X160213807Y-126104824D01*
X160386324Y-125932307D01*
X160462505Y-125827452D01*
X161181132Y-126546079D01*
X161293543Y-126405122D01*
X161446403Y-126161847D01*
X161571053Y-125903008D01*
X161571056Y-125903000D01*
X161665946Y-125631822D01*
X161665950Y-125631810D01*
X161729881Y-125351709D01*
X161729884Y-125351691D01*
X161762049Y-125066210D01*
X161762050Y-125066206D01*
X161762050Y-124778893D01*
X161762049Y-124778889D01*
X161729884Y-124493408D01*
X161729881Y-124493390D01*
X161665950Y-124213289D01*
X161665946Y-124213277D01*
X161571056Y-123942099D01*
X161571053Y-123942091D01*
X161446403Y-123683252D01*
X161293542Y-123439977D01*
X161181133Y-123299019D01*
X160462505Y-124017647D01*
X160386324Y-123912793D01*
X160213807Y-123740276D01*
X160108951Y-123664093D01*
X160827579Y-122945465D01*
X160686622Y-122833057D01*
X160443347Y-122680196D01*
X160376926Y-122648210D01*
X160376925Y-122648210D01*
X160184500Y-122555543D01*
X160139978Y-122539964D01*
X168912800Y-122539964D01*
X168912800Y-122860135D01*
X168948645Y-123178266D01*
X168948646Y-123178275D01*
X168948647Y-123178279D01*
X168953820Y-123200943D01*
X169019889Y-123490412D01*
X169019890Y-123490414D01*
X169125632Y-123792609D01*
X169264543Y-124081060D01*
X169264545Y-124081063D01*
X169434881Y-124352151D01*
X169634498Y-124602463D01*
X169860887Y-124828852D01*
X170111199Y-125028469D01*
X170382287Y-125198805D01*
X170670742Y-125337718D01*
X170972937Y-125443460D01*
X171285071Y-125514703D01*
X171603215Y-125550549D01*
X171603216Y-125550550D01*
X171603219Y-125550550D01*
X171923384Y-125550550D01*
X171923384Y-125550549D01*
X172241529Y-125514703D01*
X172553663Y-125443460D01*
X172855858Y-125337718D01*
X173144313Y-125198805D01*
X173415401Y-125028469D01*
X173665713Y-124828852D01*
X173892102Y-124602463D01*
X174091719Y-124352151D01*
X174262055Y-124081063D01*
X174400968Y-123792608D01*
X174506710Y-123490413D01*
X174577953Y-123178279D01*
X174613800Y-122860131D01*
X174613800Y-122539969D01*
X174577953Y-122221821D01*
X174506710Y-121909687D01*
X174400968Y-121607492D01*
X174262055Y-121319037D01*
X174091719Y-121047949D01*
X173892102Y-120797637D01*
X173665713Y-120571248D01*
X173415401Y-120371631D01*
X173144313Y-120201295D01*
X173144310Y-120201293D01*
X172855859Y-120062382D01*
X172553664Y-119956640D01*
X172553662Y-119956639D01*
X172312771Y-119901657D01*
X172241529Y-119885397D01*
X172241525Y-119885396D01*
X172241516Y-119885395D01*
X171923385Y-119849550D01*
X171923381Y-119849550D01*
X171603219Y-119849550D01*
X171603214Y-119849550D01*
X171285083Y-119885395D01*
X171285071Y-119885397D01*
X170972937Y-119956639D01*
X170972935Y-119956640D01*
X170670740Y-120062382D01*
X170382289Y-120201293D01*
X170111200Y-120371630D01*
X169860887Y-120571247D01*
X169634497Y-120797637D01*
X169434880Y-121047950D01*
X169264543Y-121319039D01*
X169125632Y-121607490D01*
X169019890Y-121909685D01*
X169019889Y-121909687D01*
X168948647Y-122221821D01*
X168948645Y-122221833D01*
X168912800Y-122539964D01*
X160139978Y-122539964D01*
X159913322Y-122460653D01*
X159913310Y-122460649D01*
X159633209Y-122396718D01*
X159633191Y-122396715D01*
X159347710Y-122364550D01*
X159060389Y-122364550D01*
X158774908Y-122396715D01*
X158774890Y-122396718D01*
X158494789Y-122460649D01*
X158494777Y-122460653D01*
X158223599Y-122555543D01*
X158223591Y-122555546D01*
X157964752Y-122680196D01*
X157721483Y-122833053D01*
X157580520Y-122945466D01*
X158299148Y-123664094D01*
X158194293Y-123740276D01*
X158021776Y-123912793D01*
X157945594Y-124017648D01*
X157226966Y-123299020D01*
X157114553Y-123439983D01*
X156961696Y-123683252D01*
X156837046Y-123942091D01*
X156837043Y-123942099D01*
X156742153Y-124213277D01*
X156742149Y-124213289D01*
X156678218Y-124493390D01*
X156678215Y-124493408D01*
X156646050Y-124778889D01*
X153158114Y-124778889D01*
X153278881Y-124733846D01*
X153394096Y-124647596D01*
X153480346Y-124532381D01*
X153530641Y-124397533D01*
X153537050Y-124337923D01*
X153537049Y-122667178D01*
X153530641Y-122607567D01*
X153511238Y-122555546D01*
X153480347Y-122472721D01*
X153480343Y-122472714D01*
X153394097Y-122357505D01*
X153394094Y-122357502D01*
X153278885Y-122271256D01*
X153278878Y-122271252D01*
X153144032Y-122220958D01*
X153144033Y-122220958D01*
X153084433Y-122214551D01*
X153084431Y-122214550D01*
X153084423Y-122214550D01*
X153084414Y-122214550D01*
X151413679Y-122214550D01*
X151413673Y-122214551D01*
X151354066Y-122220958D01*
X151219221Y-122271252D01*
X151219214Y-122271256D01*
X151104005Y-122357502D01*
X151104002Y-122357505D01*
X151017756Y-122472714D01*
X151017752Y-122472721D01*
X150967458Y-122607567D01*
X150963089Y-122648210D01*
X150961051Y-122667173D01*
X150961050Y-122667185D01*
X150961050Y-123112716D01*
X150941365Y-123179755D01*
X150888561Y-123225510D01*
X150819403Y-123235454D01*
X150755847Y-123206429D01*
X150719119Y-123151034D01*
X150672688Y-123008132D01*
X150672687Y-123008129D01*
X150640758Y-122945465D01*
X150580647Y-122827491D01*
X150531707Y-122760131D01*
X150461487Y-122663480D01*
X150461483Y-122663475D01*
X150318124Y-122520116D01*
X150318119Y-122520112D01*
X150154112Y-122400955D01*
X150154111Y-122400954D01*
X150154109Y-122400953D01*
X150082664Y-122364550D01*
X149973470Y-122308912D01*
X149973467Y-122308911D01*
X149780658Y-122246265D01*
X149680537Y-122230407D01*
X149580418Y-122214550D01*
X149377682Y-122214550D01*
X149310935Y-122225121D01*
X149177441Y-122246265D01*
X148984632Y-122308911D01*
X148984629Y-122308912D01*
X148803987Y-122400955D01*
X148639980Y-122520112D01*
X148639975Y-122520116D01*
X148496616Y-122663475D01*
X148496612Y-122663480D01*
X148377455Y-122827487D01*
X148285412Y-123008129D01*
X148285411Y-123008132D01*
X148222765Y-123200941D01*
X148216523Y-123240352D01*
X148186594Y-123303487D01*
X148127282Y-123340418D01*
X148057420Y-123339420D01*
X147999187Y-123300810D01*
X147971577Y-123240352D01*
X147969226Y-123225510D01*
X147965335Y-123200943D01*
X147934011Y-123104536D01*
X147902688Y-123008132D01*
X147902687Y-123008129D01*
X147870758Y-122945465D01*
X147810647Y-122827491D01*
X147761707Y-122760131D01*
X147691487Y-122663480D01*
X147691483Y-122663475D01*
X147548124Y-122520116D01*
X147548119Y-122520112D01*
X147384112Y-122400955D01*
X147384111Y-122400954D01*
X147384109Y-122400953D01*
X147312664Y-122364550D01*
X147203470Y-122308912D01*
X147203467Y-122308911D01*
X147010658Y-122246265D01*
X146910537Y-122230407D01*
X146810418Y-122214550D01*
X146607682Y-122214550D01*
X146540935Y-122225121D01*
X146407441Y-122246265D01*
X146214632Y-122308911D01*
X146214629Y-122308912D01*
X146033987Y-122400955D01*
X145869980Y-122520112D01*
X145869975Y-122520116D01*
X145726616Y-122663475D01*
X145726612Y-122663480D01*
X145607455Y-122827487D01*
X145515412Y-123008129D01*
X145515411Y-123008132D01*
X145452765Y-123200941D01*
X145446523Y-123240352D01*
X145416594Y-123303487D01*
X145357282Y-123340418D01*
X145287420Y-123339420D01*
X145229187Y-123300810D01*
X145201577Y-123240352D01*
X145199226Y-123225510D01*
X145195335Y-123200943D01*
X145164011Y-123104536D01*
X145132688Y-123008132D01*
X145132687Y-123008129D01*
X145100758Y-122945465D01*
X145040647Y-122827491D01*
X144991707Y-122760131D01*
X144921487Y-122663480D01*
X144921483Y-122663475D01*
X144778124Y-122520116D01*
X144778119Y-122520112D01*
X144614112Y-122400955D01*
X144614111Y-122400954D01*
X144614109Y-122400953D01*
X144542664Y-122364550D01*
X144433470Y-122308912D01*
X144433467Y-122308911D01*
X144240658Y-122246265D01*
X144140537Y-122230407D01*
X144040418Y-122214550D01*
X143837682Y-122214550D01*
X143770935Y-122225121D01*
X143637441Y-122246265D01*
X143444632Y-122308911D01*
X143444629Y-122308912D01*
X143263987Y-122400955D01*
X143099980Y-122520112D01*
X143099975Y-122520116D01*
X142956616Y-122663475D01*
X142956612Y-122663480D01*
X142837455Y-122827487D01*
X142745412Y-123008129D01*
X142745411Y-123008132D01*
X142682765Y-123200940D01*
X142676269Y-123241953D01*
X142646338Y-123305087D01*
X142587026Y-123342017D01*
X142517164Y-123341019D01*
X142458932Y-123302408D01*
X142431322Y-123241949D01*
X142424845Y-123201054D01*
X142362224Y-123008324D01*
X142362222Y-123008321D01*
X142270218Y-122827752D01*
X142239575Y-122785577D01*
X142239575Y-122785576D01*
X141672425Y-123352727D01*
X141658272Y-123299908D01*
X141589154Y-123180193D01*
X141491407Y-123082446D01*
X141371692Y-123013328D01*
X141318872Y-122999174D01*
X141886022Y-122432024D01*
X141886021Y-122432023D01*
X141843847Y-122401381D01*
X141663278Y-122309377D01*
X141663275Y-122309375D01*
X141470541Y-122246753D01*
X141270377Y-122215050D01*
X141067723Y-122215050D01*
X140867558Y-122246753D01*
X140674824Y-122309375D01*
X140674821Y-122309376D01*
X140494254Y-122401380D01*
X140452077Y-122432023D01*
X141019228Y-122999174D01*
X140966408Y-123013328D01*
X140846693Y-123082446D01*
X140748946Y-123180193D01*
X140679828Y-123299908D01*
X140665674Y-123352728D01*
X140098523Y-122785577D01*
X140067880Y-122827754D01*
X139975876Y-123008321D01*
X139975875Y-123008324D01*
X139913253Y-123201058D01*
X139881550Y-123401222D01*
X136272636Y-123401222D01*
X136191133Y-123299019D01*
X135472505Y-124017647D01*
X135396324Y-123912793D01*
X135223807Y-123740276D01*
X135118951Y-123664093D01*
X135837579Y-122945465D01*
X135696622Y-122833057D01*
X135453347Y-122680196D01*
X135268132Y-122591002D01*
X135268131Y-122591002D01*
X135194500Y-122555543D01*
X134923322Y-122460653D01*
X134923310Y-122460649D01*
X134643209Y-122396718D01*
X134643191Y-122396715D01*
X134357710Y-122364550D01*
X134070389Y-122364550D01*
X133784908Y-122396715D01*
X133784890Y-122396718D01*
X133504789Y-122460649D01*
X133504777Y-122460653D01*
X133233599Y-122555543D01*
X133233591Y-122555546D01*
X132974752Y-122680196D01*
X132731483Y-122833053D01*
X132590520Y-122945466D01*
X133309148Y-123664094D01*
X133204293Y-123740276D01*
X133031776Y-123912793D01*
X132955594Y-124017648D01*
X132236966Y-123299020D01*
X132124553Y-123439983D01*
X131971696Y-123683252D01*
X131847046Y-123942091D01*
X131847043Y-123942099D01*
X131752153Y-124213277D01*
X131752149Y-124213289D01*
X131688218Y-124493390D01*
X131688215Y-124493408D01*
X131656050Y-124778889D01*
X124602969Y-124778889D01*
X124665713Y-124728852D01*
X124892102Y-124502463D01*
X125091719Y-124252151D01*
X125262055Y-123981063D01*
X125400968Y-123692608D01*
X125506710Y-123390413D01*
X125577953Y-123078279D01*
X125582491Y-123038003D01*
X125589024Y-122980028D01*
X125605583Y-122833057D01*
X125613800Y-122760131D01*
X125613800Y-122439969D01*
X125577953Y-122121821D01*
X125506710Y-121809687D01*
X125400968Y-121507492D01*
X125262055Y-121219037D01*
X125091719Y-120947949D01*
X124892102Y-120697637D01*
X124714446Y-120519981D01*
X124680961Y-120458658D01*
X124685945Y-120388966D01*
X124727817Y-120333033D01*
X124793281Y-120308616D01*
X124802127Y-120308300D01*
X125930920Y-120308300D01*
X126028462Y-120288896D01*
X126075913Y-120279458D01*
X126212495Y-120222884D01*
X126261729Y-120189986D01*
X126335416Y-120140752D01*
X126842748Y-119633418D01*
X126904071Y-119599934D01*
X126930429Y-119597100D01*
X133195320Y-119597100D01*
X133292862Y-119577696D01*
X133340313Y-119568258D01*
X133476895Y-119511684D01*
X133541691Y-119468389D01*
X133541694Y-119468386D01*
X133541696Y-119468386D01*
X133570947Y-119448840D01*
X133599816Y-119429552D01*
X140131852Y-112897515D01*
X140159105Y-112856727D01*
X140213984Y-112774595D01*
X140237418Y-112718020D01*
X140270559Y-112638012D01*
X140299400Y-112493017D01*
X140299400Y-112345182D01*
X140299400Y-100516301D01*
X140319085Y-100449262D01*
X140371889Y-100403507D01*
X140441047Y-100393563D01*
X140504603Y-100422588D01*
X140526501Y-100447409D01*
X140539898Y-100467459D01*
X140551412Y-100484691D01*
X140662907Y-100596186D01*
X140662911Y-100596189D01*
X140794014Y-100683790D01*
X140794027Y-100683797D01*
X140916642Y-100734585D01*
X140939703Y-100744137D01*
X140989983Y-100754138D01*
X141031691Y-100762435D01*
X141093602Y-100794820D01*
X141128176Y-100855535D01*
X141131500Y-100884052D01*
X141131500Y-108726930D01*
X141131499Y-108726948D01*
X141131499Y-108892654D01*
X141131498Y-108892654D01*
X141149906Y-108961351D01*
X141172423Y-109045385D01*
X141178982Y-109056746D01*
X141201358Y-109095500D01*
X141201359Y-109095504D01*
X141201360Y-109095504D01*
X141251479Y-109182314D01*
X141251481Y-109182317D01*
X141370349Y-109301185D01*
X141370355Y-109301190D01*
X147051578Y-114982413D01*
X147085063Y-115043736D01*
X147087897Y-115070094D01*
X147087897Y-115777634D01*
X147068212Y-115844673D01*
X147066999Y-115846525D01*
X146979006Y-115978214D01*
X146978999Y-115978227D01*
X146918661Y-116123898D01*
X146918658Y-116123910D01*
X146887897Y-116278553D01*
X146887897Y-116436246D01*
X146918658Y-116590889D01*
X146918661Y-116590901D01*
X146978999Y-116736572D01*
X146979006Y-116736585D01*
X147066607Y-116867688D01*
X147066610Y-116867692D01*
X147178104Y-116979186D01*
X147178108Y-116979189D01*
X147309211Y-117066790D01*
X147309224Y-117066797D01*
X147454895Y-117127135D01*
X147454900Y-117127137D01*
X147609550Y-117157899D01*
X147609553Y-117157900D01*
X147609555Y-117157900D01*
X147767241Y-117157900D01*
X147767242Y-117157899D01*
X147921894Y-117127137D01*
X148040947Y-117077823D01*
X148110414Y-117070355D01*
X148135847Y-117077822D01*
X148254903Y-117127137D01*
X148409553Y-117157899D01*
X148409556Y-117157900D01*
X148409558Y-117157900D01*
X148567244Y-117157900D01*
X148567245Y-117157899D01*
X148721897Y-117127137D01*
X148867579Y-117066794D01*
X148867804Y-117066644D01*
X148888403Y-117052880D01*
X148998689Y-116979189D01*
X149110189Y-116867689D01*
X149197794Y-116736579D01*
X149258137Y-116590897D01*
X149288900Y-116436242D01*
X149288900Y-116278558D01*
X149288900Y-116278555D01*
X149288899Y-116278553D01*
X149258138Y-116123910D01*
X149258137Y-116123903D01*
X149226135Y-116046642D01*
X149197797Y-115978227D01*
X149197790Y-115978214D01*
X149109798Y-115846525D01*
X149088920Y-115779847D01*
X149088900Y-115777634D01*
X149088900Y-115091959D01*
X149088901Y-115091946D01*
X149088901Y-114923845D01*
X149088901Y-114923843D01*
X149047977Y-114771115D01*
X149002840Y-114692936D01*
X148968920Y-114634184D01*
X148857116Y-114522380D01*
X148852785Y-114518049D01*
X148852774Y-114518039D01*
X147041124Y-112706389D01*
X163585300Y-112706389D01*
X163585300Y-112993710D01*
X163617465Y-113279191D01*
X163617468Y-113279209D01*
X163681399Y-113559310D01*
X163681403Y-113559322D01*
X163776293Y-113830500D01*
X163776296Y-113830508D01*
X163900946Y-114089347D01*
X164053807Y-114332622D01*
X164166215Y-114473579D01*
X164884843Y-113754950D01*
X164961026Y-113859807D01*
X165133543Y-114032324D01*
X165238397Y-114108505D01*
X164519769Y-114827133D01*
X164660727Y-114939542D01*
X164904002Y-115092403D01*
X165162841Y-115217053D01*
X165162849Y-115217056D01*
X165434027Y-115311946D01*
X165434039Y-115311950D01*
X165714140Y-115375881D01*
X165714158Y-115375884D01*
X165999639Y-115408049D01*
X165999643Y-115408050D01*
X166286957Y-115408050D01*
X166286960Y-115408049D01*
X166572441Y-115375884D01*
X166572459Y-115375881D01*
X166852560Y-115311950D01*
X166852572Y-115311946D01*
X167123750Y-115217056D01*
X167123758Y-115217053D01*
X167382597Y-115092403D01*
X167625872Y-114939543D01*
X167766829Y-114827132D01*
X167048202Y-114108505D01*
X167153057Y-114032324D01*
X167325574Y-113859807D01*
X167401755Y-113754952D01*
X168120382Y-114473579D01*
X168232793Y-114332622D01*
X168385653Y-114089347D01*
X168510303Y-113830508D01*
X168510306Y-113830500D01*
X168605196Y-113559322D01*
X168605200Y-113559310D01*
X168669131Y-113279209D01*
X168669134Y-113279191D01*
X168701299Y-112993710D01*
X168701300Y-112993706D01*
X168701300Y-112706393D01*
X168701299Y-112706389D01*
X168669134Y-112420908D01*
X168669131Y-112420890D01*
X168605200Y-112140789D01*
X168605196Y-112140777D01*
X168510306Y-111869599D01*
X168510303Y-111869591D01*
X168385653Y-111610752D01*
X168232792Y-111367477D01*
X168120383Y-111226519D01*
X167401755Y-111945147D01*
X167325574Y-111840293D01*
X167153057Y-111667776D01*
X167048201Y-111591593D01*
X167766829Y-110872965D01*
X167625872Y-110760557D01*
X167382597Y-110607696D01*
X167123758Y-110483046D01*
X167123750Y-110483043D01*
X166852572Y-110388153D01*
X166852560Y-110388149D01*
X166572459Y-110324218D01*
X166572441Y-110324215D01*
X166286960Y-110292050D01*
X165999639Y-110292050D01*
X165714158Y-110324215D01*
X165714140Y-110324218D01*
X165434039Y-110388149D01*
X165434027Y-110388153D01*
X165162849Y-110483043D01*
X165162841Y-110483046D01*
X164904002Y-110607696D01*
X164660733Y-110760553D01*
X164519770Y-110872966D01*
X165238398Y-111591594D01*
X165133543Y-111667776D01*
X164961026Y-111840293D01*
X164884844Y-111945148D01*
X164166216Y-111226520D01*
X164053803Y-111367483D01*
X163900946Y-111610752D01*
X163776296Y-111869591D01*
X163776293Y-111869599D01*
X163681403Y-112140777D01*
X163681399Y-112140789D01*
X163617468Y-112420890D01*
X163617465Y-112420908D01*
X163585300Y-112706389D01*
X147041124Y-112706389D01*
X142769819Y-108435084D01*
X142736334Y-108373761D01*
X142733500Y-108347403D01*
X142733500Y-107669079D01*
X142753185Y-107602040D01*
X142805989Y-107556285D01*
X142875147Y-107546341D01*
X142881693Y-107547462D01*
X142906592Y-107552415D01*
X142906593Y-107552415D01*
X143064277Y-107552415D01*
X143127598Y-107539819D01*
X143197186Y-107546045D01*
X143239469Y-107573755D01*
X144507084Y-108841370D01*
X144507086Y-108841371D01*
X144507090Y-108841374D01*
X144644009Y-108920423D01*
X144644016Y-108920427D01*
X144796743Y-108961351D01*
X144796745Y-108961351D01*
X144962454Y-108961351D01*
X144962470Y-108961350D01*
X148878553Y-108961350D01*
X148945592Y-108981035D01*
X148966234Y-108997669D01*
X150300564Y-110331999D01*
X150327444Y-110372227D01*
X150363604Y-110459525D01*
X150363609Y-110459535D01*
X150451210Y-110590638D01*
X150451213Y-110590642D01*
X150562707Y-110702136D01*
X150562711Y-110702139D01*
X150693814Y-110789740D01*
X150693827Y-110789747D01*
X150839498Y-110850085D01*
X150839503Y-110850087D01*
X150954518Y-110872965D01*
X150994153Y-110880849D01*
X150994156Y-110880850D01*
X150994158Y-110880850D01*
X151151844Y-110880850D01*
X151151845Y-110880849D01*
X151306497Y-110850087D01*
X151347780Y-110832986D01*
X151410880Y-110806851D01*
X151452172Y-110789747D01*
X151452172Y-110789746D01*
X151452179Y-110789744D01*
X151583289Y-110702139D01*
X151694789Y-110590639D01*
X151782394Y-110459529D01*
X151842737Y-110313847D01*
X151873500Y-110159192D01*
X151873500Y-110001508D01*
X151873500Y-110001505D01*
X151873499Y-110001503D01*
X151842738Y-109846860D01*
X151842737Y-109846853D01*
X151842735Y-109846848D01*
X151782397Y-109701177D01*
X151782390Y-109701164D01*
X151694789Y-109570061D01*
X151694786Y-109570057D01*
X151583292Y-109458563D01*
X151583288Y-109458560D01*
X151452185Y-109370959D01*
X151452172Y-109370952D01*
X151306501Y-109310614D01*
X151306489Y-109310611D01*
X151151845Y-109279850D01*
X151151842Y-109279850D01*
X150998247Y-109279850D01*
X150931208Y-109260165D01*
X150910566Y-109243531D01*
X150430337Y-108763302D01*
X150396852Y-108701979D01*
X150401836Y-108632287D01*
X150427525Y-108592319D01*
X150427128Y-108591993D01*
X150429927Y-108588582D01*
X150430344Y-108587933D01*
X150430989Y-108587289D01*
X150518594Y-108456179D01*
X150578937Y-108310497D01*
X150609700Y-108155842D01*
X150609700Y-107998158D01*
X150609700Y-107998155D01*
X150609699Y-107998153D01*
X150599514Y-107946949D01*
X150578937Y-107843503D01*
X150536000Y-107739843D01*
X150518597Y-107697827D01*
X150518590Y-107697814D01*
X150430989Y-107566711D01*
X150430986Y-107566707D01*
X150319492Y-107455213D01*
X150319488Y-107455210D01*
X150188385Y-107367609D01*
X150188372Y-107367602D01*
X150042701Y-107307264D01*
X150042689Y-107307261D01*
X149888045Y-107276500D01*
X149888042Y-107276500D01*
X149730358Y-107276500D01*
X149730355Y-107276500D01*
X149575710Y-107307261D01*
X149575702Y-107307263D01*
X149537635Y-107323031D01*
X149472739Y-107349911D01*
X149425289Y-107359350D01*
X145341997Y-107359350D01*
X145274958Y-107339665D01*
X145254316Y-107323031D01*
X143710874Y-105779589D01*
X143677389Y-105718266D01*
X143676938Y-105716099D01*
X143658895Y-105625397D01*
X143646037Y-105560753D01*
X143617759Y-105492483D01*
X143585697Y-105415077D01*
X143585690Y-105415064D01*
X143498089Y-105283961D01*
X143498086Y-105283957D01*
X143386592Y-105172463D01*
X143386588Y-105172460D01*
X143255485Y-105084859D01*
X143255472Y-105084852D01*
X143109801Y-105024514D01*
X143109789Y-105024511D01*
X142955145Y-104993750D01*
X142955142Y-104993750D01*
X142857500Y-104993750D01*
X142790461Y-104974065D01*
X142744706Y-104921261D01*
X142733500Y-104869750D01*
X142733500Y-100524233D01*
X142753185Y-100457194D01*
X142754398Y-100455342D01*
X142758026Y-100449913D01*
X142822394Y-100353579D01*
X142882737Y-100207897D01*
X142913500Y-100053242D01*
X142913500Y-99895558D01*
X142913500Y-99895555D01*
X142913499Y-99895553D01*
X142906552Y-99860629D01*
X142882737Y-99740903D01*
X142851709Y-99665994D01*
X142822397Y-99595227D01*
X142822390Y-99595214D01*
X142734789Y-99464111D01*
X142734786Y-99464107D01*
X142623292Y-99352613D01*
X142623288Y-99352610D01*
X142492185Y-99265009D01*
X142492172Y-99265002D01*
X142346501Y-99204664D01*
X142346489Y-99204661D01*
X142191845Y-99173900D01*
X142191842Y-99173900D01*
X142034158Y-99173900D01*
X142034155Y-99173900D01*
X141879510Y-99204661D01*
X141879498Y-99204664D01*
X141733828Y-99265002D01*
X141733817Y-99265008D01*
X141711990Y-99279593D01*
X141645312Y-99300470D01*
X141577932Y-99281985D01*
X141574210Y-99279593D01*
X141564115Y-99272848D01*
X141552379Y-99265006D01*
X141552376Y-99265004D01*
X141552371Y-99265002D01*
X141406701Y-99204664D01*
X141406689Y-99204661D01*
X141252045Y-99173900D01*
X141252042Y-99173900D01*
X141094358Y-99173900D01*
X141094355Y-99173900D01*
X140939710Y-99204661D01*
X140939698Y-99204664D01*
X140794027Y-99265002D01*
X140794014Y-99265009D01*
X140662911Y-99352610D01*
X140662907Y-99352613D01*
X140551413Y-99464107D01*
X140551410Y-99464111D01*
X140526502Y-99501389D01*
X140472889Y-99546194D01*
X140403564Y-99554901D01*
X140340537Y-99524746D01*
X140303818Y-99465303D01*
X140299400Y-99432498D01*
X140299400Y-93907934D01*
X147085081Y-93907934D01*
X147085081Y-94065627D01*
X147115842Y-94220270D01*
X147115845Y-94220282D01*
X147176183Y-94365953D01*
X147176190Y-94365966D01*
X147263791Y-94497069D01*
X147263794Y-94497073D01*
X147375288Y-94608567D01*
X147375296Y-94608573D01*
X147482589Y-94680264D01*
X147527395Y-94733876D01*
X147537699Y-94783366D01*
X147537699Y-94836006D01*
X147537698Y-94836006D01*
X147578623Y-94988737D01*
X147607558Y-95038852D01*
X147607559Y-95038856D01*
X147607560Y-95038856D01*
X147657679Y-95125666D01*
X147657681Y-95125669D01*
X147776549Y-95244537D01*
X147776555Y-95244542D01*
X152959709Y-100427697D01*
X152993194Y-100489020D01*
X152988210Y-100558712D01*
X152986589Y-100562830D01*
X152945374Y-100662332D01*
X152945371Y-100662344D01*
X152914610Y-100816987D01*
X152914610Y-100974680D01*
X152945371Y-101129323D01*
X152945374Y-101129335D01*
X153005712Y-101275006D01*
X153005719Y-101275019D01*
X153093320Y-101406122D01*
X153093323Y-101406126D01*
X153204817Y-101517620D01*
X153204821Y-101517623D01*
X153335924Y-101605224D01*
X153335937Y-101605231D01*
X153481608Y-101665569D01*
X153481613Y-101665571D01*
X153601459Y-101689410D01*
X153636263Y-101696333D01*
X153636266Y-101696334D01*
X153636268Y-101696334D01*
X153793954Y-101696334D01*
X153793955Y-101696333D01*
X153948607Y-101665571D01*
X154094289Y-101605228D01*
X154225399Y-101517623D01*
X154336899Y-101406123D01*
X154424504Y-101275013D01*
X154450192Y-101212992D01*
X154494031Y-101158591D01*
X154540565Y-101138828D01*
X154549216Y-101137108D01*
X154694898Y-101076765D01*
X154826008Y-100989160D01*
X154937508Y-100877660D01*
X155025113Y-100746550D01*
X155026113Y-100744137D01*
X155062347Y-100656658D01*
X155085456Y-100600868D01*
X155116219Y-100446213D01*
X155116219Y-100288529D01*
X155116219Y-100288526D01*
X155116218Y-100288524D01*
X155103848Y-100226335D01*
X155085456Y-100133874D01*
X155080500Y-100121910D01*
X155025116Y-99988198D01*
X155025109Y-99988185D01*
X154937508Y-99857082D01*
X154937505Y-99857078D01*
X154826011Y-99745584D01*
X154826007Y-99745581D01*
X154694904Y-99657980D01*
X154694891Y-99657973D01*
X154549220Y-99597635D01*
X154549210Y-99597632D01*
X154393870Y-99566733D01*
X154331960Y-99534348D01*
X154330381Y-99532797D01*
X149176019Y-94378435D01*
X149142534Y-94317112D01*
X149139700Y-94290754D01*
X149139700Y-93979685D01*
X163435300Y-93979685D01*
X163435300Y-95650420D01*
X163435301Y-95650426D01*
X163441708Y-95710033D01*
X163492002Y-95844878D01*
X163492006Y-95844885D01*
X163578252Y-95960094D01*
X163578255Y-95960097D01*
X163693464Y-96046343D01*
X163693471Y-96046347D01*
X163828317Y-96096641D01*
X163828316Y-96096641D01*
X163835244Y-96097385D01*
X163887927Y-96103050D01*
X164333468Y-96103049D01*
X164400505Y-96122733D01*
X164446260Y-96175537D01*
X164456204Y-96244696D01*
X164427179Y-96308252D01*
X164371784Y-96344980D01*
X164228882Y-96391411D01*
X164228879Y-96391412D01*
X164048237Y-96483455D01*
X163884230Y-96602612D01*
X163884225Y-96602616D01*
X163740866Y-96745975D01*
X163740862Y-96745980D01*
X163621705Y-96909987D01*
X163529662Y-97090629D01*
X163529661Y-97090632D01*
X163467015Y-97283441D01*
X163439631Y-97456335D01*
X163435300Y-97483682D01*
X163435300Y-97686418D01*
X163437941Y-97703093D01*
X163467015Y-97886658D01*
X163529661Y-98079467D01*
X163529662Y-98079470D01*
X163621705Y-98260112D01*
X163740862Y-98424119D01*
X163740866Y-98424124D01*
X163884225Y-98567483D01*
X163884230Y-98567487D01*
X164023185Y-98668443D01*
X164048241Y-98686647D01*
X164166326Y-98746814D01*
X164228879Y-98778687D01*
X164228882Y-98778688D01*
X164325286Y-98810011D01*
X164421693Y-98841335D01*
X164452999Y-98846293D01*
X164461102Y-98847577D01*
X164524237Y-98877506D01*
X164561168Y-98936818D01*
X164560170Y-99006680D01*
X164521560Y-99064913D01*
X164461102Y-99092523D01*
X164421691Y-99098765D01*
X164228882Y-99161411D01*
X164228879Y-99161412D01*
X164048237Y-99253455D01*
X163884230Y-99372612D01*
X163884225Y-99372616D01*
X163740866Y-99515975D01*
X163740862Y-99515980D01*
X163621705Y-99679987D01*
X163529662Y-99860629D01*
X163529661Y-99860632D01*
X163467015Y-100053441D01*
X163435300Y-100253682D01*
X163435300Y-100456417D01*
X163467015Y-100656658D01*
X163529661Y-100849467D01*
X163529662Y-100849470D01*
X163584429Y-100956954D01*
X163600838Y-100989160D01*
X163621705Y-101030112D01*
X163740862Y-101194119D01*
X163740866Y-101194124D01*
X163884225Y-101337483D01*
X163884230Y-101337487D01*
X164023185Y-101438443D01*
X164048241Y-101456647D01*
X164154326Y-101510700D01*
X164228879Y-101548687D01*
X164228882Y-101548688D01*
X164325286Y-101580011D01*
X164421693Y-101611335D01*
X164452999Y-101616293D01*
X164461102Y-101617577D01*
X164524237Y-101647506D01*
X164561168Y-101706818D01*
X164560170Y-101776680D01*
X164521560Y-101834913D01*
X164461102Y-101862523D01*
X164421691Y-101868765D01*
X164228882Y-101931411D01*
X164228879Y-101931412D01*
X164048237Y-102023455D01*
X163884230Y-102142612D01*
X163884225Y-102142616D01*
X163740866Y-102285975D01*
X163740862Y-102285980D01*
X163621705Y-102449987D01*
X163529662Y-102630629D01*
X163529661Y-102630632D01*
X163467015Y-102823441D01*
X163439631Y-102996335D01*
X163435300Y-103023682D01*
X163435300Y-103226418D01*
X163446364Y-103296273D01*
X163467015Y-103426658D01*
X163529661Y-103619467D01*
X163529662Y-103619470D01*
X163621705Y-103800112D01*
X163740862Y-103964119D01*
X163740866Y-103964124D01*
X163884225Y-104107483D01*
X163884230Y-104107487D01*
X164023185Y-104208443D01*
X164048241Y-104226647D01*
X164166326Y-104286814D01*
X164228879Y-104318687D01*
X164228882Y-104318688D01*
X164421692Y-104381335D01*
X164462700Y-104387830D01*
X164525835Y-104417759D01*
X164562767Y-104477070D01*
X164561769Y-104546933D01*
X164523160Y-104605166D01*
X164462702Y-104632776D01*
X164421808Y-104639253D01*
X164229074Y-104701875D01*
X164229071Y-104701876D01*
X164048504Y-104793880D01*
X164006327Y-104824523D01*
X164573478Y-105391674D01*
X164520658Y-105405828D01*
X164400943Y-105474946D01*
X164303196Y-105572693D01*
X164234078Y-105692408D01*
X164219924Y-105745228D01*
X163652773Y-105178077D01*
X163622130Y-105220254D01*
X163530126Y-105400821D01*
X163530125Y-105400824D01*
X163467503Y-105593558D01*
X163435800Y-105793722D01*
X163435800Y-105996377D01*
X163467503Y-106196541D01*
X163530125Y-106389275D01*
X163530127Y-106389278D01*
X163622131Y-106569847D01*
X163652773Y-106612021D01*
X163652774Y-106612022D01*
X164219924Y-106044871D01*
X164234078Y-106097692D01*
X164303196Y-106217407D01*
X164400943Y-106315154D01*
X164520658Y-106384272D01*
X164573478Y-106398425D01*
X164006326Y-106965575D01*
X164048502Y-106996218D01*
X164229071Y-107088222D01*
X164229074Y-107088224D01*
X164421808Y-107150846D01*
X164621973Y-107182550D01*
X164824627Y-107182550D01*
X165024791Y-107150846D01*
X165217525Y-107088224D01*
X165217528Y-107088222D01*
X165398097Y-106996218D01*
X165440271Y-106965576D01*
X165440271Y-106965575D01*
X164873121Y-106398425D01*
X164925942Y-106384272D01*
X165045657Y-106315154D01*
X165143404Y-106217407D01*
X165212522Y-106097692D01*
X165226675Y-106044871D01*
X165793825Y-106612021D01*
X165793826Y-106612021D01*
X165824468Y-106569847D01*
X165916472Y-106389278D01*
X165916474Y-106389275D01*
X165979096Y-106196541D01*
X166010800Y-105996377D01*
X166010800Y-105793722D01*
X165979096Y-105593558D01*
X165916474Y-105400824D01*
X165916472Y-105400821D01*
X165824468Y-105220252D01*
X165793825Y-105178077D01*
X165793825Y-105178076D01*
X165226675Y-105745227D01*
X165212522Y-105692408D01*
X165143404Y-105572693D01*
X165045657Y-105474946D01*
X164925942Y-105405828D01*
X164873122Y-105391674D01*
X165440272Y-104824524D01*
X165440271Y-104824523D01*
X165398097Y-104793881D01*
X165217528Y-104701877D01*
X165217525Y-104701875D01*
X165024790Y-104639252D01*
X164983898Y-104632776D01*
X164920763Y-104602847D01*
X164883832Y-104543535D01*
X164884830Y-104473672D01*
X164923440Y-104415440D01*
X164983898Y-104387830D01*
X165024907Y-104381335D01*
X165217720Y-104318687D01*
X165398359Y-104226647D01*
X165562376Y-104107482D01*
X165705732Y-103964126D01*
X165824897Y-103800109D01*
X165916937Y-103619470D01*
X165979585Y-103426657D01*
X166011300Y-103226418D01*
X166011300Y-103023682D01*
X165979585Y-102823443D01*
X165946783Y-102722487D01*
X165916938Y-102630632D01*
X165916937Y-102630629D01*
X165867027Y-102532676D01*
X165824897Y-102449991D01*
X165799554Y-102415109D01*
X165705737Y-102285980D01*
X165705733Y-102285975D01*
X165562374Y-102142616D01*
X165562369Y-102142612D01*
X165398362Y-102023455D01*
X165398361Y-102023454D01*
X165398359Y-102023453D01*
X165340486Y-101993965D01*
X165217720Y-101931412D01*
X165217717Y-101931411D01*
X165024908Y-101868765D01*
X164985497Y-101862523D01*
X164922363Y-101832594D01*
X164885431Y-101773283D01*
X164886429Y-101703420D01*
X164925039Y-101645187D01*
X164985497Y-101617577D01*
X164986341Y-101617443D01*
X165024907Y-101611335D01*
X165217720Y-101548687D01*
X165398359Y-101456647D01*
X165562376Y-101337482D01*
X165705732Y-101194126D01*
X165824897Y-101030109D01*
X165916937Y-100849470D01*
X165979585Y-100656657D01*
X166011300Y-100456418D01*
X166011300Y-100253682D01*
X165979585Y-100053443D01*
X165946783Y-99952487D01*
X165916938Y-99860632D01*
X165916937Y-99860629D01*
X165858317Y-99745582D01*
X165824897Y-99679991D01*
X165765062Y-99597635D01*
X165705737Y-99515980D01*
X165705733Y-99515975D01*
X165562374Y-99372616D01*
X165562369Y-99372612D01*
X165398362Y-99253455D01*
X165398361Y-99253454D01*
X165398359Y-99253453D01*
X165330798Y-99219029D01*
X165217720Y-99161412D01*
X165217717Y-99161411D01*
X165024908Y-99098765D01*
X164985497Y-99092523D01*
X164922363Y-99062594D01*
X164885431Y-99003283D01*
X164886429Y-98933420D01*
X164925039Y-98875187D01*
X164985497Y-98847577D01*
X164986341Y-98847443D01*
X165024907Y-98841335D01*
X165217720Y-98778687D01*
X165398359Y-98686647D01*
X165562376Y-98567482D01*
X165705732Y-98424126D01*
X165824897Y-98260109D01*
X165916937Y-98079470D01*
X165979585Y-97886657D01*
X166011300Y-97686418D01*
X166011300Y-97483682D01*
X165979585Y-97283443D01*
X165946783Y-97182487D01*
X165916938Y-97090632D01*
X165916937Y-97090629D01*
X165885064Y-97028076D01*
X165824897Y-96909991D01*
X165794705Y-96868435D01*
X165705737Y-96745980D01*
X165705733Y-96745975D01*
X165562374Y-96602616D01*
X165562369Y-96602612D01*
X165398362Y-96483455D01*
X165398361Y-96483454D01*
X165398359Y-96483453D01*
X165340486Y-96453965D01*
X165217720Y-96391412D01*
X165217717Y-96391411D01*
X165074814Y-96344980D01*
X165017139Y-96305543D01*
X164989940Y-96241184D01*
X165001854Y-96172338D01*
X165049099Y-96120862D01*
X165113131Y-96103049D01*
X165558672Y-96103049D01*
X165599296Y-96098682D01*
X166275300Y-96098682D01*
X166275300Y-96301418D01*
X166279631Y-96328765D01*
X166307015Y-96501658D01*
X166369661Y-96694467D01*
X166369662Y-96694470D01*
X166400701Y-96755386D01*
X166458302Y-96868435D01*
X166461705Y-96875112D01*
X166580862Y-97039119D01*
X166580866Y-97039124D01*
X166724225Y-97182483D01*
X166724230Y-97182487D01*
X166863185Y-97283443D01*
X166888241Y-97301647D01*
X167006326Y-97361814D01*
X167068879Y-97393687D01*
X167068882Y-97393688D01*
X167165286Y-97425011D01*
X167261693Y-97456335D01*
X167292999Y-97461293D01*
X167301102Y-97462577D01*
X167364237Y-97492506D01*
X167401168Y-97551818D01*
X167400170Y-97621680D01*
X167361560Y-97679913D01*
X167301102Y-97707523D01*
X167261691Y-97713765D01*
X167068882Y-97776411D01*
X167068879Y-97776412D01*
X166888237Y-97868455D01*
X166724230Y-97987612D01*
X166724225Y-97987616D01*
X166580866Y-98130975D01*
X166580862Y-98130980D01*
X166461705Y-98294987D01*
X166369662Y-98475629D01*
X166369661Y-98475632D01*
X166307015Y-98668441D01*
X166275300Y-98868682D01*
X166275300Y-99071417D01*
X166307015Y-99271658D01*
X166369661Y-99464467D01*
X166369662Y-99464470D01*
X166421839Y-99566871D01*
X166457167Y-99636207D01*
X166461705Y-99645112D01*
X166580862Y-99809119D01*
X166580866Y-99809124D01*
X166724225Y-99952483D01*
X166724230Y-99952487D01*
X166863185Y-100053443D01*
X166888241Y-100071647D01*
X166986874Y-100121903D01*
X167068879Y-100163687D01*
X167068882Y-100163688D01*
X167165286Y-100195011D01*
X167261693Y-100226335D01*
X167292999Y-100231293D01*
X167301102Y-100232577D01*
X167364237Y-100262506D01*
X167401168Y-100321818D01*
X167400170Y-100391680D01*
X167361560Y-100449913D01*
X167301102Y-100477523D01*
X167261691Y-100483765D01*
X167068882Y-100546411D01*
X167068879Y-100546412D01*
X166888237Y-100638455D01*
X166724230Y-100757612D01*
X166724225Y-100757616D01*
X166580866Y-100900975D01*
X166580862Y-100900980D01*
X166461705Y-101064987D01*
X166369662Y-101245629D01*
X166369661Y-101245632D01*
X166307015Y-101438441D01*
X166275300Y-101638682D01*
X166275300Y-101841417D01*
X166307015Y-102041658D01*
X166369661Y-102234467D01*
X166369662Y-102234470D01*
X166423866Y-102340850D01*
X166454526Y-102401024D01*
X166461705Y-102415112D01*
X166580862Y-102579119D01*
X166580866Y-102579124D01*
X166724225Y-102722483D01*
X166724230Y-102722487D01*
X166863185Y-102823443D01*
X166888241Y-102841647D01*
X166970357Y-102883487D01*
X167068879Y-102933687D01*
X167068882Y-102933688D01*
X167165286Y-102965011D01*
X167261693Y-102996335D01*
X167292999Y-103001293D01*
X167301102Y-103002577D01*
X167364237Y-103032506D01*
X167401168Y-103091818D01*
X167400170Y-103161680D01*
X167361560Y-103219913D01*
X167301102Y-103247523D01*
X167261691Y-103253765D01*
X167068882Y-103316411D01*
X167068879Y-103316412D01*
X166888237Y-103408455D01*
X166724230Y-103527612D01*
X166724225Y-103527616D01*
X166580866Y-103670975D01*
X166580862Y-103670980D01*
X166461705Y-103834987D01*
X166369662Y-104015629D01*
X166369661Y-104015632D01*
X166307015Y-104208441D01*
X166275300Y-104408682D01*
X166275300Y-104611417D01*
X166307015Y-104811658D01*
X166369661Y-105004467D01*
X166369662Y-105004470D01*
X166461705Y-105185112D01*
X166580862Y-105349119D01*
X166580866Y-105349124D01*
X166724225Y-105492483D01*
X166724230Y-105492487D01*
X166791686Y-105541496D01*
X166888241Y-105611647D01*
X166984806Y-105660849D01*
X167068879Y-105703687D01*
X167068882Y-105703688D01*
X167113750Y-105718266D01*
X167261693Y-105766335D01*
X167461932Y-105798050D01*
X167461933Y-105798050D01*
X167664667Y-105798050D01*
X167664668Y-105798050D01*
X167864907Y-105766335D01*
X168057720Y-105703687D01*
X168238359Y-105611647D01*
X168402376Y-105492482D01*
X168545732Y-105349126D01*
X168664897Y-105185109D01*
X168756937Y-105004470D01*
X168819585Y-104811657D01*
X168851300Y-104611418D01*
X168851300Y-104408682D01*
X168819585Y-104208443D01*
X168786783Y-104107487D01*
X168756938Y-104015632D01*
X168756937Y-104015629D01*
X168725064Y-103953076D01*
X168664897Y-103834991D01*
X168606993Y-103755293D01*
X168545737Y-103670980D01*
X168545733Y-103670975D01*
X168402374Y-103527616D01*
X168402369Y-103527612D01*
X168238362Y-103408455D01*
X168238361Y-103408454D01*
X168238359Y-103408453D01*
X168173351Y-103375330D01*
X168057720Y-103316412D01*
X168057717Y-103316411D01*
X167864908Y-103253765D01*
X167825497Y-103247523D01*
X167762363Y-103217594D01*
X167725431Y-103158283D01*
X167726429Y-103088420D01*
X167765039Y-103030187D01*
X167825497Y-103002577D01*
X167826341Y-103002443D01*
X167864907Y-102996335D01*
X168057720Y-102933687D01*
X168238359Y-102841647D01*
X168402376Y-102722482D01*
X168545732Y-102579126D01*
X168664897Y-102415109D01*
X168756937Y-102234470D01*
X168819585Y-102041657D01*
X168851300Y-101841418D01*
X168851300Y-101638682D01*
X168819585Y-101438443D01*
X168786783Y-101337487D01*
X168756938Y-101245632D01*
X168756937Y-101245629D01*
X168709107Y-101151759D01*
X168664897Y-101064991D01*
X168609801Y-100989157D01*
X168545737Y-100900980D01*
X168545733Y-100900975D01*
X168402374Y-100757616D01*
X168402369Y-100757612D01*
X168238362Y-100638455D01*
X168238361Y-100638454D01*
X168238359Y-100638453D01*
X168164594Y-100600868D01*
X168057720Y-100546412D01*
X168057717Y-100546411D01*
X167864908Y-100483765D01*
X167825497Y-100477523D01*
X167762363Y-100447594D01*
X167725431Y-100388283D01*
X167726429Y-100318420D01*
X167765039Y-100260187D01*
X167825497Y-100232577D01*
X167826341Y-100232443D01*
X167864907Y-100226335D01*
X168057720Y-100163687D01*
X168238359Y-100071647D01*
X168402376Y-99952482D01*
X168545732Y-99809126D01*
X168664897Y-99645109D01*
X168756937Y-99464470D01*
X168819585Y-99271657D01*
X168851300Y-99071418D01*
X168851300Y-98868682D01*
X168819585Y-98668443D01*
X168786783Y-98567487D01*
X168756938Y-98475632D01*
X168756937Y-98475629D01*
X168725064Y-98413076D01*
X168664897Y-98294991D01*
X168639554Y-98260109D01*
X168545737Y-98130980D01*
X168545733Y-98130975D01*
X168402374Y-97987616D01*
X168402369Y-97987612D01*
X168238362Y-97868455D01*
X168238361Y-97868454D01*
X168238359Y-97868453D01*
X168180486Y-97838965D01*
X168057720Y-97776412D01*
X168057717Y-97776411D01*
X167864908Y-97713765D01*
X167825497Y-97707523D01*
X167762363Y-97677594D01*
X167725431Y-97618283D01*
X167726429Y-97548420D01*
X167765039Y-97490187D01*
X167825497Y-97462577D01*
X167826341Y-97462443D01*
X167864907Y-97456335D01*
X168057720Y-97393687D01*
X168238359Y-97301647D01*
X168402376Y-97182482D01*
X168545732Y-97039126D01*
X168664897Y-96875109D01*
X168756937Y-96694470D01*
X168819585Y-96501657D01*
X168851300Y-96301418D01*
X168851300Y-96098682D01*
X168819585Y-95898443D01*
X168758368Y-95710033D01*
X168756938Y-95705632D01*
X168756937Y-95705629D01*
X168725064Y-95643076D01*
X168664897Y-95524991D01*
X168548849Y-95365264D01*
X168545737Y-95360980D01*
X168545733Y-95360975D01*
X168402374Y-95217616D01*
X168402369Y-95217612D01*
X168238362Y-95098455D01*
X168238361Y-95098454D01*
X168238359Y-95098453D01*
X168180486Y-95068965D01*
X168057720Y-95006412D01*
X168057717Y-95006411D01*
X167864908Y-94943765D01*
X167764787Y-94927907D01*
X167664668Y-94912050D01*
X167461932Y-94912050D01*
X167395185Y-94922621D01*
X167261691Y-94943765D01*
X167068882Y-95006411D01*
X167068879Y-95006412D01*
X166888237Y-95098455D01*
X166724230Y-95217612D01*
X166724225Y-95217616D01*
X166580866Y-95360975D01*
X166580862Y-95360980D01*
X166461705Y-95524987D01*
X166369662Y-95705629D01*
X166369661Y-95705632D01*
X166307015Y-95898441D01*
X166275623Y-96096641D01*
X166275300Y-96098682D01*
X165599296Y-96098682D01*
X165618283Y-96096641D01*
X165753131Y-96046346D01*
X165868346Y-95960096D01*
X165954596Y-95844881D01*
X166004891Y-95710033D01*
X166011300Y-95650423D01*
X166011299Y-93979678D01*
X166004891Y-93920067D01*
X165954596Y-93785219D01*
X165954595Y-93785218D01*
X165954593Y-93785214D01*
X165868347Y-93670005D01*
X165868344Y-93670002D01*
X165753135Y-93583756D01*
X165753128Y-93583752D01*
X165618282Y-93533458D01*
X165618283Y-93533458D01*
X165558683Y-93527051D01*
X165558681Y-93527050D01*
X165558673Y-93527050D01*
X165558664Y-93527050D01*
X163887929Y-93527050D01*
X163887923Y-93527051D01*
X163828316Y-93533458D01*
X163693471Y-93583752D01*
X163693464Y-93583756D01*
X163578255Y-93670002D01*
X163578252Y-93670005D01*
X163492006Y-93785214D01*
X163492002Y-93785221D01*
X163441708Y-93920067D01*
X163436621Y-93967390D01*
X163435301Y-93979673D01*
X163435300Y-93979685D01*
X149139700Y-93979685D01*
X149139700Y-92910345D01*
X149139700Y-92910343D01*
X149114008Y-92814457D01*
X149098777Y-92757615D01*
X149098774Y-92757609D01*
X149095665Y-92750101D01*
X149098354Y-92748987D01*
X149085700Y-92701738D01*
X149085700Y-92656555D01*
X149085699Y-92656553D01*
X149079043Y-92623093D01*
X149054937Y-92501903D01*
X149054935Y-92501898D01*
X148994597Y-92356227D01*
X148994590Y-92356214D01*
X148906989Y-92225111D01*
X148906986Y-92225107D01*
X148795492Y-92113613D01*
X148795488Y-92113610D01*
X148664385Y-92026009D01*
X148664372Y-92026002D01*
X148518701Y-91965664D01*
X148518689Y-91965661D01*
X148364045Y-91934900D01*
X148364042Y-91934900D01*
X148206358Y-91934900D01*
X148206355Y-91934900D01*
X148051710Y-91965661D01*
X148051698Y-91965664D01*
X147906027Y-92026002D01*
X147906014Y-92026009D01*
X147774911Y-92113610D01*
X147774907Y-92113613D01*
X147663413Y-92225107D01*
X147663410Y-92225111D01*
X147575809Y-92356214D01*
X147575802Y-92356227D01*
X147515464Y-92501898D01*
X147515461Y-92501910D01*
X147484700Y-92656553D01*
X147484700Y-92814246D01*
X147515461Y-92968889D01*
X147515464Y-92968901D01*
X147575750Y-93114445D01*
X147583219Y-93183914D01*
X147551944Y-93246393D01*
X147511682Y-93274349D01*
X147511772Y-93274517D01*
X147510339Y-93275282D01*
X147508654Y-93276453D01*
X147506410Y-93277382D01*
X147506395Y-93277390D01*
X147375292Y-93364991D01*
X147375288Y-93364994D01*
X147263794Y-93476488D01*
X147263791Y-93476492D01*
X147176190Y-93607595D01*
X147176183Y-93607608D01*
X147115845Y-93753279D01*
X147115842Y-93753291D01*
X147085081Y-93907934D01*
X140299400Y-93907934D01*
X140299400Y-93558078D01*
X140319085Y-93491039D01*
X140335714Y-93470402D01*
X144695445Y-89110670D01*
X144735671Y-89083793D01*
X144877621Y-89024996D01*
X144877621Y-89024995D01*
X144877628Y-89024993D01*
X145008738Y-88937388D01*
X145120238Y-88825888D01*
X145207843Y-88694778D01*
X145266643Y-88552820D01*
X145293518Y-88512597D01*
X145643651Y-88162466D01*
X145725784Y-88039545D01*
X145782358Y-87902963D01*
X145791796Y-87855512D01*
X145811200Y-87757970D01*
X145811200Y-87716389D01*
X163585300Y-87716389D01*
X163585300Y-88003710D01*
X163617465Y-88289191D01*
X163617468Y-88289209D01*
X163681399Y-88569310D01*
X163681403Y-88569322D01*
X163776293Y-88840500D01*
X163776296Y-88840508D01*
X163900946Y-89099347D01*
X164053807Y-89342622D01*
X164166215Y-89483579D01*
X164884843Y-88764950D01*
X164961026Y-88869807D01*
X165133543Y-89042324D01*
X165238397Y-89118505D01*
X164519769Y-89837133D01*
X164660727Y-89949542D01*
X164904002Y-90102403D01*
X165162841Y-90227053D01*
X165162849Y-90227056D01*
X165434027Y-90321946D01*
X165434039Y-90321950D01*
X165714140Y-90385881D01*
X165714158Y-90385884D01*
X165999639Y-90418049D01*
X165999643Y-90418050D01*
X166286957Y-90418050D01*
X166286960Y-90418049D01*
X166572441Y-90385884D01*
X166572459Y-90385881D01*
X166852560Y-90321950D01*
X166852572Y-90321946D01*
X167123750Y-90227056D01*
X167123758Y-90227053D01*
X167382597Y-90102403D01*
X167625872Y-89949543D01*
X167766829Y-89837132D01*
X167048202Y-89118505D01*
X167153057Y-89042324D01*
X167325574Y-88869807D01*
X167401755Y-88764952D01*
X168120382Y-89483579D01*
X168232793Y-89342622D01*
X168385653Y-89099347D01*
X168510303Y-88840508D01*
X168510306Y-88840500D01*
X168605196Y-88569322D01*
X168605200Y-88569310D01*
X168669131Y-88289209D01*
X168669134Y-88289191D01*
X168701299Y-88003710D01*
X168701300Y-88003706D01*
X168701300Y-87716393D01*
X168701299Y-87716389D01*
X168669134Y-87430908D01*
X168669131Y-87430890D01*
X168605200Y-87150789D01*
X168605196Y-87150777D01*
X168510306Y-86879599D01*
X168510303Y-86879591D01*
X168385653Y-86620752D01*
X168232792Y-86377477D01*
X168120383Y-86236519D01*
X167401755Y-86955147D01*
X167325574Y-86850293D01*
X167153057Y-86677776D01*
X167048201Y-86601593D01*
X167766829Y-85882965D01*
X167625872Y-85770557D01*
X167382597Y-85617696D01*
X167123758Y-85493046D01*
X167123750Y-85493043D01*
X166852572Y-85398153D01*
X166852560Y-85398149D01*
X166572459Y-85334218D01*
X166572441Y-85334215D01*
X166286960Y-85302050D01*
X165999639Y-85302050D01*
X165714158Y-85334215D01*
X165714140Y-85334218D01*
X165434039Y-85398149D01*
X165434027Y-85398153D01*
X165162849Y-85493043D01*
X165162841Y-85493046D01*
X164904002Y-85617696D01*
X164660733Y-85770553D01*
X164519770Y-85882966D01*
X165238398Y-86601594D01*
X165133543Y-86677776D01*
X164961026Y-86850293D01*
X164884844Y-86955148D01*
X164166216Y-86236520D01*
X164053803Y-86377483D01*
X163900946Y-86620752D01*
X163776296Y-86879591D01*
X163776293Y-86879599D01*
X163681403Y-87150777D01*
X163681399Y-87150789D01*
X163617468Y-87430890D01*
X163617465Y-87430908D01*
X163585300Y-87716389D01*
X145811200Y-87716389D01*
X145811200Y-81742731D01*
X145805463Y-81713892D01*
X145805463Y-81713890D01*
X145788504Y-81628632D01*
X145782359Y-81597738D01*
X145725784Y-81461156D01*
X145725784Y-81461155D01*
X145692886Y-81411920D01*
X145691502Y-81409848D01*
X145643656Y-81338239D01*
X145643652Y-81338234D01*
X145103049Y-80797631D01*
X145069564Y-80736308D01*
X145074548Y-80666616D01*
X145116420Y-80610683D01*
X145181884Y-80586266D01*
X145190730Y-80585950D01*
X155106820Y-80585950D01*
X155204362Y-80566546D01*
X155251813Y-80557108D01*
X155388395Y-80500534D01*
X155437629Y-80467636D01*
X155511316Y-80418402D01*
X156743595Y-79186120D01*
X156783819Y-79159243D01*
X156807479Y-79149444D01*
X156938589Y-79061839D01*
X157050089Y-78950339D01*
X157137694Y-78819229D01*
X157198037Y-78673547D01*
X157228800Y-78518892D01*
X157228800Y-78361208D01*
X157227998Y-78357176D01*
X157227998Y-78357173D01*
X157198038Y-78206558D01*
X157198037Y-78206557D01*
X157198037Y-78206553D01*
X157198035Y-78206548D01*
X157137697Y-78060877D01*
X157137690Y-78060864D01*
X157050089Y-77929761D01*
X157050086Y-77929757D01*
X156938592Y-77818263D01*
X156938588Y-77818260D01*
X156807485Y-77730659D01*
X156807472Y-77730652D01*
X156661801Y-77670314D01*
X156661789Y-77670311D01*
X156507145Y-77639550D01*
X156507142Y-77639550D01*
X156349458Y-77639550D01*
X156349455Y-77639550D01*
X156194810Y-77670311D01*
X156194798Y-77670314D01*
X156049127Y-77730652D01*
X156049114Y-77730659D01*
X155918011Y-77818260D01*
X155918007Y-77818263D01*
X155806513Y-77929757D01*
X155806507Y-77929765D01*
X155718907Y-78060868D01*
X155718905Y-78060872D01*
X155709105Y-78084530D01*
X155682227Y-78124754D01*
X154758351Y-79048631D01*
X154697028Y-79082116D01*
X154670670Y-79084950D01*
X143506560Y-79084950D01*
X143439521Y-79065265D01*
X143393766Y-79012461D01*
X143392017Y-79008445D01*
X143379043Y-78977122D01*
X143361147Y-78950339D01*
X143291438Y-78846011D01*
X143179941Y-78734514D01*
X143179937Y-78734511D01*
X143048834Y-78646910D01*
X143048821Y-78646903D01*
X142903150Y-78586565D01*
X142903138Y-78586562D01*
X142748494Y-78555801D01*
X142748491Y-78555801D01*
X142590807Y-78555801D01*
X142590804Y-78555801D01*
X142436159Y-78586562D01*
X142436147Y-78586565D01*
X142290476Y-78646903D01*
X142290463Y-78646910D01*
X142196491Y-78709701D01*
X142129813Y-78730579D01*
X142062433Y-78712094D01*
X142015743Y-78660115D01*
X142003600Y-78606599D01*
X142003600Y-76578353D01*
X161226100Y-76578353D01*
X161226100Y-76736046D01*
X161256861Y-76890689D01*
X161256864Y-76890701D01*
X161317202Y-77036372D01*
X161317209Y-77036385D01*
X161404810Y-77167488D01*
X161404813Y-77167492D01*
X161516307Y-77278986D01*
X161516311Y-77278989D01*
X161647414Y-77366590D01*
X161647427Y-77366597D01*
X161758229Y-77412492D01*
X161793103Y-77426937D01*
X161947753Y-77457699D01*
X161947756Y-77457700D01*
X161947758Y-77457700D01*
X162105444Y-77457700D01*
X162105445Y-77457699D01*
X162260097Y-77426937D01*
X162377313Y-77378385D01*
X162405772Y-77366597D01*
X162405772Y-77366596D01*
X162405779Y-77366594D01*
X162536889Y-77278989D01*
X162598060Y-77217817D01*
X162659381Y-77184334D01*
X162685740Y-77181500D01*
X170433141Y-77181500D01*
X170500180Y-77201185D01*
X170545935Y-77253989D01*
X170555879Y-77323147D01*
X170533460Y-77378385D01*
X170508676Y-77412496D01*
X170412204Y-77601832D01*
X170346542Y-77803920D01*
X170346542Y-77803923D01*
X170336069Y-77870050D01*
X171230288Y-77870050D01*
X171197375Y-77927057D01*
X171163300Y-78054224D01*
X171163300Y-78185876D01*
X171197375Y-78313043D01*
X171230288Y-78370050D01*
X170336069Y-78370050D01*
X170346542Y-78436176D01*
X170346542Y-78436179D01*
X170412204Y-78638267D01*
X170508679Y-78827607D01*
X170633572Y-78999509D01*
X170633576Y-78999514D01*
X170783835Y-79149773D01*
X170783840Y-79149777D01*
X170955742Y-79274670D01*
X171145082Y-79371145D01*
X171347171Y-79436807D01*
X171413300Y-79447281D01*
X171413300Y-78553062D01*
X171470307Y-78585975D01*
X171597474Y-78620050D01*
X171729126Y-78620050D01*
X171856293Y-78585975D01*
X171913300Y-78553062D01*
X171913300Y-79447280D01*
X171979426Y-79436807D01*
X171979429Y-79436807D01*
X172181517Y-79371145D01*
X172370857Y-79274670D01*
X172542759Y-79149777D01*
X172542764Y-79149773D01*
X172693023Y-78999514D01*
X172693027Y-78999509D01*
X172817920Y-78827607D01*
X172914395Y-78638267D01*
X172980057Y-78436179D01*
X172980057Y-78436176D01*
X172990531Y-78370050D01*
X172096312Y-78370050D01*
X172129225Y-78313043D01*
X172163300Y-78185876D01*
X172163300Y-78054224D01*
X172129225Y-77927057D01*
X172096312Y-77870050D01*
X172990531Y-77870050D01*
X172980057Y-77803923D01*
X172980057Y-77803920D01*
X172914395Y-77601832D01*
X172817920Y-77412492D01*
X172693027Y-77240590D01*
X172693023Y-77240585D01*
X172542764Y-77090326D01*
X172542759Y-77090322D01*
X172370855Y-76965427D01*
X172361800Y-76960813D01*
X172311006Y-76912838D01*
X172294212Y-76845016D01*
X172316751Y-76778882D01*
X172361808Y-76739843D01*
X172371116Y-76735101D01*
X172450307Y-76677565D01*
X172543086Y-76610159D01*
X172543088Y-76610156D01*
X172543092Y-76610154D01*
X172693404Y-76459842D01*
X172693406Y-76459838D01*
X172693409Y-76459836D01*
X172818348Y-76287870D01*
X172818347Y-76287870D01*
X172818351Y-76287866D01*
X172914857Y-76098462D01*
X172980546Y-75896293D01*
X173013800Y-75686337D01*
X173013800Y-75473763D01*
X172980546Y-75263807D01*
X172914857Y-75061638D01*
X172818351Y-74872234D01*
X172818349Y-74872231D01*
X172818348Y-74872229D01*
X172693409Y-74700263D01*
X172543086Y-74549940D01*
X172371120Y-74425001D01*
X172370415Y-74424641D01*
X172362354Y-74420535D01*
X172311559Y-74372562D01*
X172294763Y-74304742D01*
X172317299Y-74238606D01*
X172362354Y-74199565D01*
X172371116Y-74195101D01*
X172393089Y-74179136D01*
X172543086Y-74070159D01*
X172543088Y-74070156D01*
X172543092Y-74070154D01*
X172693404Y-73919842D01*
X172693406Y-73919838D01*
X172693409Y-73919836D01*
X172818348Y-73747870D01*
X172818347Y-73747870D01*
X172818351Y-73747866D01*
X172914857Y-73558462D01*
X172980546Y-73356293D01*
X173013800Y-73146337D01*
X173013800Y-72933763D01*
X172980546Y-72723807D01*
X172914857Y-72521638D01*
X172818351Y-72332234D01*
X172818349Y-72332231D01*
X172818348Y-72332229D01*
X172693409Y-72160263D01*
X172579869Y-72046723D01*
X172546384Y-71985400D01*
X172551368Y-71915708D01*
X172593240Y-71859775D01*
X172624215Y-71842860D01*
X172755631Y-71793846D01*
X172870846Y-71707596D01*
X172957096Y-71592381D01*
X173007391Y-71457533D01*
X173013800Y-71397923D01*
X173013799Y-69602178D01*
X173007391Y-69542567D01*
X172996242Y-69512676D01*
X172957097Y-69407721D01*
X172957093Y-69407714D01*
X172870847Y-69292505D01*
X172870844Y-69292502D01*
X172755635Y-69206256D01*
X172755628Y-69206252D01*
X172620782Y-69155958D01*
X172620783Y-69155958D01*
X172561183Y-69149551D01*
X172561181Y-69149550D01*
X172561173Y-69149550D01*
X172561164Y-69149550D01*
X170765429Y-69149550D01*
X170765423Y-69149551D01*
X170705816Y-69155958D01*
X170570971Y-69206252D01*
X170570964Y-69206256D01*
X170455755Y-69292502D01*
X170455752Y-69292505D01*
X170369506Y-69407714D01*
X170369502Y-69407721D01*
X170319208Y-69542567D01*
X170312801Y-69602166D01*
X170312800Y-69602177D01*
X170312800Y-70430551D01*
X170312801Y-71182900D01*
X170293116Y-71249939D01*
X170240313Y-71295694D01*
X170188801Y-71306900D01*
X163012766Y-71306900D01*
X162945727Y-71287215D01*
X162943875Y-71286002D01*
X162812185Y-71198009D01*
X162812172Y-71198002D01*
X162666501Y-71137664D01*
X162666489Y-71137661D01*
X162511845Y-71106900D01*
X162511842Y-71106900D01*
X162354158Y-71106900D01*
X162354155Y-71106900D01*
X162199510Y-71137661D01*
X162199498Y-71137664D01*
X162053827Y-71198002D01*
X162053814Y-71198009D01*
X161922711Y-71285610D01*
X161922707Y-71285613D01*
X161811213Y-71397107D01*
X161811210Y-71397111D01*
X161723609Y-71528214D01*
X161723602Y-71528227D01*
X161663264Y-71673898D01*
X161663261Y-71673910D01*
X161632500Y-71828553D01*
X161632500Y-71986246D01*
X161663261Y-72140889D01*
X161663264Y-72140901D01*
X161723602Y-72286572D01*
X161723609Y-72286585D01*
X161811210Y-72417688D01*
X161811213Y-72417692D01*
X161922707Y-72529186D01*
X161922711Y-72529189D01*
X162053814Y-72616790D01*
X162053827Y-72616797D01*
X162111895Y-72640849D01*
X162199503Y-72677137D01*
X162354153Y-72707899D01*
X162354156Y-72707900D01*
X162354158Y-72707900D01*
X162511844Y-72707900D01*
X162511845Y-72707899D01*
X162666497Y-72677137D01*
X162812179Y-72616794D01*
X162823457Y-72609258D01*
X162943875Y-72528798D01*
X163010553Y-72507920D01*
X163012766Y-72507900D01*
X170230553Y-72507900D01*
X170259993Y-72516544D01*
X170289980Y-72523068D01*
X170294995Y-72526822D01*
X170297592Y-72527585D01*
X170318234Y-72544219D01*
X170329541Y-72555526D01*
X170363026Y-72616849D01*
X170359792Y-72681523D01*
X170346053Y-72723807D01*
X170312800Y-72933763D01*
X170312800Y-73146336D01*
X170340204Y-73319362D01*
X170346054Y-73356293D01*
X170391688Y-73496740D01*
X170411744Y-73558464D01*
X170508251Y-73747870D01*
X170633190Y-73919836D01*
X170783513Y-74070159D01*
X170955482Y-74195100D01*
X170964246Y-74199566D01*
X171015042Y-74247541D01*
X171031836Y-74315362D01*
X171009298Y-74381497D01*
X170964246Y-74420534D01*
X170955482Y-74424999D01*
X170783513Y-74549940D01*
X170633190Y-74700263D01*
X170508251Y-74872229D01*
X170411744Y-75061635D01*
X170346053Y-75263810D01*
X170323432Y-75406636D01*
X170312800Y-75473763D01*
X170312800Y-75686337D01*
X170318988Y-75725406D01*
X170336679Y-75837102D01*
X170327724Y-75906396D01*
X170282728Y-75959848D01*
X170215977Y-75980487D01*
X170214206Y-75980500D01*
X162492325Y-75980500D01*
X162425286Y-75960815D01*
X162423434Y-75959602D01*
X162405785Y-75947809D01*
X162405772Y-75947802D01*
X162260101Y-75887464D01*
X162260089Y-75887461D01*
X162105445Y-75856700D01*
X162105442Y-75856700D01*
X161947758Y-75856700D01*
X161947755Y-75856700D01*
X161793110Y-75887461D01*
X161793098Y-75887464D01*
X161647427Y-75947802D01*
X161647414Y-75947809D01*
X161516311Y-76035410D01*
X161516307Y-76035413D01*
X161404813Y-76146907D01*
X161404810Y-76146911D01*
X161317209Y-76278014D01*
X161317202Y-76278027D01*
X161256864Y-76423698D01*
X161256861Y-76423710D01*
X161226100Y-76578353D01*
X142003600Y-76578353D01*
X142003600Y-71537247D01*
X142023285Y-71470208D01*
X142039919Y-71449566D01*
X142239546Y-71249939D01*
X142457865Y-71031620D01*
X142519184Y-70998138D01*
X142521351Y-70997687D01*
X142522040Y-70997550D01*
X142522042Y-70997550D01*
X142676697Y-70966787D01*
X142822379Y-70906444D01*
X142953489Y-70818839D01*
X143064989Y-70707339D01*
X143152594Y-70576229D01*
X143212937Y-70430547D01*
X143243700Y-70275892D01*
X143243700Y-70118208D01*
X143243700Y-70118205D01*
X143243699Y-70118203D01*
X143238996Y-70094561D01*
X143212937Y-69963553D01*
X143212935Y-69963548D01*
X143152597Y-69817877D01*
X143152590Y-69817864D01*
X143064989Y-69686761D01*
X143064986Y-69686757D01*
X142953492Y-69575263D01*
X142953488Y-69575260D01*
X142822385Y-69487659D01*
X142822372Y-69487652D01*
X142676701Y-69427314D01*
X142676689Y-69427311D01*
X142522045Y-69396550D01*
X142522042Y-69396550D01*
X142364358Y-69396550D01*
X142364355Y-69396550D01*
X142209710Y-69427311D01*
X142209698Y-69427314D01*
X142064027Y-69487652D01*
X142064014Y-69487659D01*
X141932911Y-69575260D01*
X141932907Y-69575263D01*
X141821413Y-69686757D01*
X141821410Y-69686761D01*
X141733809Y-69817864D01*
X141733802Y-69817877D01*
X141673464Y-69963548D01*
X141673461Y-69963558D01*
X141642562Y-70118898D01*
X141610177Y-70180809D01*
X141608626Y-70182387D01*
X141034386Y-70756628D01*
X140922581Y-70868432D01*
X140922579Y-70868435D01*
X140872461Y-70955244D01*
X140872459Y-70955246D01*
X140843525Y-71005359D01*
X140843524Y-71005360D01*
X140843523Y-71005365D01*
X140802599Y-71158093D01*
X140802599Y-71158095D01*
X140802599Y-71326196D01*
X140802600Y-71326209D01*
X140802600Y-78851612D01*
X140802599Y-78851630D01*
X140802599Y-79017336D01*
X140802598Y-79017336D01*
X140843152Y-79168681D01*
X140843523Y-79170067D01*
X140843635Y-79170261D01*
X140843668Y-79170382D01*
X140843696Y-79170367D01*
X140922575Y-79306991D01*
X140922581Y-79306999D01*
X141041449Y-79425867D01*
X141041455Y-79425872D01*
X143330381Y-81714798D01*
X143363866Y-81776121D01*
X143366700Y-81802479D01*
X143366700Y-82214289D01*
X143347015Y-82281328D01*
X143330381Y-82301970D01*
X143303928Y-82328422D01*
X143303925Y-82328426D01*
X143216324Y-82459529D01*
X143216317Y-82459542D01*
X143155979Y-82605213D01*
X143155976Y-82605225D01*
X143125215Y-82759868D01*
X143125215Y-82917561D01*
X143155976Y-83072204D01*
X143155979Y-83072216D01*
X143216317Y-83217887D01*
X143216324Y-83217900D01*
X143303925Y-83349003D01*
X143303928Y-83349007D01*
X143415422Y-83460501D01*
X143415426Y-83460504D01*
X143546529Y-83548105D01*
X143546542Y-83548112D01*
X143690876Y-83607896D01*
X143692218Y-83608452D01*
X143846868Y-83639214D01*
X143846871Y-83639215D01*
X143846873Y-83639215D01*
X144004559Y-83639215D01*
X144162008Y-83607896D01*
X144231600Y-83614123D01*
X144286777Y-83656986D01*
X144310022Y-83722876D01*
X144310200Y-83729513D01*
X144310200Y-87321820D01*
X144290515Y-87388859D01*
X144273881Y-87409501D01*
X144000350Y-87683031D01*
X144000350Y-87683032D01*
X143992418Y-87690964D01*
X143988160Y-87693810D01*
X143876660Y-87805310D01*
X143873813Y-87809567D01*
X143865889Y-87817492D01*
X143865886Y-87817493D01*
X138965949Y-92717432D01*
X138939100Y-92757616D01*
X138939099Y-92757617D01*
X138883819Y-92840348D01*
X138883812Y-92840361D01*
X138827243Y-92976932D01*
X138827240Y-92976942D01*
X138798400Y-93121929D01*
X138798400Y-112056870D01*
X138778715Y-112123909D01*
X138762081Y-112144551D01*
X132846851Y-118059781D01*
X132785528Y-118093266D01*
X132759170Y-118096100D01*
X126872804Y-118096100D01*
X126825355Y-118086662D01*
X126801697Y-118076863D01*
X126801693Y-118076862D01*
X126801688Y-118076860D01*
X126647045Y-118046100D01*
X126647042Y-118046100D01*
X126489358Y-118046100D01*
X126489355Y-118046100D01*
X126334710Y-118076861D01*
X126334698Y-118076864D01*
X126189027Y-118137202D01*
X126189014Y-118137209D01*
X126057911Y-118224810D01*
X126057907Y-118224813D01*
X125946413Y-118336307D01*
X125946407Y-118336315D01*
X125858807Y-118467418D01*
X125858806Y-118467419D01*
X125849005Y-118491080D01*
X125822127Y-118531303D01*
X125584127Y-118769304D01*
X125522804Y-118802789D01*
X125453113Y-118797805D01*
X125397179Y-118755934D01*
X125372762Y-118690469D01*
X125373157Y-118668367D01*
X125379999Y-118604730D01*
X125380000Y-118604723D01*
X125379999Y-116808978D01*
X125373591Y-116749367D01*
X125372310Y-116745933D01*
X125323297Y-116614521D01*
X125323293Y-116614514D01*
X125237047Y-116499305D01*
X125237044Y-116499302D01*
X125121835Y-116413056D01*
X125121828Y-116413052D01*
X124990417Y-116364039D01*
X124934483Y-116322168D01*
X124910066Y-116256703D01*
X124924918Y-116188430D01*
X124946063Y-116160182D01*
X125059604Y-116046642D01*
X125184551Y-115874666D01*
X125281057Y-115685262D01*
X125346746Y-115483093D01*
X125380000Y-115273137D01*
X125380000Y-115060563D01*
X125346746Y-114850607D01*
X125281057Y-114648438D01*
X125184551Y-114459034D01*
X125184549Y-114459031D01*
X125184548Y-114459029D01*
X125059609Y-114287063D01*
X124909286Y-114136740D01*
X124737320Y-114011801D01*
X124736615Y-114011441D01*
X124728554Y-114007335D01*
X124677759Y-113959362D01*
X124660963Y-113891542D01*
X124683499Y-113825406D01*
X124728554Y-113786365D01*
X124737316Y-113781901D01*
X124759289Y-113765936D01*
X124909286Y-113656959D01*
X124909288Y-113656956D01*
X124909292Y-113656954D01*
X125059604Y-113506642D01*
X125059606Y-113506638D01*
X125059609Y-113506636D01*
X125184548Y-113334670D01*
X125184550Y-113334667D01*
X125184551Y-113334666D01*
X125281057Y-113145262D01*
X125346746Y-112943093D01*
X125380000Y-112733137D01*
X125380000Y-112520563D01*
X125346746Y-112310607D01*
X125291903Y-112141818D01*
X125291099Y-112113698D01*
X125287096Y-112085853D01*
X125290115Y-112079241D01*
X125289908Y-112071977D01*
X125304434Y-112047887D01*
X125316121Y-112022297D01*
X125322234Y-112018367D01*
X125325988Y-112012144D01*
X125351234Y-111999731D01*
X125374899Y-111984523D01*
X125385169Y-111983046D01*
X125388689Y-111981316D01*
X125409834Y-111979500D01*
X125516331Y-111979500D01*
X125516347Y-111979501D01*
X125523943Y-111979501D01*
X125682056Y-111979501D01*
X125682057Y-111979501D01*
X125682057Y-111979500D01*
X125690114Y-111978440D01*
X125690187Y-111978999D01*
X125721266Y-111976450D01*
X125721266Y-111976300D01*
X125723095Y-111976300D01*
X125725424Y-111976109D01*
X125727353Y-111976299D01*
X125727358Y-111976300D01*
X125727363Y-111976300D01*
X125885044Y-111976300D01*
X125885045Y-111976299D01*
X126039697Y-111945537D01*
X126185379Y-111885194D01*
X126316489Y-111797589D01*
X126427989Y-111686089D01*
X126515594Y-111554979D01*
X126575937Y-111409297D01*
X126606700Y-111254642D01*
X126606700Y-111096958D01*
X126606700Y-111096955D01*
X126606699Y-111096953D01*
X126575938Y-110942310D01*
X126575937Y-110942303D01*
X126547217Y-110872966D01*
X126515597Y-110796627D01*
X126515590Y-110796614D01*
X126427989Y-110665511D01*
X126427986Y-110665507D01*
X126316492Y-110554013D01*
X126316488Y-110554010D01*
X126185385Y-110466409D01*
X126185372Y-110466402D01*
X126039701Y-110406064D01*
X126039689Y-110406061D01*
X125885045Y-110375300D01*
X125885042Y-110375300D01*
X125727358Y-110375300D01*
X125727355Y-110375300D01*
X125572710Y-110406061D01*
X125572703Y-110406063D01*
X125534939Y-110421705D01*
X125465470Y-110429172D01*
X125402991Y-110397897D01*
X125367339Y-110337807D01*
X125365015Y-110287745D01*
X125380000Y-110193135D01*
X125380000Y-109980563D01*
X125346746Y-109770610D01*
X125346746Y-109770607D01*
X125281057Y-109568438D01*
X125184551Y-109379034D01*
X125184549Y-109379031D01*
X125184548Y-109379029D01*
X125059609Y-109207063D01*
X124909286Y-109056740D01*
X124737317Y-108931799D01*
X124728004Y-108927054D01*
X124677207Y-108879080D01*
X124660412Y-108811259D01*
X124682949Y-108745124D01*
X124728007Y-108706082D01*
X124737058Y-108701470D01*
X124908959Y-108576577D01*
X124908964Y-108576573D01*
X125059223Y-108426314D01*
X125059227Y-108426309D01*
X125184120Y-108254407D01*
X125280595Y-108065067D01*
X125346257Y-107862979D01*
X125346257Y-107862976D01*
X125356731Y-107796850D01*
X124462512Y-107796850D01*
X124495425Y-107739843D01*
X124529500Y-107612676D01*
X124529500Y-107481024D01*
X124495425Y-107353857D01*
X124462512Y-107296850D01*
X125356731Y-107296850D01*
X125346257Y-107230723D01*
X125346257Y-107230720D01*
X125280595Y-107028632D01*
X125184120Y-106839292D01*
X125059227Y-106667390D01*
X125059223Y-106667385D01*
X124908964Y-106517126D01*
X124908959Y-106517122D01*
X124737055Y-106392227D01*
X124728000Y-106387613D01*
X124677206Y-106339638D01*
X124660412Y-106271816D01*
X124682951Y-106205682D01*
X124728008Y-106166643D01*
X124737316Y-106161901D01*
X124825693Y-106097692D01*
X124909286Y-106036959D01*
X124909288Y-106036956D01*
X124909292Y-106036954D01*
X125059604Y-105886642D01*
X125059606Y-105886638D01*
X125059609Y-105886636D01*
X125184548Y-105714670D01*
X125184547Y-105714670D01*
X125184551Y-105714666D01*
X125281057Y-105525262D01*
X125346746Y-105323093D01*
X125380000Y-105113137D01*
X125380000Y-104900563D01*
X125346746Y-104690607D01*
X125323370Y-104618666D01*
X125321376Y-104548829D01*
X125357456Y-104488996D01*
X125420156Y-104458167D01*
X125441302Y-104456351D01*
X125485704Y-104456351D01*
X125485707Y-104456351D01*
X125638435Y-104415427D01*
X125688554Y-104386489D01*
X125775366Y-104336370D01*
X125887170Y-104224566D01*
X125887170Y-104224564D01*
X125897378Y-104214357D01*
X125897379Y-104214354D01*
X126965962Y-103145772D01*
X127027283Y-103112289D01*
X127029450Y-103111838D01*
X127087385Y-103100313D01*
X127184797Y-103080937D01*
X127307319Y-103030187D01*
X127330472Y-103020597D01*
X127330472Y-103020596D01*
X127330479Y-103020594D01*
X127461589Y-102932989D01*
X127573089Y-102821489D01*
X127660694Y-102690379D01*
X127721037Y-102544697D01*
X127751800Y-102390042D01*
X127751800Y-102232358D01*
X127751800Y-102232355D01*
X127751799Y-102232353D01*
X127737376Y-102159843D01*
X127721037Y-102077703D01*
X127706107Y-102041658D01*
X127660697Y-101932027D01*
X127660690Y-101932014D01*
X127573089Y-101800911D01*
X127573086Y-101800907D01*
X127461592Y-101689413D01*
X127461588Y-101689410D01*
X127330485Y-101601809D01*
X127330472Y-101601802D01*
X127184801Y-101541464D01*
X127184789Y-101541461D01*
X127030145Y-101510700D01*
X127030142Y-101510700D01*
X126872458Y-101510700D01*
X126872455Y-101510700D01*
X126717810Y-101541461D01*
X126717798Y-101541464D01*
X126572127Y-101601802D01*
X126572114Y-101601809D01*
X126441011Y-101689410D01*
X126441007Y-101689413D01*
X126329513Y-101800907D01*
X126329510Y-101800911D01*
X126241909Y-101932014D01*
X126241902Y-101932027D01*
X126181564Y-102077698D01*
X126181561Y-102077708D01*
X126150661Y-102233050D01*
X126118276Y-102294961D01*
X126116725Y-102296539D01*
X125563262Y-102850002D01*
X125501939Y-102883487D01*
X125432247Y-102878503D01*
X125376314Y-102836631D01*
X125351897Y-102771167D01*
X125353108Y-102742923D01*
X125356346Y-102722483D01*
X125380000Y-102573137D01*
X125380000Y-102360563D01*
X125346746Y-102150607D01*
X125281057Y-101948438D01*
X125184551Y-101759034D01*
X125184549Y-101759031D01*
X125184548Y-101759029D01*
X125059609Y-101587063D01*
X124909286Y-101436740D01*
X124737320Y-101311801D01*
X124729100Y-101307613D01*
X124728554Y-101307335D01*
X124677759Y-101259362D01*
X124660963Y-101191542D01*
X124683499Y-101125406D01*
X124728554Y-101086365D01*
X124737316Y-101081901D01*
X124808602Y-101030109D01*
X124909286Y-100956959D01*
X124909288Y-100956956D01*
X124909292Y-100956954D01*
X125059604Y-100806642D01*
X125059606Y-100806638D01*
X125059609Y-100806636D01*
X125184548Y-100634670D01*
X125184547Y-100634670D01*
X125184551Y-100634666D01*
X125281057Y-100445262D01*
X125346746Y-100243093D01*
X125380000Y-100033137D01*
X125380000Y-99820563D01*
X125378228Y-99809378D01*
X125387181Y-99740089D01*
X125432176Y-99686636D01*
X125498927Y-99665994D01*
X125566241Y-99684717D01*
X125588382Y-99702300D01*
X125786286Y-99900204D01*
X125815758Y-99919895D01*
X125859970Y-99949436D01*
X125909205Y-99982334D01*
X125909206Y-99982334D01*
X125909207Y-99982335D01*
X125909209Y-99982336D01*
X126045782Y-100038906D01*
X126045787Y-100038908D01*
X126045791Y-100038908D01*
X126045792Y-100038909D01*
X126190779Y-100067750D01*
X126190782Y-100067750D01*
X126190783Y-100067750D01*
X126338618Y-100067750D01*
X128038020Y-100067750D01*
X128105059Y-100087435D01*
X128125701Y-100104069D01*
X128692327Y-100670695D01*
X128719207Y-100710923D01*
X128729004Y-100734575D01*
X128729009Y-100734585D01*
X128816610Y-100865688D01*
X128816613Y-100865692D01*
X128928107Y-100977186D01*
X128928111Y-100977189D01*
X129059214Y-101064790D01*
X129059227Y-101064797D01*
X129204898Y-101125135D01*
X129204903Y-101125137D01*
X129338740Y-101151759D01*
X129359553Y-101155899D01*
X129359556Y-101155900D01*
X129359558Y-101155900D01*
X129517244Y-101155900D01*
X129517245Y-101155899D01*
X129671897Y-101125137D01*
X129788688Y-101076761D01*
X129817572Y-101064797D01*
X129817572Y-101064796D01*
X129817579Y-101064794D01*
X129948689Y-100977189D01*
X130060189Y-100865689D01*
X130147794Y-100734579D01*
X130208137Y-100588897D01*
X130238900Y-100434242D01*
X130238900Y-100276558D01*
X130238900Y-100276555D01*
X130238899Y-100276553D01*
X130235644Y-100260187D01*
X130208137Y-100121903D01*
X130193860Y-100087435D01*
X130147797Y-99976227D01*
X130147790Y-99976214D01*
X130060189Y-99845111D01*
X130060186Y-99845107D01*
X129948692Y-99733613D01*
X129948688Y-99733610D01*
X129817585Y-99646009D01*
X129817575Y-99646004D01*
X129793923Y-99636207D01*
X129753695Y-99609327D01*
X128878671Y-98734302D01*
X128878664Y-98734296D01*
X128790357Y-98675292D01*
X128790356Y-98675292D01*
X128755750Y-98652169D01*
X128755738Y-98652162D01*
X128619167Y-98595593D01*
X128619157Y-98595590D01*
X128474170Y-98566750D01*
X128474168Y-98566750D01*
X126626930Y-98566750D01*
X126559891Y-98547065D01*
X126539249Y-98530431D01*
X125416319Y-97407501D01*
X125382834Y-97346178D01*
X125380000Y-97319820D01*
X125380000Y-97280563D01*
X125364466Y-97182487D01*
X125346746Y-97070607D01*
X125281057Y-96868438D01*
X125184551Y-96679034D01*
X125184549Y-96679031D01*
X125184548Y-96679029D01*
X125059609Y-96507063D01*
X124909286Y-96356740D01*
X124737320Y-96231801D01*
X124736615Y-96231441D01*
X124728554Y-96227335D01*
X124677759Y-96179362D01*
X124660963Y-96111542D01*
X124683499Y-96045406D01*
X124728554Y-96006365D01*
X124737316Y-96001901D01*
X124879715Y-95898443D01*
X124909286Y-95876959D01*
X124909288Y-95876956D01*
X124909292Y-95876954D01*
X125059604Y-95726642D01*
X125059606Y-95726638D01*
X125059609Y-95726636D01*
X125184548Y-95554670D01*
X125184550Y-95554667D01*
X125184551Y-95554666D01*
X125281057Y-95365262D01*
X125346746Y-95163093D01*
X125380000Y-94953137D01*
X125380000Y-94740563D01*
X125346746Y-94530607D01*
X125281057Y-94328438D01*
X125184551Y-94139034D01*
X125184549Y-94139031D01*
X125184548Y-94139029D01*
X125059609Y-93967063D01*
X124909286Y-93816740D01*
X124737320Y-93691801D01*
X124729100Y-93687613D01*
X124728554Y-93687335D01*
X124677759Y-93639362D01*
X124660963Y-93571542D01*
X124683499Y-93505406D01*
X124728554Y-93466365D01*
X124737316Y-93461901D01*
X124759289Y-93445936D01*
X124909286Y-93336959D01*
X124909288Y-93336956D01*
X124909292Y-93336954D01*
X125059604Y-93186642D01*
X125059606Y-93186638D01*
X125059609Y-93186636D01*
X125184548Y-93014670D01*
X125184547Y-93014670D01*
X125184551Y-93014666D01*
X125281057Y-92825262D01*
X125346746Y-92623093D01*
X125380000Y-92413137D01*
X125380000Y-92200563D01*
X125346746Y-91990607D01*
X125281057Y-91788438D01*
X125184551Y-91599034D01*
X125184549Y-91599031D01*
X125184548Y-91599029D01*
X125059609Y-91427063D01*
X124909286Y-91276740D01*
X124737320Y-91151801D01*
X124736615Y-91151441D01*
X124728554Y-91147335D01*
X124677759Y-91099362D01*
X124660963Y-91031542D01*
X124683499Y-90965406D01*
X124728554Y-90926365D01*
X124737316Y-90921901D01*
X124759289Y-90905936D01*
X124909286Y-90796959D01*
X124909288Y-90796956D01*
X124909292Y-90796954D01*
X125059604Y-90646642D01*
X125059606Y-90646638D01*
X125059609Y-90646636D01*
X125184548Y-90474670D01*
X125184547Y-90474670D01*
X125184551Y-90474666D01*
X125281057Y-90285262D01*
X125346746Y-90083093D01*
X125380000Y-89873137D01*
X125380000Y-89660563D01*
X125346746Y-89450607D01*
X125281057Y-89248438D01*
X125184551Y-89059034D01*
X125184549Y-89059031D01*
X125184548Y-89059029D01*
X125059609Y-88887063D01*
X124909286Y-88736740D01*
X124737317Y-88611799D01*
X124728004Y-88607054D01*
X124677207Y-88559080D01*
X124660412Y-88491259D01*
X124682949Y-88425124D01*
X124728007Y-88386082D01*
X124737058Y-88381470D01*
X124908959Y-88256577D01*
X124908964Y-88256573D01*
X125059223Y-88106314D01*
X125059227Y-88106309D01*
X125184120Y-87934407D01*
X125280595Y-87745067D01*
X125346257Y-87542979D01*
X125346257Y-87542976D01*
X125356731Y-87476850D01*
X124462512Y-87476850D01*
X124495425Y-87419843D01*
X124529500Y-87292676D01*
X124529500Y-87161024D01*
X124495425Y-87033857D01*
X124462512Y-86976850D01*
X125356731Y-86976850D01*
X125346257Y-86910723D01*
X125346257Y-86910720D01*
X125280595Y-86708632D01*
X125184120Y-86519292D01*
X125059227Y-86347390D01*
X125059223Y-86347385D01*
X124908964Y-86197126D01*
X124908959Y-86197122D01*
X124737055Y-86072227D01*
X124728000Y-86067613D01*
X124677206Y-86019638D01*
X124660412Y-85951816D01*
X124682951Y-85885682D01*
X124728008Y-85846643D01*
X124737316Y-85841901D01*
X124835519Y-85770553D01*
X124909286Y-85716959D01*
X124909288Y-85716956D01*
X124909292Y-85716954D01*
X125059604Y-85566642D01*
X125059606Y-85566638D01*
X125059609Y-85566636D01*
X125168586Y-85416639D01*
X125184551Y-85394666D01*
X125281057Y-85205262D01*
X125346746Y-85003093D01*
X125380000Y-84793137D01*
X125380000Y-84580563D01*
X125346746Y-84370607D01*
X125281057Y-84168438D01*
X125184551Y-83979034D01*
X125184549Y-83979031D01*
X125184548Y-83979029D01*
X125059609Y-83807063D01*
X124909286Y-83656740D01*
X124737320Y-83531801D01*
X124736615Y-83531441D01*
X124728554Y-83527335D01*
X124677759Y-83479362D01*
X124660963Y-83411542D01*
X124683499Y-83345406D01*
X124728554Y-83306365D01*
X124737316Y-83301901D01*
X124759289Y-83285936D01*
X124909286Y-83176959D01*
X124909288Y-83176956D01*
X124909292Y-83176954D01*
X125059604Y-83026642D01*
X125059606Y-83026638D01*
X125059609Y-83026636D01*
X125184548Y-82854670D01*
X125184550Y-82854667D01*
X125184551Y-82854666D01*
X125281057Y-82665262D01*
X125346746Y-82463093D01*
X125380000Y-82253137D01*
X125380000Y-82040563D01*
X125346746Y-81830607D01*
X125281057Y-81628438D01*
X125184551Y-81439034D01*
X125184549Y-81439031D01*
X125184548Y-81439029D01*
X125059609Y-81267063D01*
X124909286Y-81116740D01*
X124737320Y-80991801D01*
X124729100Y-80987613D01*
X124728554Y-80987335D01*
X124677759Y-80939362D01*
X124660963Y-80871542D01*
X124683499Y-80805406D01*
X124728554Y-80766365D01*
X124737316Y-80761901D01*
X124772542Y-80736308D01*
X124909286Y-80636959D01*
X124909288Y-80636956D01*
X124909292Y-80636954D01*
X125059604Y-80486642D01*
X125059606Y-80486638D01*
X125059609Y-80486636D01*
X125184548Y-80314670D01*
X125184547Y-80314670D01*
X125184551Y-80314666D01*
X125281057Y-80125262D01*
X125346746Y-79923093D01*
X125380000Y-79713137D01*
X125380000Y-79500563D01*
X125346746Y-79290607D01*
X125281057Y-79088438D01*
X125184551Y-78899034D01*
X125184549Y-78899031D01*
X125184548Y-78899029D01*
X125059609Y-78727063D01*
X124909286Y-78576740D01*
X124737320Y-78451801D01*
X124736615Y-78451441D01*
X124728554Y-78447335D01*
X124677759Y-78399362D01*
X124660963Y-78331542D01*
X124683499Y-78265406D01*
X124728554Y-78226365D01*
X124737316Y-78221901D01*
X124786901Y-78185876D01*
X124909286Y-78096959D01*
X124909288Y-78096956D01*
X124909292Y-78096954D01*
X125059604Y-77946642D01*
X125059606Y-77946638D01*
X125059609Y-77946636D01*
X125184548Y-77774670D01*
X125184550Y-77774667D01*
X125184551Y-77774666D01*
X125281057Y-77585262D01*
X125346746Y-77383093D01*
X125380000Y-77173137D01*
X125380000Y-76960563D01*
X125346746Y-76750607D01*
X125281057Y-76548438D01*
X125184551Y-76359034D01*
X125184549Y-76359031D01*
X125184548Y-76359029D01*
X125059609Y-76187063D01*
X124909286Y-76036740D01*
X124737320Y-75911801D01*
X124729100Y-75907613D01*
X124728554Y-75907335D01*
X124677759Y-75859362D01*
X124660963Y-75791542D01*
X124683499Y-75725406D01*
X124728554Y-75686365D01*
X124737316Y-75681901D01*
X124759289Y-75665936D01*
X124909286Y-75556959D01*
X124909288Y-75556956D01*
X124909292Y-75556954D01*
X125059604Y-75406642D01*
X125059606Y-75406638D01*
X125059609Y-75406636D01*
X125184548Y-75234670D01*
X125184547Y-75234670D01*
X125184551Y-75234666D01*
X125281057Y-75045262D01*
X125346746Y-74843093D01*
X125380000Y-74633137D01*
X125380000Y-74420563D01*
X125346746Y-74210607D01*
X125281057Y-74008438D01*
X125184551Y-73819034D01*
X125184549Y-73819031D01*
X125184548Y-73819029D01*
X125059609Y-73647063D01*
X124909286Y-73496740D01*
X124737320Y-73371801D01*
X124736615Y-73371441D01*
X124728554Y-73367335D01*
X124677759Y-73319362D01*
X124660963Y-73251542D01*
X124683499Y-73185406D01*
X124728554Y-73146365D01*
X124737316Y-73141901D01*
X124759289Y-73125936D01*
X124909286Y-73016959D01*
X124909288Y-73016956D01*
X124909292Y-73016954D01*
X125059604Y-72866642D01*
X125059606Y-72866638D01*
X125059609Y-72866636D01*
X125184548Y-72694670D01*
X125184547Y-72694670D01*
X125184551Y-72694666D01*
X125281057Y-72505262D01*
X125346746Y-72303093D01*
X125380000Y-72093137D01*
X125380000Y-71880563D01*
X125346746Y-71670607D01*
X125281057Y-71468438D01*
X125184551Y-71279034D01*
X125184549Y-71279031D01*
X125184548Y-71279029D01*
X125059609Y-71107063D01*
X124909286Y-70956740D01*
X124737317Y-70831799D01*
X124728004Y-70827054D01*
X124677207Y-70779080D01*
X124660412Y-70711259D01*
X124682949Y-70645124D01*
X124728007Y-70606082D01*
X124737058Y-70601470D01*
X124908959Y-70476577D01*
X124908964Y-70476573D01*
X125059223Y-70326314D01*
X125059227Y-70326309D01*
X125184120Y-70154407D01*
X125280595Y-69965067D01*
X125346257Y-69762979D01*
X125346257Y-69762976D01*
X125356731Y-69696850D01*
X124462512Y-69696850D01*
X124495425Y-69639843D01*
X124529500Y-69512676D01*
X124529500Y-69381024D01*
X124495425Y-69253857D01*
X124462512Y-69196850D01*
X125356731Y-69196850D01*
X125346257Y-69130723D01*
X125346257Y-69130720D01*
X125280595Y-68928632D01*
X125184120Y-68739292D01*
X125059227Y-68567390D01*
X125059223Y-68567385D01*
X124908964Y-68417126D01*
X124908959Y-68417122D01*
X124737057Y-68292229D01*
X124547715Y-68195753D01*
X124345624Y-68130091D01*
X124279500Y-68119618D01*
X124279500Y-69013838D01*
X124222493Y-68980925D01*
X124095326Y-68946850D01*
X123963674Y-68946850D01*
X123836507Y-68980925D01*
X123779500Y-69013838D01*
X123779500Y-68119618D01*
X123779499Y-68119618D01*
X123713375Y-68130091D01*
X123511284Y-68195753D01*
X123321942Y-68292229D01*
X123150040Y-68417122D01*
X123150035Y-68417126D01*
X122999776Y-68567385D01*
X122999772Y-68567390D01*
X122874878Y-68739293D01*
X122870262Y-68748352D01*
X122822284Y-68799145D01*
X122754463Y-68815937D01*
X122688329Y-68793396D01*
X122649294Y-68748343D01*
X122644551Y-68739034D01*
X122644549Y-68739031D01*
X122644548Y-68739029D01*
X122519609Y-68567063D01*
X122369286Y-68416740D01*
X122197320Y-68291801D01*
X122007914Y-68195294D01*
X122007913Y-68195293D01*
X122007912Y-68195293D01*
X121805743Y-68129604D01*
X121805741Y-68129603D01*
X121805740Y-68129603D01*
X121644457Y-68104058D01*
X121595787Y-68096350D01*
X121383213Y-68096350D01*
X121334542Y-68104058D01*
X121173260Y-68129603D01*
X120971085Y-68195294D01*
X120781679Y-68291801D01*
X120609713Y-68416740D01*
X120459390Y-68567063D01*
X120334451Y-68739029D01*
X120237944Y-68928435D01*
X120172253Y-69130610D01*
X120160272Y-69206256D01*
X120139000Y-69340563D01*
X120139000Y-69553137D01*
X120172254Y-69763093D01*
X120237389Y-69963558D01*
X120237944Y-69965264D01*
X120334451Y-70154670D01*
X120459390Y-70326636D01*
X120609713Y-70476959D01*
X120781682Y-70601900D01*
X120790446Y-70606366D01*
X120841242Y-70654341D01*
X120858036Y-70722162D01*
X120835498Y-70788297D01*
X120790446Y-70827334D01*
X120781682Y-70831799D01*
X120609713Y-70956740D01*
X120459390Y-71107063D01*
X120334451Y-71279029D01*
X120237944Y-71468435D01*
X120237943Y-71468437D01*
X120237943Y-71468438D01*
X120205098Y-71569522D01*
X120172253Y-71670610D01*
X120139000Y-71880563D01*
X120139000Y-72093137D01*
X120172254Y-72303093D01*
X120209488Y-72417688D01*
X120237944Y-72505264D01*
X120334451Y-72694670D01*
X120459390Y-72866636D01*
X120609713Y-73016959D01*
X120781682Y-73141900D01*
X120790446Y-73146366D01*
X120841242Y-73194341D01*
X120858036Y-73262162D01*
X120835498Y-73328297D01*
X120790446Y-73367334D01*
X120781682Y-73371799D01*
X120609713Y-73496740D01*
X120459390Y-73647063D01*
X120334451Y-73819029D01*
X120237944Y-74008435D01*
X120172253Y-74210610D01*
X120139000Y-74420563D01*
X120139000Y-74633136D01*
X120172253Y-74843089D01*
X120237944Y-75045264D01*
X120334451Y-75234670D01*
X120459390Y-75406636D01*
X120609713Y-75556959D01*
X120781679Y-75681898D01*
X120781681Y-75681899D01*
X120781684Y-75681901D01*
X120790993Y-75686644D01*
X120841790Y-75734616D01*
X120858587Y-75802437D01*
X120836052Y-75868572D01*
X120791002Y-75907612D01*
X120781943Y-75912228D01*
X120610040Y-76037122D01*
X120610035Y-76037126D01*
X120459776Y-76187385D01*
X120459772Y-76187390D01*
X120334879Y-76359292D01*
X120238404Y-76548632D01*
X120172742Y-76750720D01*
X120172742Y-76750723D01*
X120162269Y-76816850D01*
X121056488Y-76816850D01*
X121023575Y-76873857D01*
X120989500Y-77001024D01*
X120989500Y-77132676D01*
X121023575Y-77259843D01*
X121056488Y-77316850D01*
X120162269Y-77316850D01*
X120172742Y-77382976D01*
X120172742Y-77382979D01*
X120238404Y-77585067D01*
X120334879Y-77774407D01*
X120459772Y-77946309D01*
X120459776Y-77946314D01*
X120610035Y-78096573D01*
X120610040Y-78096577D01*
X120781944Y-78221472D01*
X120790995Y-78226084D01*
X120841792Y-78274058D01*
X120858587Y-78341879D01*
X120836050Y-78408014D01*
X120790999Y-78447052D01*
X120781682Y-78451799D01*
X120609713Y-78576740D01*
X120459390Y-78727063D01*
X120334451Y-78899029D01*
X120237944Y-79088435D01*
X120172253Y-79290610D01*
X120139000Y-79500563D01*
X120139000Y-79713136D01*
X120172253Y-79923089D01*
X120237944Y-80125264D01*
X120334451Y-80314670D01*
X120459390Y-80486636D01*
X120609713Y-80636959D01*
X120781679Y-80761898D01*
X120781681Y-80761899D01*
X120781684Y-80761901D01*
X120790993Y-80766644D01*
X120841790Y-80814616D01*
X120858587Y-80882437D01*
X120836052Y-80948572D01*
X120791002Y-80987612D01*
X120781943Y-80992228D01*
X120610040Y-81117122D01*
X120610035Y-81117126D01*
X120459776Y-81267385D01*
X120459772Y-81267390D01*
X120334879Y-81439292D01*
X120238404Y-81628632D01*
X120172742Y-81830720D01*
X120172742Y-81830723D01*
X120162269Y-81896850D01*
X121056488Y-81896850D01*
X121023575Y-81953857D01*
X120989500Y-82081024D01*
X120989500Y-82212676D01*
X121023575Y-82339843D01*
X121056488Y-82396850D01*
X120162269Y-82396850D01*
X120172742Y-82462976D01*
X120172742Y-82462979D01*
X120238404Y-82665067D01*
X120334879Y-82854407D01*
X120459772Y-83026309D01*
X120459776Y-83026314D01*
X120610035Y-83176573D01*
X120610040Y-83176577D01*
X120781944Y-83301472D01*
X120790995Y-83306084D01*
X120841792Y-83354058D01*
X120858587Y-83421879D01*
X120836050Y-83488014D01*
X120790999Y-83527052D01*
X120781682Y-83531799D01*
X120609713Y-83656740D01*
X120459390Y-83807063D01*
X120334451Y-83979029D01*
X120237944Y-84168435D01*
X120172253Y-84370610D01*
X120139000Y-84580563D01*
X120139000Y-84793136D01*
X120172253Y-85003089D01*
X120237944Y-85205264D01*
X120334451Y-85394670D01*
X120459390Y-85566636D01*
X120609713Y-85716959D01*
X120781682Y-85841900D01*
X120790446Y-85846366D01*
X120841242Y-85894341D01*
X120858036Y-85962162D01*
X120835498Y-86028297D01*
X120790446Y-86067334D01*
X120781682Y-86071799D01*
X120609713Y-86196740D01*
X120459390Y-86347063D01*
X120334451Y-86519029D01*
X120237944Y-86708435D01*
X120172253Y-86910610D01*
X120139000Y-87120563D01*
X120139000Y-87333136D01*
X120166457Y-87506496D01*
X120172254Y-87543093D01*
X120220300Y-87690964D01*
X120237944Y-87745264D01*
X120334451Y-87934670D01*
X120459390Y-88106636D01*
X120609713Y-88256959D01*
X120781682Y-88381900D01*
X120790446Y-88386366D01*
X120841242Y-88434341D01*
X120858036Y-88502162D01*
X120835498Y-88568297D01*
X120790446Y-88607334D01*
X120781682Y-88611799D01*
X120609713Y-88736740D01*
X120459390Y-88887063D01*
X120334451Y-89059029D01*
X120237944Y-89248435D01*
X120172253Y-89450610D01*
X120139000Y-89660563D01*
X120139000Y-89873137D01*
X120172254Y-90083093D01*
X120178528Y-90102403D01*
X120237944Y-90285264D01*
X120334451Y-90474670D01*
X120459390Y-90646636D01*
X120609713Y-90796959D01*
X120781682Y-90921900D01*
X120790446Y-90926366D01*
X120841242Y-90974341D01*
X120858036Y-91042162D01*
X120835498Y-91108297D01*
X120790446Y-91147334D01*
X120781682Y-91151799D01*
X120609713Y-91276740D01*
X120459390Y-91427063D01*
X120334451Y-91599029D01*
X120237944Y-91788435D01*
X120172253Y-91990610D01*
X120139000Y-92200563D01*
X120139000Y-92413137D01*
X120172254Y-92623093D01*
X120234432Y-92814457D01*
X120237944Y-92825264D01*
X120334451Y-93014670D01*
X120459390Y-93186636D01*
X120609713Y-93336959D01*
X120781679Y-93461898D01*
X120781681Y-93461899D01*
X120781684Y-93461901D01*
X120790993Y-93466644D01*
X120841790Y-93514616D01*
X120858587Y-93582437D01*
X120836052Y-93648572D01*
X120791002Y-93687612D01*
X120781943Y-93692228D01*
X120610040Y-93817122D01*
X120610035Y-93817126D01*
X120459776Y-93967385D01*
X120459772Y-93967390D01*
X120334879Y-94139292D01*
X120238404Y-94328632D01*
X120172742Y-94530720D01*
X120172742Y-94530723D01*
X120162269Y-94596850D01*
X121056488Y-94596850D01*
X121023575Y-94653857D01*
X120989500Y-94781024D01*
X120989500Y-94912676D01*
X121023575Y-95039843D01*
X121056488Y-95096850D01*
X120162269Y-95096850D01*
X120172742Y-95162976D01*
X120172742Y-95162979D01*
X120238404Y-95365067D01*
X120334879Y-95554407D01*
X120459772Y-95726309D01*
X120459776Y-95726314D01*
X120610035Y-95876573D01*
X120610040Y-95876577D01*
X120781944Y-96001472D01*
X120790995Y-96006084D01*
X120841792Y-96054058D01*
X120858587Y-96121879D01*
X120836050Y-96188014D01*
X120790999Y-96227052D01*
X120781682Y-96231799D01*
X120609713Y-96356740D01*
X120459390Y-96507063D01*
X120334451Y-96679029D01*
X120237944Y-96868435D01*
X120172253Y-97070610D01*
X120139000Y-97280563D01*
X120139000Y-97493136D01*
X120169612Y-97686417D01*
X120172254Y-97703093D01*
X120231898Y-97886658D01*
X120237944Y-97905264D01*
X120334451Y-98094670D01*
X120459390Y-98266636D01*
X120609713Y-98416959D01*
X120781682Y-98541900D01*
X120790446Y-98546366D01*
X120841242Y-98594341D01*
X120858036Y-98662162D01*
X120835498Y-98728297D01*
X120790446Y-98767334D01*
X120781682Y-98771799D01*
X120609713Y-98896740D01*
X120459390Y-99047063D01*
X120334451Y-99219029D01*
X120237944Y-99408435D01*
X120172253Y-99610610D01*
X120139000Y-99820563D01*
X120139000Y-100033136D01*
X120169599Y-100226335D01*
X120172254Y-100243093D01*
X120234362Y-100434242D01*
X120237944Y-100445264D01*
X120334451Y-100634670D01*
X120459390Y-100806636D01*
X120609713Y-100956959D01*
X120781679Y-101081898D01*
X120781681Y-101081899D01*
X120781684Y-101081901D01*
X120790993Y-101086644D01*
X120841790Y-101134616D01*
X120858587Y-101202437D01*
X120836052Y-101268572D01*
X120791002Y-101307612D01*
X120781943Y-101312228D01*
X120610040Y-101437122D01*
X120610035Y-101437126D01*
X120459776Y-101587385D01*
X120459772Y-101587390D01*
X120334879Y-101759292D01*
X120238404Y-101948632D01*
X120172742Y-102150720D01*
X120172742Y-102150723D01*
X120162269Y-102216850D01*
X121056488Y-102216850D01*
X121023575Y-102273857D01*
X120989500Y-102401024D01*
X120989500Y-102532676D01*
X121023575Y-102659843D01*
X121056488Y-102716850D01*
X120162269Y-102716850D01*
X120172742Y-102782976D01*
X120172742Y-102782979D01*
X120238404Y-102985067D01*
X120334879Y-103174407D01*
X120459772Y-103346309D01*
X120459776Y-103346314D01*
X120610035Y-103496573D01*
X120610040Y-103496577D01*
X120781944Y-103621472D01*
X120790995Y-103626084D01*
X120841792Y-103674058D01*
X120858587Y-103741879D01*
X120836050Y-103808014D01*
X120790999Y-103847052D01*
X120781682Y-103851799D01*
X120609713Y-103976740D01*
X120459390Y-104127063D01*
X120334451Y-104299029D01*
X120237944Y-104488435D01*
X120172253Y-104690610D01*
X120151043Y-104824524D01*
X120139000Y-104900563D01*
X120139000Y-105113137D01*
X120172254Y-105323093D01*
X120227292Y-105492483D01*
X120237944Y-105525264D01*
X120334451Y-105714670D01*
X120459390Y-105886636D01*
X120609713Y-106036959D01*
X120781682Y-106161900D01*
X120790446Y-106166366D01*
X120841242Y-106214341D01*
X120858036Y-106282162D01*
X120835498Y-106348297D01*
X120790446Y-106387334D01*
X120781682Y-106391799D01*
X120609713Y-106516740D01*
X120459390Y-106667063D01*
X120334451Y-106839029D01*
X120237944Y-107028435D01*
X120172253Y-107230610D01*
X120159987Y-107308056D01*
X120139000Y-107440563D01*
X120139000Y-107653137D01*
X120172254Y-107863093D01*
X120216139Y-107998158D01*
X120237944Y-108065264D01*
X120334451Y-108254670D01*
X120459390Y-108426636D01*
X120609713Y-108576959D01*
X120781682Y-108701900D01*
X120790446Y-108706366D01*
X120841242Y-108754341D01*
X120858036Y-108822162D01*
X120835498Y-108888297D01*
X120790446Y-108927334D01*
X120781682Y-108931799D01*
X120609713Y-109056740D01*
X120459390Y-109207063D01*
X120334451Y-109379029D01*
X120237944Y-109568435D01*
X120172253Y-109770610D01*
X120139000Y-109980563D01*
X120139000Y-110193136D01*
X120169887Y-110388153D01*
X120172254Y-110403093D01*
X120233191Y-110590638D01*
X120237944Y-110605264D01*
X120334451Y-110794670D01*
X120459390Y-110966636D01*
X120609713Y-111116959D01*
X120781679Y-111241898D01*
X120781681Y-111241899D01*
X120781684Y-111241901D01*
X120790993Y-111246644D01*
X120841790Y-111294616D01*
X120858587Y-111362437D01*
X120836052Y-111428572D01*
X120791002Y-111467612D01*
X120781943Y-111472228D01*
X120610040Y-111597122D01*
X120610035Y-111597126D01*
X120459776Y-111747385D01*
X120459772Y-111747390D01*
X120334879Y-111919292D01*
X120238404Y-112108632D01*
X120172742Y-112310720D01*
X120172742Y-112310723D01*
X120162269Y-112376850D01*
X121056488Y-112376850D01*
X121023575Y-112433857D01*
X120989500Y-112561024D01*
X120989500Y-112692676D01*
X121023575Y-112819843D01*
X121056488Y-112876850D01*
X120162269Y-112876850D01*
X120172742Y-112942976D01*
X120172742Y-112942979D01*
X120238404Y-113145067D01*
X120334879Y-113334407D01*
X120459772Y-113506309D01*
X120459776Y-113506314D01*
X120610035Y-113656573D01*
X120610040Y-113656577D01*
X120781944Y-113781472D01*
X120790995Y-113786084D01*
X120841792Y-113834058D01*
X120858587Y-113901879D01*
X120836050Y-113968014D01*
X120790999Y-114007052D01*
X120781682Y-114011799D01*
X120609713Y-114136740D01*
X120459390Y-114287063D01*
X120334451Y-114459029D01*
X120237944Y-114648435D01*
X120172253Y-114850610D01*
X120139000Y-115060563D01*
X120139000Y-115273136D01*
X120172253Y-115483089D01*
X120237944Y-115685264D01*
X120334451Y-115874670D01*
X120459390Y-116046636D01*
X120609713Y-116196959D01*
X120781682Y-116321900D01*
X120790446Y-116326366D01*
X120841242Y-116374341D01*
X120858036Y-116442162D01*
X120835498Y-116508297D01*
X120790446Y-116547334D01*
X120781682Y-116551799D01*
X120609713Y-116676740D01*
X120459390Y-116827063D01*
X120334451Y-116999029D01*
X120237944Y-117188435D01*
X120172253Y-117390610D01*
X120139000Y-117600563D01*
X120139000Y-117813137D01*
X120172254Y-118023093D01*
X120237796Y-118224811D01*
X120237944Y-118225264D01*
X120334451Y-118414670D01*
X120459390Y-118586636D01*
X120459396Y-118586642D01*
X120609708Y-118736954D01*
X120687884Y-118793752D01*
X120730551Y-118849081D01*
X120739000Y-118894070D01*
X120739000Y-119150418D01*
X120739000Y-119150420D01*
X120738999Y-119150420D01*
X120767840Y-119295407D01*
X120767843Y-119295417D01*
X120824413Y-119431990D01*
X120824414Y-119431992D01*
X120848734Y-119468389D01*
X120848735Y-119468391D01*
X120906543Y-119554910D01*
X120906547Y-119554915D01*
X121315719Y-119964087D01*
X121349204Y-120025410D01*
X121344220Y-120095102D01*
X121302348Y-120151035D01*
X121294010Y-120156762D01*
X121111200Y-120271630D01*
X120860887Y-120471247D01*
X120634497Y-120697637D01*
X120434880Y-120947950D01*
X120264543Y-121219039D01*
X120125632Y-121507490D01*
X120019890Y-121809685D01*
X120019889Y-121809687D01*
X119948647Y-122121821D01*
X119948645Y-122121833D01*
X119912800Y-122439964D01*
X119613800Y-122439964D01*
X119613800Y-64439964D01*
X119912800Y-64439964D01*
X119912800Y-64760135D01*
X119948645Y-65078266D01*
X119948647Y-65078278D01*
X120019889Y-65390412D01*
X120019890Y-65390414D01*
X120125632Y-65692609D01*
X120264543Y-65981060D01*
X120264545Y-65981063D01*
X120434881Y-66252151D01*
X120634498Y-66502463D01*
X120860887Y-66728852D01*
X121111199Y-66928469D01*
X121382287Y-67098805D01*
X121670742Y-67237718D01*
X121972937Y-67343460D01*
X122285071Y-67414703D01*
X122603215Y-67450549D01*
X122603216Y-67450550D01*
X122603219Y-67450550D01*
X122923384Y-67450550D01*
X122923384Y-67450549D01*
X123241529Y-67414703D01*
X123553663Y-67343460D01*
X123855858Y-67237718D01*
X124089798Y-67125058D01*
X131039079Y-67125058D01*
X131080005Y-67277793D01*
X131081768Y-67280845D01*
X131081772Y-67280851D01*
X131159058Y-67414716D01*
X131159062Y-67414721D01*
X131629987Y-67885646D01*
X131629993Y-67885651D01*
X131661820Y-67917478D01*
X131686897Y-67955008D01*
X131686930Y-67954991D01*
X131687103Y-67955316D01*
X131688700Y-67957705D01*
X131689800Y-67960361D01*
X131689803Y-67960367D01*
X131777404Y-68091470D01*
X131777407Y-68091474D01*
X131888901Y-68202968D01*
X131888905Y-68202971D01*
X132020008Y-68290572D01*
X132020021Y-68290579D01*
X132074458Y-68313127D01*
X132165697Y-68350919D01*
X132320347Y-68381681D01*
X132320350Y-68381682D01*
X132320352Y-68381682D01*
X132478038Y-68381682D01*
X132478039Y-68381681D01*
X132632691Y-68350919D01*
X132775416Y-68291801D01*
X132778366Y-68290579D01*
X132778366Y-68290578D01*
X132778373Y-68290576D01*
X132909483Y-68202971D01*
X133020983Y-68091471D01*
X133108588Y-67960361D01*
X133168931Y-67814679D01*
X133199694Y-67660024D01*
X133199694Y-67502340D01*
X133199694Y-67502337D01*
X133185366Y-67430308D01*
X133185366Y-67430307D01*
X133181765Y-67412203D01*
X151886800Y-67412203D01*
X151886800Y-67569896D01*
X151917561Y-67724539D01*
X151917564Y-67724551D01*
X151977902Y-67870222D01*
X151977909Y-67870235D01*
X152065510Y-68001338D01*
X152065513Y-68001342D01*
X152177007Y-68112836D01*
X152177011Y-68112839D01*
X152308114Y-68200440D01*
X152308127Y-68200447D01*
X152453798Y-68260785D01*
X152453803Y-68260787D01*
X152608453Y-68291549D01*
X152608456Y-68291550D01*
X152608458Y-68291550D01*
X152766144Y-68291550D01*
X152766145Y-68291549D01*
X152920797Y-68260787D01*
X153060378Y-68202971D01*
X153066472Y-68200447D01*
X153066472Y-68200446D01*
X153066479Y-68200444D01*
X153165297Y-68134416D01*
X153198175Y-68112448D01*
X153264853Y-68091570D01*
X153267066Y-68091550D01*
X155895782Y-68091550D01*
X155962821Y-68111235D01*
X155983463Y-68127869D01*
X155990007Y-68134413D01*
X155990011Y-68134416D01*
X156121114Y-68222017D01*
X156121127Y-68222024D01*
X156266798Y-68282362D01*
X156266803Y-68282364D01*
X156421453Y-68313126D01*
X156421456Y-68313127D01*
X156421458Y-68313127D01*
X156579144Y-68313127D01*
X156579145Y-68313126D01*
X156733797Y-68282364D01*
X156879479Y-68222021D01*
X157010589Y-68134416D01*
X157122089Y-68022916D01*
X157209694Y-67891806D01*
X157212244Y-67885651D01*
X157270035Y-67746128D01*
X157270037Y-67746124D01*
X157300800Y-67591469D01*
X157300800Y-67433785D01*
X157300800Y-67433782D01*
X157300799Y-67433780D01*
X157297007Y-67414716D01*
X157270037Y-67279130D01*
X157269482Y-67277789D01*
X157209697Y-67133454D01*
X157209690Y-67133441D01*
X157122089Y-67002338D01*
X157122086Y-67002334D01*
X157010592Y-66890840D01*
X157010588Y-66890837D01*
X156879485Y-66803236D01*
X156879472Y-66803229D01*
X156733801Y-66742891D01*
X156733789Y-66742888D01*
X156579145Y-66712127D01*
X156579142Y-66712127D01*
X156421458Y-66712127D01*
X156421455Y-66712127D01*
X156266810Y-66742888D01*
X156266798Y-66742891D01*
X156121127Y-66803229D01*
X156121114Y-66803236D01*
X156021718Y-66869652D01*
X155955041Y-66890530D01*
X155952827Y-66890550D01*
X153267066Y-66890550D01*
X153200027Y-66870865D01*
X153198175Y-66869652D01*
X153066485Y-66781659D01*
X153066472Y-66781652D01*
X152920801Y-66721314D01*
X152920789Y-66721311D01*
X152766145Y-66690550D01*
X152766142Y-66690550D01*
X152608458Y-66690550D01*
X152608455Y-66690550D01*
X152453810Y-66721311D01*
X152453798Y-66721314D01*
X152308127Y-66781652D01*
X152308114Y-66781659D01*
X152177011Y-66869260D01*
X152177007Y-66869263D01*
X152065513Y-66980757D01*
X152065510Y-66980761D01*
X151977909Y-67111864D01*
X151977902Y-67111877D01*
X151917564Y-67257548D01*
X151917561Y-67257560D01*
X151886800Y-67412203D01*
X133181765Y-67412203D01*
X133168932Y-67347692D01*
X133168931Y-67347685D01*
X133139981Y-67277793D01*
X133108589Y-67202004D01*
X133108588Y-67202003D01*
X133091261Y-67176070D01*
X133070384Y-67109393D01*
X133088869Y-67042013D01*
X133106679Y-67019504D01*
X135586219Y-64539964D01*
X168912800Y-64539964D01*
X168912800Y-64860135D01*
X168948645Y-65178266D01*
X168948647Y-65178278D01*
X169019889Y-65490412D01*
X169019890Y-65490414D01*
X169125632Y-65792609D01*
X169264543Y-66081060D01*
X169264545Y-66081063D01*
X169434881Y-66352151D01*
X169634498Y-66602463D01*
X169860887Y-66828852D01*
X170111199Y-67028469D01*
X170382287Y-67198805D01*
X170670742Y-67337718D01*
X170972937Y-67443460D01*
X171285071Y-67514703D01*
X171603215Y-67550549D01*
X171603216Y-67550550D01*
X171603219Y-67550550D01*
X171923384Y-67550550D01*
X171923384Y-67550549D01*
X172241529Y-67514703D01*
X172553663Y-67443460D01*
X172855858Y-67337718D01*
X173144313Y-67198805D01*
X173415401Y-67028469D01*
X173665713Y-66828852D01*
X173892102Y-66602463D01*
X174091719Y-66352151D01*
X174262055Y-66081063D01*
X174400968Y-65792608D01*
X174506710Y-65490413D01*
X174577953Y-65178279D01*
X174613800Y-64860131D01*
X174613800Y-64539969D01*
X174577953Y-64221821D01*
X174506710Y-63909687D01*
X174400968Y-63607492D01*
X174262055Y-63319037D01*
X174091719Y-63047949D01*
X173892102Y-62797637D01*
X173665713Y-62571248D01*
X173415401Y-62371631D01*
X173144313Y-62201295D01*
X173144310Y-62201293D01*
X172855859Y-62062382D01*
X172553664Y-61956640D01*
X172553662Y-61956639D01*
X172312771Y-61901657D01*
X172241529Y-61885397D01*
X172241525Y-61885396D01*
X172241516Y-61885395D01*
X171923385Y-61849550D01*
X171923381Y-61849550D01*
X171603219Y-61849550D01*
X171603214Y-61849550D01*
X171285083Y-61885395D01*
X171285071Y-61885397D01*
X170972937Y-61956639D01*
X170972935Y-61956640D01*
X170670740Y-62062382D01*
X170382289Y-62201293D01*
X170111200Y-62371630D01*
X169860887Y-62571247D01*
X169634497Y-62797637D01*
X169434880Y-63047950D01*
X169264543Y-63319039D01*
X169125632Y-63607490D01*
X169019890Y-63909685D01*
X169019889Y-63909687D01*
X168948647Y-64221821D01*
X168948645Y-64221833D01*
X168912800Y-64539964D01*
X135586219Y-64539964D01*
X138658112Y-61468072D01*
X138658115Y-61468071D01*
X138769919Y-61356267D01*
X138820038Y-61269455D01*
X138848976Y-61219336D01*
X138889900Y-61066608D01*
X138889900Y-60908494D01*
X138889900Y-60900899D01*
X138889899Y-60900881D01*
X138889899Y-58709147D01*
X138909584Y-58642108D01*
X138926214Y-58621470D01*
X139644480Y-57903203D01*
X139705801Y-57869720D01*
X139751558Y-57868413D01*
X139755732Y-57869074D01*
X139755738Y-57869076D01*
X139871054Y-57887340D01*
X139950035Y-57899850D01*
X139950039Y-57899850D01*
X140146766Y-57899850D01*
X140341062Y-57869076D01*
X140399276Y-57850161D01*
X140528157Y-57808285D01*
X140703438Y-57718975D01*
X140862590Y-57603344D01*
X141001694Y-57464240D01*
X141028083Y-57427918D01*
X141083410Y-57385253D01*
X141153024Y-57379273D01*
X141214819Y-57411879D01*
X141228714Y-57427914D01*
X141255107Y-57464240D01*
X141394211Y-57603344D01*
X141553363Y-57718975D01*
X141607900Y-57746763D01*
X141728639Y-57808283D01*
X141728641Y-57808283D01*
X141728644Y-57808285D01*
X141828931Y-57840870D01*
X141915738Y-57869076D01*
X142110035Y-57899850D01*
X142110040Y-57899850D01*
X142306767Y-57899850D01*
X142501063Y-57869076D01*
X142559277Y-57850161D01*
X142688158Y-57808285D01*
X142863439Y-57718975D01*
X143022591Y-57603344D01*
X143161695Y-57464240D01*
X143188082Y-57427920D01*
X143243411Y-57385255D01*
X143313025Y-57379276D01*
X143374820Y-57411881D01*
X143388715Y-57427918D01*
X143415105Y-57464240D01*
X143554209Y-57603344D01*
X143713361Y-57718975D01*
X143767898Y-57746763D01*
X143888637Y-57808283D01*
X143888639Y-57808283D01*
X143888642Y-57808285D01*
X143988929Y-57840870D01*
X144075736Y-57869076D01*
X144270033Y-57899850D01*
X144270038Y-57899850D01*
X144466765Y-57899850D01*
X144661061Y-57869076D01*
X144719275Y-57850161D01*
X144848156Y-57808285D01*
X145023437Y-57718975D01*
X145182589Y-57603344D01*
X145321693Y-57464240D01*
X145348082Y-57427918D01*
X145403409Y-57385253D01*
X145473023Y-57379273D01*
X145534818Y-57411879D01*
X145548713Y-57427914D01*
X145575106Y-57464240D01*
X145714210Y-57603344D01*
X145873362Y-57718975D01*
X145927899Y-57746763D01*
X146048638Y-57808283D01*
X146048640Y-57808283D01*
X146048643Y-57808285D01*
X146148930Y-57840870D01*
X146235737Y-57869076D01*
X146430034Y-57899850D01*
X146430039Y-57899850D01*
X146626766Y-57899850D01*
X146821062Y-57869076D01*
X146879276Y-57850161D01*
X147008157Y-57808285D01*
X147183438Y-57718975D01*
X147342590Y-57603344D01*
X147481694Y-57464240D01*
X147508082Y-57427919D01*
X147563412Y-57385254D01*
X147633025Y-57379275D01*
X147694820Y-57411881D01*
X147708716Y-57427918D01*
X147735106Y-57464240D01*
X147874210Y-57603344D01*
X148033362Y-57718975D01*
X148087899Y-57746763D01*
X148208638Y-57808283D01*
X148208640Y-57808283D01*
X148208643Y-57808285D01*
X148308930Y-57840870D01*
X148395737Y-57869076D01*
X148590034Y-57899850D01*
X148590039Y-57899850D01*
X148786766Y-57899850D01*
X148981062Y-57869076D01*
X149039276Y-57850161D01*
X149168157Y-57808285D01*
X149343438Y-57718975D01*
X149502590Y-57603344D01*
X149641694Y-57464240D01*
X149668083Y-57427918D01*
X149723410Y-57385253D01*
X149793024Y-57379273D01*
X149854819Y-57411879D01*
X149868714Y-57427914D01*
X149895107Y-57464240D01*
X150034211Y-57603344D01*
X150193363Y-57718975D01*
X150247900Y-57746763D01*
X150368639Y-57808283D01*
X150368641Y-57808283D01*
X150368644Y-57808285D01*
X150468931Y-57840870D01*
X150555738Y-57869076D01*
X150750035Y-57899850D01*
X150750040Y-57899850D01*
X150946767Y-57899850D01*
X151141063Y-57869076D01*
X151199277Y-57850161D01*
X151328158Y-57808285D01*
X151503439Y-57718975D01*
X151662591Y-57603344D01*
X151801695Y-57464240D01*
X151828082Y-57427920D01*
X151883411Y-57385255D01*
X151953025Y-57379276D01*
X152014820Y-57411881D01*
X152028715Y-57427918D01*
X152055105Y-57464240D01*
X152194209Y-57603344D01*
X152353361Y-57718975D01*
X152407898Y-57746763D01*
X152528637Y-57808283D01*
X152528639Y-57808283D01*
X152528642Y-57808285D01*
X152628929Y-57840870D01*
X152715736Y-57869076D01*
X152910033Y-57899850D01*
X152910038Y-57899850D01*
X153106765Y-57899850D01*
X153301061Y-57869076D01*
X153359275Y-57850161D01*
X153488156Y-57808285D01*
X153663437Y-57718975D01*
X153822589Y-57603344D01*
X153961693Y-57464240D01*
X153988082Y-57427918D01*
X154043409Y-57385253D01*
X154113023Y-57379273D01*
X154174818Y-57411879D01*
X154188713Y-57427914D01*
X154215106Y-57464240D01*
X154354210Y-57603344D01*
X154513362Y-57718975D01*
X154567899Y-57746763D01*
X154688638Y-57808283D01*
X154688640Y-57808283D01*
X154688643Y-57808285D01*
X154788930Y-57840870D01*
X154875737Y-57869076D01*
X155070034Y-57899850D01*
X155070039Y-57899850D01*
X155266766Y-57899850D01*
X155461062Y-57869076D01*
X155519276Y-57850161D01*
X155648157Y-57808285D01*
X155823438Y-57718975D01*
X155982590Y-57603344D01*
X156121694Y-57464240D01*
X156148083Y-57427918D01*
X156203410Y-57385253D01*
X156273024Y-57379273D01*
X156334819Y-57411879D01*
X156348714Y-57427914D01*
X156375107Y-57464240D01*
X156514211Y-57603344D01*
X156673363Y-57718975D01*
X156727900Y-57746763D01*
X156848639Y-57808283D01*
X156848641Y-57808283D01*
X156848644Y-57808285D01*
X156948931Y-57840870D01*
X157035738Y-57869076D01*
X157230035Y-57899850D01*
X157230040Y-57899850D01*
X157426767Y-57899850D01*
X157621063Y-57869076D01*
X157679277Y-57850161D01*
X157808158Y-57808285D01*
X157983439Y-57718975D01*
X158142591Y-57603344D01*
X158281695Y-57464240D01*
X158308082Y-57427920D01*
X158363411Y-57385255D01*
X158433025Y-57379276D01*
X158494820Y-57411881D01*
X158508715Y-57427918D01*
X158535105Y-57464240D01*
X158674209Y-57603344D01*
X158833361Y-57718975D01*
X158887898Y-57746763D01*
X159008637Y-57808283D01*
X159008639Y-57808283D01*
X159008642Y-57808285D01*
X159108929Y-57840870D01*
X159195736Y-57869076D01*
X159390033Y-57899850D01*
X159390038Y-57899850D01*
X159586765Y-57899850D01*
X159781061Y-57869076D01*
X159839275Y-57850161D01*
X159968156Y-57808285D01*
X160143437Y-57718975D01*
X160302589Y-57603344D01*
X160441693Y-57464240D01*
X160557324Y-57305088D01*
X160646634Y-57129807D01*
X160707425Y-56942712D01*
X160707443Y-56942596D01*
X160738199Y-56748416D01*
X160738199Y-56551683D01*
X160707425Y-56357387D01*
X160660539Y-56213088D01*
X160646634Y-56170293D01*
X160646632Y-56170290D01*
X160646632Y-56170288D01*
X160568399Y-56016748D01*
X160557324Y-55995012D01*
X160441693Y-55835860D01*
X160302589Y-55696756D01*
X160143437Y-55581125D01*
X160138572Y-55578646D01*
X159968160Y-55491816D01*
X159781061Y-55431023D01*
X159586765Y-55400250D01*
X159586760Y-55400250D01*
X159390038Y-55400250D01*
X159390033Y-55400250D01*
X159195736Y-55431023D01*
X159008637Y-55491816D01*
X158833360Y-55581125D01*
X158742558Y-55647097D01*
X158674209Y-55696756D01*
X158674207Y-55696758D01*
X158674206Y-55696758D01*
X158535106Y-55835858D01*
X158508718Y-55872179D01*
X158453387Y-55914844D01*
X158383774Y-55920823D01*
X158321979Y-55888217D01*
X158308082Y-55872179D01*
X158281695Y-55835860D01*
X158142591Y-55696756D01*
X157983439Y-55581125D01*
X157978574Y-55578646D01*
X157808162Y-55491816D01*
X157621063Y-55431023D01*
X157426767Y-55400250D01*
X157426762Y-55400250D01*
X157230040Y-55400250D01*
X157230035Y-55400250D01*
X157035738Y-55431023D01*
X156848639Y-55491816D01*
X156673362Y-55581125D01*
X156582560Y-55647097D01*
X156514211Y-55696756D01*
X156514209Y-55696758D01*
X156514208Y-55696758D01*
X156375106Y-55835860D01*
X156348717Y-55872182D01*
X156293386Y-55914847D01*
X156223773Y-55920825D01*
X156161978Y-55888218D01*
X156148082Y-55872180D01*
X156121696Y-55835863D01*
X156121691Y-55835857D01*
X155982592Y-55696758D01*
X155982590Y-55696756D01*
X155823438Y-55581125D01*
X155818573Y-55578646D01*
X155648161Y-55491816D01*
X155461062Y-55431023D01*
X155266766Y-55400250D01*
X155266761Y-55400250D01*
X155070039Y-55400250D01*
X155070034Y-55400250D01*
X154875737Y-55431023D01*
X154688638Y-55491816D01*
X154513361Y-55581125D01*
X154422559Y-55647097D01*
X154354210Y-55696756D01*
X154354208Y-55696758D01*
X154354207Y-55696758D01*
X154215105Y-55835860D01*
X154188716Y-55872182D01*
X154133385Y-55914847D01*
X154063772Y-55920825D01*
X154001977Y-55888218D01*
X153988081Y-55872180D01*
X153961695Y-55835863D01*
X153961690Y-55835857D01*
X153822591Y-55696758D01*
X153822589Y-55696756D01*
X153663437Y-55581125D01*
X153658572Y-55578646D01*
X153488160Y-55491816D01*
X153301061Y-55431023D01*
X153106765Y-55400250D01*
X153106760Y-55400250D01*
X152910038Y-55400250D01*
X152910033Y-55400250D01*
X152715736Y-55431023D01*
X152528637Y-55491816D01*
X152353360Y-55581125D01*
X152262558Y-55647097D01*
X152194209Y-55696756D01*
X152194207Y-55696758D01*
X152194206Y-55696758D01*
X152055106Y-55835858D01*
X152028718Y-55872179D01*
X151973387Y-55914844D01*
X151903774Y-55920823D01*
X151841979Y-55888217D01*
X151828082Y-55872179D01*
X151801695Y-55835860D01*
X151662591Y-55696756D01*
X151503439Y-55581125D01*
X151498574Y-55578646D01*
X151328162Y-55491816D01*
X151141063Y-55431023D01*
X150946767Y-55400250D01*
X150946762Y-55400250D01*
X150750040Y-55400250D01*
X150750035Y-55400250D01*
X150555738Y-55431023D01*
X150368639Y-55491816D01*
X150193362Y-55581125D01*
X150102560Y-55647097D01*
X150034211Y-55696756D01*
X150034209Y-55696758D01*
X150034208Y-55696758D01*
X149895106Y-55835860D01*
X149868717Y-55872182D01*
X149813386Y-55914847D01*
X149743773Y-55920825D01*
X149681978Y-55888218D01*
X149668082Y-55872180D01*
X149641696Y-55835863D01*
X149641691Y-55835857D01*
X149502592Y-55696758D01*
X149502590Y-55696756D01*
X149343438Y-55581125D01*
X149338573Y-55578646D01*
X149168161Y-55491816D01*
X148981062Y-55431023D01*
X148786766Y-55400250D01*
X148786761Y-55400250D01*
X148590039Y-55400250D01*
X148590034Y-55400250D01*
X148395737Y-55431023D01*
X148208638Y-55491816D01*
X148033361Y-55581125D01*
X147942559Y-55647097D01*
X147874210Y-55696756D01*
X147874208Y-55696758D01*
X147874207Y-55696758D01*
X147735108Y-55835857D01*
X147735101Y-55835866D01*
X147708717Y-55872180D01*
X147653387Y-55914846D01*
X147583773Y-55920824D01*
X147521979Y-55888217D01*
X147508083Y-55872180D01*
X147481698Y-55835866D01*
X147481696Y-55835863D01*
X147481694Y-55835860D01*
X147342590Y-55696756D01*
X147183438Y-55581125D01*
X147178573Y-55578646D01*
X147008161Y-55491816D01*
X146821062Y-55431023D01*
X146626766Y-55400250D01*
X146626761Y-55400250D01*
X146430039Y-55400250D01*
X146430034Y-55400250D01*
X146235737Y-55431023D01*
X146048638Y-55491816D01*
X145873361Y-55581125D01*
X145782559Y-55647097D01*
X145714210Y-55696756D01*
X145714208Y-55696758D01*
X145714207Y-55696758D01*
X145575105Y-55835860D01*
X145548716Y-55872182D01*
X145493385Y-55914847D01*
X145423772Y-55920825D01*
X145361977Y-55888218D01*
X145348081Y-55872180D01*
X145321695Y-55835863D01*
X145321690Y-55835857D01*
X145182591Y-55696758D01*
X145182589Y-55696756D01*
X145023437Y-55581125D01*
X145018572Y-55578646D01*
X144848160Y-55491816D01*
X144661061Y-55431023D01*
X144466765Y-55400250D01*
X144466760Y-55400250D01*
X144270038Y-55400250D01*
X144270033Y-55400250D01*
X144075736Y-55431023D01*
X143888637Y-55491816D01*
X143713360Y-55581125D01*
X143622558Y-55647097D01*
X143554209Y-55696756D01*
X143554207Y-55696758D01*
X143554206Y-55696758D01*
X143415106Y-55835858D01*
X143388718Y-55872179D01*
X143333387Y-55914844D01*
X143263774Y-55920823D01*
X143201979Y-55888217D01*
X143188082Y-55872179D01*
X143161695Y-55835860D01*
X143022591Y-55696756D01*
X142863439Y-55581125D01*
X142858574Y-55578646D01*
X142688162Y-55491816D01*
X142501063Y-55431023D01*
X142306767Y-55400250D01*
X142306762Y-55400250D01*
X142110040Y-55400250D01*
X142110035Y-55400250D01*
X141915738Y-55431023D01*
X141728639Y-55491816D01*
X141553362Y-55581125D01*
X141462560Y-55647097D01*
X141394211Y-55696756D01*
X141394209Y-55696758D01*
X141394208Y-55696758D01*
X141255106Y-55835860D01*
X141228717Y-55872182D01*
X141173386Y-55914847D01*
X141103773Y-55920825D01*
X141041978Y-55888218D01*
X141028082Y-55872180D01*
X141001696Y-55835863D01*
X141001691Y-55835857D01*
X140862592Y-55696758D01*
X140862590Y-55696756D01*
X140703438Y-55581125D01*
X140698573Y-55578646D01*
X140528161Y-55491816D01*
X140341062Y-55431023D01*
X140146766Y-55400250D01*
X140146761Y-55400250D01*
X139950039Y-55400250D01*
X139950034Y-55400250D01*
X139755737Y-55431023D01*
X139568638Y-55491816D01*
X139393361Y-55581125D01*
X139302559Y-55647097D01*
X139234210Y-55696756D01*
X139234208Y-55696758D01*
X139234207Y-55696758D01*
X139095105Y-55835860D01*
X139068716Y-55872182D01*
X139013385Y-55914847D01*
X138943772Y-55920825D01*
X138881977Y-55888218D01*
X138868081Y-55872180D01*
X138841695Y-55835863D01*
X138841690Y-55835857D01*
X138702591Y-55696758D01*
X138702589Y-55696756D01*
X138543437Y-55581125D01*
X138538572Y-55578646D01*
X138368160Y-55491816D01*
X138181061Y-55431023D01*
X137986765Y-55400250D01*
X137986760Y-55400250D01*
X137790038Y-55400250D01*
X137790033Y-55400250D01*
X137595736Y-55431023D01*
X137408637Y-55491816D01*
X137233360Y-55581125D01*
X137142558Y-55647097D01*
X137074209Y-55696756D01*
X137074207Y-55696758D01*
X137074206Y-55696758D01*
X136935104Y-55835860D01*
X136881469Y-55909682D01*
X136826139Y-55952347D01*
X136771618Y-55960384D01*
X136207525Y-56524476D01*
X136189947Y-56458871D01*
X136124740Y-56345929D01*
X136032522Y-56253711D01*
X135919580Y-56188504D01*
X135853973Y-56170924D01*
X136418025Y-55606872D01*
X136383176Y-55581552D01*
X136207966Y-55492277D01*
X136207963Y-55492276D01*
X136020947Y-55431512D01*
X135826722Y-55400750D01*
X135630080Y-55400750D01*
X135435854Y-55431512D01*
X135248838Y-55492276D01*
X135248835Y-55492277D01*
X135073621Y-55581555D01*
X135038776Y-55606871D01*
X135038776Y-55606873D01*
X135602829Y-56170924D01*
X135537222Y-56188504D01*
X135424280Y-56253711D01*
X135332062Y-56345929D01*
X135266855Y-56458871D01*
X135249275Y-56524477D01*
X134685224Y-55960425D01*
X134685222Y-55960425D01*
X134659906Y-55995270D01*
X134570628Y-56170484D01*
X134570627Y-56170487D01*
X134509863Y-56357503D01*
X134479101Y-56551728D01*
X134479101Y-56748371D01*
X134509863Y-56942596D01*
X134570627Y-57129612D01*
X134570628Y-57129615D01*
X134659903Y-57304825D01*
X134685223Y-57339673D01*
X134685223Y-57339674D01*
X135249275Y-56775622D01*
X135266855Y-56841229D01*
X135332062Y-56954171D01*
X135424280Y-57046389D01*
X135537222Y-57111596D01*
X135602828Y-57129175D01*
X135038776Y-57693226D01*
X135038776Y-57693227D01*
X135073624Y-57718546D01*
X135248835Y-57807822D01*
X135248838Y-57807823D01*
X135435854Y-57868587D01*
X135630080Y-57899350D01*
X135826722Y-57899350D01*
X136020947Y-57868587D01*
X136207963Y-57807823D01*
X136207976Y-57807817D01*
X136383170Y-57718550D01*
X136383175Y-57718547D01*
X136418025Y-57693226D01*
X135853974Y-57129175D01*
X135919580Y-57111596D01*
X136032522Y-57046389D01*
X136124740Y-56954171D01*
X136189947Y-56841229D01*
X136207526Y-56775622D01*
X136771633Y-57339729D01*
X136839802Y-57354051D01*
X136881470Y-57390418D01*
X136935105Y-57464240D01*
X137074209Y-57603344D01*
X137074212Y-57603346D01*
X137236784Y-57721462D01*
X137279450Y-57776792D01*
X137287899Y-57821780D01*
X137287899Y-60439503D01*
X137268214Y-60506542D01*
X137251580Y-60527184D01*
X132219523Y-65559242D01*
X132192595Y-65573945D01*
X132166777Y-65590538D01*
X132160576Y-65591429D01*
X132158200Y-65592727D01*
X132131842Y-65595561D01*
X132078308Y-65595561D01*
X132078292Y-65595560D01*
X132070696Y-65595560D01*
X131912581Y-65595560D01*
X131772374Y-65633128D01*
X131759849Y-65636485D01*
X131622925Y-65715538D01*
X131622920Y-65715542D01*
X131263798Y-66074664D01*
X131263795Y-66074666D01*
X131263796Y-66074667D01*
X131159059Y-66179403D01*
X131129860Y-66229979D01*
X131121185Y-66245006D01*
X131080004Y-66316333D01*
X131039080Y-66469061D01*
X131039080Y-66627175D01*
X131039080Y-66627177D01*
X131039081Y-66637171D01*
X131039081Y-66959334D01*
X131039080Y-66959352D01*
X131039080Y-67125058D01*
X131039079Y-67125058D01*
X124089798Y-67125058D01*
X124144313Y-67098805D01*
X124415401Y-66928469D01*
X124665713Y-66728852D01*
X124892102Y-66502463D01*
X125091719Y-66252151D01*
X125262055Y-65981063D01*
X125400968Y-65692608D01*
X125506710Y-65390413D01*
X125577953Y-65078279D01*
X125613800Y-64760131D01*
X125613800Y-64439969D01*
X125577953Y-64121821D01*
X125506710Y-63809687D01*
X125400968Y-63507492D01*
X125262055Y-63219037D01*
X125091719Y-62947949D01*
X124892102Y-62697637D01*
X124665713Y-62471248D01*
X124415401Y-62271631D01*
X124144313Y-62101295D01*
X124144310Y-62101293D01*
X123855859Y-61962382D01*
X123553664Y-61856640D01*
X123553662Y-61856639D01*
X123312771Y-61801657D01*
X123241529Y-61785397D01*
X123241525Y-61785396D01*
X123241516Y-61785395D01*
X122923385Y-61749550D01*
X122923381Y-61749550D01*
X122603219Y-61749550D01*
X122603214Y-61749550D01*
X122285083Y-61785395D01*
X122285071Y-61785397D01*
X121972937Y-61856639D01*
X121972935Y-61856640D01*
X121670740Y-61962382D01*
X121382289Y-62101293D01*
X121111200Y-62271630D01*
X120860887Y-62471247D01*
X120634497Y-62697637D01*
X120434880Y-62947950D01*
X120264543Y-63219039D01*
X120125632Y-63507490D01*
X120019890Y-63809685D01*
X120019889Y-63809687D01*
X119948647Y-64121821D01*
X119948645Y-64121833D01*
X119912800Y-64439964D01*
X119613800Y-64439964D01*
X119613800Y-54387071D01*
X122408496Y-54387071D01*
X122408496Y-54623030D01*
X122434146Y-54817854D01*
X122439293Y-54856948D01*
X122439294Y-54856950D01*
X122500359Y-55084850D01*
X122500362Y-55084860D01*
X122590649Y-55302831D01*
X122590651Y-55302835D01*
X122708623Y-55507167D01*
X122708628Y-55507173D01*
X122708629Y-55507175D01*
X122852254Y-55694352D01*
X122852260Y-55694359D01*
X123019087Y-55861186D01*
X123019094Y-55861192D01*
X123096810Y-55920825D01*
X123206280Y-56004824D01*
X123410612Y-56122796D01*
X123628596Y-56213088D01*
X123856499Y-56274154D01*
X124090424Y-56304951D01*
X124090431Y-56304951D01*
X124326361Y-56304951D01*
X124326368Y-56304951D01*
X124560293Y-56274154D01*
X124788196Y-56213088D01*
X125006180Y-56122796D01*
X125210512Y-56004824D01*
X125397699Y-55861191D01*
X125564536Y-55694354D01*
X125631664Y-55606871D01*
X125653322Y-55578646D01*
X125708162Y-55507176D01*
X125708163Y-55507175D01*
X125708169Y-55507167D01*
X125826141Y-55302835D01*
X125916433Y-55084851D01*
X125977499Y-54856948D01*
X126008296Y-54623023D01*
X126008296Y-54387079D01*
X126008295Y-54387071D01*
X169208504Y-54387071D01*
X169208504Y-54623030D01*
X169234154Y-54817854D01*
X169239301Y-54856948D01*
X169239302Y-54856950D01*
X169300367Y-55084850D01*
X169300370Y-55084860D01*
X169390657Y-55302831D01*
X169390659Y-55302835D01*
X169508631Y-55507167D01*
X169508636Y-55507173D01*
X169508637Y-55507175D01*
X169652262Y-55694352D01*
X169652268Y-55694359D01*
X169819095Y-55861186D01*
X169819102Y-55861192D01*
X169896818Y-55920825D01*
X170006288Y-56004824D01*
X170210620Y-56122796D01*
X170428604Y-56213088D01*
X170656507Y-56274154D01*
X170890432Y-56304951D01*
X170890439Y-56304951D01*
X171126369Y-56304951D01*
X171126376Y-56304951D01*
X171360301Y-56274154D01*
X171588204Y-56213088D01*
X171806188Y-56122796D01*
X172010520Y-56004824D01*
X172197707Y-55861191D01*
X172364544Y-55694354D01*
X172508177Y-55507167D01*
X172626149Y-55302835D01*
X172716441Y-55084851D01*
X172777507Y-54856948D01*
X172808304Y-54623023D01*
X172808304Y-54387079D01*
X172777507Y-54153154D01*
X172716441Y-53925251D01*
X172626149Y-53707267D01*
X172508177Y-53502935D01*
X172451097Y-53428547D01*
X172364545Y-53315749D01*
X172364539Y-53315742D01*
X172197712Y-53148915D01*
X172197705Y-53148909D01*
X172010528Y-53005284D01*
X172010526Y-53005283D01*
X172010520Y-53005278D01*
X171806188Y-52887306D01*
X171806184Y-52887304D01*
X171588213Y-52797017D01*
X171588206Y-52797015D01*
X171588204Y-52797014D01*
X171360301Y-52735948D01*
X171321207Y-52730801D01*
X171126383Y-52705151D01*
X171126376Y-52705151D01*
X170890432Y-52705151D01*
X170890424Y-52705151D01*
X170667767Y-52734465D01*
X170656507Y-52735948D01*
X170580216Y-52756390D01*
X170428604Y-52797014D01*
X170428594Y-52797017D01*
X170210623Y-52887304D01*
X170210619Y-52887306D01*
X170006288Y-53005278D01*
X170006279Y-53005284D01*
X169819102Y-53148909D01*
X169819095Y-53148915D01*
X169652268Y-53315742D01*
X169652262Y-53315749D01*
X169508637Y-53502926D01*
X169508631Y-53502935D01*
X169390659Y-53707266D01*
X169390657Y-53707270D01*
X169300370Y-53925241D01*
X169300367Y-53925251D01*
X169239302Y-54153151D01*
X169239300Y-54153162D01*
X169208504Y-54387071D01*
X126008295Y-54387071D01*
X125977499Y-54153154D01*
X125916433Y-53925251D01*
X125826141Y-53707267D01*
X125708169Y-53502935D01*
X125651089Y-53428547D01*
X125564537Y-53315749D01*
X125564531Y-53315742D01*
X125397704Y-53148915D01*
X125397697Y-53148909D01*
X125210520Y-53005284D01*
X125210518Y-53005283D01*
X125210512Y-53005278D01*
X125006180Y-52887306D01*
X125006176Y-52887304D01*
X124788205Y-52797017D01*
X124788198Y-52797015D01*
X124788196Y-52797014D01*
X124560293Y-52735948D01*
X124521199Y-52730801D01*
X124326375Y-52705151D01*
X124326368Y-52705151D01*
X124090424Y-52705151D01*
X124090416Y-52705151D01*
X123867759Y-52734465D01*
X123856499Y-52735948D01*
X123780208Y-52756390D01*
X123628596Y-52797014D01*
X123628586Y-52797017D01*
X123410615Y-52887304D01*
X123410611Y-52887306D01*
X123206280Y-53005278D01*
X123206271Y-53005284D01*
X123019094Y-53148909D01*
X123019087Y-53148915D01*
X122852260Y-53315742D01*
X122852254Y-53315749D01*
X122708629Y-53502926D01*
X122708623Y-53502935D01*
X122590651Y-53707266D01*
X122590649Y-53707270D01*
X122500362Y-53925241D01*
X122500359Y-53925251D01*
X122439294Y-54153151D01*
X122439292Y-54153162D01*
X122408496Y-54387071D01*
X119613800Y-54387071D01*
X119613800Y-52261729D01*
X134479101Y-52261729D01*
X134479101Y-52458372D01*
X134509863Y-52652597D01*
X134570627Y-52839613D01*
X134570628Y-52839616D01*
X134659903Y-53014826D01*
X134685223Y-53049674D01*
X134685223Y-53049675D01*
X135249275Y-52485623D01*
X135266855Y-52551230D01*
X135332062Y-52664172D01*
X135424280Y-52756390D01*
X135537222Y-52821597D01*
X135602828Y-52839176D01*
X135038776Y-53403227D01*
X135038776Y-53403228D01*
X135073624Y-53428547D01*
X135248835Y-53517823D01*
X135248838Y-53517824D01*
X135435854Y-53578588D01*
X135630080Y-53609351D01*
X135826722Y-53609351D01*
X136020947Y-53578588D01*
X136207963Y-53517824D01*
X136207976Y-53517818D01*
X136383170Y-53428551D01*
X136383175Y-53428548D01*
X136418025Y-53403227D01*
X135853974Y-52839176D01*
X135919580Y-52821597D01*
X136032522Y-52756390D01*
X136124740Y-52664172D01*
X136189947Y-52551230D01*
X136207526Y-52485623D01*
X136771577Y-53049674D01*
X136798673Y-53047542D01*
X136818131Y-53047542D01*
X136845222Y-53049674D01*
X137409273Y-52485623D01*
X137426853Y-52551230D01*
X137492060Y-52664172D01*
X137584278Y-52756390D01*
X137697220Y-52821597D01*
X137762826Y-52839176D01*
X137198774Y-53403227D01*
X137198774Y-53403228D01*
X137233622Y-53428547D01*
X137408833Y-53517823D01*
X137408836Y-53517824D01*
X137595852Y-53578588D01*
X137790078Y-53609351D01*
X137986720Y-53609351D01*
X138180945Y-53578588D01*
X138367961Y-53517824D01*
X138367974Y-53517818D01*
X138543168Y-53428551D01*
X138543173Y-53428548D01*
X138578023Y-53403227D01*
X138013972Y-52839176D01*
X138079578Y-52821597D01*
X138192520Y-52756390D01*
X138284738Y-52664172D01*
X138349945Y-52551230D01*
X138367524Y-52485623D01*
X138931575Y-53049674D01*
X138958673Y-53047542D01*
X138978131Y-53047542D01*
X139005223Y-53049674D01*
X139569274Y-52485623D01*
X139586854Y-52551230D01*
X139652061Y-52664172D01*
X139744279Y-52756390D01*
X139857221Y-52821597D01*
X139922827Y-52839176D01*
X139358775Y-53403227D01*
X139358775Y-53403228D01*
X139393623Y-53428547D01*
X139568834Y-53517823D01*
X139568837Y-53517824D01*
X139755853Y-53578588D01*
X139950079Y-53609351D01*
X140146721Y-53609351D01*
X140340946Y-53578588D01*
X140527962Y-53517824D01*
X140527975Y-53517818D01*
X140703169Y-53428551D01*
X140703174Y-53428548D01*
X140738024Y-53403227D01*
X140173973Y-52839176D01*
X140239579Y-52821597D01*
X140352521Y-52756390D01*
X140444739Y-52664172D01*
X140509946Y-52551230D01*
X140527525Y-52485623D01*
X141091576Y-53049674D01*
X141118674Y-53047542D01*
X141138132Y-53047542D01*
X141165224Y-53049674D01*
X141729275Y-52485623D01*
X141746855Y-52551230D01*
X141812062Y-52664172D01*
X141904280Y-52756390D01*
X142017222Y-52821597D01*
X142082828Y-52839176D01*
X141518776Y-53403227D01*
X141518776Y-53403228D01*
X141553624Y-53428547D01*
X141728835Y-53517823D01*
X141728838Y-53517824D01*
X141915854Y-53578588D01*
X142110080Y-53609351D01*
X142306722Y-53609351D01*
X142500947Y-53578588D01*
X142687963Y-53517824D01*
X142687976Y-53517818D01*
X142863170Y-53428551D01*
X142863175Y-53428548D01*
X142898025Y-53403227D01*
X142333974Y-52839176D01*
X142399580Y-52821597D01*
X142512522Y-52756390D01*
X142604740Y-52664172D01*
X142669947Y-52551230D01*
X142687526Y-52485623D01*
X143251577Y-53049674D01*
X143278673Y-53047542D01*
X143298131Y-53047542D01*
X143325222Y-53049674D01*
X143889273Y-52485623D01*
X143906853Y-52551230D01*
X143972060Y-52664172D01*
X144064278Y-52756390D01*
X144177220Y-52821597D01*
X144242826Y-52839176D01*
X143678774Y-53403227D01*
X143678774Y-53403228D01*
X143713622Y-53428547D01*
X143888833Y-53517823D01*
X143888836Y-53517824D01*
X144075852Y-53578588D01*
X144270078Y-53609351D01*
X144466720Y-53609351D01*
X144660945Y-53578588D01*
X144847961Y-53517824D01*
X144847974Y-53517818D01*
X145023168Y-53428551D01*
X145023173Y-53428548D01*
X145058023Y-53403227D01*
X144493972Y-52839176D01*
X144559578Y-52821597D01*
X144672520Y-52756390D01*
X144764738Y-52664172D01*
X144829945Y-52551230D01*
X144847524Y-52485623D01*
X145411575Y-53049674D01*
X145438673Y-53047542D01*
X145458131Y-53047542D01*
X145485223Y-53049674D01*
X146049274Y-52485623D01*
X146066854Y-52551230D01*
X146132061Y-52664172D01*
X146224279Y-52756390D01*
X146337221Y-52821597D01*
X146402827Y-52839176D01*
X145838775Y-53403227D01*
X145838775Y-53403228D01*
X145873623Y-53428547D01*
X146048834Y-53517823D01*
X146048837Y-53517824D01*
X146235853Y-53578588D01*
X146430079Y-53609351D01*
X146626721Y-53609351D01*
X146820946Y-53578588D01*
X147007962Y-53517824D01*
X147007975Y-53517818D01*
X147183169Y-53428551D01*
X147183174Y-53428548D01*
X147218024Y-53403227D01*
X146653973Y-52839176D01*
X146719579Y-52821597D01*
X146832521Y-52756390D01*
X146924739Y-52664172D01*
X146989946Y-52551230D01*
X147007525Y-52485623D01*
X147571576Y-53049674D01*
X147598673Y-53047542D01*
X147618131Y-53047542D01*
X147645223Y-53049674D01*
X148209274Y-52485623D01*
X148226854Y-52551230D01*
X148292061Y-52664172D01*
X148384279Y-52756390D01*
X148497221Y-52821597D01*
X148562827Y-52839176D01*
X147998775Y-53403227D01*
X147998775Y-53403228D01*
X148033623Y-53428547D01*
X148208834Y-53517823D01*
X148208837Y-53517824D01*
X148395853Y-53578588D01*
X148590079Y-53609351D01*
X148786721Y-53609351D01*
X148980946Y-53578588D01*
X149167962Y-53517824D01*
X149167975Y-53517818D01*
X149343169Y-53428551D01*
X149343174Y-53428548D01*
X149378024Y-53403227D01*
X148813973Y-52839176D01*
X148879579Y-52821597D01*
X148992521Y-52756390D01*
X149084739Y-52664172D01*
X149149946Y-52551230D01*
X149167525Y-52485623D01*
X149731631Y-53049729D01*
X149799803Y-53064050D01*
X149841472Y-53100419D01*
X149876706Y-53148915D01*
X149895107Y-53174241D01*
X150034211Y-53313345D01*
X150193363Y-53428976D01*
X150276175Y-53471171D01*
X150368639Y-53518284D01*
X150368641Y-53518284D01*
X150368644Y-53518286D01*
X150468931Y-53550871D01*
X150555738Y-53579077D01*
X150750035Y-53609851D01*
X150750040Y-53609851D01*
X150946767Y-53609851D01*
X151141063Y-53579077D01*
X151142568Y-53578588D01*
X151328158Y-53518286D01*
X151503439Y-53428976D01*
X151662591Y-53313345D01*
X151801695Y-53174241D01*
X151828082Y-53137921D01*
X151883411Y-53095256D01*
X151953025Y-53089277D01*
X152014820Y-53121882D01*
X152028715Y-53137919D01*
X152055105Y-53174241D01*
X152194209Y-53313345D01*
X152353361Y-53428976D01*
X152436173Y-53471171D01*
X152528637Y-53518284D01*
X152528639Y-53518284D01*
X152528642Y-53518286D01*
X152628929Y-53550871D01*
X152715736Y-53579077D01*
X152910033Y-53609851D01*
X152910038Y-53609851D01*
X153106765Y-53609851D01*
X153301061Y-53579077D01*
X153302566Y-53578588D01*
X153488156Y-53518286D01*
X153663437Y-53428976D01*
X153822589Y-53313345D01*
X153961693Y-53174241D01*
X153988082Y-53137919D01*
X154043409Y-53095254D01*
X154113023Y-53089274D01*
X154174818Y-53121880D01*
X154188713Y-53137915D01*
X154215106Y-53174241D01*
X154354210Y-53313345D01*
X154513362Y-53428976D01*
X154596174Y-53471171D01*
X154688638Y-53518284D01*
X154688640Y-53518284D01*
X154688643Y-53518286D01*
X154788930Y-53550871D01*
X154875737Y-53579077D01*
X155070034Y-53609851D01*
X155070039Y-53609851D01*
X155266766Y-53609851D01*
X155461062Y-53579077D01*
X155462567Y-53578588D01*
X155648157Y-53518286D01*
X155823438Y-53428976D01*
X155982590Y-53313345D01*
X156121694Y-53174241D01*
X156148083Y-53137919D01*
X156203410Y-53095254D01*
X156273024Y-53089274D01*
X156334819Y-53121880D01*
X156348714Y-53137915D01*
X156375107Y-53174241D01*
X156514211Y-53313345D01*
X156673363Y-53428976D01*
X156756175Y-53471171D01*
X156848639Y-53518284D01*
X156848641Y-53518284D01*
X156848644Y-53518286D01*
X156948931Y-53550871D01*
X157035738Y-53579077D01*
X157230035Y-53609851D01*
X157230040Y-53609851D01*
X157426767Y-53609851D01*
X157621063Y-53579077D01*
X157622568Y-53578588D01*
X157808158Y-53518286D01*
X157983439Y-53428976D01*
X158142591Y-53313345D01*
X158281695Y-53174241D01*
X158308082Y-53137921D01*
X158363411Y-53095256D01*
X158433025Y-53089277D01*
X158494820Y-53121882D01*
X158508715Y-53137919D01*
X158535105Y-53174241D01*
X158674209Y-53313345D01*
X158833361Y-53428976D01*
X158916173Y-53471171D01*
X159008637Y-53518284D01*
X159008639Y-53518284D01*
X159008642Y-53518286D01*
X159108929Y-53550871D01*
X159195736Y-53579077D01*
X159390033Y-53609851D01*
X159390038Y-53609851D01*
X159586765Y-53609851D01*
X159781061Y-53579077D01*
X159782566Y-53578588D01*
X159968156Y-53518286D01*
X160143437Y-53428976D01*
X160302589Y-53313345D01*
X160441693Y-53174241D01*
X160557324Y-53015089D01*
X160646634Y-52839808D01*
X160707425Y-52652713D01*
X160707443Y-52652597D01*
X160738199Y-52458417D01*
X160738199Y-52261684D01*
X160707425Y-52067388D01*
X160646632Y-51880289D01*
X160568399Y-51726749D01*
X160557324Y-51705013D01*
X160441693Y-51545861D01*
X160302589Y-51406757D01*
X160143437Y-51291126D01*
X159968160Y-51201817D01*
X159781061Y-51141024D01*
X159586765Y-51110251D01*
X159586760Y-51110251D01*
X159390038Y-51110251D01*
X159390033Y-51110251D01*
X159195736Y-51141024D01*
X159008637Y-51201817D01*
X158833360Y-51291126D01*
X158742558Y-51357098D01*
X158674209Y-51406757D01*
X158674207Y-51406759D01*
X158674206Y-51406759D01*
X158535106Y-51545859D01*
X158508718Y-51582180D01*
X158453387Y-51624845D01*
X158383774Y-51630824D01*
X158321979Y-51598218D01*
X158308082Y-51582180D01*
X158281697Y-51545864D01*
X158281695Y-51545861D01*
X158142591Y-51406757D01*
X157983439Y-51291126D01*
X157808162Y-51201817D01*
X157621063Y-51141024D01*
X157426767Y-51110251D01*
X157426762Y-51110251D01*
X157230040Y-51110251D01*
X157230035Y-51110251D01*
X157035738Y-51141024D01*
X156848639Y-51201817D01*
X156673362Y-51291126D01*
X156582560Y-51357098D01*
X156514211Y-51406757D01*
X156514209Y-51406759D01*
X156514208Y-51406759D01*
X156375106Y-51545861D01*
X156348717Y-51582183D01*
X156293386Y-51624848D01*
X156223773Y-51630826D01*
X156161978Y-51598219D01*
X156148082Y-51582181D01*
X156121696Y-51545864D01*
X156121691Y-51545858D01*
X155982592Y-51406759D01*
X155982590Y-51406757D01*
X155823438Y-51291126D01*
X155648161Y-51201817D01*
X155461062Y-51141024D01*
X155266766Y-51110251D01*
X155266761Y-51110251D01*
X155070039Y-51110251D01*
X155070034Y-51110251D01*
X154875737Y-51141024D01*
X154688638Y-51201817D01*
X154513361Y-51291126D01*
X154422559Y-51357098D01*
X154354210Y-51406757D01*
X154354208Y-51406759D01*
X154354207Y-51406759D01*
X154215105Y-51545861D01*
X154188716Y-51582183D01*
X154133385Y-51624848D01*
X154063772Y-51630826D01*
X154001977Y-51598219D01*
X153988081Y-51582181D01*
X153961695Y-51545864D01*
X153961690Y-51545858D01*
X153822591Y-51406759D01*
X153822589Y-51406757D01*
X153663437Y-51291126D01*
X153488160Y-51201817D01*
X153301061Y-51141024D01*
X153106765Y-51110251D01*
X153106760Y-51110251D01*
X152910038Y-51110251D01*
X152910033Y-51110251D01*
X152715736Y-51141024D01*
X152528637Y-51201817D01*
X152353360Y-51291126D01*
X152262558Y-51357098D01*
X152194209Y-51406757D01*
X152194207Y-51406759D01*
X152194206Y-51406759D01*
X152055106Y-51545859D01*
X152028718Y-51582180D01*
X151973387Y-51624845D01*
X151903774Y-51630824D01*
X151841979Y-51598218D01*
X151828082Y-51582180D01*
X151801697Y-51545864D01*
X151801695Y-51545861D01*
X151662591Y-51406757D01*
X151503439Y-51291126D01*
X151328162Y-51201817D01*
X151141063Y-51141024D01*
X150946767Y-51110251D01*
X150946762Y-51110251D01*
X150750040Y-51110251D01*
X150750035Y-51110251D01*
X150555738Y-51141024D01*
X150368639Y-51201817D01*
X150193362Y-51291126D01*
X150102560Y-51357098D01*
X150034211Y-51406757D01*
X150034209Y-51406759D01*
X150034208Y-51406759D01*
X149895106Y-51545861D01*
X149841471Y-51619683D01*
X149786141Y-51662348D01*
X149731616Y-51670386D01*
X149167524Y-52234477D01*
X149149946Y-52168872D01*
X149084739Y-52055930D01*
X148992521Y-51963712D01*
X148879579Y-51898505D01*
X148813972Y-51880925D01*
X149378024Y-51316873D01*
X149343175Y-51291553D01*
X149167965Y-51202278D01*
X149167962Y-51202277D01*
X148980946Y-51141513D01*
X148786721Y-51110751D01*
X148590079Y-51110751D01*
X148395853Y-51141513D01*
X148208837Y-51202277D01*
X148208834Y-51202278D01*
X148033620Y-51291556D01*
X147998775Y-51316872D01*
X147998775Y-51316874D01*
X148562828Y-51880925D01*
X148497221Y-51898505D01*
X148384279Y-51963712D01*
X148292061Y-52055930D01*
X148226854Y-52168872D01*
X148209274Y-52234478D01*
X147645222Y-51670425D01*
X147618129Y-51672558D01*
X147598674Y-51672558D01*
X147571577Y-51670425D01*
X147007524Y-52234477D01*
X146989946Y-52168872D01*
X146924739Y-52055930D01*
X146832521Y-51963712D01*
X146719579Y-51898505D01*
X146653972Y-51880925D01*
X147218024Y-51316873D01*
X147183175Y-51291553D01*
X147007965Y-51202278D01*
X147007962Y-51202277D01*
X146820946Y-51141513D01*
X146626721Y-51110751D01*
X146430079Y-51110751D01*
X146235853Y-51141513D01*
X146048837Y-51202277D01*
X146048834Y-51202278D01*
X145873620Y-51291556D01*
X145838775Y-51316872D01*
X145838775Y-51316874D01*
X146402828Y-51880925D01*
X146337221Y-51898505D01*
X146224279Y-51963712D01*
X146132061Y-52055930D01*
X146066854Y-52168872D01*
X146049274Y-52234478D01*
X145485222Y-51670425D01*
X145458129Y-51672558D01*
X145438674Y-51672558D01*
X145411576Y-51670425D01*
X144847523Y-52234477D01*
X144829945Y-52168872D01*
X144764738Y-52055930D01*
X144672520Y-51963712D01*
X144559578Y-51898505D01*
X144493971Y-51880925D01*
X145058023Y-51316873D01*
X145023174Y-51291553D01*
X144847964Y-51202278D01*
X144847961Y-51202277D01*
X144660945Y-51141513D01*
X144466720Y-51110751D01*
X144270078Y-51110751D01*
X144075852Y-51141513D01*
X143888836Y-51202277D01*
X143888833Y-51202278D01*
X143713619Y-51291556D01*
X143678774Y-51316872D01*
X143678774Y-51316874D01*
X144242827Y-51880925D01*
X144177220Y-51898505D01*
X144064278Y-51963712D01*
X143972060Y-52055930D01*
X143906853Y-52168872D01*
X143889273Y-52234478D01*
X143325221Y-51670425D01*
X143298130Y-51672558D01*
X143278674Y-51672558D01*
X143251578Y-51670425D01*
X142687525Y-52234477D01*
X142669947Y-52168872D01*
X142604740Y-52055930D01*
X142512522Y-51963712D01*
X142399580Y-51898505D01*
X142333973Y-51880925D01*
X142898025Y-51316873D01*
X142863176Y-51291553D01*
X142687966Y-51202278D01*
X142687963Y-51202277D01*
X142500947Y-51141513D01*
X142306722Y-51110751D01*
X142110080Y-51110751D01*
X141915854Y-51141513D01*
X141728838Y-51202277D01*
X141728835Y-51202278D01*
X141553621Y-51291556D01*
X141518776Y-51316872D01*
X141518776Y-51316874D01*
X142082829Y-51880925D01*
X142017222Y-51898505D01*
X141904280Y-51963712D01*
X141812062Y-52055930D01*
X141746855Y-52168872D01*
X141729275Y-52234478D01*
X141165223Y-51670425D01*
X141138130Y-51672558D01*
X141118675Y-51672558D01*
X141091577Y-51670425D01*
X140527524Y-52234477D01*
X140509946Y-52168872D01*
X140444739Y-52055930D01*
X140352521Y-51963712D01*
X140239579Y-51898505D01*
X140173972Y-51880925D01*
X140738024Y-51316873D01*
X140703175Y-51291553D01*
X140527965Y-51202278D01*
X140527962Y-51202277D01*
X140340946Y-51141513D01*
X140146721Y-51110751D01*
X139950079Y-51110751D01*
X139755853Y-51141513D01*
X139568837Y-51202277D01*
X139568834Y-51202278D01*
X139393620Y-51291556D01*
X139358775Y-51316872D01*
X139358775Y-51316874D01*
X139922828Y-51880925D01*
X139857221Y-51898505D01*
X139744279Y-51963712D01*
X139652061Y-52055930D01*
X139586854Y-52168872D01*
X139569274Y-52234478D01*
X139005222Y-51670425D01*
X138978129Y-51672558D01*
X138958674Y-51672558D01*
X138931576Y-51670425D01*
X138367523Y-52234477D01*
X138349945Y-52168872D01*
X138284738Y-52055930D01*
X138192520Y-51963712D01*
X138079578Y-51898505D01*
X138013971Y-51880925D01*
X138578023Y-51316873D01*
X138543174Y-51291553D01*
X138367964Y-51202278D01*
X138367961Y-51202277D01*
X138180945Y-51141513D01*
X137986720Y-51110751D01*
X137790078Y-51110751D01*
X137595852Y-51141513D01*
X137408836Y-51202277D01*
X137408833Y-51202278D01*
X137233619Y-51291556D01*
X137198774Y-51316872D01*
X137198774Y-51316874D01*
X137762827Y-51880925D01*
X137697220Y-51898505D01*
X137584278Y-51963712D01*
X137492060Y-52055930D01*
X137426853Y-52168872D01*
X137409273Y-52234478D01*
X136845221Y-51670425D01*
X136818130Y-51672558D01*
X136798674Y-51672558D01*
X136771578Y-51670425D01*
X136207525Y-52234477D01*
X136189947Y-52168872D01*
X136124740Y-52055930D01*
X136032522Y-51963712D01*
X135919580Y-51898505D01*
X135853973Y-51880925D01*
X136418025Y-51316873D01*
X136383176Y-51291553D01*
X136207966Y-51202278D01*
X136207963Y-51202277D01*
X136020947Y-51141513D01*
X135826722Y-51110751D01*
X135630080Y-51110751D01*
X135435854Y-51141513D01*
X135248838Y-51202277D01*
X135248835Y-51202278D01*
X135073621Y-51291556D01*
X135038776Y-51316872D01*
X135038776Y-51316874D01*
X135602829Y-51880925D01*
X135537222Y-51898505D01*
X135424280Y-51963712D01*
X135332062Y-52055930D01*
X135266855Y-52168872D01*
X135249275Y-52234478D01*
X134685224Y-51670426D01*
X134685222Y-51670426D01*
X134659906Y-51705271D01*
X134570628Y-51880485D01*
X134570627Y-51880488D01*
X134509863Y-52067504D01*
X134479101Y-52261729D01*
X119613800Y-52261729D01*
X119613800Y-43777107D01*
X119615908Y-43754337D01*
X119616310Y-43752185D01*
X119647971Y-43689900D01*
X119708278Y-43654620D01*
X119715366Y-43653076D01*
X119715455Y-43653059D01*
X119717257Y-43652722D01*
X119740129Y-43650602D01*
X175462295Y-43673885D01*
G37*
%TD.AperFunction*%
%TD*%
M02*
