%TF.GenerationSoftware,KiCad,Pcbnew,9.0.0*%
%TF.CreationDate,2025-04-07T11:56:22-06:00*%
%TF.ProjectId,Senior Capstone,53656e69-6f72-4204-9361-7073746f6e65,4*%
%TF.SameCoordinates,Original*%
%TF.FileFunction,Legend,Bot*%
%TF.FilePolarity,Positive*%
%FSLAX46Y46*%
G04 Gerber Fmt 4.6, Leading zero omitted, Abs format (unit mm)*
G04 Created by KiCad (PCBNEW 9.0.0) date 2025-04-07 11:56:22*
%MOMM*%
%LPD*%
G01*
G04 APERTURE LIST*
%ADD10C,0.150000*%
G04 APERTURE END LIST*
D10*
G36*
X130575798Y-96489608D02*
G01*
X130604319Y-96546650D01*
X130604319Y-96749335D01*
X130585348Y-96787278D01*
X130370539Y-96787278D01*
X130370703Y-96786850D01*
X130370894Y-96784160D01*
X130371925Y-96781672D01*
X130373366Y-96767040D01*
X130373366Y-96546650D01*
X130401886Y-96489608D01*
X130458928Y-96461088D01*
X130518756Y-96461088D01*
X130575798Y-96489608D01*
G37*
G36*
X130575798Y-93918179D02*
G01*
X130604319Y-93975221D01*
X130604319Y-94177906D01*
X130585348Y-94215849D01*
X130370539Y-94215849D01*
X130370703Y-94215421D01*
X130370894Y-94212731D01*
X130371925Y-94210243D01*
X130373366Y-94195611D01*
X130373366Y-93975221D01*
X130401886Y-93918179D01*
X130458928Y-93889659D01*
X130518756Y-93889659D01*
X130575798Y-93918179D01*
G37*
G36*
X130575798Y-91203893D02*
G01*
X130604319Y-91260935D01*
X130604319Y-91463620D01*
X130585348Y-91501563D01*
X130370539Y-91501563D01*
X130370703Y-91501135D01*
X130370894Y-91498445D01*
X130371925Y-91495957D01*
X130373366Y-91481325D01*
X130373366Y-91260935D01*
X130401886Y-91203893D01*
X130458928Y-91175373D01*
X130518756Y-91175373D01*
X130575798Y-91203893D01*
G37*
G36*
X130189261Y-85025372D02*
G01*
X130173214Y-85025372D01*
X130116172Y-84996851D01*
X130087652Y-84939810D01*
X130087652Y-84784744D01*
X130116172Y-84727702D01*
X130173214Y-84699182D01*
X130254499Y-84699182D01*
X130189261Y-85025372D01*
G37*
G36*
X130575798Y-83299130D02*
G01*
X130604319Y-83356172D01*
X130604319Y-83558857D01*
X130585348Y-83596800D01*
X130370539Y-83596800D01*
X130370703Y-83596372D01*
X130370894Y-83593682D01*
X130371925Y-83591194D01*
X130373366Y-83576562D01*
X130373366Y-83356172D01*
X130401886Y-83299130D01*
X130458928Y-83270610D01*
X130518756Y-83270610D01*
X130575798Y-83299130D01*
G37*
G36*
X130865430Y-99619818D02*
G01*
X129494649Y-99619818D01*
X129494649Y-99147993D01*
X129937652Y-99147993D01*
X129937652Y-99290850D01*
X129939093Y-99305482D01*
X129940124Y-99307971D01*
X129940315Y-99310659D01*
X129945570Y-99324391D01*
X129993189Y-99419629D01*
X130001021Y-99432072D01*
X130023129Y-99451245D01*
X130050890Y-99460499D01*
X130080080Y-99458425D01*
X130106255Y-99445337D01*
X130125428Y-99423230D01*
X130134682Y-99395468D01*
X130132608Y-99366278D01*
X130127353Y-99352547D01*
X130087652Y-99273145D01*
X130087652Y-99165698D01*
X130116172Y-99108656D01*
X130173214Y-99080136D01*
X130185423Y-99080136D01*
X130242464Y-99108656D01*
X130270985Y-99165698D01*
X130270985Y-99290850D01*
X130272426Y-99305482D01*
X130273457Y-99307971D01*
X130273648Y-99310659D01*
X130278903Y-99324391D01*
X130326522Y-99419629D01*
X130328062Y-99422076D01*
X130328447Y-99423230D01*
X130329692Y-99424666D01*
X130334354Y-99432072D01*
X130341458Y-99438233D01*
X130347620Y-99445338D01*
X130355025Y-99449999D01*
X130356462Y-99451245D01*
X130357615Y-99451629D01*
X130360063Y-99453170D01*
X130455301Y-99500789D01*
X130469032Y-99506044D01*
X130471721Y-99506235D01*
X130474210Y-99507266D01*
X130488842Y-99508707D01*
X130536461Y-99508707D01*
X130551093Y-99507266D01*
X130553582Y-99506234D01*
X130556270Y-99506044D01*
X130570002Y-99500789D01*
X130665241Y-99453170D01*
X130667687Y-99451629D01*
X130668842Y-99451245D01*
X130670279Y-99449998D01*
X130677683Y-99445338D01*
X130683842Y-99438235D01*
X130690950Y-99432072D01*
X130695611Y-99424666D01*
X130696857Y-99423230D01*
X130697241Y-99422076D01*
X130698782Y-99419629D01*
X130746401Y-99324391D01*
X130751656Y-99310660D01*
X130751847Y-99307970D01*
X130752878Y-99305482D01*
X130754319Y-99290850D01*
X130754319Y-99100374D01*
X130752878Y-99085742D01*
X130751847Y-99083253D01*
X130751656Y-99080564D01*
X130746401Y-99066833D01*
X130698782Y-98971595D01*
X130690950Y-98959152D01*
X130668842Y-98939979D01*
X130641081Y-98930725D01*
X130611891Y-98932799D01*
X130585716Y-98945886D01*
X130566543Y-98967994D01*
X130557289Y-98995755D01*
X130559363Y-99024945D01*
X130564618Y-99038677D01*
X130604319Y-99118079D01*
X130604319Y-99273145D01*
X130575798Y-99330186D01*
X130518756Y-99358707D01*
X130506547Y-99358707D01*
X130449505Y-99330186D01*
X130420985Y-99273145D01*
X130420985Y-99147993D01*
X130419544Y-99133361D01*
X130418513Y-99130872D01*
X130418322Y-99128183D01*
X130413067Y-99114452D01*
X130365448Y-99019214D01*
X130363907Y-99016766D01*
X130363523Y-99015613D01*
X130362277Y-99014176D01*
X130357616Y-99006771D01*
X130350511Y-99000609D01*
X130344350Y-98993505D01*
X130336944Y-98988843D01*
X130335508Y-98987598D01*
X130334354Y-98987213D01*
X130331907Y-98985673D01*
X130236669Y-98938054D01*
X130222937Y-98932799D01*
X130220249Y-98932608D01*
X130217760Y-98931577D01*
X130203128Y-98930136D01*
X130155509Y-98930136D01*
X130140877Y-98931577D01*
X130138388Y-98932607D01*
X130135699Y-98932799D01*
X130121968Y-98938054D01*
X130026730Y-98985673D01*
X130024282Y-98987213D01*
X130023129Y-98987598D01*
X130021692Y-98988843D01*
X130014287Y-98993505D01*
X130008125Y-99000609D01*
X130001021Y-99006771D01*
X129996359Y-99014176D01*
X129995114Y-99015613D01*
X129994729Y-99016766D01*
X129993189Y-99019214D01*
X129945570Y-99114452D01*
X129940315Y-99128184D01*
X129940124Y-99130871D01*
X129939093Y-99133361D01*
X129937652Y-99147993D01*
X129494649Y-99147993D01*
X129494649Y-98561934D01*
X129605760Y-98561934D01*
X129605760Y-98591196D01*
X129616959Y-98618233D01*
X129626286Y-98629598D01*
X129673905Y-98677217D01*
X129685270Y-98686544D01*
X129712306Y-98697743D01*
X129712307Y-98697743D01*
X129741569Y-98697743D01*
X129768606Y-98686544D01*
X129779971Y-98677217D01*
X129827590Y-98629598D01*
X129836917Y-98618233D01*
X129848116Y-98591197D01*
X129848116Y-98561934D01*
X129848116Y-98561933D01*
X129939093Y-98561933D01*
X129939093Y-98591197D01*
X129950292Y-98618233D01*
X129970984Y-98638925D01*
X129998020Y-98650124D01*
X130012652Y-98651565D01*
X130679319Y-98651565D01*
X130693951Y-98650124D01*
X130720987Y-98638925D01*
X130741679Y-98618233D01*
X130752878Y-98591197D01*
X130752878Y-98561933D01*
X130741679Y-98534897D01*
X130720987Y-98514205D01*
X130693951Y-98503006D01*
X130679319Y-98501565D01*
X130012652Y-98501565D01*
X129998020Y-98503006D01*
X129970984Y-98514205D01*
X129950292Y-98534897D01*
X129939093Y-98561933D01*
X129848116Y-98561933D01*
X129840513Y-98543578D01*
X129836917Y-98534897D01*
X129827590Y-98523532D01*
X129779971Y-98475913D01*
X129768606Y-98466586D01*
X129741569Y-98455387D01*
X129712306Y-98455387D01*
X129685270Y-98466586D01*
X129673905Y-98475913D01*
X129626286Y-98523532D01*
X129616959Y-98534897D01*
X129605760Y-98561934D01*
X129494649Y-98561934D01*
X129494649Y-98147993D01*
X129937652Y-98147993D01*
X129937652Y-98243231D01*
X129939093Y-98257863D01*
X129950292Y-98284899D01*
X129970984Y-98305591D01*
X129998020Y-98316790D01*
X130027284Y-98316790D01*
X130054320Y-98305591D01*
X130075012Y-98284899D01*
X130086211Y-98257863D01*
X130087652Y-98243231D01*
X130087652Y-98165698D01*
X130121910Y-98097182D01*
X130152317Y-98066775D01*
X130220833Y-98032517D01*
X130679319Y-98032517D01*
X130693951Y-98031076D01*
X130720987Y-98019877D01*
X130741679Y-97999185D01*
X130752878Y-97972149D01*
X130752878Y-97942885D01*
X130741679Y-97915849D01*
X130720987Y-97895157D01*
X130693951Y-97883958D01*
X130679319Y-97882517D01*
X130012652Y-97882517D01*
X129998020Y-97883958D01*
X129970984Y-97895157D01*
X129950292Y-97915849D01*
X129939093Y-97942885D01*
X129939093Y-97972149D01*
X129950292Y-97999185D01*
X129970984Y-98019877D01*
X129989104Y-98027382D01*
X129945570Y-98114452D01*
X129940315Y-98128184D01*
X129940124Y-98130871D01*
X129939093Y-98133361D01*
X129937652Y-98147993D01*
X129494649Y-98147993D01*
X129494649Y-97528945D01*
X129937652Y-97528945D01*
X129937652Y-97624183D01*
X129939093Y-97638815D01*
X129950292Y-97665851D01*
X129970984Y-97686543D01*
X129998020Y-97697742D01*
X130027284Y-97697742D01*
X130054320Y-97686543D01*
X130075012Y-97665851D01*
X130086211Y-97638815D01*
X130087652Y-97624183D01*
X130087652Y-97546650D01*
X130121910Y-97478134D01*
X130152317Y-97447727D01*
X130220833Y-97413469D01*
X130679319Y-97413469D01*
X130693951Y-97412028D01*
X130720987Y-97400829D01*
X130741679Y-97380137D01*
X130752878Y-97353101D01*
X130752878Y-97323837D01*
X130741679Y-97296801D01*
X130720987Y-97276109D01*
X130693951Y-97264910D01*
X130679319Y-97263469D01*
X130012652Y-97263469D01*
X129998020Y-97264910D01*
X129970984Y-97276109D01*
X129950292Y-97296801D01*
X129939093Y-97323837D01*
X129939093Y-97353101D01*
X129950292Y-97380137D01*
X129970984Y-97400829D01*
X129989104Y-97408334D01*
X129945570Y-97495404D01*
X129940315Y-97509136D01*
X129940124Y-97511823D01*
X129939093Y-97514313D01*
X129937652Y-97528945D01*
X129494649Y-97528945D01*
X129494649Y-96528945D01*
X129937652Y-96528945D01*
X129937652Y-96719421D01*
X129939093Y-96734053D01*
X129940124Y-96736542D01*
X129940315Y-96739230D01*
X129945570Y-96752962D01*
X129993189Y-96848200D01*
X129994729Y-96850647D01*
X129995114Y-96851801D01*
X129996359Y-96853237D01*
X130001021Y-96860643D01*
X130008125Y-96866804D01*
X130014287Y-96873909D01*
X130021692Y-96878570D01*
X130023129Y-96879816D01*
X130024282Y-96880200D01*
X130026730Y-96881741D01*
X130121968Y-96929360D01*
X130135699Y-96934615D01*
X130138388Y-96934806D01*
X130140877Y-96935837D01*
X130155509Y-96937278D01*
X130679319Y-96937278D01*
X130693951Y-96935837D01*
X130720987Y-96924638D01*
X130741679Y-96903946D01*
X130752878Y-96876910D01*
X130752878Y-96847646D01*
X130741679Y-96820610D01*
X130738150Y-96817081D01*
X130746401Y-96800581D01*
X130751656Y-96786850D01*
X130751847Y-96784160D01*
X130752878Y-96781672D01*
X130754319Y-96767040D01*
X130754319Y-96528945D01*
X130752878Y-96514313D01*
X130751847Y-96511824D01*
X130751656Y-96509135D01*
X130746401Y-96495404D01*
X130698782Y-96400166D01*
X130697241Y-96397718D01*
X130696857Y-96396565D01*
X130695611Y-96395128D01*
X130690950Y-96387723D01*
X130683842Y-96381559D01*
X130677683Y-96374457D01*
X130670279Y-96369796D01*
X130668842Y-96368550D01*
X130667687Y-96368165D01*
X130665241Y-96366625D01*
X130570002Y-96319006D01*
X130556270Y-96313751D01*
X130553582Y-96313560D01*
X130551093Y-96312529D01*
X130536461Y-96311088D01*
X130441223Y-96311088D01*
X130426591Y-96312529D01*
X130424102Y-96313559D01*
X130421413Y-96313751D01*
X130407682Y-96319006D01*
X130312444Y-96366625D01*
X130309996Y-96368165D01*
X130308843Y-96368550D01*
X130307406Y-96369795D01*
X130300001Y-96374457D01*
X130293839Y-96381561D01*
X130286735Y-96387723D01*
X130282073Y-96395128D01*
X130280828Y-96396565D01*
X130280443Y-96397718D01*
X130278903Y-96400166D01*
X130231284Y-96495404D01*
X130226029Y-96509136D01*
X130225838Y-96511823D01*
X130224807Y-96514313D01*
X130223366Y-96528945D01*
X130223366Y-96749335D01*
X130204395Y-96787278D01*
X130173214Y-96787278D01*
X130116172Y-96758757D01*
X130087652Y-96701716D01*
X130087652Y-96546650D01*
X130127353Y-96467248D01*
X130132608Y-96453517D01*
X130134682Y-96424327D01*
X130125428Y-96396565D01*
X130106255Y-96374458D01*
X130080080Y-96361370D01*
X130050890Y-96359296D01*
X130023129Y-96368550D01*
X130001021Y-96387723D01*
X129993189Y-96400166D01*
X129945570Y-96495404D01*
X129940315Y-96509136D01*
X129940124Y-96511823D01*
X129939093Y-96514313D01*
X129937652Y-96528945D01*
X129494649Y-96528945D01*
X129494649Y-95514313D01*
X129605760Y-95514313D01*
X129605760Y-95543577D01*
X129616959Y-95570613D01*
X129637651Y-95591305D01*
X129664687Y-95602504D01*
X129679319Y-95603945D01*
X129962728Y-95603945D01*
X129945570Y-95638261D01*
X129940315Y-95651993D01*
X129940124Y-95654680D01*
X129939093Y-95657170D01*
X129937652Y-95671802D01*
X129937652Y-95814659D01*
X129939093Y-95829291D01*
X129940124Y-95831780D01*
X129940315Y-95834468D01*
X129945570Y-95848200D01*
X129993189Y-95943438D01*
X129994729Y-95945885D01*
X129995114Y-95947039D01*
X129996359Y-95948475D01*
X130001021Y-95955881D01*
X130008125Y-95962042D01*
X130014287Y-95969147D01*
X130021692Y-95973808D01*
X130023129Y-95975054D01*
X130024282Y-95975438D01*
X130026730Y-95976979D01*
X130121968Y-96024598D01*
X130135699Y-96029853D01*
X130138388Y-96030044D01*
X130140877Y-96031075D01*
X130155509Y-96032516D01*
X130679319Y-96032516D01*
X130693951Y-96031075D01*
X130720987Y-96019876D01*
X130741679Y-95999184D01*
X130752878Y-95972148D01*
X130752878Y-95942884D01*
X130741679Y-95915848D01*
X130720987Y-95895156D01*
X130693951Y-95883957D01*
X130679319Y-95882516D01*
X130173214Y-95882516D01*
X130116172Y-95853995D01*
X130087652Y-95796954D01*
X130087652Y-95689507D01*
X130121910Y-95620991D01*
X130138956Y-95603945D01*
X130679319Y-95603945D01*
X130693951Y-95602504D01*
X130720987Y-95591305D01*
X130741679Y-95570613D01*
X130752878Y-95543577D01*
X130752878Y-95514313D01*
X130741679Y-95487277D01*
X130720987Y-95466585D01*
X130693951Y-95455386D01*
X130679319Y-95453945D01*
X129679319Y-95453945D01*
X129664687Y-95455386D01*
X129637651Y-95466585D01*
X129616959Y-95487277D01*
X129605760Y-95514313D01*
X129494649Y-95514313D01*
X129494649Y-93957516D01*
X129937652Y-93957516D01*
X129937652Y-94147992D01*
X129939093Y-94162624D01*
X129940124Y-94165113D01*
X129940315Y-94167801D01*
X129945570Y-94181533D01*
X129993189Y-94276771D01*
X129994729Y-94279218D01*
X129995114Y-94280372D01*
X129996359Y-94281808D01*
X130001021Y-94289214D01*
X130008125Y-94295375D01*
X130014287Y-94302480D01*
X130021692Y-94307141D01*
X130023129Y-94308387D01*
X130024282Y-94308771D01*
X130026730Y-94310312D01*
X130121968Y-94357931D01*
X130135699Y-94363186D01*
X130138388Y-94363377D01*
X130140877Y-94364408D01*
X130155509Y-94365849D01*
X130679319Y-94365849D01*
X130693951Y-94364408D01*
X130720987Y-94353209D01*
X130741679Y-94332517D01*
X130752878Y-94305481D01*
X130752878Y-94276217D01*
X130741679Y-94249181D01*
X130738150Y-94245652D01*
X130746401Y-94229152D01*
X130751656Y-94215421D01*
X130751847Y-94212731D01*
X130752878Y-94210243D01*
X130754319Y-94195611D01*
X130754319Y-93957516D01*
X130752878Y-93942884D01*
X130751847Y-93940395D01*
X130751656Y-93937706D01*
X130746401Y-93923975D01*
X130698782Y-93828737D01*
X130697241Y-93826289D01*
X130696857Y-93825136D01*
X130695611Y-93823699D01*
X130690950Y-93816294D01*
X130683842Y-93810130D01*
X130677683Y-93803028D01*
X130670279Y-93798367D01*
X130668842Y-93797121D01*
X130667687Y-93796736D01*
X130665241Y-93795196D01*
X130570002Y-93747577D01*
X130556270Y-93742322D01*
X130553582Y-93742131D01*
X130551093Y-93741100D01*
X130536461Y-93739659D01*
X130441223Y-93739659D01*
X130426591Y-93741100D01*
X130424102Y-93742130D01*
X130421413Y-93742322D01*
X130407682Y-93747577D01*
X130312444Y-93795196D01*
X130309996Y-93796736D01*
X130308843Y-93797121D01*
X130307406Y-93798366D01*
X130300001Y-93803028D01*
X130293839Y-93810132D01*
X130286735Y-93816294D01*
X130282073Y-93823699D01*
X130280828Y-93825136D01*
X130280443Y-93826289D01*
X130278903Y-93828737D01*
X130231284Y-93923975D01*
X130226029Y-93937707D01*
X130225838Y-93940394D01*
X130224807Y-93942884D01*
X130223366Y-93957516D01*
X130223366Y-94177906D01*
X130204395Y-94215849D01*
X130173214Y-94215849D01*
X130116172Y-94187328D01*
X130087652Y-94130287D01*
X130087652Y-93975221D01*
X130127353Y-93895819D01*
X130132608Y-93882088D01*
X130134682Y-93852898D01*
X130125428Y-93825136D01*
X130106255Y-93803029D01*
X130080080Y-93789941D01*
X130050890Y-93787867D01*
X130023129Y-93797121D01*
X130001021Y-93816294D01*
X129993189Y-93828737D01*
X129945570Y-93923975D01*
X129940315Y-93937707D01*
X129940124Y-93940394D01*
X129939093Y-93942884D01*
X129937652Y-93957516D01*
X129494649Y-93957516D01*
X129494649Y-92942884D01*
X129939093Y-92942884D01*
X129939093Y-92972148D01*
X129950292Y-92999184D01*
X129970984Y-93019876D01*
X129998020Y-93031075D01*
X130012652Y-93032516D01*
X130518756Y-93032516D01*
X130575798Y-93061036D01*
X130604319Y-93118078D01*
X130604319Y-93225525D01*
X130570061Y-93294040D01*
X130553014Y-93311087D01*
X130012652Y-93311087D01*
X129998020Y-93312528D01*
X129970984Y-93323727D01*
X129950292Y-93344419D01*
X129939093Y-93371455D01*
X129939093Y-93400719D01*
X129950292Y-93427755D01*
X129970984Y-93448447D01*
X129998020Y-93459646D01*
X130012652Y-93461087D01*
X130679319Y-93461087D01*
X130693951Y-93459646D01*
X130720987Y-93448447D01*
X130741679Y-93427755D01*
X130752878Y-93400719D01*
X130752878Y-93371455D01*
X130741679Y-93344419D01*
X130722277Y-93325017D01*
X130746401Y-93276771D01*
X130751656Y-93263040D01*
X130751847Y-93260350D01*
X130752878Y-93257862D01*
X130754319Y-93243230D01*
X130754319Y-93100373D01*
X130752878Y-93085741D01*
X130751847Y-93083252D01*
X130751656Y-93080563D01*
X130746401Y-93066832D01*
X130698782Y-92971594D01*
X130697241Y-92969146D01*
X130696857Y-92967993D01*
X130695611Y-92966556D01*
X130690950Y-92959151D01*
X130683842Y-92952987D01*
X130677683Y-92945885D01*
X130670279Y-92941224D01*
X130668842Y-92939978D01*
X130667687Y-92939593D01*
X130665241Y-92938053D01*
X130570002Y-92890434D01*
X130556270Y-92885179D01*
X130553582Y-92884988D01*
X130551093Y-92883957D01*
X130536461Y-92882516D01*
X130012652Y-92882516D01*
X129998020Y-92883957D01*
X129970984Y-92895156D01*
X129950292Y-92915848D01*
X129939093Y-92942884D01*
X129494649Y-92942884D01*
X129494649Y-92038122D01*
X129605760Y-92038122D01*
X129605760Y-92067386D01*
X129616959Y-92094422D01*
X129637651Y-92115114D01*
X129664687Y-92126313D01*
X129679319Y-92127754D01*
X129962728Y-92127754D01*
X129945570Y-92162070D01*
X129940315Y-92175802D01*
X129940124Y-92178489D01*
X129939093Y-92180979D01*
X129937652Y-92195611D01*
X129937652Y-92338468D01*
X129939093Y-92353100D01*
X129940124Y-92355589D01*
X129940315Y-92358277D01*
X129945570Y-92372009D01*
X129993189Y-92467247D01*
X129994729Y-92469694D01*
X129995114Y-92470848D01*
X129996359Y-92472284D01*
X130001021Y-92479690D01*
X130008125Y-92485851D01*
X130014287Y-92492956D01*
X130021692Y-92497617D01*
X130023129Y-92498863D01*
X130024282Y-92499247D01*
X130026730Y-92500788D01*
X130121968Y-92548407D01*
X130135699Y-92553662D01*
X130138388Y-92553853D01*
X130140877Y-92554884D01*
X130155509Y-92556325D01*
X130679319Y-92556325D01*
X130693951Y-92554884D01*
X130720987Y-92543685D01*
X130741679Y-92522993D01*
X130752878Y-92495957D01*
X130752878Y-92466693D01*
X130741679Y-92439657D01*
X130720987Y-92418965D01*
X130693951Y-92407766D01*
X130679319Y-92406325D01*
X130173214Y-92406325D01*
X130116172Y-92377804D01*
X130087652Y-92320763D01*
X130087652Y-92213316D01*
X130121910Y-92144800D01*
X130138956Y-92127754D01*
X130679319Y-92127754D01*
X130693951Y-92126313D01*
X130720987Y-92115114D01*
X130741679Y-92094422D01*
X130752878Y-92067386D01*
X130752878Y-92038122D01*
X130741679Y-92011086D01*
X130720987Y-91990394D01*
X130693951Y-91979195D01*
X130679319Y-91977754D01*
X129679319Y-91977754D01*
X129664687Y-91979195D01*
X129637651Y-91990394D01*
X129616959Y-92011086D01*
X129605760Y-92038122D01*
X129494649Y-92038122D01*
X129494649Y-91243230D01*
X129937652Y-91243230D01*
X129937652Y-91433706D01*
X129939093Y-91448338D01*
X129940124Y-91450827D01*
X129940315Y-91453515D01*
X129945570Y-91467247D01*
X129993189Y-91562485D01*
X129994729Y-91564932D01*
X129995114Y-91566086D01*
X129996359Y-91567522D01*
X130001021Y-91574928D01*
X130008125Y-91581089D01*
X130014287Y-91588194D01*
X130021692Y-91592855D01*
X130023129Y-91594101D01*
X130024282Y-91594485D01*
X130026730Y-91596026D01*
X130121968Y-91643645D01*
X130135699Y-91648900D01*
X130138388Y-91649091D01*
X130140877Y-91650122D01*
X130155509Y-91651563D01*
X130679319Y-91651563D01*
X130693951Y-91650122D01*
X130720987Y-91638923D01*
X130741679Y-91618231D01*
X130752878Y-91591195D01*
X130752878Y-91561931D01*
X130741679Y-91534895D01*
X130738150Y-91531366D01*
X130746401Y-91514866D01*
X130751656Y-91501135D01*
X130751847Y-91498445D01*
X130752878Y-91495957D01*
X130754319Y-91481325D01*
X130754319Y-91243230D01*
X130752878Y-91228598D01*
X130751847Y-91226109D01*
X130751656Y-91223420D01*
X130746401Y-91209689D01*
X130698782Y-91114451D01*
X130697241Y-91112003D01*
X130696857Y-91110850D01*
X130695611Y-91109413D01*
X130690950Y-91102008D01*
X130683842Y-91095844D01*
X130677683Y-91088742D01*
X130670279Y-91084081D01*
X130668842Y-91082835D01*
X130667687Y-91082450D01*
X130665241Y-91080910D01*
X130570002Y-91033291D01*
X130556270Y-91028036D01*
X130553582Y-91027845D01*
X130551093Y-91026814D01*
X130536461Y-91025373D01*
X130441223Y-91025373D01*
X130426591Y-91026814D01*
X130424102Y-91027844D01*
X130421413Y-91028036D01*
X130407682Y-91033291D01*
X130312444Y-91080910D01*
X130309996Y-91082450D01*
X130308843Y-91082835D01*
X130307406Y-91084080D01*
X130300001Y-91088742D01*
X130293839Y-91095846D01*
X130286735Y-91102008D01*
X130282073Y-91109413D01*
X130280828Y-91110850D01*
X130280443Y-91112003D01*
X130278903Y-91114451D01*
X130231284Y-91209689D01*
X130226029Y-91223421D01*
X130225838Y-91226108D01*
X130224807Y-91228598D01*
X130223366Y-91243230D01*
X130223366Y-91463620D01*
X130204395Y-91501563D01*
X130173214Y-91501563D01*
X130116172Y-91473042D01*
X130087652Y-91416001D01*
X130087652Y-91260935D01*
X130127353Y-91181533D01*
X130132608Y-91167802D01*
X130134682Y-91138612D01*
X130125428Y-91110850D01*
X130106255Y-91088743D01*
X130080080Y-91075655D01*
X130050890Y-91073581D01*
X130023129Y-91082835D01*
X130001021Y-91102008D01*
X129993189Y-91114451D01*
X129945570Y-91209689D01*
X129940315Y-91223421D01*
X129940124Y-91226108D01*
X129939093Y-91228598D01*
X129937652Y-91243230D01*
X129494649Y-91243230D01*
X129494649Y-90228598D01*
X129939093Y-90228598D01*
X129939093Y-90257862D01*
X129950292Y-90284898D01*
X129970984Y-90305590D01*
X129998020Y-90316789D01*
X130012652Y-90318230D01*
X130518756Y-90318230D01*
X130575798Y-90346750D01*
X130604319Y-90403792D01*
X130604319Y-90511239D01*
X130570061Y-90579754D01*
X130553014Y-90596801D01*
X130012652Y-90596801D01*
X129998020Y-90598242D01*
X129970984Y-90609441D01*
X129950292Y-90630133D01*
X129939093Y-90657169D01*
X129939093Y-90686433D01*
X129950292Y-90713469D01*
X129970984Y-90734161D01*
X129998020Y-90745360D01*
X130012652Y-90746801D01*
X130679319Y-90746801D01*
X130693951Y-90745360D01*
X130720987Y-90734161D01*
X130741679Y-90713469D01*
X130752878Y-90686433D01*
X130752878Y-90657169D01*
X130741679Y-90630133D01*
X130722277Y-90610731D01*
X130746401Y-90562485D01*
X130751656Y-90548754D01*
X130751847Y-90546064D01*
X130752878Y-90543576D01*
X130754319Y-90528944D01*
X130754319Y-90386087D01*
X130752878Y-90371455D01*
X130751847Y-90368966D01*
X130751656Y-90366277D01*
X130746401Y-90352546D01*
X130698782Y-90257308D01*
X130697241Y-90254860D01*
X130696857Y-90253707D01*
X130695611Y-90252270D01*
X130690950Y-90244865D01*
X130683842Y-90238701D01*
X130677683Y-90231599D01*
X130670279Y-90226938D01*
X130668842Y-90225692D01*
X130667687Y-90225307D01*
X130665241Y-90223767D01*
X130570002Y-90176148D01*
X130556270Y-90170893D01*
X130553582Y-90170702D01*
X130551093Y-90169671D01*
X130536461Y-90168230D01*
X130012652Y-90168230D01*
X129998020Y-90169671D01*
X129970984Y-90180870D01*
X129950292Y-90201562D01*
X129939093Y-90228598D01*
X129494649Y-90228598D01*
X129494649Y-89323836D01*
X129605760Y-89323836D01*
X129605760Y-89353100D01*
X129616959Y-89380136D01*
X129637651Y-89400828D01*
X129664687Y-89412027D01*
X129679319Y-89413468D01*
X129962728Y-89413468D01*
X129945570Y-89447784D01*
X129940315Y-89461516D01*
X129940124Y-89464203D01*
X129939093Y-89466693D01*
X129937652Y-89481325D01*
X129937652Y-89624182D01*
X129939093Y-89638814D01*
X129940124Y-89641303D01*
X129940315Y-89643991D01*
X129945570Y-89657723D01*
X129993189Y-89752961D01*
X129994729Y-89755408D01*
X129995114Y-89756562D01*
X129996359Y-89757998D01*
X130001021Y-89765404D01*
X130008125Y-89771565D01*
X130014287Y-89778670D01*
X130021692Y-89783331D01*
X130023129Y-89784577D01*
X130024282Y-89784961D01*
X130026730Y-89786502D01*
X130121968Y-89834121D01*
X130135699Y-89839376D01*
X130138388Y-89839567D01*
X130140877Y-89840598D01*
X130155509Y-89842039D01*
X130679319Y-89842039D01*
X130693951Y-89840598D01*
X130720987Y-89829399D01*
X130741679Y-89808707D01*
X130752878Y-89781671D01*
X130752878Y-89752407D01*
X130741679Y-89725371D01*
X130720987Y-89704679D01*
X130693951Y-89693480D01*
X130679319Y-89692039D01*
X130173214Y-89692039D01*
X130116172Y-89663518D01*
X130087652Y-89606477D01*
X130087652Y-89499030D01*
X130121910Y-89430514D01*
X130138956Y-89413468D01*
X130679319Y-89413468D01*
X130693951Y-89412027D01*
X130720987Y-89400828D01*
X130741679Y-89380136D01*
X130752878Y-89353100D01*
X130752878Y-89323836D01*
X130741679Y-89296800D01*
X130720987Y-89276108D01*
X130693951Y-89264909D01*
X130679319Y-89263468D01*
X129679319Y-89263468D01*
X129664687Y-89264909D01*
X129637651Y-89276108D01*
X129616959Y-89296800D01*
X129605760Y-89323836D01*
X129494649Y-89323836D01*
X129494649Y-88847647D01*
X129605760Y-88847647D01*
X129605760Y-88876909D01*
X129616959Y-88903946D01*
X129626286Y-88915311D01*
X129673905Y-88962930D01*
X129685270Y-88972257D01*
X129712306Y-88983456D01*
X129712307Y-88983456D01*
X129741569Y-88983456D01*
X129768606Y-88972257D01*
X129779971Y-88962930D01*
X129827590Y-88915311D01*
X129836917Y-88903946D01*
X129848116Y-88876910D01*
X129848116Y-88847647D01*
X129848116Y-88847646D01*
X129939093Y-88847646D01*
X129939093Y-88876910D01*
X129950292Y-88903946D01*
X129970984Y-88924638D01*
X129998020Y-88935837D01*
X130012652Y-88937278D01*
X130679319Y-88937278D01*
X130693951Y-88935837D01*
X130720987Y-88924638D01*
X130741679Y-88903946D01*
X130752878Y-88876910D01*
X130752878Y-88847646D01*
X130741679Y-88820610D01*
X130720987Y-88799918D01*
X130693951Y-88788719D01*
X130679319Y-88787278D01*
X130012652Y-88787278D01*
X129998020Y-88788719D01*
X129970984Y-88799918D01*
X129950292Y-88820610D01*
X129939093Y-88847646D01*
X129848116Y-88847646D01*
X129840513Y-88829291D01*
X129836917Y-88820610D01*
X129827590Y-88809245D01*
X129779971Y-88761626D01*
X129768606Y-88752299D01*
X129741569Y-88741100D01*
X129712306Y-88741100D01*
X129685270Y-88752299D01*
X129673905Y-88761626D01*
X129626286Y-88809245D01*
X129616959Y-88820610D01*
X129605760Y-88847647D01*
X129494649Y-88847647D01*
X129494649Y-87942884D01*
X129605760Y-87942884D01*
X129605760Y-87972148D01*
X129616959Y-87999184D01*
X129637651Y-88019876D01*
X129664687Y-88031075D01*
X129679319Y-88032516D01*
X129962728Y-88032516D01*
X129945570Y-88066832D01*
X129940315Y-88080564D01*
X129940124Y-88083251D01*
X129939093Y-88085741D01*
X129937652Y-88100373D01*
X129937652Y-88243230D01*
X129939093Y-88257862D01*
X129940124Y-88260351D01*
X129940315Y-88263039D01*
X129945570Y-88276771D01*
X129993189Y-88372009D01*
X129994729Y-88374456D01*
X129995114Y-88375610D01*
X129996359Y-88377046D01*
X130001021Y-88384452D01*
X130008125Y-88390613D01*
X130014287Y-88397718D01*
X130021692Y-88402379D01*
X130023129Y-88403625D01*
X130024282Y-88404009D01*
X130026730Y-88405550D01*
X130121968Y-88453169D01*
X130135699Y-88458424D01*
X130138388Y-88458615D01*
X130140877Y-88459646D01*
X130155509Y-88461087D01*
X130679319Y-88461087D01*
X130693951Y-88459646D01*
X130720987Y-88448447D01*
X130741679Y-88427755D01*
X130752878Y-88400719D01*
X130752878Y-88371455D01*
X130741679Y-88344419D01*
X130720987Y-88323727D01*
X130693951Y-88312528D01*
X130679319Y-88311087D01*
X130173214Y-88311087D01*
X130116172Y-88282566D01*
X130087652Y-88225525D01*
X130087652Y-88118078D01*
X130121910Y-88049562D01*
X130138956Y-88032516D01*
X130679319Y-88032516D01*
X130693951Y-88031075D01*
X130720987Y-88019876D01*
X130741679Y-87999184D01*
X130752878Y-87972148D01*
X130752878Y-87942884D01*
X130741679Y-87915848D01*
X130720987Y-87895156D01*
X130693951Y-87883957D01*
X130679319Y-87882516D01*
X129679319Y-87882516D01*
X129664687Y-87883957D01*
X129637651Y-87895156D01*
X129616959Y-87915848D01*
X129605760Y-87942884D01*
X129494649Y-87942884D01*
X129494649Y-87243230D01*
X129937652Y-87243230D01*
X129937652Y-87433706D01*
X129939093Y-87448338D01*
X129940124Y-87450827D01*
X129940315Y-87453515D01*
X129945570Y-87467247D01*
X129993189Y-87562485D01*
X130001021Y-87574928D01*
X130023129Y-87594101D01*
X130050890Y-87603355D01*
X130080080Y-87601281D01*
X130106255Y-87588193D01*
X130125428Y-87566086D01*
X130134682Y-87538324D01*
X130132608Y-87509134D01*
X130127353Y-87495403D01*
X130087652Y-87416001D01*
X130087652Y-87260935D01*
X130121910Y-87192419D01*
X130152317Y-87162012D01*
X130220833Y-87127754D01*
X130471137Y-87127754D01*
X130539653Y-87162012D01*
X130570061Y-87192419D01*
X130604319Y-87260935D01*
X130604319Y-87416001D01*
X130564618Y-87495403D01*
X130559363Y-87509135D01*
X130557289Y-87538325D01*
X130566543Y-87566086D01*
X130585716Y-87588194D01*
X130611891Y-87601281D01*
X130641081Y-87603355D01*
X130668842Y-87594101D01*
X130690950Y-87574928D01*
X130698782Y-87562485D01*
X130746401Y-87467247D01*
X130751656Y-87453516D01*
X130751847Y-87450826D01*
X130752878Y-87448338D01*
X130754319Y-87433706D01*
X130754319Y-87243230D01*
X130752878Y-87228598D01*
X130751847Y-87226109D01*
X130751656Y-87223420D01*
X130746401Y-87209689D01*
X130698782Y-87114451D01*
X130694817Y-87108151D01*
X130694060Y-87106324D01*
X130692372Y-87104267D01*
X130690950Y-87102008D01*
X130689450Y-87100707D01*
X130684732Y-87094958D01*
X130637112Y-87047339D01*
X130631363Y-87042621D01*
X130630064Y-87041123D01*
X130627805Y-87039701D01*
X130625747Y-87038012D01*
X130623917Y-87037254D01*
X130617621Y-87033291D01*
X130522383Y-86985672D01*
X130508651Y-86980417D01*
X130505963Y-86980226D01*
X130503474Y-86979195D01*
X130488842Y-86977754D01*
X130203128Y-86977754D01*
X130188496Y-86979195D01*
X130186007Y-86980225D01*
X130183318Y-86980417D01*
X130169587Y-86985672D01*
X130074349Y-87033291D01*
X130068049Y-87037255D01*
X130066222Y-87038013D01*
X130064165Y-87039701D01*
X130061906Y-87041123D01*
X130060606Y-87042621D01*
X130054857Y-87047340D01*
X130007238Y-87094959D01*
X130002519Y-87100708D01*
X130001021Y-87102008D01*
X129999599Y-87104267D01*
X129997911Y-87106324D01*
X129997153Y-87108151D01*
X129993189Y-87114451D01*
X129945570Y-87209689D01*
X129940315Y-87223421D01*
X129940124Y-87226108D01*
X129939093Y-87228598D01*
X129937652Y-87243230D01*
X129494649Y-87243230D01*
X129494649Y-85427943D01*
X129937874Y-85427943D01*
X129941360Y-85456997D01*
X129955700Y-85482507D01*
X129966315Y-85492680D01*
X130224590Y-85695610D01*
X129966315Y-85898541D01*
X129955700Y-85908714D01*
X129941360Y-85934224D01*
X129937874Y-85963278D01*
X129945771Y-85991456D01*
X129963851Y-86014467D01*
X129989361Y-86028807D01*
X130018415Y-86032293D01*
X130046593Y-86024396D01*
X130058989Y-86016489D01*
X130345985Y-85790992D01*
X130632982Y-86016489D01*
X130645378Y-86024396D01*
X130673556Y-86032293D01*
X130702610Y-86028807D01*
X130728120Y-86014467D01*
X130746200Y-85991456D01*
X130754097Y-85963278D01*
X130750611Y-85934224D01*
X130736271Y-85908714D01*
X130725656Y-85898541D01*
X130467380Y-85695610D01*
X130725656Y-85492680D01*
X130736271Y-85482507D01*
X130750611Y-85456997D01*
X130754097Y-85427943D01*
X130746200Y-85399765D01*
X130728120Y-85376754D01*
X130702610Y-85362414D01*
X130673556Y-85358928D01*
X130645378Y-85366825D01*
X130632982Y-85374732D01*
X130345985Y-85600228D01*
X130058989Y-85374732D01*
X130046593Y-85366825D01*
X130018415Y-85358928D01*
X129989361Y-85362414D01*
X129963851Y-85376754D01*
X129945771Y-85399765D01*
X129937874Y-85427943D01*
X129494649Y-85427943D01*
X129494649Y-84767039D01*
X129937652Y-84767039D01*
X129937652Y-84957515D01*
X129939093Y-84972147D01*
X129940124Y-84974636D01*
X129940315Y-84977324D01*
X129945570Y-84991056D01*
X129993189Y-85086294D01*
X129994729Y-85088741D01*
X129995114Y-85089895D01*
X129996359Y-85091331D01*
X130001021Y-85098737D01*
X130008125Y-85104898D01*
X130014287Y-85112003D01*
X130021692Y-85116664D01*
X130023129Y-85117910D01*
X130024282Y-85118294D01*
X130026730Y-85119835D01*
X130121968Y-85167454D01*
X130135699Y-85172709D01*
X130138388Y-85172900D01*
X130140877Y-85173931D01*
X130155509Y-85175372D01*
X130250669Y-85175372D01*
X130250747Y-85175372D01*
X130265379Y-85173931D01*
X130272167Y-85171119D01*
X130279376Y-85169693D01*
X130285555Y-85165573D01*
X130292415Y-85162732D01*
X130297610Y-85157537D01*
X130303724Y-85153461D01*
X130307856Y-85147290D01*
X130313107Y-85142040D01*
X130315918Y-85135251D01*
X130320008Y-85129146D01*
X130324291Y-85115081D01*
X130407470Y-84699182D01*
X130518756Y-84699182D01*
X130575798Y-84727702D01*
X130604319Y-84784744D01*
X130604319Y-84939810D01*
X130564618Y-85019212D01*
X130559363Y-85032944D01*
X130557289Y-85062134D01*
X130566543Y-85089895D01*
X130585716Y-85112003D01*
X130611891Y-85125090D01*
X130641081Y-85127164D01*
X130668842Y-85117910D01*
X130690950Y-85098737D01*
X130698782Y-85086294D01*
X130746401Y-84991056D01*
X130751656Y-84977325D01*
X130751847Y-84974635D01*
X130752878Y-84972147D01*
X130754319Y-84957515D01*
X130754319Y-84767039D01*
X130752878Y-84752407D01*
X130751847Y-84749918D01*
X130751656Y-84747229D01*
X130746401Y-84733498D01*
X130698782Y-84638260D01*
X130697241Y-84635812D01*
X130696857Y-84634659D01*
X130695611Y-84633222D01*
X130690950Y-84625817D01*
X130683842Y-84619653D01*
X130677683Y-84612551D01*
X130670279Y-84607890D01*
X130668842Y-84606644D01*
X130667687Y-84606259D01*
X130665241Y-84604719D01*
X130570002Y-84557100D01*
X130556270Y-84551845D01*
X130553582Y-84551654D01*
X130551093Y-84550623D01*
X130536461Y-84549182D01*
X130155509Y-84549182D01*
X130140877Y-84550623D01*
X130138388Y-84551653D01*
X130135699Y-84551845D01*
X130121968Y-84557100D01*
X130026730Y-84604719D01*
X130024282Y-84606259D01*
X130023129Y-84606644D01*
X130021692Y-84607889D01*
X130014287Y-84612551D01*
X130008125Y-84619655D01*
X130001021Y-84625817D01*
X129996359Y-84633222D01*
X129995114Y-84634659D01*
X129994729Y-84635812D01*
X129993189Y-84638260D01*
X129945570Y-84733498D01*
X129940315Y-84747230D01*
X129940124Y-84749917D01*
X129939093Y-84752407D01*
X129937652Y-84767039D01*
X129494649Y-84767039D01*
X129494649Y-84133359D01*
X129605760Y-84133359D01*
X129605760Y-84162623D01*
X129616959Y-84189659D01*
X129637651Y-84210351D01*
X129664687Y-84221550D01*
X129679319Y-84222991D01*
X130518756Y-84222991D01*
X130575798Y-84251511D01*
X130612237Y-84324389D01*
X130620069Y-84336832D01*
X130642177Y-84356005D01*
X130669938Y-84365259D01*
X130699128Y-84363185D01*
X130725303Y-84350097D01*
X130744476Y-84327990D01*
X130753730Y-84300228D01*
X130751656Y-84271038D01*
X130746401Y-84257307D01*
X130698782Y-84162069D01*
X130697241Y-84159621D01*
X130696857Y-84158468D01*
X130695611Y-84157031D01*
X130690950Y-84149626D01*
X130683842Y-84143462D01*
X130677683Y-84136360D01*
X130670279Y-84131699D01*
X130668842Y-84130453D01*
X130667687Y-84130068D01*
X130665241Y-84128528D01*
X130570002Y-84080909D01*
X130556270Y-84075654D01*
X130553582Y-84075463D01*
X130551093Y-84074432D01*
X130536461Y-84072991D01*
X129679319Y-84072991D01*
X129664687Y-84074432D01*
X129637651Y-84085631D01*
X129616959Y-84106323D01*
X129605760Y-84133359D01*
X129494649Y-84133359D01*
X129494649Y-83338467D01*
X129937652Y-83338467D01*
X129937652Y-83528943D01*
X129939093Y-83543575D01*
X129940124Y-83546064D01*
X129940315Y-83548752D01*
X129945570Y-83562484D01*
X129993189Y-83657722D01*
X129994729Y-83660169D01*
X129995114Y-83661323D01*
X129996359Y-83662759D01*
X130001021Y-83670165D01*
X130008125Y-83676326D01*
X130014287Y-83683431D01*
X130021692Y-83688092D01*
X130023129Y-83689338D01*
X130024282Y-83689722D01*
X130026730Y-83691263D01*
X130121968Y-83738882D01*
X130135699Y-83744137D01*
X130138388Y-83744328D01*
X130140877Y-83745359D01*
X130155509Y-83746800D01*
X130679319Y-83746800D01*
X130693951Y-83745359D01*
X130720987Y-83734160D01*
X130741679Y-83713468D01*
X130752878Y-83686432D01*
X130752878Y-83657168D01*
X130741679Y-83630132D01*
X130738150Y-83626603D01*
X130746401Y-83610103D01*
X130751656Y-83596372D01*
X130751847Y-83593682D01*
X130752878Y-83591194D01*
X130754319Y-83576562D01*
X130754319Y-83338467D01*
X130752878Y-83323835D01*
X130751847Y-83321346D01*
X130751656Y-83318657D01*
X130746401Y-83304926D01*
X130698782Y-83209688D01*
X130697241Y-83207240D01*
X130696857Y-83206087D01*
X130695611Y-83204650D01*
X130690950Y-83197245D01*
X130683842Y-83191081D01*
X130677683Y-83183979D01*
X130670279Y-83179318D01*
X130668842Y-83178072D01*
X130667687Y-83177687D01*
X130665241Y-83176147D01*
X130570002Y-83128528D01*
X130556270Y-83123273D01*
X130553582Y-83123082D01*
X130551093Y-83122051D01*
X130536461Y-83120610D01*
X130441223Y-83120610D01*
X130426591Y-83122051D01*
X130424102Y-83123081D01*
X130421413Y-83123273D01*
X130407682Y-83128528D01*
X130312444Y-83176147D01*
X130309996Y-83177687D01*
X130308843Y-83178072D01*
X130307406Y-83179317D01*
X130300001Y-83183979D01*
X130293839Y-83191083D01*
X130286735Y-83197245D01*
X130282073Y-83204650D01*
X130280828Y-83206087D01*
X130280443Y-83207240D01*
X130278903Y-83209688D01*
X130231284Y-83304926D01*
X130226029Y-83318658D01*
X130225838Y-83321345D01*
X130224807Y-83323835D01*
X130223366Y-83338467D01*
X130223366Y-83558857D01*
X130204395Y-83596800D01*
X130173214Y-83596800D01*
X130116172Y-83568279D01*
X130087652Y-83511238D01*
X130087652Y-83356172D01*
X130127353Y-83276770D01*
X130132608Y-83263039D01*
X130134682Y-83233849D01*
X130125428Y-83206087D01*
X130106255Y-83183980D01*
X130080080Y-83170892D01*
X130050890Y-83168818D01*
X130023129Y-83178072D01*
X130001021Y-83197245D01*
X129993189Y-83209688D01*
X129945570Y-83304926D01*
X129940315Y-83318658D01*
X129940124Y-83321345D01*
X129939093Y-83323835D01*
X129937652Y-83338467D01*
X129494649Y-83338467D01*
X129494649Y-83009499D01*
X130865430Y-83009499D01*
X130865430Y-99619818D01*
G37*
X127369375Y-83093229D02*
X126702708Y-83093229D01*
X126893184Y-83093229D02*
X126797946Y-83140848D01*
X126797946Y-83140848D02*
X126750327Y-83188467D01*
X126750327Y-83188467D02*
X126702708Y-83283705D01*
X126702708Y-83283705D02*
X126702708Y-83378943D01*
X127369375Y-84140848D02*
X126845565Y-84140848D01*
X126845565Y-84140848D02*
X126750327Y-84093229D01*
X126750327Y-84093229D02*
X126702708Y-83997991D01*
X126702708Y-83997991D02*
X126702708Y-83807515D01*
X126702708Y-83807515D02*
X126750327Y-83712277D01*
X127321756Y-84140848D02*
X127369375Y-84045610D01*
X127369375Y-84045610D02*
X127369375Y-83807515D01*
X127369375Y-83807515D02*
X127321756Y-83712277D01*
X127321756Y-83712277D02*
X127226517Y-83664658D01*
X127226517Y-83664658D02*
X127131279Y-83664658D01*
X127131279Y-83664658D02*
X127036041Y-83712277D01*
X127036041Y-83712277D02*
X126988422Y-83807515D01*
X126988422Y-83807515D02*
X126988422Y-84045610D01*
X126988422Y-84045610D02*
X126940803Y-84140848D01*
X127321756Y-84569420D02*
X127369375Y-84664658D01*
X127369375Y-84664658D02*
X127369375Y-84855134D01*
X127369375Y-84855134D02*
X127321756Y-84950372D01*
X127321756Y-84950372D02*
X127226517Y-84997991D01*
X127226517Y-84997991D02*
X127178898Y-84997991D01*
X127178898Y-84997991D02*
X127083660Y-84950372D01*
X127083660Y-84950372D02*
X127036041Y-84855134D01*
X127036041Y-84855134D02*
X127036041Y-84712277D01*
X127036041Y-84712277D02*
X126988422Y-84617039D01*
X126988422Y-84617039D02*
X126893184Y-84569420D01*
X126893184Y-84569420D02*
X126845565Y-84569420D01*
X126845565Y-84569420D02*
X126750327Y-84617039D01*
X126750327Y-84617039D02*
X126702708Y-84712277D01*
X126702708Y-84712277D02*
X126702708Y-84855134D01*
X126702708Y-84855134D02*
X126750327Y-84950372D01*
X126702708Y-85426563D02*
X127702708Y-85426563D01*
X126750327Y-85426563D02*
X126702708Y-85521801D01*
X126702708Y-85521801D02*
X126702708Y-85712277D01*
X126702708Y-85712277D02*
X126750327Y-85807515D01*
X126750327Y-85807515D02*
X126797946Y-85855134D01*
X126797946Y-85855134D02*
X126893184Y-85902753D01*
X126893184Y-85902753D02*
X127178898Y-85902753D01*
X127178898Y-85902753D02*
X127274136Y-85855134D01*
X127274136Y-85855134D02*
X127321756Y-85807515D01*
X127321756Y-85807515D02*
X127369375Y-85712277D01*
X127369375Y-85712277D02*
X127369375Y-85521801D01*
X127369375Y-85521801D02*
X127321756Y-85426563D01*
X127369375Y-86331325D02*
X126369375Y-86331325D01*
X126750327Y-86331325D02*
X126702708Y-86426563D01*
X126702708Y-86426563D02*
X126702708Y-86617039D01*
X126702708Y-86617039D02*
X126750327Y-86712277D01*
X126750327Y-86712277D02*
X126797946Y-86759896D01*
X126797946Y-86759896D02*
X126893184Y-86807515D01*
X126893184Y-86807515D02*
X127178898Y-86807515D01*
X127178898Y-86807515D02*
X127274136Y-86759896D01*
X127274136Y-86759896D02*
X127321756Y-86712277D01*
X127321756Y-86712277D02*
X127369375Y-86617039D01*
X127369375Y-86617039D02*
X127369375Y-86426563D01*
X127369375Y-86426563D02*
X127321756Y-86331325D01*
X127321756Y-87617039D02*
X127369375Y-87521801D01*
X127369375Y-87521801D02*
X127369375Y-87331325D01*
X127369375Y-87331325D02*
X127321756Y-87236087D01*
X127321756Y-87236087D02*
X127226517Y-87188468D01*
X127226517Y-87188468D02*
X126845565Y-87188468D01*
X126845565Y-87188468D02*
X126750327Y-87236087D01*
X126750327Y-87236087D02*
X126702708Y-87331325D01*
X126702708Y-87331325D02*
X126702708Y-87521801D01*
X126702708Y-87521801D02*
X126750327Y-87617039D01*
X126750327Y-87617039D02*
X126845565Y-87664658D01*
X126845565Y-87664658D02*
X126940803Y-87664658D01*
X126940803Y-87664658D02*
X127036041Y-87188468D01*
X127369375Y-88093230D02*
X126702708Y-88093230D01*
X126893184Y-88093230D02*
X126797946Y-88140849D01*
X126797946Y-88140849D02*
X126750327Y-88188468D01*
X126750327Y-88188468D02*
X126702708Y-88283706D01*
X126702708Y-88283706D02*
X126702708Y-88378944D01*
X127369375Y-88712278D02*
X126702708Y-88712278D01*
X126893184Y-88712278D02*
X126797946Y-88759897D01*
X126797946Y-88759897D02*
X126750327Y-88807516D01*
X126750327Y-88807516D02*
X126702708Y-88902754D01*
X126702708Y-88902754D02*
X126702708Y-88997992D01*
X126702708Y-89236088D02*
X127369375Y-89474183D01*
X126702708Y-89712278D02*
X127369375Y-89474183D01*
X127369375Y-89474183D02*
X127607470Y-89378945D01*
X127607470Y-89378945D02*
X127655089Y-89331326D01*
X127655089Y-89331326D02*
X127702708Y-89236088D01*
X126702708Y-90855136D02*
X127702708Y-90855136D01*
X126750327Y-90855136D02*
X126702708Y-90950374D01*
X126702708Y-90950374D02*
X126702708Y-91140850D01*
X126702708Y-91140850D02*
X126750327Y-91236088D01*
X126750327Y-91236088D02*
X126797946Y-91283707D01*
X126797946Y-91283707D02*
X126893184Y-91331326D01*
X126893184Y-91331326D02*
X127178898Y-91331326D01*
X127178898Y-91331326D02*
X127274136Y-91283707D01*
X127274136Y-91283707D02*
X127321756Y-91236088D01*
X127321756Y-91236088D02*
X127369375Y-91140850D01*
X127369375Y-91140850D02*
X127369375Y-90950374D01*
X127369375Y-90950374D02*
X127321756Y-90855136D01*
X127369375Y-91759898D02*
X126702708Y-91759898D01*
X126369375Y-91759898D02*
X126416994Y-91712279D01*
X126416994Y-91712279D02*
X126464613Y-91759898D01*
X126464613Y-91759898D02*
X126416994Y-91807517D01*
X126416994Y-91807517D02*
X126369375Y-91759898D01*
X126369375Y-91759898D02*
X126464613Y-91759898D01*
X127321756Y-92950374D02*
X127369375Y-93045612D01*
X127369375Y-93045612D02*
X127369375Y-93236088D01*
X127369375Y-93236088D02*
X127321756Y-93331326D01*
X127321756Y-93331326D02*
X127226517Y-93378945D01*
X127226517Y-93378945D02*
X127178898Y-93378945D01*
X127178898Y-93378945D02*
X127083660Y-93331326D01*
X127083660Y-93331326D02*
X127036041Y-93236088D01*
X127036041Y-93236088D02*
X127036041Y-93093231D01*
X127036041Y-93093231D02*
X126988422Y-92997993D01*
X126988422Y-92997993D02*
X126893184Y-92950374D01*
X126893184Y-92950374D02*
X126845565Y-92950374D01*
X126845565Y-92950374D02*
X126750327Y-92997993D01*
X126750327Y-92997993D02*
X126702708Y-93093231D01*
X126702708Y-93093231D02*
X126702708Y-93236088D01*
X126702708Y-93236088D02*
X126750327Y-93331326D01*
X127321756Y-94188469D02*
X127369375Y-94093231D01*
X127369375Y-94093231D02*
X127369375Y-93902755D01*
X127369375Y-93902755D02*
X127321756Y-93807517D01*
X127321756Y-93807517D02*
X127226517Y-93759898D01*
X127226517Y-93759898D02*
X126845565Y-93759898D01*
X126845565Y-93759898D02*
X126750327Y-93807517D01*
X126750327Y-93807517D02*
X126702708Y-93902755D01*
X126702708Y-93902755D02*
X126702708Y-94093231D01*
X126702708Y-94093231D02*
X126750327Y-94188469D01*
X126750327Y-94188469D02*
X126845565Y-94236088D01*
X126845565Y-94236088D02*
X126940803Y-94236088D01*
X126940803Y-94236088D02*
X127036041Y-93759898D01*
X127369375Y-94664660D02*
X126702708Y-94664660D01*
X126893184Y-94664660D02*
X126797946Y-94712279D01*
X126797946Y-94712279D02*
X126750327Y-94759898D01*
X126750327Y-94759898D02*
X126702708Y-94855136D01*
X126702708Y-94855136D02*
X126702708Y-94950374D01*
X127369375Y-95283708D02*
X126702708Y-95283708D01*
X126369375Y-95283708D02*
X126416994Y-95236089D01*
X126416994Y-95236089D02*
X126464613Y-95283708D01*
X126464613Y-95283708D02*
X126416994Y-95331327D01*
X126416994Y-95331327D02*
X126369375Y-95283708D01*
X126369375Y-95283708D02*
X126464613Y-95283708D01*
X127369375Y-96188469D02*
X126845565Y-96188469D01*
X126845565Y-96188469D02*
X126750327Y-96140850D01*
X126750327Y-96140850D02*
X126702708Y-96045612D01*
X126702708Y-96045612D02*
X126702708Y-95855136D01*
X126702708Y-95855136D02*
X126750327Y-95759898D01*
X127321756Y-96188469D02*
X127369375Y-96093231D01*
X127369375Y-96093231D02*
X127369375Y-95855136D01*
X127369375Y-95855136D02*
X127321756Y-95759898D01*
X127321756Y-95759898D02*
X127226517Y-95712279D01*
X127226517Y-95712279D02*
X127131279Y-95712279D01*
X127131279Y-95712279D02*
X127036041Y-95759898D01*
X127036041Y-95759898D02*
X126988422Y-95855136D01*
X126988422Y-95855136D02*
X126988422Y-96093231D01*
X126988422Y-96093231D02*
X126940803Y-96188469D01*
X127369375Y-96807517D02*
X127321756Y-96712279D01*
X127321756Y-96712279D02*
X127226517Y-96664660D01*
X127226517Y-96664660D02*
X126369375Y-96664660D01*
X126321756Y-97902755D02*
X127607470Y-97045613D01*
X126702708Y-98664660D02*
X127512232Y-98664660D01*
X127512232Y-98664660D02*
X127607470Y-98617041D01*
X127607470Y-98617041D02*
X127655089Y-98569422D01*
X127655089Y-98569422D02*
X127702708Y-98474184D01*
X127702708Y-98474184D02*
X127702708Y-98331327D01*
X127702708Y-98331327D02*
X127655089Y-98236089D01*
X127321756Y-98664660D02*
X127369375Y-98569422D01*
X127369375Y-98569422D02*
X127369375Y-98378946D01*
X127369375Y-98378946D02*
X127321756Y-98283708D01*
X127321756Y-98283708D02*
X127274136Y-98236089D01*
X127274136Y-98236089D02*
X127178898Y-98188470D01*
X127178898Y-98188470D02*
X126893184Y-98188470D01*
X126893184Y-98188470D02*
X126797946Y-98236089D01*
X126797946Y-98236089D02*
X126750327Y-98283708D01*
X126750327Y-98283708D02*
X126702708Y-98378946D01*
X126702708Y-98378946D02*
X126702708Y-98569422D01*
X126702708Y-98569422D02*
X126750327Y-98664660D01*
X126702708Y-99140851D02*
X127702708Y-99140851D01*
X126750327Y-99140851D02*
X126702708Y-99236089D01*
X126702708Y-99236089D02*
X126702708Y-99426565D01*
X126702708Y-99426565D02*
X126750327Y-99521803D01*
X126750327Y-99521803D02*
X126797946Y-99569422D01*
X126797946Y-99569422D02*
X126893184Y-99617041D01*
X126893184Y-99617041D02*
X127178898Y-99617041D01*
X127178898Y-99617041D02*
X127274136Y-99569422D01*
X127274136Y-99569422D02*
X127321756Y-99521803D01*
X127321756Y-99521803D02*
X127369375Y-99426565D01*
X127369375Y-99426565D02*
X127369375Y-99236089D01*
X127369375Y-99236089D02*
X127321756Y-99140851D01*
X127369375Y-100045613D02*
X126702708Y-100045613D01*
X126369375Y-100045613D02*
X126416994Y-99997994D01*
X126416994Y-99997994D02*
X126464613Y-100045613D01*
X126464613Y-100045613D02*
X126416994Y-100093232D01*
X126416994Y-100093232D02*
X126369375Y-100045613D01*
X126369375Y-100045613D02*
X126464613Y-100045613D01*
X127369375Y-100521803D02*
X126369375Y-100521803D01*
X126750327Y-100521803D02*
X126702708Y-100617041D01*
X126702708Y-100617041D02*
X126702708Y-100807517D01*
X126702708Y-100807517D02*
X126750327Y-100902755D01*
X126750327Y-100902755D02*
X126797946Y-100950374D01*
X126797946Y-100950374D02*
X126893184Y-100997993D01*
X126893184Y-100997993D02*
X127178898Y-100997993D01*
X127178898Y-100997993D02*
X127274136Y-100950374D01*
X127274136Y-100950374D02*
X127321756Y-100902755D01*
X127321756Y-100902755D02*
X127369375Y-100807517D01*
X127369375Y-100807517D02*
X127369375Y-100617041D01*
X127369375Y-100617041D02*
X127321756Y-100521803D01*
X127369375Y-102188470D02*
X126369375Y-102188470D01*
X127369375Y-102617041D02*
X126845565Y-102617041D01*
X126845565Y-102617041D02*
X126750327Y-102569422D01*
X126750327Y-102569422D02*
X126702708Y-102474184D01*
X126702708Y-102474184D02*
X126702708Y-102331327D01*
X126702708Y-102331327D02*
X126750327Y-102236089D01*
X126750327Y-102236089D02*
X126797946Y-102188470D01*
X127369375Y-103521803D02*
X126845565Y-103521803D01*
X126845565Y-103521803D02*
X126750327Y-103474184D01*
X126750327Y-103474184D02*
X126702708Y-103378946D01*
X126702708Y-103378946D02*
X126702708Y-103188470D01*
X126702708Y-103188470D02*
X126750327Y-103093232D01*
X127321756Y-103521803D02*
X127369375Y-103426565D01*
X127369375Y-103426565D02*
X127369375Y-103188470D01*
X127369375Y-103188470D02*
X127321756Y-103093232D01*
X127321756Y-103093232D02*
X127226517Y-103045613D01*
X127226517Y-103045613D02*
X127131279Y-103045613D01*
X127131279Y-103045613D02*
X127036041Y-103093232D01*
X127036041Y-103093232D02*
X126988422Y-103188470D01*
X126988422Y-103188470D02*
X126988422Y-103426565D01*
X126988422Y-103426565D02*
X126940803Y-103521803D01*
X126702708Y-103855137D02*
X126702708Y-104236089D01*
X126369375Y-103997994D02*
X127226517Y-103997994D01*
X127226517Y-103997994D02*
X127321756Y-104045613D01*
X127321756Y-104045613D02*
X127369375Y-104140851D01*
X127369375Y-104140851D02*
X127369375Y-104236089D01*
X128979319Y-83093229D02*
X128312652Y-83093229D01*
X128503128Y-83093229D02*
X128407890Y-83140848D01*
X128407890Y-83140848D02*
X128360271Y-83188467D01*
X128360271Y-83188467D02*
X128312652Y-83283705D01*
X128312652Y-83283705D02*
X128312652Y-83378943D01*
X128931700Y-84093229D02*
X128979319Y-83997991D01*
X128979319Y-83997991D02*
X128979319Y-83807515D01*
X128979319Y-83807515D02*
X128931700Y-83712277D01*
X128931700Y-83712277D02*
X128836461Y-83664658D01*
X128836461Y-83664658D02*
X128455509Y-83664658D01*
X128455509Y-83664658D02*
X128360271Y-83712277D01*
X128360271Y-83712277D02*
X128312652Y-83807515D01*
X128312652Y-83807515D02*
X128312652Y-83997991D01*
X128312652Y-83997991D02*
X128360271Y-84093229D01*
X128360271Y-84093229D02*
X128455509Y-84140848D01*
X128455509Y-84140848D02*
X128550747Y-84140848D01*
X128550747Y-84140848D02*
X128645985Y-83664658D01*
X128312652Y-84474182D02*
X128979319Y-84712277D01*
X128979319Y-84712277D02*
X128312652Y-84950372D01*
X128312652Y-86521801D02*
X128979319Y-86521801D01*
X127931700Y-86283706D02*
X128645985Y-86045611D01*
X128645985Y-86045611D02*
X128645985Y-86664658D01*
M02*
