M48
; DRILL file {KiCad 9.0.0} date 2025-04-07T11:56:25-0600
; FORMAT={-:-/ absolute / inch / decimal}
; #@! TF.CreationDate,2025-04-07T11:56:25-06:00
; #@! TF.GenerationSoftware,Kicad,Pcbnew,9.0.0
; #@! TF.FileFunction,Plated,1,2,PTH
FMAT,2
INCH
; #@! TA.AperFunction,Plated,PTH,ViaDrill
T1C0.0118
; #@! TA.AperFunction,Plated,PTH,ComponentDrill
T2C0.0390
; #@! TA.AperFunction,Plated,PTH,ComponentDrill
T3C0.0394
; #@! TA.AperFunction,Plated,PTH,ComponentDrill
T4C0.0413
; #@! TA.AperFunction,Plated,PTH,ComponentDrill
T5C0.1063
; #@! TA.AperFunction,Plated,PTH,ComponentDrill
T6C0.1220
%
G90
G05
T1
X4.795Y-5.074
X4.953Y-4.377
X4.983Y-4.679
X4.9981Y-4.028
X5.007Y-4.938
X5.096Y-3.951
X5.1184Y-2.7231
X5.2063Y-2.6298
X5.2126Y-2.6607
X5.3701Y-3.908
X5.4131Y-4.4051
X5.486Y-3.407
X5.558Y-3.936
X5.595Y-3.936
X5.608Y-2.7637
X5.6169Y-3.1243
X5.6251Y-4.1651
X5.6293Y-4.2028
X5.6664Y-3.2614
X5.669Y-2.723
X5.6889Y-3.477
X5.8145Y-4.581
X5.8223Y-3.7003
X5.8224Y-4.1831
X5.8284Y-3.598
X5.838Y-3.651
X5.846Y-4.581
X5.898Y-4.255
X5.9478Y-4.3339
X6.0113Y-2.6571
X6.0518Y-3.9723
X6.0754Y-3.9515
X6.1586Y-3.0882
X6.1614Y-2.658
X6.1997Y-4.2029
X6.2007Y-4.4349
X6.379Y-3.018
X6.395Y-2.831
T2
X5.3436Y-2.0614
X5.3436Y-2.2303
X5.4287Y-2.0614
X5.4287Y-2.2303
X5.5137Y-2.0614
X5.5137Y-2.2303
X5.5988Y-2.0614
X5.5988Y-2.2303
X5.6838Y-2.0614
X5.6838Y-2.2303
X5.7688Y-2.0614
X5.7688Y-2.2303
X5.8539Y-2.0614
X5.8539Y-2.2303
X5.9389Y-2.0614
X5.9389Y-2.2303
X6.024Y-2.0614
X6.024Y-2.2303
X6.109Y-2.0614
X6.109Y-2.2303
X6.194Y-2.0614
X6.194Y-2.2303
X6.2791Y-2.0614
X6.2791Y-2.2303
T3
X4.7831Y-2.7341
X4.7831Y-2.8341
X4.7831Y-2.9341
X4.7831Y-3.0341
X4.7831Y-3.1341
X4.7831Y-3.2341
X4.7831Y-3.3341
X4.7831Y-3.4341
X4.7831Y-3.5341
X4.7831Y-3.6341
X4.7831Y-3.7341
X4.7831Y-3.8341
X4.7831Y-3.9341
X4.7831Y-4.0341
X4.7831Y-4.1341
X4.7831Y-4.2341
X4.7831Y-4.3341
X4.7831Y-4.4341
X4.7831Y-4.5341
X4.7831Y-4.6341
X4.8831Y-2.7341
X4.8831Y-2.8341
X4.8831Y-2.9341
X4.8831Y-3.0341
X4.8831Y-3.1341
X4.8831Y-3.2341
X4.8831Y-3.3341
X4.8831Y-3.4341
X4.8831Y-3.5341
X4.8831Y-3.6341
X4.8831Y-3.7341
X4.8831Y-3.8341
X4.8831Y-3.9341
X4.8831Y-4.0341
X4.8831Y-4.1341
X4.8831Y-4.2341
X4.8831Y-4.3341
X4.8831Y-4.4341
X4.8831Y-4.5341
X4.8831Y-4.6341
X6.7584Y-2.7756
X6.7584Y-2.8756
X6.7584Y-2.9756
X6.7584Y-3.0756
T4
X5.5578Y-4.8623
X5.6124Y-4.9741
X5.6669Y-4.8623
X5.7214Y-4.9741
X5.7759Y-4.8623
X5.8305Y-4.9741
X5.885Y-4.8623
X5.9395Y-4.9741
X5.9941Y-4.8623
X6.4852Y-3.7329
X6.4852Y-3.8419
X6.4852Y-3.951
X6.4852Y-4.06
X6.4852Y-4.1691
X6.597Y-3.7874
X6.597Y-3.8965
X6.597Y-4.0055
X6.597Y-4.1146
T5
X4.8332Y-2.5433
X4.8332Y-4.8268
X6.7623Y-2.5472
X6.7623Y-4.8307
T6
X5.284Y-4.9182
X6.2679Y-4.9182
X6.5411Y-3.4591
X6.5411Y-4.4429
M30
