%TF.GenerationSoftware,KiCad,Pcbnew,9.0.0*%
%TF.CreationDate,2025-04-07T11:56:22-06:00*%
%TF.ProjectId,Senior Capstone,53656e69-6f72-4204-9361-7073746f6e65,4*%
%TF.SameCoordinates,Original*%
%TF.FileFunction,Soldermask,Bot*%
%TF.FilePolarity,Negative*%
%FSLAX46Y46*%
G04 Gerber Fmt 4.6, Leading zero omitted, Abs format (unit mm)*
G04 Created by KiCad (PCBNEW 9.0.0) date 2025-04-07 11:56:22*
%MOMM*%
%LPD*%
G01*
G04 APERTURE LIST*
%ADD10C,3.100000*%
%ADD11C,4.700000*%
%ADD12R,1.575000X1.575000*%
%ADD13C,1.575000*%
%ADD14C,4.116000*%
%ADD15R,1.700000X1.700000*%
%ADD16O,1.700000X1.700000*%
%ADD17C,3.098800*%
%ADD18C,1.498600*%
G04 APERTURE END LIST*
D10*
%TO.C,H4*%
X171763300Y-64700050D03*
D11*
X171763300Y-64700050D03*
%TD*%
D10*
%TO.C,H2*%
X122763300Y-64600050D03*
D11*
X122763300Y-64600050D03*
%TD*%
D12*
%TO.C,J2*%
X164723300Y-94815050D03*
D13*
X164723300Y-97585050D03*
X164723300Y-100355050D03*
X164723300Y-103125050D03*
X164723300Y-105895050D03*
X167563300Y-96200050D03*
X167563300Y-98970050D03*
X167563300Y-101740050D03*
X167563300Y-104510050D03*
D14*
X166143300Y-112850050D03*
X166143300Y-87860050D03*
%TD*%
D15*
%TO.C,J4*%
X171663300Y-70500050D03*
D16*
X171663300Y-73040050D03*
X171663300Y-75580050D03*
X171663300Y-78120050D03*
%TD*%
D10*
%TO.C,H3*%
X171763300Y-122700050D03*
D11*
X171763300Y-122700050D03*
%TD*%
D12*
%TO.C,J3*%
X152249050Y-123502550D03*
D13*
X149479050Y-123502550D03*
X146709050Y-123502550D03*
X143939050Y-123502550D03*
X141169050Y-123502550D03*
X150864050Y-126342550D03*
X148094050Y-126342550D03*
X145324050Y-126342550D03*
X142554050Y-126342550D03*
D14*
X134214050Y-124922550D03*
X159204050Y-124922550D03*
%TD*%
D10*
%TO.C,H1*%
X122763300Y-122600050D03*
D11*
X122763300Y-122600050D03*
%TD*%
D17*
%TO.C,J6*%
X171008404Y-54505051D03*
X124208396Y-54505051D03*
D18*
X159488399Y-56650050D03*
X157328401Y-56650050D03*
X155168400Y-56650050D03*
X153008399Y-56650050D03*
X150848401Y-56650050D03*
X148688400Y-56650050D03*
X146528400Y-56650050D03*
X144368399Y-56650050D03*
X142208401Y-56650050D03*
X140048400Y-56650050D03*
X137888399Y-56650050D03*
X135728401Y-56650050D03*
X159488399Y-52360051D03*
X157328401Y-52360051D03*
X155168400Y-52360051D03*
X153008399Y-52360051D03*
X150848401Y-52360051D03*
X148688400Y-52360051D03*
X146528400Y-52360051D03*
X144368399Y-52360051D03*
X142208401Y-52360051D03*
X140048400Y-52360051D03*
X137888399Y-52360051D03*
X135728401Y-52360051D03*
%TD*%
D15*
%TO.C,J1*%
X124029500Y-117706850D03*
D16*
X121489500Y-117706850D03*
X124029500Y-115166850D03*
X121489500Y-115166850D03*
X124029500Y-112626850D03*
X121489500Y-112626850D03*
X124029500Y-110086850D03*
X121489500Y-110086850D03*
X124029500Y-107546850D03*
X121489500Y-107546850D03*
X124029500Y-105006850D03*
X121489500Y-105006850D03*
X124029500Y-102466850D03*
X121489500Y-102466850D03*
X124029500Y-99926850D03*
X121489500Y-99926850D03*
X124029500Y-97386850D03*
X121489500Y-97386850D03*
X124029500Y-94846850D03*
X121489500Y-94846850D03*
X124029500Y-92306850D03*
X121489500Y-92306850D03*
X124029500Y-89766850D03*
X121489500Y-89766850D03*
X124029500Y-87226850D03*
X121489500Y-87226850D03*
X124029500Y-84686850D03*
X121489500Y-84686850D03*
X124029500Y-82146850D03*
X121489500Y-82146850D03*
X124029500Y-79606850D03*
X121489500Y-79606850D03*
X124029500Y-77066850D03*
X121489500Y-77066850D03*
X124029500Y-74526850D03*
X121489500Y-74526850D03*
X124029500Y-71986850D03*
X121489500Y-71986850D03*
X124029500Y-69446850D03*
X121489500Y-69446850D03*
%TD*%
M02*
