%TF.GenerationSoftware,KiCad,Pcbnew,9.0.0*%
%TF.CreationDate,2025-03-08T15:00:36-07:00*%
%TF.ProjectId,Senior Capstone,53656e69-6f72-4204-9361-7073746f6e65,rev?*%
%TF.SameCoordinates,Original*%
%TF.FileFunction,Copper,L2,Bot*%
%TF.FilePolarity,Positive*%
%FSLAX46Y46*%
G04 Gerber Fmt 4.6, Leading zero omitted, Abs format (unit mm)*
G04 Created by KiCad (PCBNEW 9.0.0) date 2025-03-08 15:00:36*
%MOMM*%
%LPD*%
G01*
G04 APERTURE LIST*
%TA.AperFunction,ComponentPad*%
%ADD10C,1.498600*%
%TD*%
%TA.AperFunction,ComponentPad*%
%ADD11R,1.575000X1.575000*%
%TD*%
%TA.AperFunction,ComponentPad*%
%ADD12C,1.575000*%
%TD*%
%TA.AperFunction,ComponentPad*%
%ADD13C,4.116000*%
%TD*%
%TA.AperFunction,ComponentPad*%
%ADD14R,1.700000X1.700000*%
%TD*%
%TA.AperFunction,ComponentPad*%
%ADD15O,1.700000X1.700000*%
%TD*%
%TA.AperFunction,ViaPad*%
%ADD16C,0.600000*%
%TD*%
%TA.AperFunction,Conductor*%
%ADD17C,0.200000*%
%TD*%
%TA.AperFunction,Conductor*%
%ADD18C,0.750000*%
%TD*%
G04 APERTURE END LIST*
D10*
%TO.P,J6,1,DIO1*%
%TO.N,/GPIB/DIO1*%
X82525099Y-56850000D03*
%TO.P,J6,2,DIO2*%
%TO.N,/GPIB/DIO2*%
X80365101Y-56850000D03*
%TO.P,J6,3,DIO3*%
%TO.N,/GPIB/DIO3*%
X78205100Y-56850000D03*
%TO.P,J6,4,DIO4*%
%TO.N,/GPIB/DIO4*%
X76045099Y-56850000D03*
%TO.P,J6,5,EOI*%
%TO.N,/GPIB/EOI*%
X73885101Y-56850000D03*
%TO.P,J6,6,DAV*%
%TO.N,/GPIB/DAV*%
X71725100Y-56850000D03*
%TO.P,J6,7,NRFD*%
%TO.N,/GPIB/NFRD*%
X69565100Y-56850000D03*
%TO.P,J6,8,NDAC*%
%TO.N,/GPIB/NDAC*%
X67405099Y-56850000D03*
%TO.P,J6,9,IFC*%
%TO.N,/GPIB/IFC*%
X65245101Y-56850000D03*
%TO.P,J6,10,SRQ*%
%TO.N,/GPIB/SRQ*%
X63085100Y-56850000D03*
%TO.P,J6,11,ATN*%
%TO.N,/GPIB/ATN*%
X60925099Y-56850000D03*
%TO.P,J6,12,SHLD*%
%TO.N,GND*%
X58765101Y-56850000D03*
%TO.P,J6,13,DIO5*%
%TO.N,/GPIB/DIO5*%
X82525099Y-52560001D03*
%TO.P,J6,14,DIO6*%
%TO.N,/GPIB/DIO6*%
X80365101Y-52560001D03*
%TO.P,J6,15,DIO7*%
%TO.N,/GPIB/DIO7*%
X78205100Y-52560001D03*
%TO.P,J6,16,DIO8*%
%TO.N,/GPIB/DIO8*%
X76045099Y-52560001D03*
%TO.P,J6,17,REN*%
%TO.N,/GPIB/REN*%
X73885101Y-52560001D03*
%TO.P,J6,18,GND*%
%TO.N,GND*%
X71725100Y-52560001D03*
%TO.P,J6,19,GND*%
X69565100Y-52560001D03*
%TO.P,J6,20,GND*%
X67405099Y-52560001D03*
%TO.P,J6,21,GND*%
X65245101Y-52560001D03*
%TO.P,J6,22,GND*%
X63085100Y-52560001D03*
%TO.P,J6,23,GND*%
X60925099Y-52560001D03*
%TO.P,J6,24,GND*%
X58765101Y-52560001D03*
%TD*%
D11*
%TO.P,J2,01,01*%
%TO.N,unconnected-(J2-Pad01)*%
X87760000Y-97015000D03*
D12*
%TO.P,J2,02,02*%
%TO.N,/TX1*%
X87760000Y-99785000D03*
%TO.P,J2,03,03*%
%TO.N,/RX1*%
X87760000Y-102555000D03*
%TO.P,J2,04,04*%
%TO.N,unconnected-(J2-Pad04)*%
X87760000Y-105325000D03*
%TO.P,J2,05,05*%
%TO.N,GND*%
X87760000Y-108095000D03*
%TO.P,J2,06,06*%
%TO.N,unconnected-(J2-Pad06)*%
X90600000Y-98400000D03*
%TO.P,J2,07,07*%
%TO.N,unconnected-(J2-Pad07)*%
X90600000Y-101170000D03*
%TO.P,J2,08,08*%
%TO.N,unconnected-(J2-Pad08)*%
X90600000Y-103940000D03*
%TO.P,J2,09,09*%
%TO.N,unconnected-(J2-Pad09)*%
X90600000Y-106710000D03*
D13*
%TO.P,J2,S1,SHIELD*%
%TO.N,GND*%
X89180000Y-115050000D03*
%TO.P,J2,S2,SHIELD*%
X89180000Y-90060000D03*
%TD*%
D14*
%TO.P,J4,1,Pin_1*%
%TO.N,+3V3*%
X94700000Y-70700000D03*
D15*
%TO.P,J4,2,Pin_2*%
%TO.N,/GPIO14{slash}TXD0*%
X94700000Y-73240000D03*
%TO.P,J4,3,Pin_3*%
%TO.N,/GPIO15{slash}RXD0*%
X94700000Y-75780000D03*
%TO.P,J4,4,Pin_4*%
%TO.N,GND*%
X94700000Y-78320000D03*
%TD*%
D11*
%TO.P,J3,01,01*%
%TO.N,unconnected-(J3-Pad01)*%
X75285750Y-123702500D03*
D12*
%TO.P,J3,02,02*%
%TO.N,/TX2*%
X72515750Y-123702500D03*
%TO.P,J3,03,03*%
%TO.N,/RX2*%
X69745750Y-123702500D03*
%TO.P,J3,04,04*%
%TO.N,unconnected-(J3-Pad04)*%
X66975750Y-123702500D03*
%TO.P,J3,05,05*%
%TO.N,GND*%
X64205750Y-123702500D03*
%TO.P,J3,06,06*%
%TO.N,unconnected-(J3-Pad06)*%
X73900750Y-126542500D03*
%TO.P,J3,07,07*%
%TO.N,unconnected-(J3-Pad07)*%
X71130750Y-126542500D03*
%TO.P,J3,08,08*%
%TO.N,unconnected-(J3-Pad08)*%
X68360750Y-126542500D03*
%TO.P,J3,09,09*%
%TO.N,unconnected-(J3-Pad09)*%
X65590750Y-126542500D03*
D13*
%TO.P,J3,S1,SHIELD*%
%TO.N,GND*%
X57250750Y-125122500D03*
%TO.P,J3,S2,SHIELD*%
X82240750Y-125122500D03*
%TD*%
D14*
%TO.P,J1,1,Pin_1*%
%TO.N,+3V3*%
X44500000Y-117900000D03*
D15*
%TO.P,J1,2,Pin_2*%
%TO.N,+5V*%
X47040000Y-117900000D03*
%TO.P,J1,3,Pin_3*%
%TO.N,/GPIO2{slash}SDA1*%
X44500000Y-115360000D03*
%TO.P,J1,4,Pin_4*%
%TO.N,+5V*%
X47040000Y-115360000D03*
%TO.P,J1,5,Pin_5*%
%TO.N,/GPIO3{slash}SCL1*%
X44500000Y-112820000D03*
%TO.P,J1,6,Pin_6*%
%TO.N,GND*%
X47040000Y-112820000D03*
%TO.P,J1,7,Pin_7*%
%TO.N,/GPIO4{slash}GPCLK0*%
X44500000Y-110280000D03*
%TO.P,J1,8,Pin_8*%
%TO.N,/GPIO14{slash}TXD0*%
X47040000Y-110280000D03*
%TO.P,J1,9,Pin_9*%
%TO.N,GND*%
X44500000Y-107740000D03*
%TO.P,J1,10,Pin_10*%
%TO.N,/GPIO15{slash}RXD0*%
X47040000Y-107740000D03*
%TO.P,J1,11,Pin_11*%
%TO.N,/GPIO17*%
X44500000Y-105200000D03*
%TO.P,J1,12,Pin_12*%
%TO.N,TE*%
X47040000Y-105200000D03*
%TO.P,J1,13,Pin_13*%
%TO.N,GPIB_REN*%
X44500000Y-102660000D03*
%TO.P,J1,14,Pin_14*%
%TO.N,GND*%
X47040000Y-102660000D03*
%TO.P,J1,15,Pin_15*%
%TO.N,GPIB_IFC*%
X44500000Y-100120000D03*
%TO.P,J1,16,Pin_16*%
%TO.N,GPIB_NDAC*%
X47040000Y-100120000D03*
%TO.P,J1,17,Pin_17*%
%TO.N,+3V3*%
X44500000Y-97580000D03*
%TO.P,J1,18,Pin_18*%
%TO.N,GPIB_NRFD*%
X47040000Y-97580000D03*
%TO.P,J1,19,Pin_19*%
%TO.N,GPIB_DAV*%
X44500000Y-95040000D03*
%TO.P,J1,20,Pin_20*%
%TO.N,GND*%
X47040000Y-95040000D03*
%TO.P,J1,21,Pin_21*%
%TO.N,GPIB_EOI*%
X44500000Y-92500000D03*
%TO.P,J1,22,Pin_22*%
%TO.N,GPIB_ATN*%
X47040000Y-92500000D03*
%TO.P,J1,23,Pin_23*%
%TO.N,GPIB_SRQ*%
X44500000Y-89960000D03*
%TO.P,J1,24,Pin_24*%
%TO.N,DC*%
X47040000Y-89960000D03*
%TO.P,J1,25,Pin_25*%
%TO.N,GND*%
X44500000Y-87420000D03*
%TO.P,J1,26,Pin_26*%
%TO.N,/GPIO7{slash}SPI0.CE1*%
X47040000Y-87420000D03*
%TO.P,J1,27,Pin_27*%
%TO.N,/ID_SDA*%
X44500000Y-84880000D03*
%TO.P,J1,28,Pin_28*%
%TO.N,/ID_SCL*%
X47040000Y-84880000D03*
%TO.P,J1,29,Pin_29*%
%TO.N,GPIB_DIO8*%
X44500000Y-82340000D03*
%TO.P,J1,30,Pin_30*%
%TO.N,GND*%
X47040000Y-82340000D03*
%TO.P,J1,31,Pin_31*%
%TO.N,GPIB_DIO7*%
X44500000Y-79800000D03*
%TO.P,J1,32,Pin_32*%
%TO.N,GPIB_DIO6*%
X47040000Y-79800000D03*
%TO.P,J1,33,Pin_33*%
%TO.N,GPIB_DIO5*%
X44500000Y-77260000D03*
%TO.P,J1,34,Pin_34*%
%TO.N,GND*%
X47040000Y-77260000D03*
%TO.P,J1,35,Pin_35*%
%TO.N,GPIB_DIO4*%
X44500000Y-74720000D03*
%TO.P,J1,36,Pin_36*%
%TO.N,GPIB_DIO3*%
X47040000Y-74720000D03*
%TO.P,J1,37,Pin_37*%
%TO.N,GPIB_DIO2*%
X44500000Y-72180000D03*
%TO.P,J1,38,Pin_38*%
%TO.N,GPIB_DIO1*%
X47040000Y-72180000D03*
%TO.P,J1,39,Pin_39*%
%TO.N,GND*%
X44500000Y-69640000D03*
%TO.P,J1,40,Pin_40*%
%TO.N,/GPIO21{slash}PCM.DOUT*%
X47040000Y-69640000D03*
%TD*%
D16*
%TO.N,GND*%
X87380000Y-72880000D03*
X54250000Y-109600000D03*
X59450000Y-99000000D03*
X67950000Y-120800000D03*
X70925000Y-106450000D03*
X61225000Y-110725000D03*
X83900000Y-98000000D03*
X55575000Y-106400000D03*
X74350000Y-120750000D03*
X53044600Y-69367400D03*
X68030600Y-69367400D03*
X83900000Y-104400000D03*
X70407053Y-95625001D03*
X87370000Y-75900000D03*
%TO.N,/GPIO14{slash}TXD0*%
X89170000Y-73500000D03*
%TO.N,/GPIO15{slash}RXD0*%
X48791000Y-107700000D03*
X89170000Y-75280000D03*
%TO.N,TE*%
X79465000Y-69360000D03*
X64474600Y-69342000D03*
%TO.N,+5V*%
X51231800Y-104495600D03*
X68175000Y-91075000D03*
X79465000Y-78640000D03*
X64465000Y-78640000D03*
%TO.N,/RX2*%
X63800000Y-99575000D03*
X69832655Y-117467345D03*
%TO.N,/TX2*%
X64800000Y-98875000D03*
X70432655Y-116686236D03*
%TO.N,/GPIB/SRQ*%
X54365400Y-67614800D03*
%TD*%
D17*
%TO.N,/GPIO14{slash}TXD0*%
X90470000Y-73240000D02*
X94700000Y-73240000D01*
X89170000Y-73500000D02*
X90210000Y-73500000D01*
X90210000Y-73500000D02*
X90470000Y-73240000D01*
%TO.N,/GPIO15{slash}RXD0*%
X90740000Y-75780000D02*
X94700000Y-75780000D01*
X90240000Y-75280000D02*
X90740000Y-75780000D01*
X48791000Y-107700000D02*
X47080000Y-107700000D01*
X47080000Y-107700000D02*
X47040000Y-107740000D01*
X89170000Y-75280000D02*
X90240000Y-75280000D01*
%TO.N,TE*%
X65050200Y-68766400D02*
X78871400Y-68766400D01*
X50555800Y-85368792D02*
X50555800Y-101684200D01*
X78871400Y-68766400D02*
X79465000Y-69360000D01*
X63763400Y-80441800D02*
X63626600Y-80578600D01*
X56421400Y-80578600D02*
X55345992Y-80578600D01*
X63763400Y-70053200D02*
X63763400Y-80441800D01*
X64474600Y-69342000D02*
X63763400Y-70053200D01*
X64474600Y-69342000D02*
X65050200Y-68766400D01*
X63626600Y-80578600D02*
X56421400Y-80578600D01*
X50555800Y-101684200D02*
X47040000Y-105200000D01*
X55345992Y-80578600D02*
X50555800Y-85368792D01*
D18*
%TO.N,+5V*%
X51231800Y-104495600D02*
X51231800Y-85648800D01*
X47040000Y-117900000D02*
X47040000Y-115360000D01*
X77900000Y-81254600D02*
X78901800Y-81254600D01*
X51231800Y-85648800D02*
X55626000Y-81254600D01*
X64576200Y-81254600D02*
X64576200Y-78751200D01*
X79465000Y-80691400D02*
X79465000Y-78640000D01*
X68175000Y-81254600D02*
X68175000Y-91075000D01*
X64576200Y-81254600D02*
X69175000Y-81254600D01*
X78901800Y-81254600D02*
X79465000Y-80691400D01*
X55626000Y-81254600D02*
X64576200Y-81254600D01*
X69175000Y-81254600D02*
X77900000Y-81254600D01*
X64576200Y-78751200D02*
X64465000Y-78640000D01*
D17*
%TO.N,/RX2*%
X65548309Y-108448309D02*
X65149997Y-108049997D01*
X65917696Y-108817696D02*
X65900366Y-108817696D01*
X65149997Y-99999997D02*
X64725000Y-99575000D01*
X65900366Y-108817696D02*
X65548309Y-108465639D01*
X65548309Y-108465639D02*
X65548309Y-108448309D01*
X64725000Y-99575000D02*
X63800000Y-99575000D01*
X65149997Y-108049997D02*
X65149997Y-99999997D01*
X69832655Y-117467345D02*
X69832655Y-112732655D01*
X69832655Y-112732655D02*
X65917696Y-108817696D01*
%TO.N,/TX2*%
X65550997Y-107875997D02*
X65550997Y-99375997D01*
X65050000Y-98875000D02*
X64800000Y-98875000D01*
X70432655Y-112757655D02*
X65550997Y-107875997D01*
X65550997Y-99375997D02*
X65050000Y-98875000D01*
X70432655Y-116686236D02*
X70432655Y-112757655D01*
%TO.N,/GPIB/SRQ*%
X54365400Y-67614800D02*
X54898800Y-67614800D01*
X54898800Y-67614800D02*
X63085100Y-59428500D01*
X63085100Y-59428500D02*
X63085100Y-56850000D01*
%TD*%
%TA.AperFunction,Conductor*%
%TO.N,GND*%
G36*
X98500592Y-35873835D02*
G01*
X98567620Y-35893548D01*
X98613353Y-35946371D01*
X98624537Y-35997803D01*
X98649468Y-133475468D01*
X98629801Y-133542513D01*
X98577008Y-133588281D01*
X98525468Y-133599500D01*
X42774500Y-133599500D01*
X42707461Y-133579815D01*
X42661706Y-133527011D01*
X42650500Y-133475500D01*
X42650500Y-124978839D01*
X54692750Y-124978839D01*
X54692750Y-125266160D01*
X54724915Y-125551641D01*
X54724918Y-125551659D01*
X54788849Y-125831760D01*
X54788853Y-125831772D01*
X54883743Y-126102950D01*
X54883746Y-126102958D01*
X55008396Y-126361797D01*
X55161257Y-126605072D01*
X55273665Y-126746029D01*
X55992293Y-126027401D01*
X56068476Y-126132257D01*
X56240993Y-126304774D01*
X56345847Y-126380955D01*
X55627219Y-127099583D01*
X55768177Y-127211992D01*
X56011452Y-127364853D01*
X56270291Y-127489503D01*
X56270299Y-127489506D01*
X56541477Y-127584396D01*
X56541489Y-127584400D01*
X56821590Y-127648331D01*
X56821608Y-127648334D01*
X57107089Y-127680499D01*
X57107093Y-127680500D01*
X57394407Y-127680500D01*
X57394410Y-127680499D01*
X57679891Y-127648334D01*
X57679909Y-127648331D01*
X57960010Y-127584400D01*
X57960022Y-127584396D01*
X58231200Y-127489506D01*
X58231208Y-127489503D01*
X58490047Y-127364853D01*
X58733322Y-127211993D01*
X58874279Y-127099582D01*
X58155652Y-126380955D01*
X58260507Y-126304774D01*
X58433024Y-126132257D01*
X58509205Y-126027402D01*
X59227832Y-126746029D01*
X59340243Y-126605072D01*
X59443254Y-126441132D01*
X64302750Y-126441132D01*
X64302750Y-126643867D01*
X64334465Y-126844108D01*
X64397111Y-127036917D01*
X64397112Y-127036920D01*
X64429041Y-127099583D01*
X64486316Y-127211992D01*
X64489155Y-127217562D01*
X64608312Y-127381569D01*
X64608316Y-127381574D01*
X64751675Y-127524933D01*
X64751680Y-127524937D01*
X64833519Y-127584396D01*
X64915691Y-127644097D01*
X65033776Y-127704264D01*
X65096329Y-127736137D01*
X65096332Y-127736138D01*
X65192736Y-127767461D01*
X65289143Y-127798785D01*
X65489382Y-127830500D01*
X65489383Y-127830500D01*
X65692117Y-127830500D01*
X65692118Y-127830500D01*
X65892357Y-127798785D01*
X66085170Y-127736137D01*
X66265809Y-127644097D01*
X66429826Y-127524932D01*
X66573182Y-127381576D01*
X66692347Y-127217559D01*
X66784387Y-127036920D01*
X66847035Y-126844107D01*
X66853277Y-126804697D01*
X66883206Y-126741563D01*
X66942517Y-126704631D01*
X67012380Y-126705629D01*
X67070613Y-126744239D01*
X67098223Y-126804697D01*
X67104465Y-126844108D01*
X67167111Y-127036917D01*
X67167112Y-127036920D01*
X67199041Y-127099583D01*
X67256316Y-127211992D01*
X67259155Y-127217562D01*
X67378312Y-127381569D01*
X67378316Y-127381574D01*
X67521675Y-127524933D01*
X67521680Y-127524937D01*
X67603519Y-127584396D01*
X67685691Y-127644097D01*
X67803776Y-127704264D01*
X67866329Y-127736137D01*
X67866332Y-127736138D01*
X67962736Y-127767461D01*
X68059143Y-127798785D01*
X68259382Y-127830500D01*
X68259383Y-127830500D01*
X68462117Y-127830500D01*
X68462118Y-127830500D01*
X68662357Y-127798785D01*
X68855170Y-127736137D01*
X69035809Y-127644097D01*
X69199826Y-127524932D01*
X69343182Y-127381576D01*
X69462347Y-127217559D01*
X69554387Y-127036920D01*
X69617035Y-126844107D01*
X69623277Y-126804697D01*
X69653206Y-126741563D01*
X69712517Y-126704631D01*
X69782380Y-126705629D01*
X69840613Y-126744239D01*
X69868223Y-126804697D01*
X69874465Y-126844108D01*
X69937111Y-127036917D01*
X69937112Y-127036920D01*
X69969041Y-127099583D01*
X70026316Y-127211992D01*
X70029155Y-127217562D01*
X70148312Y-127381569D01*
X70148316Y-127381574D01*
X70291675Y-127524933D01*
X70291680Y-127524937D01*
X70373519Y-127584396D01*
X70455691Y-127644097D01*
X70573776Y-127704264D01*
X70636329Y-127736137D01*
X70636332Y-127736138D01*
X70732736Y-127767461D01*
X70829143Y-127798785D01*
X71029382Y-127830500D01*
X71029383Y-127830500D01*
X71232117Y-127830500D01*
X71232118Y-127830500D01*
X71432357Y-127798785D01*
X71625170Y-127736137D01*
X71805809Y-127644097D01*
X71969826Y-127524932D01*
X72113182Y-127381576D01*
X72232347Y-127217559D01*
X72324387Y-127036920D01*
X72387035Y-126844107D01*
X72393277Y-126804697D01*
X72423206Y-126741563D01*
X72482517Y-126704631D01*
X72552380Y-126705629D01*
X72610613Y-126744239D01*
X72638223Y-126804697D01*
X72644465Y-126844108D01*
X72707111Y-127036917D01*
X72707112Y-127036920D01*
X72739041Y-127099583D01*
X72796316Y-127211992D01*
X72799155Y-127217562D01*
X72918312Y-127381569D01*
X72918316Y-127381574D01*
X73061675Y-127524933D01*
X73061680Y-127524937D01*
X73143519Y-127584396D01*
X73225691Y-127644097D01*
X73343776Y-127704264D01*
X73406329Y-127736137D01*
X73406332Y-127736138D01*
X73502736Y-127767461D01*
X73599143Y-127798785D01*
X73799382Y-127830500D01*
X73799383Y-127830500D01*
X74002117Y-127830500D01*
X74002118Y-127830500D01*
X74202357Y-127798785D01*
X74395170Y-127736137D01*
X74575809Y-127644097D01*
X74739826Y-127524932D01*
X74883182Y-127381576D01*
X75002347Y-127217559D01*
X75094387Y-127036920D01*
X75094389Y-127036914D01*
X75102218Y-127012820D01*
X75102218Y-127012819D01*
X75114894Y-126973804D01*
X75157035Y-126844107D01*
X75188750Y-126643868D01*
X75188750Y-126441132D01*
X75157035Y-126240893D01*
X75094387Y-126048080D01*
X75094387Y-126048079D01*
X75036707Y-125934877D01*
X75002347Y-125867441D01*
X74976423Y-125831760D01*
X74883187Y-125703430D01*
X74883183Y-125703425D01*
X74739824Y-125560066D01*
X74739819Y-125560062D01*
X74575812Y-125440905D01*
X74575811Y-125440904D01*
X74575809Y-125440903D01*
X74517936Y-125411415D01*
X74395170Y-125348862D01*
X74395167Y-125348861D01*
X74202358Y-125286215D01*
X74102237Y-125270357D01*
X74002118Y-125254500D01*
X73799382Y-125254500D01*
X73732635Y-125265071D01*
X73599141Y-125286215D01*
X73406332Y-125348861D01*
X73406329Y-125348862D01*
X73225687Y-125440905D01*
X73061680Y-125560062D01*
X73061675Y-125560066D01*
X72918316Y-125703425D01*
X72918312Y-125703430D01*
X72799155Y-125867437D01*
X72707112Y-126048079D01*
X72707111Y-126048082D01*
X72644465Y-126240891D01*
X72638223Y-126280302D01*
X72608294Y-126343437D01*
X72548982Y-126380368D01*
X72479120Y-126379370D01*
X72420887Y-126340760D01*
X72393277Y-126280302D01*
X72391993Y-126272199D01*
X72387035Y-126240893D01*
X72324387Y-126048080D01*
X72324387Y-126048079D01*
X72266707Y-125934877D01*
X72232347Y-125867441D01*
X72206423Y-125831760D01*
X72113187Y-125703430D01*
X72113183Y-125703425D01*
X71969824Y-125560066D01*
X71969819Y-125560062D01*
X71805812Y-125440905D01*
X71805811Y-125440904D01*
X71805809Y-125440903D01*
X71747936Y-125411415D01*
X71625170Y-125348862D01*
X71625167Y-125348861D01*
X71432358Y-125286215D01*
X71332237Y-125270357D01*
X71232118Y-125254500D01*
X71029382Y-125254500D01*
X70962635Y-125265071D01*
X70829141Y-125286215D01*
X70636332Y-125348861D01*
X70636329Y-125348862D01*
X70455687Y-125440905D01*
X70291680Y-125560062D01*
X70291675Y-125560066D01*
X70148316Y-125703425D01*
X70148312Y-125703430D01*
X70029155Y-125867437D01*
X69937112Y-126048079D01*
X69937111Y-126048082D01*
X69874465Y-126240891D01*
X69868223Y-126280302D01*
X69838294Y-126343437D01*
X69778982Y-126380368D01*
X69709120Y-126379370D01*
X69650887Y-126340760D01*
X69623277Y-126280302D01*
X69621993Y-126272199D01*
X69617035Y-126240893D01*
X69554387Y-126048080D01*
X69554387Y-126048079D01*
X69496707Y-125934877D01*
X69462347Y-125867441D01*
X69436423Y-125831760D01*
X69343187Y-125703430D01*
X69343183Y-125703425D01*
X69199824Y-125560066D01*
X69199819Y-125560062D01*
X69035812Y-125440905D01*
X69035811Y-125440904D01*
X69035809Y-125440903D01*
X68977936Y-125411415D01*
X68855170Y-125348862D01*
X68855167Y-125348861D01*
X68662358Y-125286215D01*
X68562237Y-125270357D01*
X68462118Y-125254500D01*
X68259382Y-125254500D01*
X68192635Y-125265071D01*
X68059141Y-125286215D01*
X67866332Y-125348861D01*
X67866329Y-125348862D01*
X67685687Y-125440905D01*
X67521680Y-125560062D01*
X67521675Y-125560066D01*
X67378316Y-125703425D01*
X67378312Y-125703430D01*
X67259155Y-125867437D01*
X67167112Y-126048079D01*
X67167111Y-126048082D01*
X67104465Y-126240891D01*
X67098223Y-126280302D01*
X67068294Y-126343437D01*
X67008982Y-126380368D01*
X66939120Y-126379370D01*
X66880887Y-126340760D01*
X66853277Y-126280302D01*
X66851993Y-126272199D01*
X66847035Y-126240893D01*
X66784387Y-126048080D01*
X66784387Y-126048079D01*
X66726707Y-125934877D01*
X66692347Y-125867441D01*
X66666423Y-125831760D01*
X66573187Y-125703430D01*
X66573183Y-125703425D01*
X66429824Y-125560066D01*
X66429819Y-125560062D01*
X66265812Y-125440905D01*
X66265811Y-125440904D01*
X66265809Y-125440903D01*
X66207936Y-125411415D01*
X66085170Y-125348862D01*
X66085167Y-125348861D01*
X65892358Y-125286215D01*
X65792237Y-125270357D01*
X65692118Y-125254500D01*
X65489382Y-125254500D01*
X65422635Y-125265071D01*
X65289141Y-125286215D01*
X65096332Y-125348861D01*
X65096329Y-125348862D01*
X64915687Y-125440905D01*
X64751680Y-125560062D01*
X64751675Y-125560066D01*
X64608316Y-125703425D01*
X64608312Y-125703430D01*
X64489155Y-125867437D01*
X64397112Y-126048079D01*
X64397111Y-126048082D01*
X64334465Y-126240891D01*
X64302750Y-126441132D01*
X59443254Y-126441132D01*
X59487768Y-126370288D01*
X59487769Y-126370286D01*
X59487770Y-126370285D01*
X59493103Y-126361797D01*
X59617753Y-126102958D01*
X59617756Y-126102950D01*
X59712646Y-125831772D01*
X59712650Y-125831760D01*
X59776581Y-125551659D01*
X59776584Y-125551641D01*
X59808749Y-125266160D01*
X59808750Y-125266156D01*
X59808750Y-124978843D01*
X59808749Y-124978839D01*
X59781800Y-124739649D01*
X59776583Y-124693356D01*
X59776581Y-124693340D01*
X59712650Y-124413239D01*
X59712646Y-124413227D01*
X59617756Y-124142049D01*
X59617753Y-124142041D01*
X59493103Y-123883202D01*
X59354283Y-123662272D01*
X59340242Y-123639927D01*
X59309336Y-123601172D01*
X62918250Y-123601172D01*
X62918250Y-123803827D01*
X62949953Y-124003991D01*
X63012575Y-124196725D01*
X63012577Y-124196728D01*
X63104581Y-124377297D01*
X63135223Y-124419471D01*
X63135224Y-124419472D01*
X63702374Y-123852321D01*
X63716528Y-123905142D01*
X63785646Y-124024857D01*
X63883393Y-124122604D01*
X64003108Y-124191722D01*
X64055928Y-124205875D01*
X63488776Y-124773025D01*
X63530952Y-124803668D01*
X63711521Y-124895672D01*
X63711524Y-124895674D01*
X63904258Y-124958296D01*
X64104423Y-124990000D01*
X64307077Y-124990000D01*
X64507241Y-124958296D01*
X64699975Y-124895674D01*
X64699978Y-124895672D01*
X64880547Y-124803668D01*
X64922721Y-124773026D01*
X64922721Y-124773025D01*
X64355571Y-124205875D01*
X64408392Y-124191722D01*
X64528107Y-124122604D01*
X64625854Y-124024857D01*
X64694972Y-123905142D01*
X64709125Y-123852321D01*
X65276275Y-124419471D01*
X65276276Y-124419471D01*
X65306918Y-124377297D01*
X65398922Y-124196728D01*
X65398924Y-124196725D01*
X65461545Y-124003995D01*
X65468022Y-123963100D01*
X65497951Y-123899965D01*
X65557262Y-123863033D01*
X65627124Y-123864029D01*
X65685358Y-123902638D01*
X65712969Y-123963096D01*
X65719465Y-124004109D01*
X65782111Y-124196917D01*
X65782112Y-124196920D01*
X65874155Y-124377562D01*
X65993312Y-124541569D01*
X65993316Y-124541574D01*
X66136675Y-124684933D01*
X66136680Y-124684937D01*
X66257924Y-124773025D01*
X66300691Y-124804097D01*
X66385959Y-124847543D01*
X66481329Y-124896137D01*
X66481332Y-124896138D01*
X66577736Y-124927461D01*
X66674143Y-124958785D01*
X66874382Y-124990500D01*
X66874383Y-124990500D01*
X67077117Y-124990500D01*
X67077118Y-124990500D01*
X67277357Y-124958785D01*
X67470170Y-124896137D01*
X67650809Y-124804097D01*
X67814826Y-124684932D01*
X67958182Y-124541576D01*
X68077347Y-124377559D01*
X68169387Y-124196920D01*
X68232035Y-124004107D01*
X68238277Y-123964697D01*
X68268206Y-123901563D01*
X68327517Y-123864631D01*
X68397380Y-123865629D01*
X68455613Y-123904239D01*
X68483223Y-123964697D01*
X68489465Y-124004108D01*
X68552111Y-124196917D01*
X68552112Y-124196920D01*
X68644155Y-124377562D01*
X68763312Y-124541569D01*
X68763316Y-124541574D01*
X68906675Y-124684933D01*
X68906680Y-124684937D01*
X69027924Y-124773025D01*
X69070691Y-124804097D01*
X69155959Y-124847543D01*
X69251329Y-124896137D01*
X69251332Y-124896138D01*
X69347736Y-124927461D01*
X69444143Y-124958785D01*
X69644382Y-124990500D01*
X69644383Y-124990500D01*
X69847117Y-124990500D01*
X69847118Y-124990500D01*
X70047357Y-124958785D01*
X70240170Y-124896137D01*
X70420809Y-124804097D01*
X70584826Y-124684932D01*
X70728182Y-124541576D01*
X70847347Y-124377559D01*
X70939387Y-124196920D01*
X71002035Y-124004107D01*
X71008277Y-123964697D01*
X71038206Y-123901563D01*
X71097517Y-123864631D01*
X71167380Y-123865629D01*
X71225613Y-123904239D01*
X71253223Y-123964697D01*
X71259465Y-124004108D01*
X71322111Y-124196917D01*
X71322112Y-124196920D01*
X71414155Y-124377562D01*
X71533312Y-124541569D01*
X71533316Y-124541574D01*
X71676675Y-124684933D01*
X71676680Y-124684937D01*
X71797924Y-124773025D01*
X71840691Y-124804097D01*
X71925959Y-124847543D01*
X72021329Y-124896137D01*
X72021332Y-124896138D01*
X72117736Y-124927461D01*
X72214143Y-124958785D01*
X72414382Y-124990500D01*
X72414383Y-124990500D01*
X72617117Y-124990500D01*
X72617118Y-124990500D01*
X72817357Y-124958785D01*
X73010170Y-124896137D01*
X73190809Y-124804097D01*
X73354826Y-124684932D01*
X73498182Y-124541576D01*
X73617347Y-124377559D01*
X73709387Y-124196920D01*
X73755819Y-124054014D01*
X73795256Y-123996339D01*
X73859614Y-123969140D01*
X73928461Y-123981054D01*
X73979937Y-124028298D01*
X73997750Y-124092332D01*
X73997751Y-124537863D01*
X73997751Y-124537876D01*
X74004158Y-124597483D01*
X74054452Y-124732328D01*
X74054456Y-124732335D01*
X74140702Y-124847544D01*
X74140705Y-124847547D01*
X74255914Y-124933793D01*
X74255921Y-124933797D01*
X74390767Y-124984091D01*
X74390766Y-124984091D01*
X74397694Y-124984835D01*
X74450377Y-124990500D01*
X76121122Y-124990499D01*
X76180733Y-124984091D01*
X76194814Y-124978839D01*
X79682750Y-124978839D01*
X79682750Y-125266160D01*
X79714915Y-125551641D01*
X79714918Y-125551659D01*
X79778849Y-125831760D01*
X79778853Y-125831772D01*
X79873743Y-126102950D01*
X79873746Y-126102958D01*
X79998396Y-126361797D01*
X80151257Y-126605072D01*
X80263665Y-126746029D01*
X80982293Y-126027401D01*
X81058476Y-126132257D01*
X81230993Y-126304774D01*
X81335847Y-126380955D01*
X80617219Y-127099583D01*
X80758177Y-127211992D01*
X81001452Y-127364853D01*
X81260291Y-127489503D01*
X81260299Y-127489506D01*
X81531477Y-127584396D01*
X81531489Y-127584400D01*
X81811590Y-127648331D01*
X81811608Y-127648334D01*
X82097089Y-127680499D01*
X82097093Y-127680500D01*
X82384407Y-127680500D01*
X82384410Y-127680499D01*
X82669891Y-127648334D01*
X82669909Y-127648331D01*
X82950010Y-127584400D01*
X82950022Y-127584396D01*
X83221200Y-127489506D01*
X83221208Y-127489503D01*
X83480047Y-127364853D01*
X83723322Y-127211993D01*
X83864279Y-127099582D01*
X83145652Y-126380955D01*
X83250507Y-126304774D01*
X83423024Y-126132257D01*
X83499205Y-126027402D01*
X84217832Y-126746029D01*
X84330243Y-126605072D01*
X84483103Y-126361797D01*
X84607753Y-126102958D01*
X84607756Y-126102950D01*
X84702646Y-125831772D01*
X84702650Y-125831760D01*
X84766581Y-125551659D01*
X84766584Y-125551641D01*
X84798749Y-125266160D01*
X84798750Y-125266156D01*
X84798750Y-124978843D01*
X84798749Y-124978839D01*
X84766584Y-124693358D01*
X84766581Y-124693340D01*
X84702650Y-124413239D01*
X84702646Y-124413227D01*
X84607756Y-124142049D01*
X84607753Y-124142041D01*
X84483103Y-123883202D01*
X84330242Y-123639927D01*
X84217833Y-123498969D01*
X83499205Y-124217597D01*
X83423024Y-124112743D01*
X83250507Y-123940226D01*
X83145651Y-123864043D01*
X83864279Y-123145415D01*
X83723322Y-123033007D01*
X83480046Y-122880146D01*
X83259711Y-122774038D01*
X93199500Y-122774038D01*
X93199500Y-123025962D01*
X93226093Y-123193862D01*
X93238910Y-123274785D01*
X93316760Y-123514383D01*
X93380179Y-123638848D01*
X93412611Y-123702500D01*
X93431132Y-123738848D01*
X93579201Y-123942649D01*
X93579205Y-123942654D01*
X93757345Y-124120794D01*
X93757350Y-124120798D01*
X93862120Y-124196917D01*
X93961155Y-124268870D01*
X94042119Y-124310123D01*
X94185616Y-124383239D01*
X94185618Y-124383239D01*
X94185621Y-124383241D01*
X94425215Y-124461090D01*
X94674038Y-124500500D01*
X94674039Y-124500500D01*
X94925961Y-124500500D01*
X94925962Y-124500500D01*
X95174785Y-124461090D01*
X95414379Y-124383241D01*
X95638845Y-124268870D01*
X95842656Y-124120793D01*
X96020793Y-123942656D01*
X96168870Y-123738845D01*
X96283241Y-123514379D01*
X96361090Y-123274785D01*
X96400500Y-123025962D01*
X96400500Y-122774038D01*
X96361090Y-122525215D01*
X96283241Y-122285621D01*
X96283239Y-122285618D01*
X96283239Y-122285616D01*
X96241747Y-122204184D01*
X96168870Y-122061155D01*
X96096213Y-121961151D01*
X96020798Y-121857350D01*
X96020794Y-121857345D01*
X95842654Y-121679205D01*
X95842649Y-121679201D01*
X95638848Y-121531132D01*
X95638847Y-121531131D01*
X95638845Y-121531130D01*
X95568747Y-121495413D01*
X95414383Y-121416760D01*
X95174785Y-121338910D01*
X95034930Y-121316759D01*
X94925962Y-121299500D01*
X94674038Y-121299500D01*
X94565070Y-121316759D01*
X94425214Y-121338910D01*
X94185616Y-121416760D01*
X93961151Y-121531132D01*
X93757350Y-121679201D01*
X93757345Y-121679205D01*
X93579205Y-121857345D01*
X93579201Y-121857350D01*
X93431132Y-122061151D01*
X93316760Y-122285616D01*
X93244072Y-122509327D01*
X93238910Y-122525215D01*
X93199500Y-122774038D01*
X83259711Y-122774038D01*
X83221208Y-122755496D01*
X83221200Y-122755493D01*
X82950022Y-122660603D01*
X82950010Y-122660599D01*
X82669909Y-122596668D01*
X82669891Y-122596665D01*
X82384410Y-122564500D01*
X82097089Y-122564500D01*
X81811608Y-122596665D01*
X81811590Y-122596668D01*
X81531489Y-122660599D01*
X81531477Y-122660603D01*
X81260299Y-122755493D01*
X81260291Y-122755496D01*
X81001452Y-122880146D01*
X80758183Y-123033003D01*
X80617220Y-123145416D01*
X81335848Y-123864044D01*
X81230993Y-123940226D01*
X81058476Y-124112743D01*
X80982294Y-124217598D01*
X80263666Y-123498970D01*
X80151253Y-123639933D01*
X79998396Y-123883202D01*
X79873746Y-124142041D01*
X79873743Y-124142049D01*
X79778853Y-124413227D01*
X79778849Y-124413239D01*
X79714918Y-124693340D01*
X79714915Y-124693358D01*
X79682750Y-124978839D01*
X76194814Y-124978839D01*
X76315581Y-124933796D01*
X76430796Y-124847546D01*
X76517046Y-124732331D01*
X76567341Y-124597483D01*
X76573750Y-124537873D01*
X76573749Y-122867128D01*
X76567341Y-122807517D01*
X76547938Y-122755496D01*
X76517047Y-122672671D01*
X76517043Y-122672664D01*
X76430797Y-122557455D01*
X76430794Y-122557452D01*
X76315585Y-122471206D01*
X76315578Y-122471202D01*
X76180732Y-122420908D01*
X76180733Y-122420908D01*
X76121133Y-122414501D01*
X76121131Y-122414500D01*
X76121123Y-122414500D01*
X76121114Y-122414500D01*
X74450379Y-122414500D01*
X74450373Y-122414501D01*
X74390766Y-122420908D01*
X74255921Y-122471202D01*
X74255914Y-122471206D01*
X74140705Y-122557452D01*
X74140702Y-122557455D01*
X74054456Y-122672664D01*
X74054452Y-122672671D01*
X74004158Y-122807517D01*
X73998148Y-122863424D01*
X73997751Y-122867123D01*
X73997750Y-122867135D01*
X73997750Y-123312666D01*
X73978065Y-123379705D01*
X73925261Y-123425460D01*
X73856103Y-123435404D01*
X73792547Y-123406379D01*
X73755819Y-123350984D01*
X73709388Y-123208082D01*
X73709387Y-123208079D01*
X73677458Y-123145415D01*
X73617347Y-123027441D01*
X73586894Y-122985526D01*
X73498187Y-122863430D01*
X73498183Y-122863425D01*
X73354824Y-122720066D01*
X73354819Y-122720062D01*
X73190812Y-122600905D01*
X73190811Y-122600904D01*
X73190809Y-122600903D01*
X73119364Y-122564500D01*
X73010170Y-122508862D01*
X73010167Y-122508861D01*
X72817358Y-122446215D01*
X72684763Y-122425214D01*
X72617118Y-122414500D01*
X72414382Y-122414500D01*
X72347635Y-122425071D01*
X72214141Y-122446215D01*
X72021332Y-122508861D01*
X72021329Y-122508862D01*
X71840687Y-122600905D01*
X71676680Y-122720062D01*
X71676675Y-122720066D01*
X71533316Y-122863425D01*
X71533312Y-122863430D01*
X71414155Y-123027437D01*
X71322112Y-123208079D01*
X71322111Y-123208082D01*
X71259465Y-123400891D01*
X71253223Y-123440302D01*
X71223294Y-123503437D01*
X71163982Y-123540368D01*
X71094120Y-123539370D01*
X71035887Y-123500760D01*
X71008277Y-123440302D01*
X71005926Y-123425460D01*
X71002035Y-123400893D01*
X70970711Y-123304486D01*
X70939388Y-123208082D01*
X70939387Y-123208079D01*
X70907458Y-123145415D01*
X70847347Y-123027441D01*
X70816894Y-122985526D01*
X70728187Y-122863430D01*
X70728183Y-122863425D01*
X70584824Y-122720066D01*
X70584819Y-122720062D01*
X70420812Y-122600905D01*
X70420811Y-122600904D01*
X70420809Y-122600903D01*
X70349364Y-122564500D01*
X70240170Y-122508862D01*
X70240167Y-122508861D01*
X70047358Y-122446215D01*
X69914763Y-122425214D01*
X69847118Y-122414500D01*
X69644382Y-122414500D01*
X69577635Y-122425071D01*
X69444141Y-122446215D01*
X69251332Y-122508861D01*
X69251329Y-122508862D01*
X69070687Y-122600905D01*
X68906680Y-122720062D01*
X68906675Y-122720066D01*
X68763316Y-122863425D01*
X68763312Y-122863430D01*
X68644155Y-123027437D01*
X68552112Y-123208079D01*
X68552111Y-123208082D01*
X68489465Y-123400891D01*
X68483223Y-123440302D01*
X68453294Y-123503437D01*
X68393982Y-123540368D01*
X68324120Y-123539370D01*
X68265887Y-123500760D01*
X68238277Y-123440302D01*
X68235926Y-123425460D01*
X68232035Y-123400893D01*
X68200711Y-123304486D01*
X68169388Y-123208082D01*
X68169387Y-123208079D01*
X68137458Y-123145415D01*
X68077347Y-123027441D01*
X68046894Y-122985526D01*
X67958187Y-122863430D01*
X67958183Y-122863425D01*
X67814824Y-122720066D01*
X67814819Y-122720062D01*
X67650812Y-122600905D01*
X67650811Y-122600904D01*
X67650809Y-122600903D01*
X67579364Y-122564500D01*
X67470170Y-122508862D01*
X67470167Y-122508861D01*
X67277358Y-122446215D01*
X67144763Y-122425214D01*
X67077118Y-122414500D01*
X66874382Y-122414500D01*
X66807635Y-122425071D01*
X66674141Y-122446215D01*
X66481332Y-122508861D01*
X66481329Y-122508862D01*
X66300687Y-122600905D01*
X66136680Y-122720062D01*
X66136675Y-122720066D01*
X65993316Y-122863425D01*
X65993312Y-122863430D01*
X65874155Y-123027437D01*
X65782112Y-123208079D01*
X65782111Y-123208082D01*
X65719465Y-123400890D01*
X65712969Y-123441903D01*
X65683038Y-123505037D01*
X65623726Y-123541967D01*
X65553864Y-123540969D01*
X65495632Y-123502358D01*
X65468022Y-123441899D01*
X65461545Y-123401004D01*
X65398924Y-123208274D01*
X65398922Y-123208271D01*
X65306918Y-123027702D01*
X65276275Y-122985527D01*
X65276275Y-122985526D01*
X64709125Y-123552677D01*
X64694972Y-123499858D01*
X64625854Y-123380143D01*
X64528107Y-123282396D01*
X64408392Y-123213278D01*
X64355572Y-123199124D01*
X64922722Y-122631974D01*
X64922721Y-122631973D01*
X64880547Y-122601331D01*
X64699978Y-122509327D01*
X64699975Y-122509325D01*
X64507241Y-122446703D01*
X64307077Y-122415000D01*
X64104423Y-122415000D01*
X63904258Y-122446703D01*
X63711524Y-122509325D01*
X63711521Y-122509326D01*
X63530954Y-122601330D01*
X63488777Y-122631973D01*
X64055928Y-123199124D01*
X64003108Y-123213278D01*
X63883393Y-123282396D01*
X63785646Y-123380143D01*
X63716528Y-123499858D01*
X63702374Y-123552678D01*
X63135223Y-122985527D01*
X63104580Y-123027704D01*
X63012576Y-123208271D01*
X63012575Y-123208274D01*
X62949953Y-123401008D01*
X62918250Y-123601172D01*
X59309336Y-123601172D01*
X59227833Y-123498969D01*
X58509205Y-124217597D01*
X58433024Y-124112743D01*
X58260507Y-123940226D01*
X58155651Y-123864043D01*
X58874279Y-123145415D01*
X58733322Y-123033007D01*
X58490047Y-122880146D01*
X58304832Y-122790952D01*
X58304831Y-122790952D01*
X58231200Y-122755493D01*
X57960022Y-122660603D01*
X57960010Y-122660599D01*
X57679909Y-122596668D01*
X57679891Y-122596665D01*
X57394410Y-122564500D01*
X57107089Y-122564500D01*
X56821608Y-122596665D01*
X56821590Y-122596668D01*
X56541489Y-122660599D01*
X56541477Y-122660603D01*
X56270299Y-122755493D01*
X56270291Y-122755496D01*
X56011452Y-122880146D01*
X55768183Y-123033003D01*
X55627220Y-123145416D01*
X56345848Y-123864044D01*
X56240993Y-123940226D01*
X56068476Y-124112743D01*
X55992294Y-124217598D01*
X55273666Y-123498970D01*
X55161253Y-123639933D01*
X55008396Y-123883202D01*
X54883746Y-124142041D01*
X54883743Y-124142049D01*
X54788853Y-124413227D01*
X54788849Y-124413239D01*
X54724918Y-124693340D01*
X54724915Y-124693358D01*
X54692750Y-124978839D01*
X42650500Y-124978839D01*
X42650500Y-122674038D01*
X44199500Y-122674038D01*
X44199500Y-122925962D01*
X44216454Y-123033003D01*
X44238910Y-123174785D01*
X44316760Y-123414383D01*
X44381260Y-123540969D01*
X44428346Y-123633382D01*
X44431132Y-123638848D01*
X44579201Y-123842649D01*
X44579205Y-123842654D01*
X44757345Y-124020794D01*
X44757350Y-124020798D01*
X44894984Y-124120794D01*
X44961155Y-124168870D01*
X45076223Y-124227500D01*
X45185616Y-124283239D01*
X45185618Y-124283239D01*
X45185621Y-124283241D01*
X45425215Y-124361090D01*
X45674038Y-124400500D01*
X45674039Y-124400500D01*
X45925961Y-124400500D01*
X45925962Y-124400500D01*
X46174785Y-124361090D01*
X46414379Y-124283241D01*
X46638845Y-124168870D01*
X46842656Y-124020793D01*
X47020793Y-123842656D01*
X47168870Y-123638845D01*
X47283241Y-123414379D01*
X47361090Y-123174785D01*
X47400500Y-122925962D01*
X47400500Y-122674038D01*
X47361090Y-122425215D01*
X47283241Y-122185621D01*
X47283239Y-122185618D01*
X47283239Y-122185616D01*
X47219820Y-122061151D01*
X47168870Y-121961155D01*
X47149952Y-121935117D01*
X47020798Y-121757350D01*
X47020794Y-121757345D01*
X46842654Y-121579205D01*
X46842649Y-121579201D01*
X46638848Y-121431132D01*
X46638847Y-121431131D01*
X46638845Y-121431130D01*
X46568747Y-121395413D01*
X46414383Y-121316760D01*
X46174785Y-121238910D01*
X45925962Y-121199500D01*
X45674038Y-121199500D01*
X45549626Y-121219205D01*
X45425214Y-121238910D01*
X45185616Y-121316760D01*
X44961151Y-121431132D01*
X44757350Y-121579201D01*
X44757345Y-121579205D01*
X44579205Y-121757345D01*
X44579201Y-121757350D01*
X44431132Y-121961151D01*
X44316760Y-122185616D01*
X44238910Y-122425214D01*
X44211083Y-122600905D01*
X44199500Y-122674038D01*
X42650500Y-122674038D01*
X42650500Y-72073713D01*
X43149500Y-72073713D01*
X43149500Y-72286287D01*
X43182754Y-72496243D01*
X43229301Y-72639500D01*
X43248444Y-72698414D01*
X43344951Y-72887820D01*
X43469890Y-73059786D01*
X43620213Y-73210109D01*
X43792182Y-73335050D01*
X43800946Y-73339516D01*
X43851742Y-73387491D01*
X43868536Y-73455312D01*
X43845998Y-73521447D01*
X43800946Y-73560484D01*
X43792182Y-73564949D01*
X43620213Y-73689890D01*
X43469890Y-73840213D01*
X43344951Y-74012179D01*
X43248444Y-74201585D01*
X43182753Y-74403760D01*
X43156327Y-74570609D01*
X43149500Y-74613713D01*
X43149500Y-74826287D01*
X43182754Y-75036243D01*
X43236338Y-75201158D01*
X43248444Y-75238414D01*
X43344951Y-75427820D01*
X43469890Y-75599786D01*
X43620213Y-75750109D01*
X43792182Y-75875050D01*
X43800946Y-75879516D01*
X43851742Y-75927491D01*
X43868536Y-75995312D01*
X43845998Y-76061447D01*
X43800946Y-76100484D01*
X43792182Y-76104949D01*
X43620213Y-76229890D01*
X43469890Y-76380213D01*
X43344951Y-76552179D01*
X43248444Y-76741585D01*
X43182753Y-76943760D01*
X43155982Y-77112788D01*
X43149500Y-77153713D01*
X43149500Y-77366287D01*
X43182754Y-77576243D01*
X43220369Y-77692011D01*
X43248444Y-77778414D01*
X43344951Y-77967820D01*
X43469890Y-78139786D01*
X43620213Y-78290109D01*
X43792182Y-78415050D01*
X43800946Y-78419516D01*
X43851742Y-78467491D01*
X43868536Y-78535312D01*
X43845998Y-78601447D01*
X43800946Y-78640484D01*
X43792182Y-78644949D01*
X43620213Y-78769890D01*
X43469890Y-78920213D01*
X43344951Y-79092179D01*
X43248444Y-79281585D01*
X43248443Y-79281587D01*
X43248443Y-79281588D01*
X43226303Y-79349727D01*
X43182753Y-79483760D01*
X43149500Y-79693713D01*
X43149500Y-79906286D01*
X43182753Y-80116239D01*
X43248444Y-80318414D01*
X43344951Y-80507820D01*
X43469890Y-80679786D01*
X43620213Y-80830109D01*
X43792182Y-80955050D01*
X43800946Y-80959516D01*
X43851742Y-81007491D01*
X43868536Y-81075312D01*
X43845998Y-81141447D01*
X43800946Y-81180484D01*
X43792182Y-81184949D01*
X43620213Y-81309890D01*
X43469890Y-81460213D01*
X43344951Y-81632179D01*
X43248444Y-81821585D01*
X43182753Y-82023760D01*
X43149500Y-82233713D01*
X43149500Y-82446286D01*
X43182753Y-82656239D01*
X43248444Y-82858414D01*
X43344951Y-83047820D01*
X43469890Y-83219786D01*
X43620213Y-83370109D01*
X43792182Y-83495050D01*
X43800946Y-83499516D01*
X43851742Y-83547491D01*
X43868536Y-83615312D01*
X43845998Y-83681447D01*
X43800946Y-83720484D01*
X43792182Y-83724949D01*
X43620213Y-83849890D01*
X43469890Y-84000213D01*
X43344951Y-84172179D01*
X43248444Y-84361585D01*
X43182753Y-84563760D01*
X43149500Y-84773713D01*
X43149500Y-84986286D01*
X43165433Y-85086887D01*
X43182754Y-85196243D01*
X43213132Y-85289737D01*
X43248444Y-85398414D01*
X43344951Y-85587820D01*
X43469890Y-85759786D01*
X43620213Y-85910109D01*
X43792179Y-86035048D01*
X43792181Y-86035049D01*
X43792184Y-86035051D01*
X43801493Y-86039794D01*
X43852290Y-86087766D01*
X43869087Y-86155587D01*
X43846552Y-86221722D01*
X43801502Y-86260762D01*
X43792443Y-86265378D01*
X43620540Y-86390272D01*
X43620535Y-86390276D01*
X43470276Y-86540535D01*
X43470272Y-86540540D01*
X43345379Y-86712442D01*
X43248904Y-86901782D01*
X43183242Y-87103870D01*
X43183242Y-87103873D01*
X43172769Y-87170000D01*
X44066988Y-87170000D01*
X44034075Y-87227007D01*
X44000000Y-87354174D01*
X44000000Y-87485826D01*
X44034075Y-87612993D01*
X44066988Y-87670000D01*
X43172769Y-87670000D01*
X43183242Y-87736126D01*
X43183242Y-87736129D01*
X43248904Y-87938217D01*
X43345379Y-88127557D01*
X43470272Y-88299459D01*
X43470276Y-88299464D01*
X43620535Y-88449723D01*
X43620540Y-88449727D01*
X43792444Y-88574622D01*
X43801495Y-88579234D01*
X43852292Y-88627208D01*
X43869087Y-88695029D01*
X43846550Y-88761164D01*
X43801499Y-88800202D01*
X43792182Y-88804949D01*
X43620213Y-88929890D01*
X43469890Y-89080213D01*
X43344951Y-89252179D01*
X43248444Y-89441585D01*
X43182753Y-89643760D01*
X43172825Y-89706446D01*
X43149500Y-89853713D01*
X43149500Y-90066287D01*
X43182754Y-90276243D01*
X43227369Y-90413554D01*
X43248444Y-90478414D01*
X43344951Y-90667820D01*
X43469890Y-90839786D01*
X43620213Y-90990109D01*
X43792182Y-91115050D01*
X43800946Y-91119516D01*
X43851742Y-91167491D01*
X43868536Y-91235312D01*
X43845998Y-91301447D01*
X43800946Y-91340484D01*
X43792182Y-91344949D01*
X43620213Y-91469890D01*
X43469890Y-91620213D01*
X43344951Y-91792179D01*
X43248444Y-91981585D01*
X43248443Y-91981587D01*
X43248443Y-91981588D01*
X43230000Y-92038349D01*
X43182753Y-92183760D01*
X43149500Y-92393713D01*
X43149500Y-92606286D01*
X43182753Y-92816239D01*
X43248444Y-93018414D01*
X43344951Y-93207820D01*
X43469890Y-93379786D01*
X43620213Y-93530109D01*
X43792182Y-93655050D01*
X43800946Y-93659516D01*
X43851742Y-93707491D01*
X43868536Y-93775312D01*
X43845998Y-93841447D01*
X43800946Y-93880484D01*
X43792182Y-93884949D01*
X43620213Y-94009890D01*
X43469890Y-94160213D01*
X43344951Y-94332179D01*
X43248444Y-94521585D01*
X43182753Y-94723760D01*
X43149500Y-94933713D01*
X43149500Y-95146286D01*
X43182753Y-95356239D01*
X43248444Y-95558414D01*
X43344951Y-95747820D01*
X43469890Y-95919786D01*
X43620213Y-96070109D01*
X43792182Y-96195050D01*
X43800946Y-96199516D01*
X43851742Y-96247491D01*
X43868536Y-96315312D01*
X43845998Y-96381447D01*
X43800946Y-96420484D01*
X43792182Y-96424949D01*
X43620213Y-96549890D01*
X43469890Y-96700213D01*
X43344951Y-96872179D01*
X43248444Y-97061585D01*
X43182753Y-97263760D01*
X43149500Y-97473713D01*
X43149500Y-97686286D01*
X43175488Y-97850372D01*
X43182754Y-97896243D01*
X43248436Y-98098391D01*
X43248444Y-98098414D01*
X43344951Y-98287820D01*
X43469890Y-98459786D01*
X43620213Y-98610109D01*
X43792182Y-98735050D01*
X43800946Y-98739516D01*
X43851742Y-98787491D01*
X43868536Y-98855312D01*
X43845998Y-98921447D01*
X43800946Y-98960484D01*
X43792182Y-98964949D01*
X43620213Y-99089890D01*
X43469890Y-99240213D01*
X43344951Y-99412179D01*
X43248444Y-99601585D01*
X43182753Y-99803760D01*
X43166327Y-99907473D01*
X43149500Y-100013713D01*
X43149500Y-100226287D01*
X43182754Y-100436243D01*
X43243784Y-100624074D01*
X43248444Y-100638414D01*
X43344951Y-100827820D01*
X43469890Y-100999786D01*
X43620213Y-101150109D01*
X43792182Y-101275050D01*
X43800946Y-101279516D01*
X43851742Y-101327491D01*
X43868536Y-101395312D01*
X43845998Y-101461447D01*
X43800946Y-101500484D01*
X43792182Y-101504949D01*
X43620213Y-101629890D01*
X43469890Y-101780213D01*
X43344951Y-101952179D01*
X43248444Y-102141585D01*
X43182753Y-102343760D01*
X43149500Y-102553713D01*
X43149500Y-102766286D01*
X43177744Y-102944615D01*
X43182754Y-102976243D01*
X43223267Y-103100930D01*
X43248444Y-103178414D01*
X43344951Y-103367820D01*
X43469890Y-103539786D01*
X43620213Y-103690109D01*
X43792182Y-103815050D01*
X43800946Y-103819516D01*
X43851742Y-103867491D01*
X43868536Y-103935312D01*
X43845998Y-104001447D01*
X43800946Y-104040484D01*
X43792182Y-104044949D01*
X43620213Y-104169890D01*
X43469890Y-104320213D01*
X43344951Y-104492179D01*
X43248444Y-104681585D01*
X43182753Y-104883760D01*
X43157755Y-105041594D01*
X43149500Y-105093713D01*
X43149500Y-105306287D01*
X43158266Y-105361630D01*
X43167121Y-105417544D01*
X43182754Y-105516243D01*
X43212699Y-105608405D01*
X43248444Y-105718414D01*
X43344951Y-105907820D01*
X43469890Y-106079786D01*
X43620213Y-106230109D01*
X43792179Y-106355048D01*
X43792181Y-106355049D01*
X43792184Y-106355051D01*
X43801493Y-106359794D01*
X43852290Y-106407766D01*
X43869087Y-106475587D01*
X43846552Y-106541722D01*
X43801502Y-106580762D01*
X43792443Y-106585378D01*
X43620540Y-106710272D01*
X43620535Y-106710276D01*
X43470276Y-106860535D01*
X43470272Y-106860540D01*
X43345379Y-107032442D01*
X43248904Y-107221782D01*
X43183242Y-107423870D01*
X43183242Y-107423873D01*
X43172769Y-107490000D01*
X44066988Y-107490000D01*
X44034075Y-107547007D01*
X44000000Y-107674174D01*
X44000000Y-107805826D01*
X44034075Y-107932993D01*
X44066988Y-107990000D01*
X43172769Y-107990000D01*
X43183242Y-108056126D01*
X43183242Y-108056129D01*
X43248904Y-108258217D01*
X43345379Y-108447557D01*
X43470272Y-108619459D01*
X43470276Y-108619464D01*
X43620535Y-108769723D01*
X43620540Y-108769727D01*
X43792444Y-108894622D01*
X43801495Y-108899234D01*
X43852292Y-108947208D01*
X43869087Y-109015029D01*
X43846550Y-109081164D01*
X43801499Y-109120202D01*
X43792182Y-109124949D01*
X43620213Y-109249890D01*
X43469890Y-109400213D01*
X43344951Y-109572179D01*
X43248444Y-109761585D01*
X43182753Y-109963760D01*
X43149500Y-110173713D01*
X43149500Y-110386286D01*
X43182753Y-110596239D01*
X43248444Y-110798414D01*
X43344951Y-110987820D01*
X43469890Y-111159786D01*
X43620213Y-111310109D01*
X43792182Y-111435050D01*
X43800946Y-111439516D01*
X43851742Y-111487491D01*
X43868536Y-111555312D01*
X43845998Y-111621447D01*
X43800946Y-111660484D01*
X43792182Y-111664949D01*
X43620213Y-111789890D01*
X43469890Y-111940213D01*
X43344951Y-112112179D01*
X43248444Y-112301585D01*
X43182753Y-112503760D01*
X43149500Y-112713713D01*
X43149500Y-112926286D01*
X43182753Y-113136239D01*
X43248444Y-113338414D01*
X43344951Y-113527820D01*
X43469890Y-113699786D01*
X43620213Y-113850109D01*
X43792182Y-113975050D01*
X43800946Y-113979516D01*
X43851742Y-114027491D01*
X43868536Y-114095312D01*
X43845998Y-114161447D01*
X43800946Y-114200484D01*
X43792182Y-114204949D01*
X43620213Y-114329890D01*
X43469890Y-114480213D01*
X43344951Y-114652179D01*
X43248444Y-114841585D01*
X43182753Y-115043760D01*
X43149500Y-115253713D01*
X43149500Y-115466286D01*
X43182753Y-115676239D01*
X43248444Y-115878414D01*
X43344951Y-116067820D01*
X43469890Y-116239786D01*
X43583430Y-116353326D01*
X43616915Y-116414649D01*
X43611931Y-116484341D01*
X43570059Y-116540274D01*
X43539083Y-116557189D01*
X43407669Y-116606203D01*
X43407664Y-116606206D01*
X43292455Y-116692452D01*
X43292452Y-116692455D01*
X43206206Y-116807664D01*
X43206202Y-116807671D01*
X43155908Y-116942517D01*
X43149501Y-117002116D01*
X43149500Y-117002135D01*
X43149500Y-118797870D01*
X43149501Y-118797876D01*
X43155908Y-118857483D01*
X43206202Y-118992328D01*
X43206206Y-118992335D01*
X43292452Y-119107544D01*
X43292455Y-119107547D01*
X43407664Y-119193793D01*
X43407671Y-119193797D01*
X43542517Y-119244091D01*
X43542516Y-119244091D01*
X43549444Y-119244835D01*
X43602127Y-119250500D01*
X45397872Y-119250499D01*
X45457483Y-119244091D01*
X45592331Y-119193796D01*
X45707546Y-119107546D01*
X45793796Y-118992331D01*
X45842810Y-118860916D01*
X45884681Y-118804984D01*
X45950145Y-118780566D01*
X46018418Y-118795417D01*
X46046673Y-118816569D01*
X46160213Y-118930109D01*
X46332179Y-119055048D01*
X46332181Y-119055049D01*
X46332184Y-119055051D01*
X46521588Y-119151557D01*
X46723757Y-119217246D01*
X46933713Y-119250500D01*
X46933714Y-119250500D01*
X47146286Y-119250500D01*
X47146287Y-119250500D01*
X47356243Y-119217246D01*
X47558412Y-119151557D01*
X47747816Y-119055051D01*
X47834138Y-118992335D01*
X47919786Y-118930109D01*
X47919788Y-118930106D01*
X47919792Y-118930104D01*
X48070104Y-118779792D01*
X48070106Y-118779788D01*
X48070109Y-118779786D01*
X48195048Y-118607820D01*
X48195047Y-118607820D01*
X48195051Y-118607816D01*
X48291557Y-118418412D01*
X48357246Y-118216243D01*
X48390500Y-118006287D01*
X48390500Y-117793713D01*
X48357246Y-117583757D01*
X48291557Y-117381588D01*
X48195051Y-117192184D01*
X48195049Y-117192181D01*
X48195048Y-117192179D01*
X48070110Y-117020215D01*
X48070106Y-117020211D01*
X48070104Y-117020208D01*
X47951818Y-116901922D01*
X47918334Y-116840599D01*
X47915500Y-116814241D01*
X47915500Y-116445758D01*
X47935185Y-116378719D01*
X47951819Y-116358077D01*
X48002846Y-116307050D01*
X48070104Y-116239792D01*
X48070106Y-116239788D01*
X48070109Y-116239786D01*
X48195048Y-116067820D01*
X48195047Y-116067820D01*
X48195051Y-116067816D01*
X48291557Y-115878412D01*
X48357246Y-115676243D01*
X48390500Y-115466287D01*
X48390500Y-115253713D01*
X48357246Y-115043757D01*
X48291557Y-114841588D01*
X48195051Y-114652184D01*
X48195049Y-114652181D01*
X48195048Y-114652179D01*
X48070109Y-114480213D01*
X47919786Y-114329890D01*
X47747817Y-114204949D01*
X47738504Y-114200204D01*
X47687707Y-114152230D01*
X47670912Y-114084409D01*
X47693449Y-114018274D01*
X47738507Y-113979232D01*
X47747558Y-113974620D01*
X47919459Y-113849727D01*
X47919464Y-113849723D01*
X48069723Y-113699464D01*
X48069727Y-113699459D01*
X48194620Y-113527557D01*
X48291095Y-113338217D01*
X48356757Y-113136129D01*
X48356757Y-113136126D01*
X48367231Y-113070000D01*
X47473012Y-113070000D01*
X47505925Y-113012993D01*
X47540000Y-112885826D01*
X47540000Y-112754174D01*
X47505925Y-112627007D01*
X47473012Y-112570000D01*
X48367231Y-112570000D01*
X48356757Y-112503873D01*
X48356757Y-112503870D01*
X48291095Y-112301782D01*
X48194620Y-112112442D01*
X48069727Y-111940540D01*
X48069723Y-111940535D01*
X47919464Y-111790276D01*
X47919459Y-111790272D01*
X47747555Y-111665377D01*
X47738500Y-111660763D01*
X47687706Y-111612788D01*
X47670912Y-111544966D01*
X47693451Y-111478832D01*
X47738508Y-111439793D01*
X47747816Y-111435051D01*
X47827007Y-111377515D01*
X47919786Y-111310109D01*
X47919788Y-111310106D01*
X47919792Y-111310104D01*
X48070104Y-111159792D01*
X48070106Y-111159788D01*
X48070109Y-111159786D01*
X48195048Y-110987820D01*
X48195047Y-110987820D01*
X48195051Y-110987816D01*
X48291557Y-110798412D01*
X48357246Y-110596243D01*
X48390500Y-110386287D01*
X48390500Y-110173713D01*
X48357246Y-109963757D01*
X48291557Y-109761588D01*
X48195051Y-109572184D01*
X48195049Y-109572181D01*
X48195048Y-109572179D01*
X48070109Y-109400213D01*
X47919786Y-109249890D01*
X47747820Y-109124951D01*
X47747115Y-109124591D01*
X47739054Y-109120485D01*
X47688259Y-109072512D01*
X47671463Y-109004692D01*
X47693999Y-108938556D01*
X47739054Y-108899515D01*
X47747816Y-108895051D01*
X47831355Y-108834357D01*
X47919786Y-108770109D01*
X47919788Y-108770106D01*
X47919792Y-108770104D01*
X48070104Y-108619792D01*
X48195051Y-108447816D01*
X48201360Y-108435431D01*
X48249330Y-108384638D01*
X48317151Y-108367840D01*
X48380736Y-108388624D01*
X48392510Y-108396491D01*
X48411821Y-108409394D01*
X48411823Y-108409395D01*
X48411827Y-108409397D01*
X48506362Y-108448554D01*
X48557503Y-108469737D01*
X48712153Y-108500499D01*
X48712156Y-108500500D01*
X48712158Y-108500500D01*
X48869844Y-108500500D01*
X48869845Y-108500499D01*
X49024497Y-108469737D01*
X49147686Y-108418711D01*
X49170172Y-108409397D01*
X49170172Y-108409396D01*
X49170179Y-108409394D01*
X49301289Y-108321789D01*
X49412789Y-108210289D01*
X49500394Y-108079179D01*
X49560737Y-107933497D01*
X49591500Y-107778842D01*
X49591500Y-107621158D01*
X49591500Y-107621155D01*
X49591499Y-107621153D01*
X49588441Y-107605778D01*
X49560737Y-107466503D01*
X49543031Y-107423757D01*
X49500397Y-107320827D01*
X49500390Y-107320814D01*
X49412789Y-107189711D01*
X49412786Y-107189707D01*
X49301292Y-107078213D01*
X49301288Y-107078210D01*
X49170185Y-106990609D01*
X49170172Y-106990602D01*
X49024501Y-106930264D01*
X49024489Y-106930261D01*
X48869845Y-106899500D01*
X48869842Y-106899500D01*
X48712158Y-106899500D01*
X48712155Y-106899500D01*
X48557510Y-106930261D01*
X48557498Y-106930264D01*
X48411827Y-106990602D01*
X48411814Y-106990609D01*
X48344688Y-107035462D01*
X48278010Y-107056340D01*
X48210630Y-107037855D01*
X48175480Y-107005247D01*
X48070104Y-106860208D01*
X47919792Y-106709896D01*
X47919786Y-106709890D01*
X47747820Y-106584951D01*
X47747115Y-106584591D01*
X47739054Y-106580485D01*
X47688259Y-106532512D01*
X47671463Y-106464692D01*
X47693999Y-106398556D01*
X47739054Y-106359515D01*
X47747816Y-106355051D01*
X47813357Y-106307433D01*
X47919786Y-106230109D01*
X47919788Y-106230106D01*
X47919792Y-106230104D01*
X48070104Y-106079792D01*
X48070106Y-106079788D01*
X48070109Y-106079786D01*
X48195048Y-105907820D01*
X48195047Y-105907820D01*
X48195051Y-105907816D01*
X48291557Y-105718412D01*
X48357246Y-105516243D01*
X48390500Y-105306287D01*
X48390500Y-105093713D01*
X48357246Y-104883757D01*
X48343506Y-104841473D01*
X48341512Y-104771635D01*
X48373755Y-104715478D01*
X50144620Y-102944613D01*
X50205942Y-102911130D01*
X50275634Y-102916114D01*
X50331567Y-102957986D01*
X50355984Y-103023450D01*
X50356300Y-103032296D01*
X50356300Y-104581833D01*
X50389943Y-104750966D01*
X50389946Y-104750978D01*
X50455938Y-104910298D01*
X50455945Y-104910311D01*
X50551754Y-105053698D01*
X50551757Y-105053702D01*
X50673697Y-105175642D01*
X50673701Y-105175645D01*
X50817088Y-105271454D01*
X50817101Y-105271461D01*
X50976421Y-105337453D01*
X50976426Y-105337455D01*
X51145566Y-105371099D01*
X51145569Y-105371100D01*
X51145571Y-105371100D01*
X51318031Y-105371100D01*
X51318032Y-105371099D01*
X51487174Y-105337455D01*
X51646505Y-105271458D01*
X51789899Y-105175645D01*
X51911845Y-105053699D01*
X52007658Y-104910305D01*
X52073655Y-104750974D01*
X52107300Y-104581829D01*
X52107300Y-99496153D01*
X62999500Y-99496153D01*
X62999500Y-99653846D01*
X63030261Y-99808489D01*
X63030263Y-99808497D01*
X63090602Y-99954172D01*
X63090609Y-99954185D01*
X63178210Y-100085288D01*
X63178213Y-100085292D01*
X63289707Y-100196786D01*
X63289711Y-100196789D01*
X63420814Y-100284390D01*
X63420827Y-100284397D01*
X63566498Y-100344735D01*
X63566503Y-100344737D01*
X63721153Y-100375499D01*
X63721156Y-100375500D01*
X63721158Y-100375500D01*
X63878844Y-100375500D01*
X63878845Y-100375499D01*
X64033497Y-100344737D01*
X64179179Y-100284394D01*
X64195130Y-100273736D01*
X64310875Y-100196398D01*
X64328921Y-100190747D01*
X64344831Y-100180523D01*
X64375792Y-100176071D01*
X64377553Y-100175520D01*
X64379766Y-100175500D01*
X64424903Y-100175500D01*
X64491942Y-100195185D01*
X64512584Y-100211819D01*
X64513178Y-100212413D01*
X64523926Y-100232096D01*
X64537697Y-100247989D01*
X64539517Y-100260650D01*
X64546663Y-100273736D01*
X64549497Y-100300094D01*
X64549497Y-107963327D01*
X64549496Y-107963345D01*
X64549496Y-108129051D01*
X64549495Y-108129051D01*
X64567522Y-108196327D01*
X64590420Y-108281782D01*
X64605315Y-108307581D01*
X64619355Y-108331897D01*
X64619356Y-108331901D01*
X64619357Y-108331901D01*
X64664094Y-108409390D01*
X64669476Y-108418711D01*
X64669478Y-108418714D01*
X64788346Y-108537582D01*
X64788352Y-108537587D01*
X65032570Y-108781805D01*
X65052276Y-108807486D01*
X65067786Y-108834351D01*
X65067788Y-108834353D01*
X65067789Y-108834355D01*
X65179593Y-108946159D01*
X65179594Y-108946160D01*
X65531650Y-109298216D01*
X65531651Y-109298217D01*
X65531653Y-109298218D01*
X65558516Y-109313727D01*
X65584199Y-109333434D01*
X69195836Y-112945071D01*
X69229321Y-113006394D01*
X69232155Y-113032752D01*
X69232155Y-116887579D01*
X69212470Y-116954618D01*
X69211257Y-116956470D01*
X69123264Y-117088159D01*
X69123257Y-117088172D01*
X69062919Y-117233843D01*
X69062916Y-117233855D01*
X69032155Y-117388498D01*
X69032155Y-117546191D01*
X69062916Y-117700834D01*
X69062919Y-117700846D01*
X69123257Y-117846517D01*
X69123264Y-117846530D01*
X69210865Y-117977633D01*
X69210868Y-117977637D01*
X69322362Y-118089131D01*
X69322366Y-118089134D01*
X69453469Y-118176735D01*
X69453482Y-118176742D01*
X69599153Y-118237080D01*
X69599158Y-118237082D01*
X69753808Y-118267844D01*
X69753811Y-118267845D01*
X69753813Y-118267845D01*
X69911499Y-118267845D01*
X69911500Y-118267844D01*
X70066152Y-118237082D01*
X70211834Y-118176739D01*
X70342944Y-118089134D01*
X70454444Y-117977634D01*
X70542049Y-117846524D01*
X70602392Y-117700842D01*
X70633155Y-117546187D01*
X70633155Y-117546175D01*
X70633728Y-117540361D01*
X70659883Y-117475571D01*
X70709676Y-117437944D01*
X70811834Y-117395630D01*
X70942944Y-117308025D01*
X71054444Y-117196525D01*
X71142049Y-117065415D01*
X71202392Y-116919733D01*
X71233155Y-116765078D01*
X71233155Y-116607394D01*
X71233155Y-116607391D01*
X71233154Y-116607389D01*
X71224092Y-116561834D01*
X71202392Y-116452739D01*
X71186615Y-116414649D01*
X71142052Y-116307063D01*
X71142045Y-116307050D01*
X71054053Y-116175361D01*
X71033175Y-116108683D01*
X71033155Y-116106470D01*
X71033155Y-114906339D01*
X86622000Y-114906339D01*
X86622000Y-115193660D01*
X86654165Y-115479141D01*
X86654168Y-115479159D01*
X86718099Y-115759260D01*
X86718103Y-115759272D01*
X86812993Y-116030450D01*
X86812996Y-116030458D01*
X86937646Y-116289297D01*
X87090507Y-116532572D01*
X87202915Y-116673529D01*
X87921543Y-115954901D01*
X87997726Y-116059757D01*
X88170243Y-116232274D01*
X88275097Y-116308455D01*
X87556469Y-117027083D01*
X87697427Y-117139492D01*
X87940702Y-117292353D01*
X88199541Y-117417003D01*
X88199549Y-117417006D01*
X88470727Y-117511896D01*
X88470739Y-117511900D01*
X88750840Y-117575831D01*
X88750858Y-117575834D01*
X89036339Y-117607999D01*
X89036343Y-117608000D01*
X89323657Y-117608000D01*
X89323660Y-117607999D01*
X89609141Y-117575834D01*
X89609159Y-117575831D01*
X89889260Y-117511900D01*
X89889272Y-117511896D01*
X90160450Y-117417006D01*
X90160458Y-117417003D01*
X90419297Y-117292353D01*
X90662572Y-117139493D01*
X90803529Y-117027082D01*
X90084902Y-116308455D01*
X90189757Y-116232274D01*
X90362274Y-116059757D01*
X90438455Y-115954902D01*
X91157082Y-116673529D01*
X91269493Y-116532572D01*
X91422353Y-116289297D01*
X91547003Y-116030458D01*
X91547006Y-116030450D01*
X91641896Y-115759272D01*
X91641900Y-115759260D01*
X91705831Y-115479159D01*
X91705834Y-115479141D01*
X91737999Y-115193660D01*
X91738000Y-115193656D01*
X91738000Y-114906343D01*
X91737999Y-114906339D01*
X91705834Y-114620858D01*
X91705831Y-114620840D01*
X91641900Y-114340739D01*
X91641896Y-114340727D01*
X91547006Y-114069549D01*
X91547003Y-114069541D01*
X91422353Y-113810702D01*
X91269492Y-113567427D01*
X91157083Y-113426469D01*
X90438455Y-114145097D01*
X90362274Y-114040243D01*
X90189757Y-113867726D01*
X90084901Y-113791543D01*
X90803529Y-113072915D01*
X90662572Y-112960507D01*
X90419297Y-112807646D01*
X90160458Y-112682996D01*
X90160450Y-112682993D01*
X89889272Y-112588103D01*
X89889260Y-112588099D01*
X89609159Y-112524168D01*
X89609141Y-112524165D01*
X89323660Y-112492000D01*
X89036339Y-112492000D01*
X88750858Y-112524165D01*
X88750840Y-112524168D01*
X88470739Y-112588099D01*
X88470727Y-112588103D01*
X88199549Y-112682993D01*
X88199541Y-112682996D01*
X87940702Y-112807646D01*
X87697433Y-112960503D01*
X87556470Y-113072916D01*
X88275098Y-113791544D01*
X88170243Y-113867726D01*
X87997726Y-114040243D01*
X87921544Y-114145098D01*
X87202916Y-113426470D01*
X87090503Y-113567433D01*
X86937646Y-113810702D01*
X86812996Y-114069541D01*
X86812993Y-114069549D01*
X86718103Y-114340727D01*
X86718099Y-114340739D01*
X86654168Y-114620840D01*
X86654165Y-114620858D01*
X86622000Y-114906339D01*
X71033155Y-114906339D01*
X71033155Y-112846714D01*
X71033156Y-112846701D01*
X71033156Y-112678600D01*
X71033156Y-112678598D01*
X70992232Y-112525870D01*
X70963294Y-112475750D01*
X70913175Y-112388939D01*
X70801371Y-112277135D01*
X70801370Y-112277134D01*
X70797040Y-112272804D01*
X70797029Y-112272794D01*
X66187816Y-107663581D01*
X66154331Y-107602258D01*
X66151497Y-107575900D01*
X66151497Y-99465057D01*
X66151498Y-99465044D01*
X66151498Y-99296941D01*
X66149794Y-99290580D01*
X66110574Y-99144213D01*
X66090785Y-99109937D01*
X66031521Y-99007287D01*
X66031515Y-99007279D01*
X65496559Y-98472323D01*
X65481138Y-98453532D01*
X65421792Y-98364715D01*
X65421786Y-98364707D01*
X65310292Y-98253213D01*
X65310288Y-98253210D01*
X65179185Y-98165609D01*
X65179172Y-98165602D01*
X65033501Y-98105264D01*
X65033489Y-98105261D01*
X64878845Y-98074500D01*
X64878842Y-98074500D01*
X64721158Y-98074500D01*
X64721155Y-98074500D01*
X64566510Y-98105261D01*
X64566498Y-98105264D01*
X64420827Y-98165602D01*
X64420814Y-98165609D01*
X64289711Y-98253210D01*
X64289707Y-98253213D01*
X64178213Y-98364707D01*
X64178210Y-98364711D01*
X64090609Y-98495814D01*
X64090602Y-98495827D01*
X64030264Y-98641498D01*
X64030262Y-98641505D01*
X64023242Y-98676796D01*
X63990856Y-98738706D01*
X63930139Y-98773279D01*
X63885004Y-98774086D01*
X63884905Y-98775097D01*
X63878843Y-98774500D01*
X63878842Y-98774500D01*
X63721158Y-98774500D01*
X63721155Y-98774500D01*
X63566510Y-98805261D01*
X63566498Y-98805264D01*
X63420827Y-98865602D01*
X63420814Y-98865609D01*
X63289711Y-98953210D01*
X63289707Y-98953213D01*
X63178213Y-99064707D01*
X63178210Y-99064711D01*
X63090609Y-99195814D01*
X63090602Y-99195827D01*
X63030264Y-99341498D01*
X63030261Y-99341510D01*
X62999500Y-99496153D01*
X52107300Y-99496153D01*
X52107300Y-96179635D01*
X86472000Y-96179635D01*
X86472000Y-97850370D01*
X86472001Y-97850376D01*
X86478408Y-97909983D01*
X86528702Y-98044828D01*
X86528706Y-98044835D01*
X86614952Y-98160044D01*
X86614955Y-98160047D01*
X86730164Y-98246293D01*
X86730171Y-98246297D01*
X86865017Y-98296591D01*
X86865016Y-98296591D01*
X86871944Y-98297335D01*
X86924627Y-98303000D01*
X87370168Y-98302999D01*
X87437205Y-98322683D01*
X87482960Y-98375487D01*
X87492904Y-98444646D01*
X87463879Y-98508202D01*
X87408484Y-98544930D01*
X87265582Y-98591361D01*
X87265579Y-98591362D01*
X87084937Y-98683405D01*
X86920930Y-98802562D01*
X86920925Y-98802566D01*
X86777566Y-98945925D01*
X86777562Y-98945930D01*
X86658405Y-99109937D01*
X86566362Y-99290579D01*
X86566361Y-99290582D01*
X86503715Y-99483391D01*
X86472000Y-99683632D01*
X86472000Y-99886367D01*
X86503715Y-100086608D01*
X86566361Y-100279417D01*
X86566362Y-100279420D01*
X86658405Y-100460062D01*
X86777562Y-100624069D01*
X86777566Y-100624074D01*
X86920925Y-100767433D01*
X86920930Y-100767437D01*
X87059885Y-100868393D01*
X87084941Y-100886597D01*
X87203026Y-100946764D01*
X87265579Y-100978637D01*
X87265582Y-100978638D01*
X87330689Y-100999792D01*
X87458393Y-101041285D01*
X87489699Y-101046243D01*
X87497802Y-101047527D01*
X87560937Y-101077456D01*
X87597868Y-101136768D01*
X87596870Y-101206630D01*
X87558260Y-101264863D01*
X87497802Y-101292473D01*
X87458391Y-101298715D01*
X87265582Y-101361361D01*
X87265579Y-101361362D01*
X87084937Y-101453405D01*
X86920930Y-101572562D01*
X86920925Y-101572566D01*
X86777566Y-101715925D01*
X86777562Y-101715930D01*
X86658405Y-101879937D01*
X86566362Y-102060579D01*
X86566361Y-102060582D01*
X86503715Y-102253391D01*
X86472000Y-102453632D01*
X86472000Y-102656367D01*
X86503715Y-102856608D01*
X86566361Y-103049417D01*
X86566362Y-103049420D01*
X86658405Y-103230062D01*
X86777562Y-103394069D01*
X86777566Y-103394074D01*
X86920925Y-103537433D01*
X86920930Y-103537437D01*
X87059885Y-103638393D01*
X87084941Y-103656597D01*
X87203026Y-103716764D01*
X87265579Y-103748637D01*
X87265582Y-103748638D01*
X87361986Y-103779961D01*
X87458393Y-103811285D01*
X87489699Y-103816243D01*
X87497802Y-103817527D01*
X87560937Y-103847456D01*
X87597868Y-103906768D01*
X87596870Y-103976630D01*
X87558260Y-104034863D01*
X87497802Y-104062473D01*
X87458391Y-104068715D01*
X87265582Y-104131361D01*
X87265579Y-104131362D01*
X87084937Y-104223405D01*
X86920930Y-104342562D01*
X86920925Y-104342566D01*
X86777566Y-104485925D01*
X86777562Y-104485930D01*
X86658405Y-104649937D01*
X86566362Y-104830579D01*
X86566361Y-104830582D01*
X86503715Y-105023391D01*
X86472000Y-105223632D01*
X86472000Y-105426367D01*
X86503715Y-105626608D01*
X86566361Y-105819417D01*
X86566362Y-105819420D01*
X86658405Y-106000062D01*
X86777562Y-106164069D01*
X86777566Y-106164074D01*
X86920925Y-106307433D01*
X86920930Y-106307437D01*
X87059885Y-106408393D01*
X87084941Y-106426597D01*
X87203026Y-106486764D01*
X87265579Y-106518637D01*
X87265582Y-106518638D01*
X87458392Y-106581285D01*
X87499400Y-106587780D01*
X87562535Y-106617709D01*
X87599467Y-106677020D01*
X87598469Y-106746883D01*
X87559860Y-106805116D01*
X87499402Y-106832726D01*
X87458508Y-106839203D01*
X87265774Y-106901825D01*
X87265771Y-106901826D01*
X87085204Y-106993830D01*
X87043027Y-107024473D01*
X87610178Y-107591624D01*
X87557358Y-107605778D01*
X87437643Y-107674896D01*
X87339896Y-107772643D01*
X87270778Y-107892358D01*
X87256624Y-107945178D01*
X86689473Y-107378027D01*
X86658830Y-107420204D01*
X86566826Y-107600771D01*
X86566825Y-107600774D01*
X86504203Y-107793508D01*
X86472500Y-107993672D01*
X86472500Y-108196327D01*
X86504203Y-108396491D01*
X86566825Y-108589225D01*
X86566827Y-108589228D01*
X86658831Y-108769797D01*
X86689473Y-108811971D01*
X86689474Y-108811972D01*
X87256624Y-108244821D01*
X87270778Y-108297642D01*
X87339896Y-108417357D01*
X87437643Y-108515104D01*
X87557358Y-108584222D01*
X87610178Y-108598375D01*
X87043026Y-109165525D01*
X87085202Y-109196168D01*
X87265771Y-109288172D01*
X87265774Y-109288174D01*
X87458508Y-109350796D01*
X87658673Y-109382500D01*
X87861327Y-109382500D01*
X88061491Y-109350796D01*
X88254225Y-109288174D01*
X88254228Y-109288172D01*
X88434797Y-109196168D01*
X88476971Y-109165526D01*
X88476971Y-109165525D01*
X87909821Y-108598375D01*
X87962642Y-108584222D01*
X88082357Y-108515104D01*
X88180104Y-108417357D01*
X88249222Y-108297642D01*
X88263375Y-108244821D01*
X88830525Y-108811971D01*
X88830526Y-108811971D01*
X88861168Y-108769797D01*
X88953172Y-108589228D01*
X88953174Y-108589225D01*
X89015796Y-108396491D01*
X89047500Y-108196327D01*
X89047500Y-107993672D01*
X89015796Y-107793508D01*
X88953174Y-107600774D01*
X88953172Y-107600771D01*
X88861168Y-107420202D01*
X88830525Y-107378027D01*
X88830525Y-107378026D01*
X88263375Y-107945177D01*
X88249222Y-107892358D01*
X88180104Y-107772643D01*
X88082357Y-107674896D01*
X87962642Y-107605778D01*
X87909822Y-107591624D01*
X88476972Y-107024474D01*
X88476971Y-107024473D01*
X88434797Y-106993831D01*
X88254228Y-106901827D01*
X88254225Y-106901825D01*
X88061490Y-106839202D01*
X88020598Y-106832726D01*
X87957463Y-106802797D01*
X87920532Y-106743485D01*
X87921530Y-106673622D01*
X87960140Y-106615390D01*
X88020598Y-106587780D01*
X88061607Y-106581285D01*
X88254420Y-106518637D01*
X88435059Y-106426597D01*
X88599076Y-106307432D01*
X88742432Y-106164076D01*
X88861597Y-106000059D01*
X88953637Y-105819420D01*
X89016285Y-105626607D01*
X89048000Y-105426368D01*
X89048000Y-105223632D01*
X89016285Y-105023393D01*
X88983483Y-104922437D01*
X88953638Y-104830582D01*
X88953637Y-104830579D01*
X88906643Y-104738349D01*
X88861597Y-104649941D01*
X88812114Y-104581833D01*
X88742437Y-104485930D01*
X88742433Y-104485925D01*
X88599074Y-104342566D01*
X88599069Y-104342562D01*
X88435062Y-104223405D01*
X88435061Y-104223404D01*
X88435059Y-104223403D01*
X88377186Y-104193915D01*
X88254420Y-104131362D01*
X88254417Y-104131361D01*
X88061608Y-104068715D01*
X88022197Y-104062473D01*
X87959063Y-104032544D01*
X87922131Y-103973233D01*
X87923129Y-103903370D01*
X87961739Y-103845137D01*
X88022197Y-103817527D01*
X88023041Y-103817393D01*
X88061607Y-103811285D01*
X88254420Y-103748637D01*
X88435059Y-103656597D01*
X88599076Y-103537432D01*
X88742432Y-103394076D01*
X88861597Y-103230059D01*
X88953637Y-103049420D01*
X89016285Y-102856607D01*
X89048000Y-102656368D01*
X89048000Y-102453632D01*
X89016285Y-102253393D01*
X88983483Y-102152437D01*
X88953638Y-102060582D01*
X88953637Y-102060579D01*
X88903149Y-101961492D01*
X88861597Y-101879941D01*
X88789137Y-101780208D01*
X88742437Y-101715930D01*
X88742433Y-101715925D01*
X88599074Y-101572566D01*
X88599069Y-101572562D01*
X88435062Y-101453405D01*
X88435061Y-101453404D01*
X88435059Y-101453403D01*
X88321589Y-101395587D01*
X88254420Y-101361362D01*
X88254417Y-101361361D01*
X88061608Y-101298715D01*
X88022197Y-101292473D01*
X87959063Y-101262544D01*
X87922131Y-101203233D01*
X87923129Y-101133370D01*
X87961739Y-101075137D01*
X88022197Y-101047527D01*
X88023041Y-101047393D01*
X88061607Y-101041285D01*
X88254420Y-100978637D01*
X88435059Y-100886597D01*
X88599076Y-100767432D01*
X88742432Y-100624076D01*
X88861597Y-100460059D01*
X88953637Y-100279420D01*
X89016285Y-100086607D01*
X89048000Y-99886368D01*
X89048000Y-99683632D01*
X89016285Y-99483393D01*
X88983483Y-99382437D01*
X88953638Y-99290582D01*
X88953637Y-99290579D01*
X88879058Y-99144211D01*
X88861597Y-99109941D01*
X88787015Y-99007287D01*
X88742437Y-98945930D01*
X88742433Y-98945925D01*
X88599074Y-98802566D01*
X88599069Y-98802562D01*
X88435062Y-98683405D01*
X88435061Y-98683404D01*
X88435059Y-98683403D01*
X88377186Y-98653915D01*
X88254420Y-98591362D01*
X88254417Y-98591361D01*
X88111514Y-98544930D01*
X88053839Y-98505493D01*
X88026640Y-98441134D01*
X88038554Y-98372288D01*
X88085799Y-98320812D01*
X88149831Y-98302999D01*
X88595372Y-98302999D01*
X88635996Y-98298632D01*
X89312000Y-98298632D01*
X89312000Y-98501368D01*
X89316331Y-98528715D01*
X89343715Y-98701608D01*
X89406361Y-98894417D01*
X89406362Y-98894420D01*
X89468915Y-99017186D01*
X89493130Y-99064711D01*
X89498405Y-99075062D01*
X89617562Y-99239069D01*
X89617566Y-99239074D01*
X89760925Y-99382433D01*
X89760930Y-99382437D01*
X89899885Y-99483393D01*
X89924941Y-99501597D01*
X90043026Y-99561764D01*
X90105579Y-99593637D01*
X90105582Y-99593638D01*
X90201986Y-99624961D01*
X90298393Y-99656285D01*
X90329699Y-99661243D01*
X90337802Y-99662527D01*
X90400937Y-99692456D01*
X90437868Y-99751768D01*
X90436870Y-99821630D01*
X90398260Y-99879863D01*
X90337802Y-99907473D01*
X90298391Y-99913715D01*
X90105582Y-99976361D01*
X90105579Y-99976362D01*
X89924937Y-100068405D01*
X89760930Y-100187562D01*
X89760925Y-100187566D01*
X89617566Y-100330925D01*
X89617562Y-100330930D01*
X89498405Y-100494937D01*
X89406362Y-100675579D01*
X89406361Y-100675582D01*
X89343715Y-100868391D01*
X89316331Y-101041285D01*
X89312000Y-101068632D01*
X89312000Y-101271368D01*
X89315343Y-101292473D01*
X89343715Y-101471608D01*
X89406361Y-101664417D01*
X89406362Y-101664420D01*
X89498405Y-101845062D01*
X89617562Y-102009069D01*
X89617566Y-102009074D01*
X89760925Y-102152433D01*
X89760930Y-102152437D01*
X89899885Y-102253393D01*
X89924941Y-102271597D01*
X90043026Y-102331764D01*
X90105579Y-102363637D01*
X90105582Y-102363638D01*
X90201986Y-102394961D01*
X90298393Y-102426285D01*
X90329699Y-102431243D01*
X90337802Y-102432527D01*
X90400937Y-102462456D01*
X90437868Y-102521768D01*
X90436870Y-102591630D01*
X90398260Y-102649863D01*
X90337802Y-102677473D01*
X90298391Y-102683715D01*
X90105582Y-102746361D01*
X90105579Y-102746362D01*
X89924937Y-102838405D01*
X89760930Y-102957562D01*
X89760925Y-102957566D01*
X89617566Y-103100925D01*
X89617562Y-103100930D01*
X89498405Y-103264937D01*
X89406362Y-103445579D01*
X89406361Y-103445582D01*
X89343715Y-103638391D01*
X89316331Y-103811285D01*
X89312000Y-103838632D01*
X89312000Y-104041368D01*
X89315343Y-104062473D01*
X89343715Y-104241608D01*
X89406361Y-104434417D01*
X89406362Y-104434420D01*
X89498405Y-104615062D01*
X89617562Y-104779069D01*
X89617566Y-104779074D01*
X89760925Y-104922433D01*
X89760930Y-104922437D01*
X89899885Y-105023393D01*
X89924941Y-105041597D01*
X90027225Y-105093713D01*
X90105579Y-105133637D01*
X90105582Y-105133638D01*
X90201986Y-105164961D01*
X90298393Y-105196285D01*
X90329699Y-105201243D01*
X90337802Y-105202527D01*
X90400937Y-105232456D01*
X90437868Y-105291768D01*
X90436870Y-105361630D01*
X90398260Y-105419863D01*
X90337802Y-105447473D01*
X90298391Y-105453715D01*
X90105582Y-105516361D01*
X90105579Y-105516362D01*
X89924937Y-105608405D01*
X89760930Y-105727562D01*
X89760925Y-105727566D01*
X89617566Y-105870925D01*
X89617562Y-105870930D01*
X89498405Y-106034937D01*
X89406362Y-106215579D01*
X89406361Y-106215582D01*
X89343715Y-106408391D01*
X89312000Y-106608632D01*
X89312000Y-106811367D01*
X89343715Y-107011608D01*
X89406361Y-107204417D01*
X89406362Y-107204420D01*
X89498405Y-107385062D01*
X89617562Y-107549069D01*
X89617566Y-107549074D01*
X89760925Y-107692433D01*
X89760930Y-107692437D01*
X89828386Y-107741446D01*
X89924941Y-107811597D01*
X90031713Y-107866000D01*
X90105579Y-107903637D01*
X90105582Y-107903638D01*
X90196071Y-107933039D01*
X90298393Y-107966285D01*
X90498632Y-107998000D01*
X90498633Y-107998000D01*
X90701367Y-107998000D01*
X90701368Y-107998000D01*
X90901607Y-107966285D01*
X91094420Y-107903637D01*
X91275059Y-107811597D01*
X91439076Y-107692432D01*
X91582432Y-107549076D01*
X91701597Y-107385059D01*
X91793637Y-107204420D01*
X91856285Y-107011607D01*
X91888000Y-106811368D01*
X91888000Y-106608632D01*
X91856285Y-106408393D01*
X91823483Y-106307437D01*
X91793638Y-106215582D01*
X91793637Y-106215579D01*
X91761764Y-106153026D01*
X91701597Y-106034941D01*
X91676254Y-106000059D01*
X91582437Y-105870930D01*
X91582433Y-105870925D01*
X91439074Y-105727566D01*
X91439069Y-105727562D01*
X91275062Y-105608405D01*
X91275061Y-105608404D01*
X91275059Y-105608403D01*
X91217186Y-105578915D01*
X91094420Y-105516362D01*
X91094417Y-105516361D01*
X90901608Y-105453715D01*
X90862197Y-105447473D01*
X90799063Y-105417544D01*
X90762131Y-105358233D01*
X90763129Y-105288370D01*
X90801739Y-105230137D01*
X90862197Y-105202527D01*
X90863041Y-105202393D01*
X90901607Y-105196285D01*
X91094420Y-105133637D01*
X91275059Y-105041597D01*
X91439076Y-104922432D01*
X91582432Y-104779076D01*
X91701597Y-104615059D01*
X91793637Y-104434420D01*
X91856285Y-104241607D01*
X91888000Y-104041368D01*
X91888000Y-103838632D01*
X91856285Y-103638393D01*
X91823483Y-103537437D01*
X91793638Y-103445582D01*
X91793637Y-103445579D01*
X91749273Y-103358510D01*
X91701597Y-103264941D01*
X91625353Y-103160000D01*
X91582437Y-103100930D01*
X91582433Y-103100925D01*
X91439074Y-102957566D01*
X91439069Y-102957562D01*
X91275062Y-102838405D01*
X91275061Y-102838404D01*
X91275059Y-102838403D01*
X91217186Y-102808915D01*
X91094420Y-102746362D01*
X91094417Y-102746361D01*
X90901608Y-102683715D01*
X90862197Y-102677473D01*
X90799063Y-102647544D01*
X90762131Y-102588233D01*
X90763129Y-102518370D01*
X90801739Y-102460137D01*
X90862197Y-102432527D01*
X90863041Y-102432393D01*
X90901607Y-102426285D01*
X91094420Y-102363637D01*
X91275059Y-102271597D01*
X91439076Y-102152432D01*
X91582432Y-102009076D01*
X91701597Y-101845059D01*
X91793637Y-101664420D01*
X91856285Y-101471607D01*
X91888000Y-101271368D01*
X91888000Y-101068632D01*
X91856285Y-100868393D01*
X91823483Y-100767437D01*
X91793638Y-100675582D01*
X91793637Y-100675579D01*
X91745777Y-100581650D01*
X91701597Y-100494941D01*
X91658948Y-100436239D01*
X91582437Y-100330930D01*
X91582433Y-100330925D01*
X91439074Y-100187566D01*
X91439069Y-100187562D01*
X91275062Y-100068405D01*
X91275061Y-100068404D01*
X91275059Y-100068403D01*
X91167724Y-100013713D01*
X91094420Y-99976362D01*
X91094417Y-99976361D01*
X90901608Y-99913715D01*
X90862197Y-99907473D01*
X90799063Y-99877544D01*
X90762131Y-99818233D01*
X90763129Y-99748370D01*
X90801739Y-99690137D01*
X90862197Y-99662527D01*
X90863041Y-99662393D01*
X90901607Y-99656285D01*
X91094420Y-99593637D01*
X91275059Y-99501597D01*
X91439076Y-99382432D01*
X91582432Y-99239076D01*
X91701597Y-99075059D01*
X91793637Y-98894420D01*
X91856285Y-98701607D01*
X91888000Y-98501368D01*
X91888000Y-98298632D01*
X91856285Y-98098393D01*
X91795068Y-97909983D01*
X91793638Y-97905582D01*
X91793637Y-97905579D01*
X91761764Y-97843026D01*
X91701597Y-97724941D01*
X91673513Y-97686286D01*
X91582437Y-97560930D01*
X91582433Y-97560925D01*
X91439074Y-97417566D01*
X91439069Y-97417562D01*
X91275062Y-97298405D01*
X91275061Y-97298404D01*
X91275059Y-97298403D01*
X91207062Y-97263757D01*
X91094420Y-97206362D01*
X91094417Y-97206361D01*
X90901608Y-97143715D01*
X90801487Y-97127857D01*
X90701368Y-97112000D01*
X90498632Y-97112000D01*
X90431885Y-97122571D01*
X90298391Y-97143715D01*
X90105582Y-97206361D01*
X90105579Y-97206362D01*
X89924937Y-97298405D01*
X89760930Y-97417562D01*
X89760925Y-97417566D01*
X89617566Y-97560925D01*
X89617562Y-97560930D01*
X89498405Y-97724937D01*
X89406362Y-97905579D01*
X89406361Y-97905582D01*
X89343715Y-98098391D01*
X89333950Y-98160044D01*
X89312000Y-98298632D01*
X88635996Y-98298632D01*
X88654983Y-98296591D01*
X88789831Y-98246296D01*
X88905046Y-98160046D01*
X88991296Y-98044831D01*
X89041591Y-97909983D01*
X89048000Y-97850373D01*
X89047999Y-96179628D01*
X89041591Y-96120017D01*
X88991296Y-95985169D01*
X88991295Y-95985168D01*
X88991293Y-95985164D01*
X88905047Y-95869955D01*
X88905044Y-95869952D01*
X88789835Y-95783706D01*
X88789828Y-95783702D01*
X88654982Y-95733408D01*
X88654983Y-95733408D01*
X88595383Y-95727001D01*
X88595381Y-95727000D01*
X88595373Y-95727000D01*
X88595364Y-95727000D01*
X86924629Y-95727000D01*
X86924623Y-95727001D01*
X86865016Y-95733408D01*
X86730171Y-95783702D01*
X86730164Y-95783706D01*
X86614955Y-95869952D01*
X86614952Y-95869955D01*
X86528706Y-95985164D01*
X86528702Y-95985171D01*
X86478408Y-96120017D01*
X86472001Y-96179616D01*
X86472001Y-96179623D01*
X86472000Y-96179635D01*
X52107300Y-96179635D01*
X52107300Y-86062806D01*
X52126985Y-85995767D01*
X52143619Y-85975125D01*
X55952325Y-82166419D01*
X56013648Y-82132934D01*
X56040006Y-82130100D01*
X64489971Y-82130100D01*
X67175500Y-82130100D01*
X67242539Y-82149785D01*
X67288294Y-82202589D01*
X67299500Y-82254100D01*
X67299500Y-91161233D01*
X67333143Y-91330366D01*
X67333146Y-91330378D01*
X67399138Y-91489698D01*
X67399145Y-91489711D01*
X67494954Y-91633098D01*
X67494957Y-91633102D01*
X67616897Y-91755042D01*
X67616901Y-91755045D01*
X67760288Y-91850854D01*
X67760301Y-91850861D01*
X67919621Y-91916853D01*
X67919626Y-91916855D01*
X68088766Y-91950499D01*
X68088769Y-91950500D01*
X68088771Y-91950500D01*
X68261231Y-91950500D01*
X68261232Y-91950499D01*
X68430374Y-91916855D01*
X68547027Y-91868536D01*
X68550991Y-91866893D01*
X68589705Y-91850858D01*
X68733099Y-91755045D01*
X68855045Y-91633099D01*
X68950858Y-91489705D01*
X69016855Y-91330374D01*
X69050500Y-91161229D01*
X69050500Y-89916339D01*
X86622000Y-89916339D01*
X86622000Y-90203660D01*
X86654165Y-90489141D01*
X86654168Y-90489159D01*
X86718099Y-90769260D01*
X86718103Y-90769272D01*
X86812993Y-91040450D01*
X86812996Y-91040458D01*
X86937646Y-91299297D01*
X87090507Y-91542572D01*
X87202915Y-91683529D01*
X87921543Y-90964901D01*
X87997726Y-91069757D01*
X88170243Y-91242274D01*
X88275097Y-91318455D01*
X87556469Y-92037083D01*
X87697427Y-92149492D01*
X87940702Y-92302353D01*
X88199541Y-92427003D01*
X88199549Y-92427006D01*
X88470727Y-92521896D01*
X88470739Y-92521900D01*
X88750840Y-92585831D01*
X88750858Y-92585834D01*
X89036339Y-92617999D01*
X89036343Y-92618000D01*
X89323657Y-92618000D01*
X89323660Y-92617999D01*
X89609141Y-92585834D01*
X89609159Y-92585831D01*
X89889260Y-92521900D01*
X89889272Y-92521896D01*
X90160450Y-92427006D01*
X90160458Y-92427003D01*
X90419297Y-92302353D01*
X90662572Y-92149493D01*
X90803529Y-92037082D01*
X90084902Y-91318455D01*
X90189757Y-91242274D01*
X90362274Y-91069757D01*
X90438455Y-90964902D01*
X91157082Y-91683529D01*
X91269493Y-91542572D01*
X91422353Y-91299297D01*
X91547003Y-91040458D01*
X91547006Y-91040450D01*
X91641896Y-90769272D01*
X91641900Y-90769260D01*
X91705831Y-90489159D01*
X91705834Y-90489141D01*
X91737999Y-90203660D01*
X91738000Y-90203656D01*
X91738000Y-89916343D01*
X91737999Y-89916339D01*
X91705834Y-89630858D01*
X91705831Y-89630840D01*
X91641900Y-89350739D01*
X91641896Y-89350727D01*
X91547006Y-89079549D01*
X91547003Y-89079541D01*
X91422353Y-88820702D01*
X91269492Y-88577427D01*
X91157083Y-88436469D01*
X90438455Y-89155097D01*
X90362274Y-89050243D01*
X90189757Y-88877726D01*
X90084901Y-88801543D01*
X90803529Y-88082915D01*
X90662572Y-87970507D01*
X90419297Y-87817646D01*
X90160458Y-87692996D01*
X90160450Y-87692993D01*
X89889272Y-87598103D01*
X89889260Y-87598099D01*
X89609159Y-87534168D01*
X89609141Y-87534165D01*
X89323660Y-87502000D01*
X89036339Y-87502000D01*
X88750858Y-87534165D01*
X88750840Y-87534168D01*
X88470739Y-87598099D01*
X88470727Y-87598103D01*
X88199549Y-87692993D01*
X88199541Y-87692996D01*
X87940702Y-87817646D01*
X87697433Y-87970503D01*
X87556470Y-88082916D01*
X88275098Y-88801544D01*
X88170243Y-88877726D01*
X87997726Y-89050243D01*
X87921544Y-89155098D01*
X87202916Y-88436470D01*
X87090503Y-88577433D01*
X86937646Y-88820702D01*
X86812996Y-89079541D01*
X86812993Y-89079549D01*
X86718103Y-89350727D01*
X86718099Y-89350739D01*
X86654168Y-89630840D01*
X86654165Y-89630858D01*
X86622000Y-89916339D01*
X69050500Y-89916339D01*
X69050500Y-82254100D01*
X69070185Y-82187061D01*
X69122989Y-82141306D01*
X69174500Y-82130100D01*
X78988031Y-82130100D01*
X78988032Y-82130099D01*
X79157174Y-82096455D01*
X79316505Y-82030458D01*
X79459899Y-81934645D01*
X80145045Y-81249499D01*
X80240858Y-81106105D01*
X80306855Y-80946774D01*
X80340500Y-80777629D01*
X80340500Y-80605171D01*
X80340500Y-78553771D01*
X80340500Y-78553768D01*
X80313795Y-78419516D01*
X80306855Y-78384626D01*
X80252820Y-78254174D01*
X80240861Y-78225301D01*
X80240854Y-78225288D01*
X80145045Y-78081901D01*
X80145042Y-78081897D01*
X80023102Y-77959957D01*
X80023098Y-77959954D01*
X79879711Y-77864145D01*
X79879698Y-77864138D01*
X79720378Y-77798146D01*
X79720366Y-77798143D01*
X79551232Y-77764500D01*
X79551229Y-77764500D01*
X79378771Y-77764500D01*
X79378768Y-77764500D01*
X79209633Y-77798143D01*
X79209621Y-77798146D01*
X79050301Y-77864138D01*
X79050288Y-77864145D01*
X78906901Y-77959954D01*
X78906897Y-77959957D01*
X78784957Y-78081897D01*
X78784954Y-78081901D01*
X78689145Y-78225288D01*
X78689138Y-78225301D01*
X78623146Y-78384621D01*
X78623143Y-78384633D01*
X78589500Y-78553766D01*
X78589500Y-80255100D01*
X78569815Y-80322139D01*
X78517011Y-80367894D01*
X78465500Y-80379100D01*
X65575700Y-80379100D01*
X65508661Y-80359415D01*
X65462906Y-80306611D01*
X65451700Y-80255100D01*
X65451700Y-78664968D01*
X65451699Y-78664966D01*
X65446829Y-78640484D01*
X65418055Y-78495826D01*
X65418053Y-78495821D01*
X65352061Y-78336501D01*
X65352054Y-78336488D01*
X65256246Y-78193102D01*
X65202603Y-78139459D01*
X65134299Y-78071155D01*
X65023099Y-77959955D01*
X65023098Y-77959954D01*
X65023097Y-77959953D01*
X64879711Y-77864145D01*
X64879698Y-77864138D01*
X64720378Y-77798146D01*
X64720366Y-77798143D01*
X64551232Y-77764500D01*
X64551229Y-77764500D01*
X64487900Y-77764500D01*
X64420861Y-77744815D01*
X64375106Y-77692011D01*
X64363900Y-77640500D01*
X64363900Y-73421153D01*
X88369500Y-73421153D01*
X88369500Y-73578846D01*
X88400261Y-73733489D01*
X88400264Y-73733501D01*
X88460602Y-73879172D01*
X88460609Y-73879185D01*
X88548210Y-74010288D01*
X88548213Y-74010292D01*
X88659707Y-74121786D01*
X88659711Y-74121789D01*
X88790814Y-74209390D01*
X88790827Y-74209397D01*
X88936503Y-74269737D01*
X88941789Y-74271341D01*
X89000226Y-74309641D01*
X89028680Y-74373454D01*
X89018117Y-74442521D01*
X88971890Y-74494912D01*
X88941789Y-74508659D01*
X88936503Y-74510262D01*
X88790827Y-74570602D01*
X88790814Y-74570609D01*
X88659711Y-74658210D01*
X88659707Y-74658213D01*
X88548213Y-74769707D01*
X88548210Y-74769711D01*
X88460609Y-74900814D01*
X88460602Y-74900827D01*
X88400264Y-75046498D01*
X88400261Y-75046510D01*
X88369500Y-75201153D01*
X88369500Y-75358846D01*
X88400261Y-75513489D01*
X88400264Y-75513501D01*
X88460602Y-75659172D01*
X88460609Y-75659185D01*
X88548210Y-75790288D01*
X88548213Y-75790292D01*
X88659707Y-75901786D01*
X88659711Y-75901789D01*
X88790814Y-75989390D01*
X88790827Y-75989397D01*
X88936498Y-76049735D01*
X88936503Y-76049737D01*
X89091153Y-76080499D01*
X89091156Y-76080500D01*
X89091158Y-76080500D01*
X89248844Y-76080500D01*
X89248845Y-76080499D01*
X89403497Y-76049737D01*
X89549179Y-75989394D01*
X89641412Y-75927766D01*
X89680875Y-75901398D01*
X89698921Y-75895747D01*
X89714831Y-75885523D01*
X89745792Y-75881071D01*
X89747553Y-75880520D01*
X89749766Y-75880500D01*
X89939903Y-75880500D01*
X90006942Y-75900185D01*
X90027583Y-75916818D01*
X90371284Y-76260520D01*
X90371286Y-76260521D01*
X90371290Y-76260524D01*
X90508209Y-76339573D01*
X90508216Y-76339577D01*
X90660943Y-76380501D01*
X90660945Y-76380501D01*
X90826654Y-76380501D01*
X90826670Y-76380500D01*
X93414281Y-76380500D01*
X93481320Y-76400185D01*
X93524765Y-76448205D01*
X93544947Y-76487814D01*
X93544948Y-76487815D01*
X93669890Y-76659786D01*
X93820213Y-76810109D01*
X93992179Y-76935048D01*
X93992181Y-76935049D01*
X93992184Y-76935051D01*
X94001493Y-76939794D01*
X94052290Y-76987766D01*
X94069087Y-77055587D01*
X94046552Y-77121722D01*
X94001502Y-77160762D01*
X93992443Y-77165378D01*
X93820540Y-77290272D01*
X93820535Y-77290276D01*
X93670276Y-77440535D01*
X93670272Y-77440540D01*
X93545379Y-77612442D01*
X93448904Y-77801782D01*
X93383242Y-78003870D01*
X93383242Y-78003873D01*
X93372769Y-78070000D01*
X94266988Y-78070000D01*
X94234075Y-78127007D01*
X94200000Y-78254174D01*
X94200000Y-78385826D01*
X94234075Y-78512993D01*
X94266988Y-78570000D01*
X93372769Y-78570000D01*
X93383242Y-78636126D01*
X93383242Y-78636129D01*
X93448904Y-78838217D01*
X93545379Y-79027557D01*
X93670272Y-79199459D01*
X93670276Y-79199464D01*
X93820535Y-79349723D01*
X93820540Y-79349727D01*
X93992442Y-79474620D01*
X94181782Y-79571095D01*
X94383871Y-79636757D01*
X94450000Y-79647231D01*
X94450000Y-78753012D01*
X94507007Y-78785925D01*
X94634174Y-78820000D01*
X94765826Y-78820000D01*
X94892993Y-78785925D01*
X94950000Y-78753012D01*
X94950000Y-79647230D01*
X95016126Y-79636757D01*
X95016129Y-79636757D01*
X95218217Y-79571095D01*
X95407557Y-79474620D01*
X95579459Y-79349727D01*
X95579464Y-79349723D01*
X95729723Y-79199464D01*
X95729727Y-79199459D01*
X95854620Y-79027557D01*
X95951095Y-78838217D01*
X96016757Y-78636129D01*
X96016757Y-78636126D01*
X96027231Y-78570000D01*
X95133012Y-78570000D01*
X95165925Y-78512993D01*
X95200000Y-78385826D01*
X95200000Y-78254174D01*
X95165925Y-78127007D01*
X95133012Y-78070000D01*
X96027231Y-78070000D01*
X96016757Y-78003873D01*
X96016757Y-78003870D01*
X95951095Y-77801782D01*
X95854620Y-77612442D01*
X95729727Y-77440540D01*
X95729723Y-77440535D01*
X95579464Y-77290276D01*
X95579459Y-77290272D01*
X95407555Y-77165377D01*
X95398500Y-77160763D01*
X95347706Y-77112788D01*
X95330912Y-77044966D01*
X95353451Y-76978832D01*
X95398508Y-76939793D01*
X95407816Y-76935051D01*
X95511252Y-76859901D01*
X95579786Y-76810109D01*
X95579788Y-76810106D01*
X95579792Y-76810104D01*
X95730104Y-76659792D01*
X95730106Y-76659788D01*
X95730109Y-76659786D01*
X95855048Y-76487820D01*
X95855047Y-76487820D01*
X95855051Y-76487816D01*
X95951557Y-76298412D01*
X96017246Y-76096243D01*
X96050500Y-75886287D01*
X96050500Y-75673713D01*
X96017246Y-75463757D01*
X95951557Y-75261588D01*
X95855051Y-75072184D01*
X95855049Y-75072181D01*
X95855048Y-75072179D01*
X95730109Y-74900213D01*
X95579786Y-74749890D01*
X95407820Y-74624951D01*
X95407115Y-74624591D01*
X95399054Y-74620485D01*
X95348259Y-74572512D01*
X95331463Y-74504692D01*
X95353999Y-74438556D01*
X95399054Y-74399515D01*
X95407816Y-74395051D01*
X95437542Y-74373454D01*
X95579786Y-74270109D01*
X95579788Y-74270106D01*
X95579792Y-74270104D01*
X95730104Y-74119792D01*
X95730106Y-74119788D01*
X95730109Y-74119786D01*
X95855048Y-73947820D01*
X95855047Y-73947820D01*
X95855051Y-73947816D01*
X95951557Y-73758412D01*
X96017246Y-73556243D01*
X96050500Y-73346287D01*
X96050500Y-73133713D01*
X96017246Y-72923757D01*
X95951557Y-72721588D01*
X95855051Y-72532184D01*
X95855049Y-72532181D01*
X95855048Y-72532179D01*
X95730109Y-72360213D01*
X95616569Y-72246673D01*
X95583084Y-72185350D01*
X95588068Y-72115658D01*
X95629940Y-72059725D01*
X95660915Y-72042810D01*
X95792331Y-71993796D01*
X95907546Y-71907546D01*
X95993796Y-71792331D01*
X96044091Y-71657483D01*
X96050500Y-71597873D01*
X96050499Y-69802128D01*
X96044091Y-69742517D01*
X96042848Y-69739185D01*
X95993797Y-69607671D01*
X95993793Y-69607664D01*
X95907547Y-69492455D01*
X95907544Y-69492452D01*
X95792335Y-69406206D01*
X95792328Y-69406202D01*
X95657482Y-69355908D01*
X95657483Y-69355908D01*
X95597883Y-69349501D01*
X95597881Y-69349500D01*
X95597873Y-69349500D01*
X95597864Y-69349500D01*
X93802129Y-69349500D01*
X93802123Y-69349501D01*
X93742516Y-69355908D01*
X93607671Y-69406202D01*
X93607664Y-69406206D01*
X93492455Y-69492452D01*
X93492452Y-69492455D01*
X93406206Y-69607664D01*
X93406202Y-69607671D01*
X93355908Y-69742517D01*
X93349501Y-69802116D01*
X93349501Y-69802123D01*
X93349500Y-69802135D01*
X93349500Y-71597870D01*
X93349501Y-71597876D01*
X93355908Y-71657483D01*
X93406202Y-71792328D01*
X93406206Y-71792335D01*
X93492452Y-71907544D01*
X93492455Y-71907547D01*
X93607664Y-71993793D01*
X93607671Y-71993797D01*
X93739082Y-72042810D01*
X93795016Y-72084681D01*
X93819433Y-72150145D01*
X93804582Y-72218418D01*
X93783431Y-72246673D01*
X93669889Y-72360215D01*
X93544948Y-72532184D01*
X93544947Y-72532185D01*
X93524765Y-72571795D01*
X93476791Y-72622591D01*
X93414281Y-72639500D01*
X90556670Y-72639500D01*
X90556654Y-72639499D01*
X90549058Y-72639499D01*
X90390943Y-72639499D01*
X90314579Y-72659961D01*
X90238214Y-72680423D01*
X90238209Y-72680426D01*
X90101290Y-72759475D01*
X90101282Y-72759481D01*
X89997583Y-72863181D01*
X89970655Y-72877884D01*
X89944837Y-72894477D01*
X89938636Y-72895368D01*
X89936260Y-72896666D01*
X89909902Y-72899500D01*
X89749766Y-72899500D01*
X89682727Y-72879815D01*
X89680875Y-72878602D01*
X89549185Y-72790609D01*
X89549172Y-72790602D01*
X89403501Y-72730264D01*
X89403489Y-72730261D01*
X89248845Y-72699500D01*
X89248842Y-72699500D01*
X89091158Y-72699500D01*
X89091155Y-72699500D01*
X88936510Y-72730261D01*
X88936498Y-72730264D01*
X88790827Y-72790602D01*
X88790814Y-72790609D01*
X88659711Y-72878210D01*
X88659707Y-72878213D01*
X88548213Y-72989707D01*
X88548210Y-72989711D01*
X88460609Y-73120814D01*
X88460602Y-73120827D01*
X88400264Y-73266498D01*
X88400261Y-73266510D01*
X88369500Y-73421153D01*
X64363900Y-73421153D01*
X64363900Y-70353297D01*
X64372543Y-70323860D01*
X64379067Y-70293871D01*
X64382822Y-70288853D01*
X64383585Y-70286258D01*
X64400213Y-70265621D01*
X64489263Y-70176571D01*
X64550582Y-70143089D01*
X64552750Y-70142638D01*
X64617600Y-70129738D01*
X64708097Y-70111737D01*
X64853779Y-70051394D01*
X64984889Y-69963789D01*
X65096389Y-69852289D01*
X65183994Y-69721179D01*
X65244337Y-69575497D01*
X65260855Y-69492455D01*
X65265977Y-69466709D01*
X65298362Y-69404798D01*
X65359078Y-69370224D01*
X65387594Y-69366900D01*
X78548425Y-69366900D01*
X78615464Y-69386585D01*
X78661219Y-69439389D01*
X78670042Y-69466708D01*
X78695261Y-69593491D01*
X78695264Y-69593501D01*
X78755602Y-69739172D01*
X78755609Y-69739185D01*
X78843210Y-69870288D01*
X78843213Y-69870292D01*
X78954707Y-69981786D01*
X78954711Y-69981789D01*
X79085814Y-70069390D01*
X79085827Y-70069397D01*
X79188049Y-70111738D01*
X79231503Y-70129737D01*
X79374681Y-70158217D01*
X79386153Y-70160499D01*
X79386156Y-70160500D01*
X79386158Y-70160500D01*
X79543844Y-70160500D01*
X79543845Y-70160499D01*
X79698497Y-70129737D01*
X79844179Y-70069394D01*
X79975289Y-69981789D01*
X80086789Y-69870289D01*
X80174394Y-69739179D01*
X80234737Y-69593497D01*
X80265500Y-69438842D01*
X80265500Y-69281158D01*
X80265500Y-69281155D01*
X80265499Y-69281153D01*
X80257293Y-69239901D01*
X80234737Y-69126503D01*
X80179146Y-68992293D01*
X80174397Y-68980827D01*
X80174390Y-68980814D01*
X80086789Y-68849711D01*
X80086786Y-68849707D01*
X79975292Y-68738213D01*
X79975288Y-68738210D01*
X79844185Y-68650609D01*
X79844172Y-68650602D01*
X79698501Y-68590264D01*
X79698491Y-68590261D01*
X79543149Y-68559361D01*
X79526392Y-68550595D01*
X79507914Y-68546576D01*
X79482877Y-68527833D01*
X79481238Y-68526976D01*
X79479660Y-68525425D01*
X79358990Y-68404755D01*
X79358988Y-68404752D01*
X79240117Y-68285881D01*
X79240116Y-68285880D01*
X79153304Y-68235760D01*
X79153304Y-68235759D01*
X79153300Y-68235758D01*
X79103185Y-68206823D01*
X78950457Y-68165899D01*
X78792343Y-68165899D01*
X78784747Y-68165899D01*
X78784731Y-68165900D01*
X64971141Y-68165900D01*
X64939505Y-68174376D01*
X64939506Y-68174377D01*
X64818414Y-68206823D01*
X64818409Y-68206826D01*
X64681490Y-68285875D01*
X64681482Y-68285881D01*
X64569680Y-68397683D01*
X64569680Y-68397684D01*
X64569678Y-68397686D01*
X64507434Y-68459930D01*
X64459937Y-68507427D01*
X64398614Y-68540911D01*
X64396448Y-68541362D01*
X64241108Y-68572261D01*
X64241098Y-68572264D01*
X64095427Y-68632602D01*
X64095414Y-68632609D01*
X63964311Y-68720210D01*
X63964307Y-68720213D01*
X63852813Y-68831707D01*
X63852810Y-68831711D01*
X63765209Y-68962814D01*
X63765202Y-68962827D01*
X63704864Y-69108498D01*
X63704861Y-69108508D01*
X63673962Y-69263848D01*
X63641577Y-69325759D01*
X63640026Y-69327337D01*
X63394686Y-69572678D01*
X63282881Y-69684482D01*
X63282880Y-69684484D01*
X63249376Y-69742516D01*
X63232761Y-69771294D01*
X63232759Y-69771296D01*
X63203825Y-69821409D01*
X63203824Y-69821410D01*
X63200708Y-69833039D01*
X63162899Y-69974143D01*
X63162899Y-69974145D01*
X63162899Y-70142246D01*
X63162900Y-70142259D01*
X63162900Y-79854100D01*
X63143215Y-79921139D01*
X63090411Y-79966894D01*
X63038900Y-79978100D01*
X55266932Y-79978100D01*
X55226011Y-79989064D01*
X55226011Y-79989065D01*
X55188743Y-79999051D01*
X55114206Y-80019023D01*
X55114201Y-80019026D01*
X54977282Y-80098075D01*
X54977274Y-80098081D01*
X50075281Y-85000074D01*
X50075279Y-85000077D01*
X50025161Y-85086886D01*
X50025159Y-85086888D01*
X49996225Y-85137001D01*
X49996224Y-85137002D01*
X49996223Y-85137007D01*
X49955299Y-85289735D01*
X49955299Y-85289737D01*
X49955299Y-85457838D01*
X49955300Y-85457851D01*
X49955300Y-101384102D01*
X49935615Y-101451141D01*
X49918981Y-101471783D01*
X48514383Y-102876381D01*
X48453060Y-102909866D01*
X48424396Y-102907816D01*
X48424396Y-102910000D01*
X47473012Y-102910000D01*
X47505925Y-102852993D01*
X47540000Y-102725826D01*
X47540000Y-102594174D01*
X47505925Y-102467007D01*
X47473012Y-102410000D01*
X48367231Y-102410000D01*
X48356757Y-102343873D01*
X48356757Y-102343870D01*
X48291095Y-102141782D01*
X48194620Y-101952442D01*
X48069727Y-101780540D01*
X48069723Y-101780535D01*
X47919464Y-101630276D01*
X47919459Y-101630272D01*
X47747555Y-101505377D01*
X47738500Y-101500763D01*
X47687706Y-101452788D01*
X47670912Y-101384966D01*
X47693451Y-101318832D01*
X47738508Y-101279793D01*
X47747816Y-101275051D01*
X47846666Y-101203233D01*
X47919786Y-101150109D01*
X47919788Y-101150106D01*
X47919792Y-101150104D01*
X48070104Y-100999792D01*
X48070106Y-100999788D01*
X48070109Y-100999786D01*
X48195048Y-100827820D01*
X48195047Y-100827820D01*
X48195051Y-100827816D01*
X48291557Y-100638412D01*
X48357246Y-100436243D01*
X48390500Y-100226287D01*
X48390500Y-100013713D01*
X48357246Y-99803757D01*
X48291557Y-99601588D01*
X48195051Y-99412184D01*
X48195049Y-99412181D01*
X48195048Y-99412179D01*
X48070109Y-99240213D01*
X47919786Y-99089890D01*
X47747820Y-98964951D01*
X47747115Y-98964591D01*
X47739054Y-98960485D01*
X47688259Y-98912512D01*
X47671463Y-98844692D01*
X47693999Y-98778556D01*
X47739054Y-98739515D01*
X47747816Y-98735051D01*
X47827998Y-98676796D01*
X47919786Y-98610109D01*
X47919788Y-98610106D01*
X47919792Y-98610104D01*
X48070104Y-98459792D01*
X48070106Y-98459788D01*
X48070109Y-98459786D01*
X48195048Y-98287820D01*
X48195047Y-98287820D01*
X48195051Y-98287816D01*
X48291557Y-98098412D01*
X48357246Y-97896243D01*
X48390500Y-97686287D01*
X48390500Y-97473713D01*
X48357246Y-97263757D01*
X48291557Y-97061588D01*
X48195051Y-96872184D01*
X48195049Y-96872181D01*
X48195048Y-96872179D01*
X48070109Y-96700213D01*
X47919786Y-96549890D01*
X47747817Y-96424949D01*
X47738504Y-96420204D01*
X47687707Y-96372230D01*
X47670912Y-96304409D01*
X47693449Y-96238274D01*
X47738507Y-96199232D01*
X47747558Y-96194620D01*
X47919459Y-96069727D01*
X47919464Y-96069723D01*
X48069723Y-95919464D01*
X48069727Y-95919459D01*
X48194620Y-95747557D01*
X48291095Y-95558217D01*
X48356757Y-95356129D01*
X48356757Y-95356126D01*
X48367231Y-95290000D01*
X47473012Y-95290000D01*
X47505925Y-95232993D01*
X47540000Y-95105826D01*
X47540000Y-94974174D01*
X47505925Y-94847007D01*
X47473012Y-94790000D01*
X48367231Y-94790000D01*
X48356757Y-94723873D01*
X48356757Y-94723870D01*
X48291095Y-94521782D01*
X48194620Y-94332442D01*
X48069727Y-94160540D01*
X48069723Y-94160535D01*
X47919464Y-94010276D01*
X47919459Y-94010272D01*
X47747555Y-93885377D01*
X47738500Y-93880763D01*
X47687706Y-93832788D01*
X47670912Y-93764966D01*
X47693451Y-93698832D01*
X47738508Y-93659793D01*
X47747816Y-93655051D01*
X47827007Y-93597515D01*
X47919786Y-93530109D01*
X47919788Y-93530106D01*
X47919792Y-93530104D01*
X48070104Y-93379792D01*
X48070106Y-93379788D01*
X48070109Y-93379786D01*
X48195048Y-93207820D01*
X48195047Y-93207820D01*
X48195051Y-93207816D01*
X48291557Y-93018412D01*
X48357246Y-92816243D01*
X48390500Y-92606287D01*
X48390500Y-92393713D01*
X48357246Y-92183757D01*
X48291557Y-91981588D01*
X48195051Y-91792184D01*
X48195049Y-91792181D01*
X48195048Y-91792179D01*
X48070109Y-91620213D01*
X47919786Y-91469890D01*
X47747820Y-91344951D01*
X47747115Y-91344591D01*
X47739054Y-91340485D01*
X47688259Y-91292512D01*
X47671463Y-91224692D01*
X47693999Y-91158556D01*
X47739054Y-91119515D01*
X47747816Y-91115051D01*
X47769789Y-91099086D01*
X47919786Y-90990109D01*
X47919788Y-90990106D01*
X47919792Y-90990104D01*
X48070104Y-90839792D01*
X48070106Y-90839788D01*
X48070109Y-90839786D01*
X48195048Y-90667820D01*
X48195047Y-90667820D01*
X48195051Y-90667816D01*
X48291557Y-90478412D01*
X48357246Y-90276243D01*
X48390500Y-90066287D01*
X48390500Y-89853713D01*
X48357246Y-89643757D01*
X48291557Y-89441588D01*
X48195051Y-89252184D01*
X48195049Y-89252181D01*
X48195048Y-89252179D01*
X48070109Y-89080213D01*
X47919786Y-88929890D01*
X47747820Y-88804951D01*
X47747115Y-88804591D01*
X47739054Y-88800485D01*
X47688259Y-88752512D01*
X47671463Y-88684692D01*
X47693999Y-88618556D01*
X47739054Y-88579515D01*
X47747816Y-88575051D01*
X47837352Y-88510000D01*
X47919786Y-88450109D01*
X47919788Y-88450106D01*
X47919792Y-88450104D01*
X48070104Y-88299792D01*
X48070106Y-88299788D01*
X48070109Y-88299786D01*
X48195048Y-88127820D01*
X48195050Y-88127817D01*
X48195051Y-88127816D01*
X48291557Y-87938412D01*
X48357246Y-87736243D01*
X48390500Y-87526287D01*
X48390500Y-87313713D01*
X48357246Y-87103757D01*
X48291557Y-86901588D01*
X48195051Y-86712184D01*
X48195049Y-86712181D01*
X48195048Y-86712179D01*
X48070109Y-86540213D01*
X47919786Y-86389890D01*
X47747820Y-86264951D01*
X47739600Y-86260763D01*
X47739054Y-86260485D01*
X47688259Y-86212512D01*
X47671463Y-86144692D01*
X47693999Y-86078556D01*
X47739054Y-86039515D01*
X47747816Y-86035051D01*
X47769789Y-86019086D01*
X47919786Y-85910109D01*
X47919788Y-85910106D01*
X47919792Y-85910104D01*
X48070104Y-85759792D01*
X48070106Y-85759788D01*
X48070109Y-85759786D01*
X48195048Y-85587820D01*
X48195047Y-85587820D01*
X48195051Y-85587816D01*
X48291557Y-85398412D01*
X48357246Y-85196243D01*
X48390500Y-84986287D01*
X48390500Y-84773713D01*
X48357246Y-84563757D01*
X48291557Y-84361588D01*
X48195051Y-84172184D01*
X48195049Y-84172181D01*
X48195048Y-84172179D01*
X48070109Y-84000213D01*
X47919786Y-83849890D01*
X47747817Y-83724949D01*
X47738504Y-83720204D01*
X47687707Y-83672230D01*
X47670912Y-83604409D01*
X47693449Y-83538274D01*
X47738507Y-83499232D01*
X47747558Y-83494620D01*
X47919459Y-83369727D01*
X47919464Y-83369723D01*
X48069723Y-83219464D01*
X48069727Y-83219459D01*
X48194620Y-83047557D01*
X48291095Y-82858217D01*
X48356757Y-82656129D01*
X48356757Y-82656126D01*
X48367231Y-82590000D01*
X47473012Y-82590000D01*
X47505925Y-82532993D01*
X47540000Y-82405826D01*
X47540000Y-82274174D01*
X47505925Y-82147007D01*
X47473012Y-82090000D01*
X48367231Y-82090000D01*
X48356757Y-82023873D01*
X48356757Y-82023870D01*
X48291095Y-81821782D01*
X48194620Y-81632442D01*
X48069727Y-81460540D01*
X48069723Y-81460535D01*
X47919464Y-81310276D01*
X47919459Y-81310272D01*
X47747555Y-81185377D01*
X47738500Y-81180763D01*
X47687706Y-81132788D01*
X47670912Y-81064966D01*
X47693451Y-80998832D01*
X47738508Y-80959793D01*
X47747816Y-80955051D01*
X47827007Y-80897515D01*
X47919786Y-80830109D01*
X47919788Y-80830106D01*
X47919792Y-80830104D01*
X48070104Y-80679792D01*
X48070106Y-80679788D01*
X48070109Y-80679786D01*
X48195048Y-80507820D01*
X48195047Y-80507820D01*
X48195051Y-80507816D01*
X48291557Y-80318412D01*
X48357246Y-80116243D01*
X48390500Y-79906287D01*
X48390500Y-79693713D01*
X48357246Y-79483757D01*
X48291557Y-79281588D01*
X48195051Y-79092184D01*
X48195049Y-79092181D01*
X48195048Y-79092179D01*
X48070109Y-78920213D01*
X47919786Y-78769890D01*
X47747817Y-78644949D01*
X47738504Y-78640204D01*
X47687707Y-78592230D01*
X47670912Y-78524409D01*
X47693449Y-78458274D01*
X47738507Y-78419232D01*
X47747558Y-78414620D01*
X47919459Y-78289727D01*
X47919464Y-78289723D01*
X48069723Y-78139464D01*
X48069727Y-78139459D01*
X48194620Y-77967557D01*
X48291095Y-77778217D01*
X48356757Y-77576129D01*
X48356757Y-77576126D01*
X48367231Y-77510000D01*
X47473012Y-77510000D01*
X47505925Y-77452993D01*
X47540000Y-77325826D01*
X47540000Y-77194174D01*
X47505925Y-77067007D01*
X47473012Y-77010000D01*
X48367231Y-77010000D01*
X48356757Y-76943873D01*
X48356757Y-76943870D01*
X48291095Y-76741782D01*
X48194620Y-76552442D01*
X48069727Y-76380540D01*
X48069723Y-76380535D01*
X47919464Y-76230276D01*
X47919459Y-76230272D01*
X47747555Y-76105377D01*
X47738500Y-76100763D01*
X47687706Y-76052788D01*
X47670912Y-75984966D01*
X47693451Y-75918832D01*
X47738508Y-75879793D01*
X47747816Y-75875051D01*
X47864483Y-75790288D01*
X47919786Y-75750109D01*
X47919788Y-75750106D01*
X47919792Y-75750104D01*
X48070104Y-75599792D01*
X48070106Y-75599788D01*
X48070109Y-75599786D01*
X48195048Y-75427820D01*
X48195047Y-75427820D01*
X48195051Y-75427816D01*
X48291557Y-75238412D01*
X48357246Y-75036243D01*
X48390500Y-74826287D01*
X48390500Y-74613713D01*
X48357246Y-74403757D01*
X48291557Y-74201588D01*
X48195051Y-74012184D01*
X48195049Y-74012181D01*
X48195048Y-74012179D01*
X48070109Y-73840213D01*
X47919786Y-73689890D01*
X47747820Y-73564951D01*
X47747115Y-73564591D01*
X47739054Y-73560485D01*
X47688259Y-73512512D01*
X47671463Y-73444692D01*
X47693999Y-73378556D01*
X47739054Y-73339515D01*
X47747816Y-73335051D01*
X47769789Y-73319086D01*
X47919786Y-73210109D01*
X47919788Y-73210106D01*
X47919792Y-73210104D01*
X48070104Y-73059792D01*
X48070106Y-73059788D01*
X48070109Y-73059786D01*
X48189564Y-72895368D01*
X48195051Y-72887816D01*
X48291557Y-72698412D01*
X48357246Y-72496243D01*
X48390500Y-72286287D01*
X48390500Y-72073713D01*
X48357246Y-71863757D01*
X48291557Y-71661588D01*
X48195051Y-71472184D01*
X48195049Y-71472181D01*
X48195048Y-71472179D01*
X48070109Y-71300213D01*
X47919786Y-71149890D01*
X47747820Y-71024951D01*
X47747115Y-71024591D01*
X47739054Y-71020485D01*
X47688259Y-70972512D01*
X47671463Y-70904692D01*
X47693999Y-70838556D01*
X47739054Y-70799515D01*
X47747816Y-70795051D01*
X47769789Y-70779086D01*
X47919786Y-70670109D01*
X47919788Y-70670106D01*
X47919792Y-70670104D01*
X48070104Y-70519792D01*
X48070106Y-70519788D01*
X48070109Y-70519786D01*
X48195048Y-70347820D01*
X48195050Y-70347817D01*
X48195051Y-70347816D01*
X48291557Y-70158412D01*
X48357246Y-69956243D01*
X48390500Y-69746287D01*
X48390500Y-69533713D01*
X48357246Y-69323757D01*
X48291557Y-69121588D01*
X48195051Y-68932184D01*
X48195049Y-68932181D01*
X48195048Y-68932179D01*
X48070109Y-68760213D01*
X47919786Y-68609890D01*
X47747820Y-68484951D01*
X47558414Y-68388444D01*
X47558413Y-68388443D01*
X47558412Y-68388443D01*
X47356243Y-68322754D01*
X47356241Y-68322753D01*
X47356240Y-68322753D01*
X47194957Y-68297208D01*
X47146287Y-68289500D01*
X46933713Y-68289500D01*
X46885042Y-68297208D01*
X46723760Y-68322753D01*
X46521585Y-68388444D01*
X46332179Y-68484951D01*
X46160213Y-68609890D01*
X46009890Y-68760213D01*
X45884949Y-68932182D01*
X45880202Y-68941499D01*
X45832227Y-68992293D01*
X45764405Y-69009087D01*
X45698271Y-68986548D01*
X45659234Y-68941495D01*
X45654622Y-68932444D01*
X45529727Y-68760540D01*
X45529723Y-68760535D01*
X45379464Y-68610276D01*
X45379459Y-68610272D01*
X45207557Y-68485379D01*
X45018215Y-68388903D01*
X44816124Y-68323241D01*
X44750000Y-68312768D01*
X44750000Y-69206988D01*
X44692993Y-69174075D01*
X44565826Y-69140000D01*
X44434174Y-69140000D01*
X44307007Y-69174075D01*
X44250000Y-69206988D01*
X44250000Y-68312768D01*
X44249999Y-68312768D01*
X44183875Y-68323241D01*
X43981784Y-68388903D01*
X43792442Y-68485379D01*
X43620540Y-68610272D01*
X43620535Y-68610276D01*
X43470276Y-68760535D01*
X43470272Y-68760540D01*
X43345379Y-68932442D01*
X43248904Y-69121782D01*
X43183242Y-69323870D01*
X43183242Y-69323873D01*
X43172769Y-69390000D01*
X44066988Y-69390000D01*
X44034075Y-69447007D01*
X44000000Y-69574174D01*
X44000000Y-69705826D01*
X44034075Y-69832993D01*
X44066988Y-69890000D01*
X43172769Y-69890000D01*
X43183242Y-69956126D01*
X43183242Y-69956129D01*
X43248904Y-70158217D01*
X43345379Y-70347557D01*
X43470272Y-70519459D01*
X43470276Y-70519464D01*
X43620535Y-70669723D01*
X43620540Y-70669727D01*
X43792444Y-70794622D01*
X43801495Y-70799234D01*
X43852292Y-70847208D01*
X43869087Y-70915029D01*
X43846550Y-70981164D01*
X43801499Y-71020202D01*
X43792182Y-71024949D01*
X43620213Y-71149890D01*
X43469890Y-71300213D01*
X43344951Y-71472179D01*
X43248444Y-71661585D01*
X43182753Y-71863760D01*
X43154395Y-72042810D01*
X43149500Y-72073713D01*
X42650500Y-72073713D01*
X42650500Y-67535953D01*
X53564900Y-67535953D01*
X53564900Y-67693646D01*
X53595661Y-67848289D01*
X53595664Y-67848301D01*
X53656002Y-67993972D01*
X53656009Y-67993985D01*
X53743610Y-68125088D01*
X53743613Y-68125092D01*
X53855107Y-68236586D01*
X53855111Y-68236589D01*
X53986214Y-68324190D01*
X53986227Y-68324197D01*
X54131898Y-68384535D01*
X54131903Y-68384537D01*
X54286553Y-68415299D01*
X54286556Y-68415300D01*
X54286558Y-68415300D01*
X54444244Y-68415300D01*
X54444245Y-68415299D01*
X54598897Y-68384537D01*
X54744579Y-68324194D01*
X54796502Y-68289500D01*
X54876273Y-68236199D01*
X54942950Y-68215321D01*
X54945164Y-68215301D01*
X54977854Y-68215301D01*
X54977857Y-68215301D01*
X55130585Y-68174377D01*
X55180704Y-68145439D01*
X55267516Y-68095320D01*
X55379320Y-67983516D01*
X55379320Y-67983514D01*
X55389528Y-67973307D01*
X55389530Y-67973304D01*
X58588796Y-64774038D01*
X93199500Y-64774038D01*
X93199500Y-65025961D01*
X93238910Y-65274785D01*
X93316760Y-65514383D01*
X93431132Y-65738848D01*
X93579201Y-65942649D01*
X93579205Y-65942654D01*
X93757345Y-66120794D01*
X93757350Y-66120798D01*
X93823512Y-66168867D01*
X93961155Y-66268870D01*
X94104184Y-66341747D01*
X94185616Y-66383239D01*
X94185618Y-66383239D01*
X94185621Y-66383241D01*
X94425215Y-66461090D01*
X94674038Y-66500500D01*
X94674039Y-66500500D01*
X94925961Y-66500500D01*
X94925962Y-66500500D01*
X95174785Y-66461090D01*
X95414379Y-66383241D01*
X95638845Y-66268870D01*
X95842656Y-66120793D01*
X96020793Y-65942656D01*
X96168870Y-65738845D01*
X96283241Y-65514379D01*
X96361090Y-65274785D01*
X96400500Y-65025962D01*
X96400500Y-64774038D01*
X96361090Y-64525215D01*
X96283241Y-64285621D01*
X96283239Y-64285618D01*
X96283239Y-64285616D01*
X96241747Y-64204184D01*
X96168870Y-64061155D01*
X96096213Y-63961151D01*
X96020798Y-63857350D01*
X96020794Y-63857345D01*
X95842654Y-63679205D01*
X95842649Y-63679201D01*
X95638848Y-63531132D01*
X95638847Y-63531131D01*
X95638845Y-63531130D01*
X95568747Y-63495413D01*
X95414383Y-63416760D01*
X95174785Y-63338910D01*
X95034930Y-63316759D01*
X94925962Y-63299500D01*
X94674038Y-63299500D01*
X94565070Y-63316759D01*
X94425214Y-63338910D01*
X94185616Y-63416760D01*
X93961151Y-63531132D01*
X93757350Y-63679201D01*
X93757345Y-63679205D01*
X93579205Y-63857345D01*
X93579201Y-63857350D01*
X93431132Y-64061151D01*
X93316760Y-64285616D01*
X93238910Y-64525214D01*
X93199500Y-64774038D01*
X58588796Y-64774038D01*
X63443606Y-59919228D01*
X63443611Y-59919224D01*
X63453814Y-59909020D01*
X63453816Y-59909020D01*
X63565620Y-59797216D01*
X63644677Y-59660284D01*
X63685600Y-59507557D01*
X63685600Y-58021730D01*
X63705285Y-57954691D01*
X63736715Y-57921412D01*
X63775578Y-57893176D01*
X63899290Y-57803294D01*
X64038394Y-57664190D01*
X64064783Y-57627868D01*
X64120110Y-57585203D01*
X64189724Y-57579223D01*
X64251519Y-57611829D01*
X64265414Y-57627864D01*
X64291807Y-57664190D01*
X64430911Y-57803294D01*
X64590063Y-57918925D01*
X64644600Y-57946713D01*
X64765339Y-58008233D01*
X64765341Y-58008233D01*
X64765344Y-58008235D01*
X64865631Y-58040820D01*
X64952438Y-58069026D01*
X65146735Y-58099800D01*
X65146740Y-58099800D01*
X65343467Y-58099800D01*
X65537763Y-58069026D01*
X65539268Y-58068537D01*
X65724858Y-58008235D01*
X65900139Y-57918925D01*
X66059291Y-57803294D01*
X66198395Y-57664190D01*
X66224782Y-57627870D01*
X66280111Y-57585205D01*
X66349725Y-57579226D01*
X66411520Y-57611831D01*
X66425415Y-57627868D01*
X66451805Y-57664190D01*
X66590909Y-57803294D01*
X66750061Y-57918925D01*
X66804598Y-57946713D01*
X66925337Y-58008233D01*
X66925339Y-58008233D01*
X66925342Y-58008235D01*
X67025629Y-58040820D01*
X67112436Y-58069026D01*
X67306733Y-58099800D01*
X67306738Y-58099800D01*
X67503465Y-58099800D01*
X67697761Y-58069026D01*
X67699266Y-58068537D01*
X67884856Y-58008235D01*
X68060137Y-57918925D01*
X68219289Y-57803294D01*
X68358393Y-57664190D01*
X68384782Y-57627868D01*
X68440109Y-57585203D01*
X68509723Y-57579223D01*
X68571518Y-57611829D01*
X68585413Y-57627864D01*
X68611806Y-57664190D01*
X68750910Y-57803294D01*
X68910062Y-57918925D01*
X68964599Y-57946713D01*
X69085338Y-58008233D01*
X69085340Y-58008233D01*
X69085343Y-58008235D01*
X69185630Y-58040820D01*
X69272437Y-58069026D01*
X69466734Y-58099800D01*
X69466739Y-58099800D01*
X69663466Y-58099800D01*
X69857762Y-58069026D01*
X69859267Y-58068537D01*
X70044857Y-58008235D01*
X70220138Y-57918925D01*
X70379290Y-57803294D01*
X70518394Y-57664190D01*
X70544782Y-57627869D01*
X70600112Y-57585204D01*
X70669725Y-57579225D01*
X70731520Y-57611831D01*
X70745416Y-57627868D01*
X70771806Y-57664190D01*
X70910910Y-57803294D01*
X71070062Y-57918925D01*
X71124599Y-57946713D01*
X71245338Y-58008233D01*
X71245340Y-58008233D01*
X71245343Y-58008235D01*
X71345630Y-58040820D01*
X71432437Y-58069026D01*
X71626734Y-58099800D01*
X71626739Y-58099800D01*
X71823466Y-58099800D01*
X72017762Y-58069026D01*
X72019267Y-58068537D01*
X72204857Y-58008235D01*
X72380138Y-57918925D01*
X72539290Y-57803294D01*
X72678394Y-57664190D01*
X72704783Y-57627868D01*
X72760110Y-57585203D01*
X72829724Y-57579223D01*
X72891519Y-57611829D01*
X72905414Y-57627864D01*
X72931807Y-57664190D01*
X73070911Y-57803294D01*
X73230063Y-57918925D01*
X73284600Y-57946713D01*
X73405339Y-58008233D01*
X73405341Y-58008233D01*
X73405344Y-58008235D01*
X73505631Y-58040820D01*
X73592438Y-58069026D01*
X73786735Y-58099800D01*
X73786740Y-58099800D01*
X73983467Y-58099800D01*
X74177763Y-58069026D01*
X74179268Y-58068537D01*
X74364858Y-58008235D01*
X74540139Y-57918925D01*
X74699291Y-57803294D01*
X74838395Y-57664190D01*
X74864782Y-57627870D01*
X74920111Y-57585205D01*
X74989725Y-57579226D01*
X75051520Y-57611831D01*
X75065415Y-57627868D01*
X75091805Y-57664190D01*
X75230909Y-57803294D01*
X75390061Y-57918925D01*
X75444598Y-57946713D01*
X75565337Y-58008233D01*
X75565339Y-58008233D01*
X75565342Y-58008235D01*
X75665629Y-58040820D01*
X75752436Y-58069026D01*
X75946733Y-58099800D01*
X75946738Y-58099800D01*
X76143465Y-58099800D01*
X76337761Y-58069026D01*
X76339266Y-58068537D01*
X76524856Y-58008235D01*
X76700137Y-57918925D01*
X76859289Y-57803294D01*
X76998393Y-57664190D01*
X77024782Y-57627868D01*
X77080109Y-57585203D01*
X77149723Y-57579223D01*
X77211518Y-57611829D01*
X77225413Y-57627864D01*
X77251806Y-57664190D01*
X77390910Y-57803294D01*
X77550062Y-57918925D01*
X77604599Y-57946713D01*
X77725338Y-58008233D01*
X77725340Y-58008233D01*
X77725343Y-58008235D01*
X77825630Y-58040820D01*
X77912437Y-58069026D01*
X78106734Y-58099800D01*
X78106739Y-58099800D01*
X78303466Y-58099800D01*
X78497762Y-58069026D01*
X78499267Y-58068537D01*
X78684857Y-58008235D01*
X78860138Y-57918925D01*
X79019290Y-57803294D01*
X79158394Y-57664190D01*
X79184783Y-57627868D01*
X79240110Y-57585203D01*
X79309724Y-57579223D01*
X79371519Y-57611829D01*
X79385414Y-57627864D01*
X79411807Y-57664190D01*
X79550911Y-57803294D01*
X79710063Y-57918925D01*
X79764600Y-57946713D01*
X79885339Y-58008233D01*
X79885341Y-58008233D01*
X79885344Y-58008235D01*
X79985631Y-58040820D01*
X80072438Y-58069026D01*
X80266735Y-58099800D01*
X80266740Y-58099800D01*
X80463467Y-58099800D01*
X80657763Y-58069026D01*
X80659268Y-58068537D01*
X80844858Y-58008235D01*
X81020139Y-57918925D01*
X81179291Y-57803294D01*
X81318395Y-57664190D01*
X81344782Y-57627870D01*
X81400111Y-57585205D01*
X81469725Y-57579226D01*
X81531520Y-57611831D01*
X81545415Y-57627868D01*
X81571805Y-57664190D01*
X81710909Y-57803294D01*
X81870061Y-57918925D01*
X81924598Y-57946713D01*
X82045337Y-58008233D01*
X82045339Y-58008233D01*
X82045342Y-58008235D01*
X82145629Y-58040820D01*
X82232436Y-58069026D01*
X82426733Y-58099800D01*
X82426738Y-58099800D01*
X82623465Y-58099800D01*
X82817761Y-58069026D01*
X82819266Y-58068537D01*
X83004856Y-58008235D01*
X83180137Y-57918925D01*
X83339289Y-57803294D01*
X83478393Y-57664190D01*
X83594024Y-57505038D01*
X83683334Y-57329757D01*
X83744125Y-57142662D01*
X83744143Y-57142546D01*
X83774899Y-56948366D01*
X83774899Y-56751633D01*
X83744125Y-56557337D01*
X83697239Y-56413038D01*
X83683334Y-56370243D01*
X83683332Y-56370240D01*
X83683332Y-56370238D01*
X83605099Y-56216698D01*
X83594024Y-56194962D01*
X83478393Y-56035810D01*
X83339289Y-55896706D01*
X83180137Y-55781075D01*
X83175272Y-55778596D01*
X83004860Y-55691766D01*
X82817761Y-55630973D01*
X82623465Y-55600200D01*
X82623460Y-55600200D01*
X82426738Y-55600200D01*
X82426733Y-55600200D01*
X82232436Y-55630973D01*
X82045337Y-55691766D01*
X81870060Y-55781075D01*
X81779258Y-55847047D01*
X81710909Y-55896706D01*
X81710907Y-55896708D01*
X81710906Y-55896708D01*
X81571806Y-56035808D01*
X81545418Y-56072129D01*
X81490087Y-56114794D01*
X81420474Y-56120773D01*
X81358679Y-56088167D01*
X81344782Y-56072129D01*
X81318395Y-56035810D01*
X81179291Y-55896706D01*
X81020139Y-55781075D01*
X81015274Y-55778596D01*
X80844862Y-55691766D01*
X80657763Y-55630973D01*
X80463467Y-55600200D01*
X80463462Y-55600200D01*
X80266740Y-55600200D01*
X80266735Y-55600200D01*
X80072438Y-55630973D01*
X79885339Y-55691766D01*
X79710062Y-55781075D01*
X79619260Y-55847047D01*
X79550911Y-55896706D01*
X79550909Y-55896708D01*
X79550908Y-55896708D01*
X79411806Y-56035810D01*
X79385417Y-56072132D01*
X79330086Y-56114797D01*
X79260473Y-56120775D01*
X79198678Y-56088168D01*
X79184782Y-56072130D01*
X79158396Y-56035813D01*
X79158391Y-56035807D01*
X79019292Y-55896708D01*
X79019290Y-55896706D01*
X78860138Y-55781075D01*
X78855273Y-55778596D01*
X78684861Y-55691766D01*
X78497762Y-55630973D01*
X78303466Y-55600200D01*
X78303461Y-55600200D01*
X78106739Y-55600200D01*
X78106734Y-55600200D01*
X77912437Y-55630973D01*
X77725338Y-55691766D01*
X77550061Y-55781075D01*
X77459259Y-55847047D01*
X77390910Y-55896706D01*
X77390908Y-55896708D01*
X77390907Y-55896708D01*
X77251805Y-56035810D01*
X77225416Y-56072132D01*
X77170085Y-56114797D01*
X77100472Y-56120775D01*
X77038677Y-56088168D01*
X77024781Y-56072130D01*
X76998395Y-56035813D01*
X76998390Y-56035807D01*
X76859291Y-55896708D01*
X76859289Y-55896706D01*
X76700137Y-55781075D01*
X76695272Y-55778596D01*
X76524860Y-55691766D01*
X76337761Y-55630973D01*
X76143465Y-55600200D01*
X76143460Y-55600200D01*
X75946738Y-55600200D01*
X75946733Y-55600200D01*
X75752436Y-55630973D01*
X75565337Y-55691766D01*
X75390060Y-55781075D01*
X75299258Y-55847047D01*
X75230909Y-55896706D01*
X75230907Y-55896708D01*
X75230906Y-55896708D01*
X75091806Y-56035808D01*
X75065418Y-56072129D01*
X75010087Y-56114794D01*
X74940474Y-56120773D01*
X74878679Y-56088167D01*
X74864782Y-56072129D01*
X74838395Y-56035810D01*
X74699291Y-55896706D01*
X74540139Y-55781075D01*
X74535274Y-55778596D01*
X74364862Y-55691766D01*
X74177763Y-55630973D01*
X73983467Y-55600200D01*
X73983462Y-55600200D01*
X73786740Y-55600200D01*
X73786735Y-55600200D01*
X73592438Y-55630973D01*
X73405339Y-55691766D01*
X73230062Y-55781075D01*
X73139260Y-55847047D01*
X73070911Y-55896706D01*
X73070909Y-55896708D01*
X73070908Y-55896708D01*
X72931806Y-56035810D01*
X72905417Y-56072132D01*
X72850086Y-56114797D01*
X72780473Y-56120775D01*
X72718678Y-56088168D01*
X72704782Y-56072130D01*
X72678396Y-56035813D01*
X72678391Y-56035807D01*
X72539292Y-55896708D01*
X72539290Y-55896706D01*
X72380138Y-55781075D01*
X72375273Y-55778596D01*
X72204861Y-55691766D01*
X72017762Y-55630973D01*
X71823466Y-55600200D01*
X71823461Y-55600200D01*
X71626739Y-55600200D01*
X71626734Y-55600200D01*
X71432437Y-55630973D01*
X71245338Y-55691766D01*
X71070061Y-55781075D01*
X70979259Y-55847047D01*
X70910910Y-55896706D01*
X70910908Y-55896708D01*
X70910907Y-55896708D01*
X70771808Y-56035807D01*
X70771801Y-56035816D01*
X70745417Y-56072130D01*
X70690087Y-56114796D01*
X70620473Y-56120774D01*
X70558679Y-56088167D01*
X70544783Y-56072130D01*
X70518398Y-56035816D01*
X70518396Y-56035813D01*
X70518394Y-56035810D01*
X70379290Y-55896706D01*
X70220138Y-55781075D01*
X70215273Y-55778596D01*
X70044861Y-55691766D01*
X69857762Y-55630973D01*
X69663466Y-55600200D01*
X69663461Y-55600200D01*
X69466739Y-55600200D01*
X69466734Y-55600200D01*
X69272437Y-55630973D01*
X69085338Y-55691766D01*
X68910061Y-55781075D01*
X68819259Y-55847047D01*
X68750910Y-55896706D01*
X68750908Y-55896708D01*
X68750907Y-55896708D01*
X68611805Y-56035810D01*
X68585416Y-56072132D01*
X68530085Y-56114797D01*
X68460472Y-56120775D01*
X68398677Y-56088168D01*
X68384781Y-56072130D01*
X68358395Y-56035813D01*
X68358390Y-56035807D01*
X68219291Y-55896708D01*
X68219289Y-55896706D01*
X68060137Y-55781075D01*
X68055272Y-55778596D01*
X67884860Y-55691766D01*
X67697761Y-55630973D01*
X67503465Y-55600200D01*
X67503460Y-55600200D01*
X67306738Y-55600200D01*
X67306733Y-55600200D01*
X67112436Y-55630973D01*
X66925337Y-55691766D01*
X66750060Y-55781075D01*
X66659258Y-55847047D01*
X66590909Y-55896706D01*
X66590907Y-55896708D01*
X66590906Y-55896708D01*
X66451806Y-56035808D01*
X66425418Y-56072129D01*
X66370087Y-56114794D01*
X66300474Y-56120773D01*
X66238679Y-56088167D01*
X66224782Y-56072129D01*
X66198395Y-56035810D01*
X66059291Y-55896706D01*
X65900139Y-55781075D01*
X65895274Y-55778596D01*
X65724862Y-55691766D01*
X65537763Y-55630973D01*
X65343467Y-55600200D01*
X65343462Y-55600200D01*
X65146740Y-55600200D01*
X65146735Y-55600200D01*
X64952438Y-55630973D01*
X64765339Y-55691766D01*
X64590062Y-55781075D01*
X64499260Y-55847047D01*
X64430911Y-55896706D01*
X64430909Y-55896708D01*
X64430908Y-55896708D01*
X64291806Y-56035810D01*
X64265417Y-56072132D01*
X64210086Y-56114797D01*
X64140473Y-56120775D01*
X64078678Y-56088168D01*
X64064782Y-56072130D01*
X64038396Y-56035813D01*
X64038391Y-56035807D01*
X63899292Y-55896708D01*
X63899290Y-55896706D01*
X63740138Y-55781075D01*
X63735273Y-55778596D01*
X63564861Y-55691766D01*
X63377762Y-55630973D01*
X63183466Y-55600200D01*
X63183461Y-55600200D01*
X62986739Y-55600200D01*
X62986734Y-55600200D01*
X62792437Y-55630973D01*
X62605338Y-55691766D01*
X62430061Y-55781075D01*
X62339259Y-55847047D01*
X62270910Y-55896706D01*
X62270908Y-55896708D01*
X62270907Y-55896708D01*
X62131805Y-56035810D01*
X62105416Y-56072132D01*
X62050085Y-56114797D01*
X61980472Y-56120775D01*
X61918677Y-56088168D01*
X61904781Y-56072130D01*
X61878395Y-56035813D01*
X61878390Y-56035807D01*
X61739291Y-55896708D01*
X61739289Y-55896706D01*
X61580137Y-55781075D01*
X61575272Y-55778596D01*
X61404860Y-55691766D01*
X61217761Y-55630973D01*
X61023465Y-55600200D01*
X61023460Y-55600200D01*
X60826738Y-55600200D01*
X60826733Y-55600200D01*
X60632436Y-55630973D01*
X60445337Y-55691766D01*
X60270060Y-55781075D01*
X60179258Y-55847047D01*
X60110909Y-55896706D01*
X60110907Y-55896708D01*
X60110906Y-55896708D01*
X59971804Y-56035810D01*
X59918169Y-56109632D01*
X59862839Y-56152297D01*
X59808318Y-56160334D01*
X59244225Y-56724426D01*
X59226647Y-56658821D01*
X59161440Y-56545879D01*
X59069222Y-56453661D01*
X58956280Y-56388454D01*
X58890673Y-56370874D01*
X59454725Y-55806822D01*
X59419876Y-55781502D01*
X59244666Y-55692227D01*
X59244663Y-55692226D01*
X59057647Y-55631462D01*
X58863422Y-55600700D01*
X58666780Y-55600700D01*
X58472554Y-55631462D01*
X58285538Y-55692226D01*
X58285535Y-55692227D01*
X58110321Y-55781505D01*
X58075476Y-55806821D01*
X58075476Y-55806823D01*
X58639529Y-56370874D01*
X58573922Y-56388454D01*
X58460980Y-56453661D01*
X58368762Y-56545879D01*
X58303555Y-56658821D01*
X58285975Y-56724427D01*
X57721924Y-56160375D01*
X57721922Y-56160375D01*
X57696606Y-56195220D01*
X57607328Y-56370434D01*
X57607327Y-56370437D01*
X57546563Y-56557453D01*
X57515801Y-56751678D01*
X57515801Y-56948321D01*
X57546563Y-57142546D01*
X57607327Y-57329562D01*
X57607328Y-57329565D01*
X57696603Y-57504775D01*
X57721923Y-57539623D01*
X57721923Y-57539624D01*
X58285975Y-56975572D01*
X58303555Y-57041179D01*
X58368762Y-57154121D01*
X58460980Y-57246339D01*
X58573922Y-57311546D01*
X58639528Y-57329125D01*
X58075476Y-57893176D01*
X58075476Y-57893177D01*
X58110324Y-57918496D01*
X58285535Y-58007772D01*
X58285538Y-58007773D01*
X58472554Y-58068537D01*
X58666780Y-58099300D01*
X58863422Y-58099300D01*
X59057647Y-58068537D01*
X59244663Y-58007773D01*
X59244676Y-58007767D01*
X59419870Y-57918500D01*
X59419875Y-57918497D01*
X59454725Y-57893176D01*
X58890674Y-57329125D01*
X58956280Y-57311546D01*
X59069222Y-57246339D01*
X59161440Y-57154121D01*
X59226647Y-57041179D01*
X59244226Y-56975572D01*
X59808333Y-57539679D01*
X59876502Y-57554001D01*
X59918170Y-57590368D01*
X59971805Y-57664190D01*
X60110909Y-57803294D01*
X60270061Y-57918925D01*
X60324598Y-57946713D01*
X60445337Y-58008233D01*
X60445339Y-58008233D01*
X60445342Y-58008235D01*
X60545629Y-58040820D01*
X60632436Y-58069026D01*
X60826733Y-58099800D01*
X60826738Y-58099800D01*
X61023465Y-58099800D01*
X61217761Y-58069026D01*
X61219266Y-58068537D01*
X61404856Y-58008235D01*
X61580137Y-57918925D01*
X61739289Y-57803294D01*
X61878393Y-57664190D01*
X61904782Y-57627868D01*
X61960109Y-57585203D01*
X62029723Y-57579223D01*
X62091518Y-57611829D01*
X62105413Y-57627864D01*
X62131806Y-57664190D01*
X62270910Y-57803294D01*
X62270913Y-57803296D01*
X62433485Y-57921412D01*
X62476151Y-57976742D01*
X62484600Y-58021730D01*
X62484600Y-59128402D01*
X62464915Y-59195441D01*
X62448281Y-59216083D01*
X54813333Y-66851030D01*
X54752010Y-66884515D01*
X54682318Y-66879531D01*
X54678201Y-66877911D01*
X54633255Y-66859294D01*
X54598897Y-66845063D01*
X54598893Y-66845062D01*
X54598889Y-66845061D01*
X54444245Y-66814300D01*
X54444242Y-66814300D01*
X54286558Y-66814300D01*
X54286555Y-66814300D01*
X54131910Y-66845061D01*
X54131898Y-66845064D01*
X53986227Y-66905402D01*
X53986214Y-66905409D01*
X53855111Y-66993010D01*
X53855107Y-66993013D01*
X53743613Y-67104507D01*
X53743610Y-67104511D01*
X53656009Y-67235614D01*
X53656002Y-67235627D01*
X53595664Y-67381298D01*
X53595661Y-67381310D01*
X53564900Y-67535953D01*
X42650500Y-67535953D01*
X42650500Y-64674038D01*
X44199500Y-64674038D01*
X44199500Y-64925962D01*
X44215339Y-65025962D01*
X44238910Y-65174785D01*
X44316760Y-65414383D01*
X44431132Y-65638848D01*
X44579201Y-65842649D01*
X44579205Y-65842654D01*
X44757345Y-66020794D01*
X44757350Y-66020798D01*
X44894984Y-66120794D01*
X44961155Y-66168870D01*
X45104184Y-66241747D01*
X45185616Y-66283239D01*
X45185618Y-66283239D01*
X45185621Y-66283241D01*
X45425215Y-66361090D01*
X45674038Y-66400500D01*
X45674039Y-66400500D01*
X45925961Y-66400500D01*
X45925962Y-66400500D01*
X46174785Y-66361090D01*
X46414379Y-66283241D01*
X46638845Y-66168870D01*
X46842656Y-66020793D01*
X47020793Y-65842656D01*
X47168870Y-65638845D01*
X47283241Y-65414379D01*
X47361090Y-65174785D01*
X47400500Y-64925962D01*
X47400500Y-64674038D01*
X47361090Y-64425215D01*
X47283241Y-64185621D01*
X47283239Y-64185618D01*
X47283239Y-64185616D01*
X47219820Y-64061151D01*
X47168870Y-63961155D01*
X47149952Y-63935117D01*
X47020798Y-63757350D01*
X47020794Y-63757345D01*
X46842654Y-63579205D01*
X46842649Y-63579201D01*
X46638848Y-63431132D01*
X46638847Y-63431131D01*
X46638845Y-63431130D01*
X46568747Y-63395413D01*
X46414383Y-63316760D01*
X46174785Y-63238910D01*
X45925962Y-63199500D01*
X45674038Y-63199500D01*
X45549626Y-63219205D01*
X45425214Y-63238910D01*
X45185616Y-63316760D01*
X44961151Y-63431132D01*
X44757350Y-63579201D01*
X44757345Y-63579205D01*
X44579205Y-63757345D01*
X44579201Y-63757350D01*
X44431132Y-63961151D01*
X44316760Y-64185616D01*
X44238910Y-64425214D01*
X44223071Y-64525215D01*
X44199500Y-64674038D01*
X42650500Y-64674038D01*
X42650500Y-54587021D01*
X45445196Y-54587021D01*
X45445196Y-54822980D01*
X45470846Y-55017804D01*
X45475993Y-55056898D01*
X45475994Y-55056900D01*
X45537059Y-55284800D01*
X45537062Y-55284810D01*
X45627349Y-55502781D01*
X45627351Y-55502785D01*
X45745323Y-55707117D01*
X45745328Y-55707123D01*
X45745329Y-55707125D01*
X45888954Y-55894302D01*
X45888960Y-55894309D01*
X46055787Y-56061136D01*
X46055794Y-56061142D01*
X46133510Y-56120775D01*
X46242980Y-56204774D01*
X46447312Y-56322746D01*
X46665296Y-56413038D01*
X46893199Y-56474104D01*
X47127124Y-56504901D01*
X47127131Y-56504901D01*
X47363061Y-56504901D01*
X47363068Y-56504901D01*
X47596993Y-56474104D01*
X47824896Y-56413038D01*
X48042880Y-56322746D01*
X48247212Y-56204774D01*
X48434399Y-56061141D01*
X48601236Y-55894304D01*
X48668364Y-55806821D01*
X48690022Y-55778596D01*
X48744862Y-55707126D01*
X48744863Y-55707125D01*
X48744869Y-55707117D01*
X48862841Y-55502785D01*
X48953133Y-55284801D01*
X49014199Y-55056898D01*
X49044996Y-54822973D01*
X49044996Y-54587029D01*
X49044995Y-54587021D01*
X92245204Y-54587021D01*
X92245204Y-54822980D01*
X92270854Y-55017804D01*
X92276001Y-55056898D01*
X92276002Y-55056900D01*
X92337067Y-55284800D01*
X92337070Y-55284810D01*
X92427357Y-55502781D01*
X92427359Y-55502785D01*
X92545331Y-55707117D01*
X92545336Y-55707123D01*
X92545337Y-55707125D01*
X92688962Y-55894302D01*
X92688968Y-55894309D01*
X92855795Y-56061136D01*
X92855802Y-56061142D01*
X92933518Y-56120775D01*
X93042988Y-56204774D01*
X93247320Y-56322746D01*
X93465304Y-56413038D01*
X93693207Y-56474104D01*
X93927132Y-56504901D01*
X93927139Y-56504901D01*
X94163069Y-56504901D01*
X94163076Y-56504901D01*
X94397001Y-56474104D01*
X94624904Y-56413038D01*
X94842888Y-56322746D01*
X95047220Y-56204774D01*
X95234407Y-56061141D01*
X95401244Y-55894304D01*
X95544877Y-55707117D01*
X95662849Y-55502785D01*
X95753141Y-55284801D01*
X95814207Y-55056898D01*
X95845004Y-54822973D01*
X95845004Y-54587029D01*
X95814207Y-54353104D01*
X95753141Y-54125201D01*
X95662849Y-53907217D01*
X95544877Y-53702885D01*
X95487797Y-53628497D01*
X95401245Y-53515699D01*
X95401239Y-53515692D01*
X95234412Y-53348865D01*
X95234405Y-53348859D01*
X95047228Y-53205234D01*
X95047226Y-53205233D01*
X95047220Y-53205228D01*
X94842888Y-53087256D01*
X94842884Y-53087254D01*
X94624913Y-52996967D01*
X94624906Y-52996965D01*
X94624904Y-52996964D01*
X94397001Y-52935898D01*
X94357907Y-52930751D01*
X94163083Y-52905101D01*
X94163076Y-52905101D01*
X93927132Y-52905101D01*
X93927124Y-52905101D01*
X93704467Y-52934415D01*
X93693207Y-52935898D01*
X93616916Y-52956340D01*
X93465304Y-52996964D01*
X93465294Y-52996967D01*
X93247323Y-53087254D01*
X93247319Y-53087256D01*
X93042988Y-53205228D01*
X93042979Y-53205234D01*
X92855802Y-53348859D01*
X92855795Y-53348865D01*
X92688968Y-53515692D01*
X92688962Y-53515699D01*
X92545337Y-53702876D01*
X92545331Y-53702885D01*
X92427359Y-53907216D01*
X92427357Y-53907220D01*
X92337070Y-54125191D01*
X92337067Y-54125201D01*
X92276002Y-54353101D01*
X92276000Y-54353112D01*
X92245204Y-54587021D01*
X49044995Y-54587021D01*
X49014199Y-54353104D01*
X48953133Y-54125201D01*
X48862841Y-53907217D01*
X48744869Y-53702885D01*
X48687789Y-53628497D01*
X48601237Y-53515699D01*
X48601231Y-53515692D01*
X48434404Y-53348865D01*
X48434397Y-53348859D01*
X48247220Y-53205234D01*
X48247218Y-53205233D01*
X48247212Y-53205228D01*
X48042880Y-53087256D01*
X48042876Y-53087254D01*
X47824905Y-52996967D01*
X47824898Y-52996965D01*
X47824896Y-52996964D01*
X47596993Y-52935898D01*
X47557899Y-52930751D01*
X47363075Y-52905101D01*
X47363068Y-52905101D01*
X47127124Y-52905101D01*
X47127116Y-52905101D01*
X46904459Y-52934415D01*
X46893199Y-52935898D01*
X46816908Y-52956340D01*
X46665296Y-52996964D01*
X46665286Y-52996967D01*
X46447315Y-53087254D01*
X46447311Y-53087256D01*
X46242980Y-53205228D01*
X46242971Y-53205234D01*
X46055794Y-53348859D01*
X46055787Y-53348865D01*
X45888960Y-53515692D01*
X45888954Y-53515699D01*
X45745329Y-53702876D01*
X45745323Y-53702885D01*
X45627351Y-53907216D01*
X45627349Y-53907220D01*
X45537062Y-54125191D01*
X45537059Y-54125201D01*
X45475994Y-54353101D01*
X45475992Y-54353112D01*
X45445196Y-54587021D01*
X42650500Y-54587021D01*
X42650500Y-52461679D01*
X57515801Y-52461679D01*
X57515801Y-52658322D01*
X57546563Y-52852547D01*
X57607327Y-53039563D01*
X57607328Y-53039566D01*
X57696603Y-53214776D01*
X57721923Y-53249624D01*
X57721923Y-53249625D01*
X58285975Y-52685573D01*
X58303555Y-52751180D01*
X58368762Y-52864122D01*
X58460980Y-52956340D01*
X58573922Y-53021547D01*
X58639528Y-53039126D01*
X58075476Y-53603177D01*
X58075476Y-53603178D01*
X58110324Y-53628497D01*
X58285535Y-53717773D01*
X58285538Y-53717774D01*
X58472554Y-53778538D01*
X58666780Y-53809301D01*
X58863422Y-53809301D01*
X59057647Y-53778538D01*
X59244663Y-53717774D01*
X59244676Y-53717768D01*
X59419870Y-53628501D01*
X59419875Y-53628498D01*
X59454725Y-53603177D01*
X58890674Y-53039126D01*
X58956280Y-53021547D01*
X59069222Y-52956340D01*
X59161440Y-52864122D01*
X59226647Y-52751180D01*
X59244226Y-52685573D01*
X59808277Y-53249624D01*
X59835373Y-53247492D01*
X59854831Y-53247492D01*
X59881922Y-53249624D01*
X60445973Y-52685573D01*
X60463553Y-52751180D01*
X60528760Y-52864122D01*
X60620978Y-52956340D01*
X60733920Y-53021547D01*
X60799526Y-53039126D01*
X60235474Y-53603177D01*
X60235474Y-53603178D01*
X60270322Y-53628497D01*
X60445533Y-53717773D01*
X60445536Y-53717774D01*
X60632552Y-53778538D01*
X60826778Y-53809301D01*
X61023420Y-53809301D01*
X61217645Y-53778538D01*
X61404661Y-53717774D01*
X61404674Y-53717768D01*
X61579868Y-53628501D01*
X61579873Y-53628498D01*
X61614723Y-53603177D01*
X61050672Y-53039126D01*
X61116278Y-53021547D01*
X61229220Y-52956340D01*
X61321438Y-52864122D01*
X61386645Y-52751180D01*
X61404224Y-52685573D01*
X61968275Y-53249624D01*
X61995373Y-53247492D01*
X62014831Y-53247492D01*
X62041923Y-53249624D01*
X62605974Y-52685572D01*
X62623554Y-52751180D01*
X62688761Y-52864122D01*
X62780979Y-52956340D01*
X62893921Y-53021547D01*
X62959527Y-53039126D01*
X62395475Y-53603177D01*
X62395475Y-53603178D01*
X62430323Y-53628497D01*
X62605534Y-53717773D01*
X62605537Y-53717774D01*
X62792553Y-53778538D01*
X62986779Y-53809301D01*
X63183421Y-53809301D01*
X63377646Y-53778538D01*
X63564662Y-53717774D01*
X63564675Y-53717768D01*
X63739869Y-53628501D01*
X63739874Y-53628498D01*
X63774724Y-53603177D01*
X63210673Y-53039126D01*
X63276279Y-53021547D01*
X63389221Y-52956340D01*
X63481439Y-52864122D01*
X63546646Y-52751180D01*
X63564225Y-52685573D01*
X64128276Y-53249624D01*
X64155374Y-53247492D01*
X64174832Y-53247492D01*
X64201924Y-53249624D01*
X64765975Y-52685573D01*
X64783555Y-52751180D01*
X64848762Y-52864122D01*
X64940980Y-52956340D01*
X65053922Y-53021547D01*
X65119528Y-53039126D01*
X64555476Y-53603177D01*
X64555476Y-53603178D01*
X64590324Y-53628497D01*
X64765535Y-53717773D01*
X64765538Y-53717774D01*
X64952554Y-53778538D01*
X65146780Y-53809301D01*
X65343422Y-53809301D01*
X65537647Y-53778538D01*
X65724663Y-53717774D01*
X65724676Y-53717768D01*
X65899870Y-53628501D01*
X65899875Y-53628498D01*
X65934725Y-53603177D01*
X65370674Y-53039126D01*
X65436280Y-53021547D01*
X65549222Y-52956340D01*
X65641440Y-52864122D01*
X65706647Y-52751180D01*
X65724226Y-52685573D01*
X66288277Y-53249624D01*
X66315373Y-53247492D01*
X66334831Y-53247492D01*
X66361922Y-53249624D01*
X66925973Y-52685573D01*
X66943553Y-52751180D01*
X67008760Y-52864122D01*
X67100978Y-52956340D01*
X67213920Y-53021547D01*
X67279526Y-53039126D01*
X66715474Y-53603177D01*
X66715474Y-53603178D01*
X66750322Y-53628497D01*
X66925533Y-53717773D01*
X66925536Y-53717774D01*
X67112552Y-53778538D01*
X67306778Y-53809301D01*
X67503420Y-53809301D01*
X67697645Y-53778538D01*
X67884661Y-53717774D01*
X67884674Y-53717768D01*
X68059868Y-53628501D01*
X68059873Y-53628498D01*
X68094723Y-53603177D01*
X67530672Y-53039126D01*
X67596278Y-53021547D01*
X67709220Y-52956340D01*
X67801438Y-52864122D01*
X67866645Y-52751180D01*
X67884224Y-52685573D01*
X68448275Y-53249624D01*
X68475373Y-53247492D01*
X68494831Y-53247492D01*
X68521923Y-53249624D01*
X69085974Y-52685573D01*
X69103554Y-52751180D01*
X69168761Y-52864122D01*
X69260979Y-52956340D01*
X69373921Y-53021547D01*
X69439527Y-53039126D01*
X68875475Y-53603177D01*
X68875475Y-53603178D01*
X68910323Y-53628497D01*
X69085534Y-53717773D01*
X69085537Y-53717774D01*
X69272553Y-53778538D01*
X69466779Y-53809301D01*
X69663421Y-53809301D01*
X69857646Y-53778538D01*
X70044662Y-53717774D01*
X70044675Y-53717768D01*
X70219869Y-53628501D01*
X70219874Y-53628498D01*
X70254724Y-53603177D01*
X69690673Y-53039126D01*
X69756279Y-53021547D01*
X69869221Y-52956340D01*
X69961439Y-52864122D01*
X70026646Y-52751180D01*
X70044225Y-52685573D01*
X70608276Y-53249624D01*
X70635373Y-53247492D01*
X70654831Y-53247492D01*
X70681923Y-53249624D01*
X71245974Y-52685573D01*
X71263554Y-52751180D01*
X71328761Y-52864122D01*
X71420979Y-52956340D01*
X71533921Y-53021547D01*
X71599527Y-53039126D01*
X71035475Y-53603177D01*
X71035475Y-53603178D01*
X71070323Y-53628497D01*
X71245534Y-53717773D01*
X71245537Y-53717774D01*
X71432553Y-53778538D01*
X71626779Y-53809301D01*
X71823421Y-53809301D01*
X72017646Y-53778538D01*
X72204662Y-53717774D01*
X72204675Y-53717768D01*
X72379869Y-53628501D01*
X72379874Y-53628498D01*
X72414724Y-53603177D01*
X71850673Y-53039126D01*
X71916279Y-53021547D01*
X72029221Y-52956340D01*
X72121439Y-52864122D01*
X72186646Y-52751180D01*
X72204225Y-52685573D01*
X72768331Y-53249679D01*
X72836503Y-53264000D01*
X72878172Y-53300369D01*
X72913406Y-53348865D01*
X72931807Y-53374191D01*
X73070911Y-53513295D01*
X73230063Y-53628926D01*
X73312875Y-53671121D01*
X73405339Y-53718234D01*
X73405341Y-53718234D01*
X73405344Y-53718236D01*
X73505631Y-53750821D01*
X73592438Y-53779027D01*
X73786735Y-53809801D01*
X73786740Y-53809801D01*
X73983467Y-53809801D01*
X74177763Y-53779027D01*
X74179268Y-53778538D01*
X74364858Y-53718236D01*
X74540139Y-53628926D01*
X74699291Y-53513295D01*
X74838395Y-53374191D01*
X74864782Y-53337871D01*
X74920111Y-53295206D01*
X74989725Y-53289227D01*
X75051520Y-53321832D01*
X75065415Y-53337869D01*
X75091805Y-53374191D01*
X75230909Y-53513295D01*
X75390061Y-53628926D01*
X75472873Y-53671121D01*
X75565337Y-53718234D01*
X75565339Y-53718234D01*
X75565342Y-53718236D01*
X75665629Y-53750821D01*
X75752436Y-53779027D01*
X75946733Y-53809801D01*
X75946738Y-53809801D01*
X76143465Y-53809801D01*
X76337761Y-53779027D01*
X76339266Y-53778538D01*
X76524856Y-53718236D01*
X76700137Y-53628926D01*
X76859289Y-53513295D01*
X76998393Y-53374191D01*
X77024782Y-53337869D01*
X77080109Y-53295204D01*
X77149723Y-53289224D01*
X77211518Y-53321830D01*
X77225413Y-53337865D01*
X77251806Y-53374191D01*
X77390910Y-53513295D01*
X77550062Y-53628926D01*
X77632874Y-53671121D01*
X77725338Y-53718234D01*
X77725340Y-53718234D01*
X77725343Y-53718236D01*
X77825630Y-53750821D01*
X77912437Y-53779027D01*
X78106734Y-53809801D01*
X78106739Y-53809801D01*
X78303466Y-53809801D01*
X78497762Y-53779027D01*
X78499267Y-53778538D01*
X78684857Y-53718236D01*
X78860138Y-53628926D01*
X79019290Y-53513295D01*
X79158394Y-53374191D01*
X79184783Y-53337869D01*
X79240110Y-53295204D01*
X79309724Y-53289224D01*
X79371519Y-53321830D01*
X79385414Y-53337865D01*
X79411807Y-53374191D01*
X79550911Y-53513295D01*
X79710063Y-53628926D01*
X79792875Y-53671121D01*
X79885339Y-53718234D01*
X79885341Y-53718234D01*
X79885344Y-53718236D01*
X79985631Y-53750821D01*
X80072438Y-53779027D01*
X80266735Y-53809801D01*
X80266740Y-53809801D01*
X80463467Y-53809801D01*
X80657763Y-53779027D01*
X80659268Y-53778538D01*
X80844858Y-53718236D01*
X81020139Y-53628926D01*
X81179291Y-53513295D01*
X81318395Y-53374191D01*
X81344782Y-53337871D01*
X81400111Y-53295206D01*
X81469725Y-53289227D01*
X81531520Y-53321832D01*
X81545415Y-53337869D01*
X81571805Y-53374191D01*
X81710909Y-53513295D01*
X81870061Y-53628926D01*
X81952873Y-53671121D01*
X82045337Y-53718234D01*
X82045339Y-53718234D01*
X82045342Y-53718236D01*
X82145629Y-53750821D01*
X82232436Y-53779027D01*
X82426733Y-53809801D01*
X82426738Y-53809801D01*
X82623465Y-53809801D01*
X82817761Y-53779027D01*
X82819266Y-53778538D01*
X83004856Y-53718236D01*
X83180137Y-53628926D01*
X83339289Y-53513295D01*
X83478393Y-53374191D01*
X83594024Y-53215039D01*
X83683334Y-53039758D01*
X83744125Y-52852663D01*
X83744143Y-52852547D01*
X83774899Y-52658367D01*
X83774899Y-52461634D01*
X83744125Y-52267338D01*
X83683332Y-52080239D01*
X83605099Y-51926699D01*
X83594024Y-51904963D01*
X83478393Y-51745811D01*
X83339289Y-51606707D01*
X83180137Y-51491076D01*
X83004860Y-51401767D01*
X82817761Y-51340974D01*
X82623465Y-51310201D01*
X82623460Y-51310201D01*
X82426738Y-51310201D01*
X82426733Y-51310201D01*
X82232436Y-51340974D01*
X82045337Y-51401767D01*
X81870060Y-51491076D01*
X81779258Y-51557048D01*
X81710909Y-51606707D01*
X81710907Y-51606709D01*
X81710906Y-51606709D01*
X81571806Y-51745809D01*
X81545418Y-51782130D01*
X81490087Y-51824795D01*
X81420474Y-51830774D01*
X81358679Y-51798168D01*
X81344782Y-51782130D01*
X81318397Y-51745814D01*
X81318395Y-51745811D01*
X81179291Y-51606707D01*
X81020139Y-51491076D01*
X80844862Y-51401767D01*
X80657763Y-51340974D01*
X80463467Y-51310201D01*
X80463462Y-51310201D01*
X80266740Y-51310201D01*
X80266735Y-51310201D01*
X80072438Y-51340974D01*
X79885339Y-51401767D01*
X79710062Y-51491076D01*
X79619260Y-51557048D01*
X79550911Y-51606707D01*
X79550909Y-51606709D01*
X79550908Y-51606709D01*
X79411806Y-51745811D01*
X79385417Y-51782133D01*
X79330086Y-51824798D01*
X79260473Y-51830776D01*
X79198678Y-51798169D01*
X79184782Y-51782131D01*
X79158396Y-51745814D01*
X79158391Y-51745808D01*
X79019292Y-51606709D01*
X79019290Y-51606707D01*
X78860138Y-51491076D01*
X78684861Y-51401767D01*
X78497762Y-51340974D01*
X78303466Y-51310201D01*
X78303461Y-51310201D01*
X78106739Y-51310201D01*
X78106734Y-51310201D01*
X77912437Y-51340974D01*
X77725338Y-51401767D01*
X77550061Y-51491076D01*
X77459259Y-51557048D01*
X77390910Y-51606707D01*
X77390908Y-51606709D01*
X77390907Y-51606709D01*
X77251805Y-51745811D01*
X77225416Y-51782133D01*
X77170085Y-51824798D01*
X77100472Y-51830776D01*
X77038677Y-51798169D01*
X77024781Y-51782131D01*
X76998395Y-51745814D01*
X76998390Y-51745808D01*
X76859291Y-51606709D01*
X76859289Y-51606707D01*
X76700137Y-51491076D01*
X76524860Y-51401767D01*
X76337761Y-51340974D01*
X76143465Y-51310201D01*
X76143460Y-51310201D01*
X75946738Y-51310201D01*
X75946733Y-51310201D01*
X75752436Y-51340974D01*
X75565337Y-51401767D01*
X75390060Y-51491076D01*
X75299258Y-51557048D01*
X75230909Y-51606707D01*
X75230907Y-51606709D01*
X75230906Y-51606709D01*
X75091806Y-51745809D01*
X75065418Y-51782130D01*
X75010087Y-51824795D01*
X74940474Y-51830774D01*
X74878679Y-51798168D01*
X74864782Y-51782130D01*
X74838397Y-51745814D01*
X74838395Y-51745811D01*
X74699291Y-51606707D01*
X74540139Y-51491076D01*
X74364862Y-51401767D01*
X74177763Y-51340974D01*
X73983467Y-51310201D01*
X73983462Y-51310201D01*
X73786740Y-51310201D01*
X73786735Y-51310201D01*
X73592438Y-51340974D01*
X73405339Y-51401767D01*
X73230062Y-51491076D01*
X73139260Y-51557048D01*
X73070911Y-51606707D01*
X73070909Y-51606709D01*
X73070908Y-51606709D01*
X72931806Y-51745811D01*
X72878171Y-51819633D01*
X72822841Y-51862298D01*
X72768316Y-51870336D01*
X72204224Y-52434427D01*
X72186646Y-52368822D01*
X72121439Y-52255880D01*
X72029221Y-52163662D01*
X71916279Y-52098455D01*
X71850672Y-52080875D01*
X72414724Y-51516823D01*
X72379875Y-51491503D01*
X72204665Y-51402228D01*
X72204662Y-51402227D01*
X72017646Y-51341463D01*
X71823421Y-51310701D01*
X71626779Y-51310701D01*
X71432553Y-51341463D01*
X71245537Y-51402227D01*
X71245534Y-51402228D01*
X71070320Y-51491506D01*
X71035475Y-51516822D01*
X71035475Y-51516824D01*
X71599528Y-52080875D01*
X71533921Y-52098455D01*
X71420979Y-52163662D01*
X71328761Y-52255880D01*
X71263554Y-52368822D01*
X71245974Y-52434428D01*
X70681922Y-51870375D01*
X70654829Y-51872508D01*
X70635374Y-51872508D01*
X70608277Y-51870375D01*
X70044224Y-52434427D01*
X70026646Y-52368822D01*
X69961439Y-52255880D01*
X69869221Y-52163662D01*
X69756279Y-52098455D01*
X69690672Y-52080875D01*
X70254724Y-51516823D01*
X70219875Y-51491503D01*
X70044665Y-51402228D01*
X70044662Y-51402227D01*
X69857646Y-51341463D01*
X69663421Y-51310701D01*
X69466779Y-51310701D01*
X69272553Y-51341463D01*
X69085537Y-51402227D01*
X69085534Y-51402228D01*
X68910320Y-51491506D01*
X68875475Y-51516822D01*
X68875475Y-51516824D01*
X69439528Y-52080875D01*
X69373921Y-52098455D01*
X69260979Y-52163662D01*
X69168761Y-52255880D01*
X69103554Y-52368822D01*
X69085974Y-52434428D01*
X68521922Y-51870375D01*
X68494829Y-51872508D01*
X68475374Y-51872508D01*
X68448276Y-51870375D01*
X67884223Y-52434427D01*
X67866645Y-52368822D01*
X67801438Y-52255880D01*
X67709220Y-52163662D01*
X67596278Y-52098455D01*
X67530671Y-52080875D01*
X68094723Y-51516823D01*
X68059874Y-51491503D01*
X67884664Y-51402228D01*
X67884661Y-51402227D01*
X67697645Y-51341463D01*
X67503420Y-51310701D01*
X67306778Y-51310701D01*
X67112552Y-51341463D01*
X66925536Y-51402227D01*
X66925533Y-51402228D01*
X66750319Y-51491506D01*
X66715474Y-51516822D01*
X66715474Y-51516824D01*
X67279527Y-52080875D01*
X67213920Y-52098455D01*
X67100978Y-52163662D01*
X67008760Y-52255880D01*
X66943553Y-52368822D01*
X66925973Y-52434428D01*
X66361921Y-51870375D01*
X66334830Y-51872508D01*
X66315374Y-51872508D01*
X66288278Y-51870375D01*
X65724225Y-52434427D01*
X65706647Y-52368822D01*
X65641440Y-52255880D01*
X65549222Y-52163662D01*
X65436280Y-52098455D01*
X65370673Y-52080875D01*
X65934725Y-51516823D01*
X65899876Y-51491503D01*
X65724666Y-51402228D01*
X65724663Y-51402227D01*
X65537647Y-51341463D01*
X65343422Y-51310701D01*
X65146780Y-51310701D01*
X64952554Y-51341463D01*
X64765538Y-51402227D01*
X64765535Y-51402228D01*
X64590321Y-51491506D01*
X64555476Y-51516822D01*
X64555476Y-51516824D01*
X65119529Y-52080875D01*
X65053922Y-52098455D01*
X64940980Y-52163662D01*
X64848762Y-52255880D01*
X64783555Y-52368822D01*
X64765975Y-52434428D01*
X64201923Y-51870375D01*
X64174830Y-51872508D01*
X64155375Y-51872508D01*
X64128277Y-51870375D01*
X63564224Y-52434427D01*
X63546646Y-52368822D01*
X63481439Y-52255880D01*
X63389221Y-52163662D01*
X63276279Y-52098455D01*
X63210672Y-52080875D01*
X63774724Y-51516823D01*
X63739875Y-51491503D01*
X63564665Y-51402228D01*
X63564662Y-51402227D01*
X63377646Y-51341463D01*
X63183421Y-51310701D01*
X62986779Y-51310701D01*
X62792553Y-51341463D01*
X62605537Y-51402227D01*
X62605534Y-51402228D01*
X62430320Y-51491506D01*
X62395475Y-51516822D01*
X62395475Y-51516824D01*
X62959528Y-52080875D01*
X62893921Y-52098455D01*
X62780979Y-52163662D01*
X62688761Y-52255880D01*
X62623554Y-52368822D01*
X62605974Y-52434428D01*
X62041922Y-51870375D01*
X62014829Y-51872508D01*
X61995374Y-51872508D01*
X61968276Y-51870375D01*
X61404223Y-52434427D01*
X61386645Y-52368822D01*
X61321438Y-52255880D01*
X61229220Y-52163662D01*
X61116278Y-52098455D01*
X61050671Y-52080875D01*
X61614723Y-51516823D01*
X61579874Y-51491503D01*
X61404664Y-51402228D01*
X61404661Y-51402227D01*
X61217645Y-51341463D01*
X61023420Y-51310701D01*
X60826778Y-51310701D01*
X60632552Y-51341463D01*
X60445536Y-51402227D01*
X60445533Y-51402228D01*
X60270319Y-51491506D01*
X60235474Y-51516822D01*
X60235474Y-51516824D01*
X60799527Y-52080875D01*
X60733920Y-52098455D01*
X60620978Y-52163662D01*
X60528760Y-52255880D01*
X60463553Y-52368822D01*
X60445973Y-52434428D01*
X59881921Y-51870375D01*
X59854830Y-51872508D01*
X59835374Y-51872508D01*
X59808278Y-51870375D01*
X59244225Y-52434427D01*
X59226647Y-52368822D01*
X59161440Y-52255880D01*
X59069222Y-52163662D01*
X58956280Y-52098455D01*
X58890673Y-52080875D01*
X59454725Y-51516823D01*
X59419876Y-51491503D01*
X59244666Y-51402228D01*
X59244663Y-51402227D01*
X59057647Y-51341463D01*
X58863422Y-51310701D01*
X58666780Y-51310701D01*
X58472554Y-51341463D01*
X58285538Y-51402227D01*
X58285535Y-51402228D01*
X58110321Y-51491506D01*
X58075476Y-51516822D01*
X58075476Y-51516824D01*
X58639529Y-52080875D01*
X58573922Y-52098455D01*
X58460980Y-52163662D01*
X58368762Y-52255880D01*
X58303555Y-52368822D01*
X58285975Y-52434428D01*
X57721924Y-51870376D01*
X57721922Y-51870376D01*
X57696606Y-51905221D01*
X57607328Y-52080435D01*
X57607327Y-52080438D01*
X57546563Y-52267454D01*
X57515801Y-52461679D01*
X42650500Y-52461679D01*
X42650500Y-35974551D01*
X42670185Y-35907512D01*
X42722989Y-35861757D01*
X42774548Y-35850551D01*
X98500592Y-35873835D01*
G37*
%TD.AperFunction*%
%TD*%
M02*
